# https://github.com/mikedh/trimesh
v 2870.01149312 1560.95496412 28.62503717
v 1540.85685776 1549.19603609 145.97125314
v 2870.01149312 1560.72868226 88.91140313
v 2904.79689150 1207.50908661 71.35856325
v 2904.79689150 1207.50908661 -33.15181897
v 2870.01149312 1533.59283277 -17.35250621
v 633.51235966 1523.41679934 -17.26481974
v 573.29559469 1523.19069722 -17.15960946
v 513.07873985 1522.96459509 -17.03687537
v 331.84368878 1522.06018660 -16.58094170
v 150.90097086 1521.15541864 -16.05489030
v -81.19681339 1519.79880590 -15.30087207
v 573.29559469 1539.02000267 28.62503717
v 1416.91550974 1547.83924362 88.91140313
v 1537.64146269 1548.96993397 88.91140313
v 2870.01149312 1559.14596740 145.97125314
v 392.35278690 1537.21100594 28.62503717
v -30.04183693 1532.91452640 88.91140313
v -26.82635199 1532.91452640 145.97125314
v 2870.01149312 1474.34598840 145.97125314
v 2904.79689150 79.55768533 63.95866130
v 2904.79689150 79.55768533 -33.15181897
v 2869.42682682 79.55768533 -33.16934279
v 2870.01149312 1477.51186746 -33.15181897
v 753.94597946 1477.51186746 -33.15181897
v 694.02150271 1477.51186746 -33.13427270
v 633.51235966 1477.51186746 -33.08167879
v 753.94597946 1523.86900359 -17.35250621
v 694.02150271 1523.64290147 -17.31743611
v 513.07873985 1477.51186746 -32.85371195
v 452.56964173 1477.51186746 -32.71343158
v 331.84368878 1477.51186746 -32.39780074
v 150.90097086 1477.51186746 -31.85420307
v -30.04183693 1477.51186746 -31.29305912
v -81.19681339 1477.51186746 -31.10018484
v -81.48914655 79.55768533 -33.13427270
v -81.19681339 1532.23604029 28.62503717
v -81.19681339 1532.23604029 145.97125314
v 1176.34060329 -749.21976209 130.04920628
v 1848.37192207 -206.50052556 130.48759367
v 2869.42682682 -749.21976209 48.51007193
v -81.19681339 1442.00898126 145.97125314
v 2869.42682682 -749.21976209 -33.16934279
v 1848.37192207 79.55768533 -33.16934279
v -81.19681339 1417.13433274 -33.15181897
v 573.29559469 1477.51186746 -32.97644604
v -81.48914655 -749.21976209 -33.13427270
v -81.48914655 79.55768533 47.12479203
v 754.82288905 -749.21976209 128.24306279
v -81.48914655 -749.21976209 47.12479203
v 131.31590783 -150.41956026 130.48759367
v 138.03912099 -171.44993348 130.48759367
v 154.40869908 -204.46533685 130.48759367
v 1848.37192207 -749.21976209 -33.16934279
v -81.19681339 79.55768533 -33.15181897
v 694.02150271 -749.21976209 127.29617028
v 633.80469281 -749.21976209 124.96397540
f 1 2 3
f 1 3 4
f 1 4 5
f 1 5 6
f 1 6 7
f 1 7 8
f 1 8 9
f 1 9 10
f 1 10 11
f 1 11 12
f 1 12 13
f 1 13 14
f 1 14 15
f 1 15 2
f 2 16 3
f 2 15 14
f 2 14 17
f 2 17 18
f 2 18 19
f 2 19 38
f 2 38 42
f 2 42 20
f 2 20 16
f 3 16 4
f 4 16 20
f 4 20 21
f 4 21 22
f 4 22 5
f 5 22 43
f 5 43 23
f 5 23 24
f 5 24 6
f 6 24 25
f 6 25 26
f 6 26 27
f 6 27 28
f 6 28 29
f 6 29 7
f 7 29 30
f 7 30 31
f 7 31 32
f 7 32 33
f 7 33 8
f 8 33 34
f 8 34 9
f 9 34 35
f 9 35 10
f 10 35 11
f 11 35 12
f 12 35 36
f 12 36 37
f 12 37 17
f 12 17 13
f 13 17 14
f 17 37 18
f 18 37 38
f 18 38 19
f 20 39 40
f 20 40 41
f 20 41 21
f 20 42 39
f 21 41 43
f 21 43 22
f 23 43 54
f 23 54 44
f 23 44 25
f 23 25 24
f 25 44 45
f 25 45 26
f 26 45 27
f 27 46 28
f 27 45 46
f 28 46 29
f 29 46 30
f 30 45 31
f 30 46 45
f 31 45 32
f 32 45 33
f 33 45 34
f 34 45 35
f 35 45 36
f 36 47 50
f 36 50 48
f 36 48 38
f 36 38 37
f 36 45 55
f 36 55 47
f 38 48 50
f 38 50 42
f 39 49 56
f 39 56 57
f 39 57 50
f 39 50 47
f 39 47 54
f 39 54 43
f 39 43 41
f 39 41 40
f 39 42 49
f 42 50 51
f 42 51 52
f 42 52 53
f 42 53 49
f 44 54 55
f 44 55 45
f 47 55 54
f 49 53 56
f 50 57 53
f 50 53 52
f 50 52 51
f 53 57 56

