# https://github.com/mikedh/trimesh
v -572.95280194 -814.05355759 518.41892029
v -624.24711519 -814.05355759 504.65715521
v -624.96684965 -995.06682009 505.84587634
v -624.37800460 -1236.22405634 506.12021388
v -624.24711519 -1296.51343280 506.16593306
v -623.00404777 -1345.47119268 505.43440373
v -583.15934478 -1345.47119268 505.43440373
v -520.34995410 -753.76418113 505.61728044
v -521.46222198 -331.73892783 506.07449470
v -521.59306645 -271.44959630 506.12021388
v -521.78933316 -211.16028724 506.16593306
v -522.37817822 -90.58162419 506.07449470
v -522.99973440 29.99699394 505.93733717
v -523.98111287 90.28632547 505.43440373
v -563.98937146 90.28632547 505.43440373
v -646.39397998 -814.05355759 450.75311930
v -646.68838005 -874.48806717 450.75311930
v -646.85198057 -995.06682009 450.75311930
v -645.41260151 -1296.51343280 450.75311930
v -644.03864468 -1345.47119268 450.75311930
v -640.01490756 -1345.47119268 461.26875524
v -562.12474786 -1345.47119268 450.75311930
v -497.90868925 -753.76418113 450.75311930
v -500.39491395 -271.44959630 450.75311930
v -500.75473625 -211.16028724 450.75311930
v -501.31087019 -150.87095571 450.75311930
v -503.17553872 29.99699394 450.75311930
v -505.17100679 90.28632547 450.75311930
v -530.81818588 131.10872244 496.93045661
v -556.56349833 131.10872244 496.93045661
v -585.12214666 90.28632547 450.75311930
v -751.76323125 -874.48806717 51.34198755
v -751.76323125 -1112.01356052 51.34198755
v -751.73052013 -1292.88142030 51.34198755
v -751.69780902 -1345.47119268 51.34198755
v -479.75285046 -1345.47119268 51.34198755
v -421.22893078 -814.05355759 51.34198755
v -417.59777201 -753.76418113 51.34198755
v -417.59777201 -737.49332052 51.34198755
v -417.72861648 -718.31696674 51.34198755
v -430.65031692 93.04655072 52.66786622
v -445.60028640 138.66305861 52.66786622
v -524.83164688 136.48394996 450.75311930
v -563.46599357 136.48394996 450.75311930
v -644.30033363 138.66305861 52.66786622
v -658.89043588 90.28632547 52.66786622
v -751.01087554 -869.54868834 51.34198755
v -689.70628616 -718.31696674 51.34198755
v -523.22871222 138.66305861 141.77642294
v -564.83995040 138.66305861 142.69081776
v -712.83452943 -750.13230343 51.34198755
v -737.92557458 -814.05355759 51.34198755
f 1 2 3
f 1 3 4
f 1 4 5
f 1 5 6
f 1 6 7
f 1 7 8
f 1 8 9
f 1 9 10
f 1 10 11
f 1 11 12
f 1 12 13
f 1 13 14
f 1 14 15
f 1 15 2
f 2 16 3
f 2 15 16
f 3 16 17
f 3 17 18
f 3 18 5
f 3 5 4
f 5 18 19
f 5 19 20
f 5 20 21
f 5 21 6
f 6 21 20
f 6 20 35
f 6 35 36
f 6 36 22
f 6 22 7
f 7 22 23
f 7 23 8
f 8 23 10
f 8 10 9
f 10 23 11
f 11 23 24
f 11 24 12
f 12 24 13
f 13 24 25
f 13 25 26
f 13 26 27
f 13 27 14
f 14 27 28
f 14 28 29
f 14 29 30
f 14 30 15
f 15 30 31
f 15 31 16
f 16 32 17
f 16 31 32
f 17 32 18
f 18 33 34
f 18 34 35
f 18 35 19
f 18 32 33
f 19 35 20
f 22 36 37
f 22 37 23
f 23 37 38
f 23 38 39
f 23 39 24
f 24 39 25
f 25 39 40
f 25 40 26
f 26 40 27
f 27 41 28
f 27 40 41
f 28 41 42
f 28 42 29
f 29 42 43
f 29 43 44
f 29 44 30
f 30 44 45
f 30 45 31
f 31 45 46
f 31 46 32
f 32 46 47
f 32 47 52
f 32 52 51
f 32 51 48
f 32 48 40
f 32 40 39
f 32 39 38
f 32 38 37
f 32 37 36
f 32 36 35
f 32 35 34
f 32 34 33
f 40 42 41
f 40 48 45
f 40 45 42
f 42 45 50
f 42 50 49
f 42 49 43
f 43 49 50
f 43 50 44
f 44 50 45
f 45 48 51
f 45 51 52
f 45 52 46
f 46 52 47

