# https://github.com/mikedh/trimesh
v -2293.16009206 759.22576959 47.50887807
v -2293.16009206 1017.66310330 47.50887807
v -2257.29486732 756.78986969 47.50887807
v -2140.88246840 852.34093278 429.67165742
v -2199.11598704 875.13402189 429.67165742
v -2293.16009206 782.56982536 49.30446233
v -2293.16009206 992.95614418 49.15483593
v -2198.89815256 932.08767309 429.67165742
v -2261.04999584 1049.67785200 47.50887807
v -2196.93890037 756.38385641 47.50887807
v -2080.58113980 852.10889952 429.67165742
v -2293.16009206 934.72648977 50.83822285
v -2293.16009206 874.49597535 51.24969547
v -2293.16009206 856.66176594 51.24969547
v -2140.88246840 953.16980897 429.67165742
v -2201.12951811 1051.91074527 47.50887807
v -2080.58113980 756.38385641 47.50887807
v -1960.08704038 756.47084642 47.50887807
v -1899.78553204 756.61588967 47.50887807
v -1960.03258176 853.09490608 429.67165742
v -2076.06395007 953.80776564 429.67165742
v -2140.82818951 1052.51967531 47.50887807
v -1839.32064785 758.81975632 47.50887807
v -1910.34367446 859.12660260 429.67165742
v -2016.25220985 954.15572566 429.67165742
v -1960.03258176 954.44572230 429.67165742
v -1960.08704038 1052.63569194 47.50887807
v -1781.68599430 814.12050754 47.50887807
v -1864.02904482 883.34064830 429.67165742
v -1899.73107342 861.09852586 429.67165742
v -1899.73107342 946.79006255 429.67165742
v -1784.18947322 1050.28678204 47.50887807
v -1843.62018284 1052.51967531 47.50887807
v -1903.97614979 1052.63569194 47.50887807
v -1737.16742071 874.49597535 47.50887807
v -1864.02904482 891.14135130 429.67165742
v -1892.54720865 942.67223603 429.67165742
v -1738.14695694 975.73086481 47.50887807
v -1864.19242067 925.35987679 429.67165742
v -1737.16742071 916.34131370 47.50887807
f 1 2 9
f 1 9 16
f 1 16 22
f 1 22 27
f 1 27 34
f 1 34 33
f 1 33 32
f 1 32 38
f 1 38 40
f 1 40 35
f 1 35 28
f 1 28 23
f 1 23 19
f 1 19 18
f 1 18 17
f 1 17 10
f 1 10 3
f 1 3 4
f 1 4 5
f 1 5 6
f 1 6 14
f 1 14 13
f 1 13 12
f 1 12 7
f 1 7 2
f 2 7 8
f 2 8 9
f 3 10 4
f 4 10 11
f 4 11 20
f 4 20 24
f 4 24 30
f 4 30 29
f 4 29 36
f 4 36 39
f 4 39 37
f 4 37 31
f 4 31 26
f 4 26 25
f 4 25 21
f 4 21 15
f 4 15 8
f 4 8 5
f 5 8 12
f 5 12 13
f 5 13 14
f 5 14 6
f 7 12 8
f 8 15 9
f 9 15 16
f 10 17 11
f 11 17 18
f 11 18 19
f 11 19 20
f 15 21 22
f 15 22 16
f 19 23 20
f 20 23 24
f 21 25 22
f 22 25 26
f 22 26 27
f 23 28 29
f 23 29 30
f 23 30 24
f 26 31 32
f 26 32 33
f 26 33 34
f 26 34 27
f 28 35 29
f 29 35 40
f 29 40 36
f 31 37 32
f 32 37 39
f 32 39 38
f 36 40 39
f 38 39 40

