# https://github.com/mikedh/trimesh
v 2258.26379939 -250.38235567 505.20771748
v 2232.44645958 -250.38235567 483.56590920
v 2267.00467745 -693.42124470 504.75964705
v 2307.03320075 -693.42124470 504.75964705
v 2306.74365344 -633.12755469 504.62520795
v 2306.42534910 -572.96340609 504.49076885
v 2305.81749744 -452.44072938 504.17713752
v 2305.18088876 -331.78857864 503.81866321
v 2304.77559441 -250.38235567 503.54982994
v 2230.42052704 -250.38235567 474.87333397
v 2143.38828383 -809.92863168 47.54871104
v 2145.70376369 -869.70424588 47.54871104
v 2242.25835716 -693.42124470 450.72235153
v 2273.83536999 -749.18161410 498.26262589
v 2302.51798807 -749.18161410 498.26262589
v 2436.81438201 -813.81433507 47.54871104
v 2438.86943104 -753.84452107 47.54871104
v 2438.86943104 -749.18161410 47.54871104
v 2317.85788486 -250.38235567 450.72235153
v 2225.64488353 -250.38235567 450.72235153
v 2143.18572652 -749.18161410 47.54871104
v 2143.18572652 -749.82923133 47.54871104
v 2224.11087588 -911.86447367 47.54871104
v 2285.00747493 -786.41994193 487.37450781
v 2274.41410516 -753.77972790 497.68011636
v 2257.07721257 -753.77972790 450.67754224
v 2302.14181021 -753.77972790 497.68011636
v 2295.28218091 -786.41994193 487.37450781
v 2381.79338274 -868.86229405 47.54871104
v 2377.16260275 -250.38235567 55.43474154
v 2165.67462020 -250.38235567 55.43474154
v 2261.56348850 -911.86447367 47.54871104
v 2321.82311941 -904.41685303 47.54871104
f 1 2 3
f 1 3 4
f 1 4 5
f 1 5 6
f 1 6 7
f 1 7 8
f 1 8 9
f 1 9 19
f 1 19 30
f 1 30 31
f 1 31 20
f 1 20 10
f 1 10 2
f 2 10 11
f 2 11 12
f 2 12 13
f 2 13 3
f 3 13 14
f 3 14 15
f 3 15 4
f 4 15 16
f 4 16 17
f 4 17 18
f 4 18 5
f 5 7 6
f 5 18 7
f 7 9 8
f 7 18 9
f 9 18 19
f 10 20 21
f 10 21 22
f 10 22 11
f 11 22 21
f 11 21 18
f 11 18 17
f 11 17 16
f 11 16 29
f 11 29 33
f 11 33 32
f 11 32 23
f 11 23 12
f 12 23 24
f 12 24 25
f 12 25 26
f 12 26 13
f 13 26 25
f 13 25 14
f 14 25 27
f 14 27 15
f 15 27 16
f 16 27 28
f 16 28 29
f 18 30 19
f 18 21 31
f 18 31 30
f 20 31 21
f 23 32 28
f 23 28 24
f 24 28 27
f 24 27 25
f 28 32 33
f 28 33 29

