# https://github.com/mikedh/trimesh
v -1779.07072244 -814.21019352 519.93151744
v -1846.92256791 -814.21019352 513.31517708
v -1773.04684423 -1356.89968449 504.94002999
v -1731.42859654 -1405.66998451 505.06566226
v -1735.40120007 -874.51610527 503.85126200
v -1737.71236637 -814.21019352 500.91997737
v -1742.88395820 -778.77003359 492.37734307
v -1779.07072244 -776.01430162 498.40744448
v -1839.36737802 -776.01430162 498.49119932
v -1846.92256791 -776.07837587 498.44932190
v -1846.92256791 -859.58383933 495.81115674
v -1803.45506365 -1405.66998451 450.71107338
v -1803.23848730 -1405.66998451 451.50671067
v -1780.37071979 -1405.66998451 502.09250021
v -1713.48690773 -1405.66998451 450.71107338
v -1721.86544725 -874.51610527 450.75295080
v -1726.47358107 -814.21019352 450.75295080
v -1739.83589308 -776.14245012 450.75295080
v -1779.07072244 -767.93932847 450.75295080
v -1839.36737802 -768.00340272 450.75295080
v -1846.92256791 -769.02877046 456.65741995
v -1846.92256791 -875.22110176 450.75295080
v -1832.33233086 -1405.66998451 97.99249029
v -1699.35893989 -1405.66998451 97.99249029
v -1704.94948564 -874.64425377 92.12989856
v -1707.49196628 -814.72287739 92.12989856
v -1707.53528155 -814.21019352 92.12989856
v -1721.82213197 -770.50274782 92.12989856
v -1723.52670474 -765.63211626 92.12989856
v -1766.60401209 -751.08438569 92.12989856
v -1779.07072244 -751.08438569 104.35758859
v -1794.48430912 -751.08438569 104.35758859
v -1839.36737802 -751.08438569 104.23195633
v -1846.92256791 -768.06747697 450.75295080
v -1846.92256791 -751.08438569 104.02256923
v -1846.92256791 -893.93455727 92.12989856
v -1829.00963613 -1163.93347390 92.12989856
v -1701.80023174 -1163.93347390 92.12989856
v -1846.92256791 -751.08438569 92.12989856
f 1 2 3
f 1 3 4
f 1 4 5
f 1 5 6
f 1 6 7
f 1 7 8
f 1 8 9
f 1 9 10
f 1 10 2
f 2 10 21
f 2 21 34
f 2 34 35
f 2 35 39
f 2 39 36
f 2 36 22
f 2 22 11
f 2 11 12
f 2 12 13
f 2 13 14
f 2 14 3
f 3 14 4
f 4 14 13
f 4 13 12
f 4 12 23
f 4 23 24
f 4 24 15
f 4 15 5
f 5 16 6
f 5 15 16
f 6 17 7
f 6 16 17
f 7 17 18
f 7 18 19
f 7 19 8
f 8 19 9
f 9 19 20
f 9 20 21
f 9 21 10
f 11 22 23
f 11 23 12
f 15 24 25
f 15 25 16
f 16 25 26
f 16 26 17
f 17 26 27
f 17 27 28
f 17 28 29
f 17 29 18
f 18 29 30
f 18 30 19
f 19 30 31
f 19 31 32
f 19 32 33
f 19 33 20
f 20 34 21
f 20 33 35
f 20 35 34
f 22 36 23
f 23 36 37
f 23 37 38
f 23 38 24
f 24 38 25
f 25 38 37
f 25 37 36
f 25 36 39
f 25 39 30
f 25 30 29
f 25 29 28
f 25 28 27
f 25 27 26
f 30 39 35
f 30 35 33
f 30 33 32
f 30 32 31

