# https://github.com/mikedh/trimesh
v -1236.31562950 814.03612364 521.46592949
v -1168.86027153 814.03612364 512.24860591
v -1168.86027153 818.80916104 511.62925144
v -1168.86027153 854.10787235 500.80892582
v -1176.01052654 854.10787235 500.77250774
v -1236.31562950 853.66384588 500.29889299
v -1273.69697861 850.33378217 493.63180097
v -1279.10258074 814.03612364 502.15691145
v -1280.74712321 753.76179969 504.26996880
v -1314.93949778 -224.39040679 512.64936204
v -1296.60635394 -210.95912285 516.32900336
v -1236.31562950 -210.95912285 510.90062028
v -1168.86027153 774.51929569 494.76121073
v -1203.63901985 -210.95912285 487.83911353
v -1204.49705764 -243.37179691 485.43459922
v -1168.86027153 855.32887774 494.83406935
v -1168.86027153 863.98707934 450.75124336
v -1236.31562950 863.09902640 450.75124336
v -1277.31497205 853.44187758 450.75124336
v -1291.77274705 814.03612364 450.75124336
v -1295.04754335 753.76179969 450.75124336
v -1314.93949778 -209.62708838 511.15565916
v -1314.93949778 -254.91603576 503.97853431
v -1296.60635394 -254.80505161 503.90565322
v -1236.31562950 -249.58794280 495.78129886
v -1168.86027153 770.74511564 492.35669642
v -1201.10786229 -210.95912285 450.75124336
v -1236.31562950 -258.13511532 450.75124336
v -1203.66759714 -244.59280230 450.75124336
v -1168.86027153 864.87513228 149.27572759
v -1236.34420679 863.65403702 149.27572759
v -1277.31497205 853.66384588 149.27572759
v -1291.91581326 814.03612364 149.27572759
v -1295.33358591 753.76179969 149.27572759
v -1314.93949778 -157.01201880 450.75124336
v -1314.93949778 -159.12103220 460.87936713
v -1314.93949778 -169.44426565 489.55142598
v -1314.93949778 -173.55135322 499.20592377
v -1314.93949778 -259.24513656 487.72981436
v -1296.60635394 -268.56933293 450.75124336
v -1168.86027153 756.98092418 454.94093998
v -1200.75037650 -211.07010700 149.45788538
v -1168.86027153 756.75886602 450.75124336
v -1296.60635394 -268.90233031 149.45788538
v -1236.31562950 -258.24609947 149.45788538
v -1203.49604350 -244.59280230 149.45788538
v -1168.86027153 755.87090294 149.27572759
v -1291.07206412 331.73108705 149.27572759
v -1314.93949778 -269.12434355 149.45788538
v -1314.93949778 -155.56900018 149.45788538
v -1314.93949778 -155.56900018 163.77569454
v -1314.93949778 -155.79096848 390.41971426
v -1314.93949778 -268.79130123 450.75124336
v -1204.18243779 138.69810623 149.27572759
v -1168.86027153 755.87090294 156.41641190
v -1168.86027153 756.09287125 397.59683349
v -1289.24158949 150.90835108 149.27572759
v -1289.11290180 138.80910162 149.27572759
v -1288.78399330 138.69810623 149.27572759
f 1 2 3
f 1 3 4
f 1 4 5
f 1 5 6
f 1 6 7
f 1 7 8
f 1 8 9
f 1 9 10
f 1 10 11
f 1 11 12
f 1 12 2
f 2 13 26
f 2 26 41
f 2 41 43
f 2 43 56
f 2 56 55
f 2 55 47
f 2 47 30
f 2 30 17
f 2 17 16
f 2 16 4
f 2 4 3
f 2 12 14
f 2 14 15
f 2 15 13
f 4 16 5
f 5 16 17
f 5 17 6
f 6 17 18
f 6 18 7
f 7 18 19
f 7 19 20
f 7 20 8
f 8 20 21
f 8 21 22
f 8 22 9
f 9 22 10
f 10 22 38
f 10 38 37
f 10 37 36
f 10 36 35
f 10 35 52
f 10 52 51
f 10 51 50
f 10 50 49
f 10 49 53
f 10 53 39
f 10 39 23
f 10 23 24
f 10 24 11
f 11 24 12
f 12 24 25
f 12 25 15
f 12 15 14
f 13 15 27
f 13 27 26
f 15 25 28
f 15 28 29
f 15 29 27
f 17 30 18
f 18 30 31
f 18 31 19
f 19 32 33
f 19 33 20
f 19 31 32
f 20 33 34
f 20 34 21
f 21 34 35
f 21 35 36
f 21 36 37
f 21 37 38
f 21 38 22
f 23 39 24
f 24 39 40
f 24 40 25
f 25 40 28
f 26 27 41
f 27 29 42
f 27 42 43
f 27 43 41
f 28 40 44
f 28 44 45
f 28 45 29
f 29 45 46
f 29 46 42
f 30 47 54
f 30 54 59
f 30 59 58
f 30 58 57
f 30 57 48
f 30 48 34
f 30 34 33
f 30 33 32
f 30 32 31
f 34 48 49
f 34 49 50
f 34 50 51
f 34 51 52
f 34 52 35
f 39 53 40
f 40 53 49
f 40 49 44
f 42 46 54
f 42 54 47
f 42 47 55
f 42 55 56
f 42 56 43
f 44 49 54
f 44 54 45
f 45 54 46
f 48 57 49
f 49 57 58
f 49 58 59
f 49 59 54

