# https://github.com/mikedh/trimesh
v 162.46902412 -859.43169668 151.94417749
v 162.46902412 -819.16961240 151.94417749
v 211.11782569 -874.25360754 151.94417749
v 162.46902412 -859.32331864 450.76183628
v 162.46902412 -819.16961240 450.76183628
v 211.11782569 -793.63202454 151.94417749
v 213.90572958 -874.23194990 151.94417749
v 211.11782569 -874.02615743 450.76183628
v 168.74183034 -854.31761892 496.71495864
v 168.74183034 -827.54491675 496.71495864
v 211.11782569 -793.68621357 450.76183628
v 624.28387027 -769.95807176 151.94417749
v 274.12424693 -873.62526650 151.94417749
v 633.34449051 -869.64888861 450.76183628
v 1537.73761900 -852.28072276 498.42728233
v 1477.51914658 -852.59489327 498.84664066
v 1356.80325859 -853.22332418 499.68531239
v 1296.58469631 -853.53758456 500.06971296
v 1236.22675231 -853.85175508 500.41917824
v 1115.65033590 -854.46931223 501.11808632
v 995.07382962 -855.09774314 501.74710135
v 814.27885092 -856.04034456 502.58579555
v 753.92099679 -856.35460494 502.83041001
v 512.62864745 -857.60059300 503.70403950
v 452.41013010 -857.91476352 503.87876090
v 331.69428704 -858.54319442 504.22822618
v 211.11782569 -859.16075157 504.54273369
v 452.41013010 -871.82669420 151.94417749
v 753.92099679 -868.78204398 151.94417749
v 934.71597549 -866.95103016 151.94417749
v 997.72235179 -866.31172550 151.94417749
v 1118.29885807 -865.08739508 151.94417749
v 1175.86889818 -864.50236932 151.94417749
v 1359.59107261 -862.62795036 151.94417749
v 1480.16757889 -861.39274619 151.94417749
v 1537.73761900 -860.79684667 151.94417749
v 211.11782569 -818.98538770 504.54273369
v 775.80590304 -783.92410160 481.16428183
v 686.45391135 -768.15949946 151.94417749
v 1296.58469631 -862.76876992 450.76183628
v 1537.73761900 -860.26592006 450.76183628
v 1575.65304002 -849.51780153 492.45163954
v 1537.73761900 -814.16391268 508.94583891
v 693.56305279 -856.65799158 503.07502447
v 633.34449051 -856.97216209 503.28470363
v 271.47572476 -858.84658105 504.40294758
v 1539.68914274 -860.42848713 151.94417749
v 1417.16120259 -814.16391268 508.38671693
v 1537.73761900 -779.96938134 491.40326618
v 1477.51914658 -780.28355186 490.73931586
v 1296.58469631 -781.21536940 488.53776325
v 1236.22675231 -781.52953991 487.76896211
v 1175.86889818 -781.84380030 486.96522568
v 1115.65033590 -782.15797082 486.16146677
v 1055.29239190 -782.47223120 485.32279505
v 995.07382962 -782.78640172 484.48410085
v 874.49741320 -783.40395887 482.70188411
v 814.27885092 -766.16582870 151.94417749
v 812.32732718 -766.18748634 151.94417749
v 754.89675866 -766.97848431 151.94417749
v 693.56305279 -768.02946378 151.94417749
v 814.27885092 -783.71821926 481.75836156
v 1537.73761900 -775.92803054 450.76183628
v 1579.55608750 -852.12902944 450.76183628
v 1586.38642057 -814.16391268 450.76183628
v 1577.18632875 -814.16391268 494.96769966
v 1572.58628284 -781.21536940 488.15336268
v 1579.55608750 -852.39988469 151.94417749
v 934.71597549 -765.27741630 151.94417749
v 1574.95604158 -779.81768802 450.76183628
v 1537.73761900 -775.26706825 151.94417749
v 1236.22675231 -765.01734494 151.94417749
v 1175.86889818 -763.58722205 151.94417749
v 1115.65033590 -763.99889686 151.94417749
v 1055.29239190 -764.42144543 151.94417749
v 995.07382962 -764.84399399 151.94417749
v 1586.38642057 -814.16391268 151.94417749
v 1574.95604158 -779.51430139 151.94417749
v 1586.10765715 -815.86498069 151.94417749
f 1 2 6
f 1 6 12
f 1 12 39
f 1 39 61
f 1 61 60
f 1 60 59
f 1 59 58
f 1 58 69
f 1 69 76
f 1 76 75
f 1 75 74
f 1 74 73
f 1 73 72
f 1 72 71
f 1 71 78
f 1 78 77
f 1 77 79
f 1 79 68
f 1 68 47
f 1 47 36
f 1 36 35
f 1 35 34
f 1 34 33
f 1 33 32
f 1 32 31
f 1 31 30
f 1 30 29
f 1 29 28
f 1 28 13
f 1 13 7
f 1 7 3
f 1 3 4
f 1 4 5
f 1 5 2
f 2 5 6
f 3 7 8
f 3 8 4
f 4 9 10
f 4 10 5
f 4 8 9
f 5 10 11
f 5 11 6
f 6 11 12
f 7 13 8
f 8 14 15
f 8 15 16
f 8 16 17
f 8 17 18
f 8 18 19
f 8 19 20
f 8 20 21
f 8 21 22
f 8 22 23
f 8 23 24
f 8 24 25
f 8 25 26
f 8 26 27
f 8 27 9
f 8 13 28
f 8 28 29
f 8 29 30
f 8 30 31
f 8 31 32
f 8 32 33
f 8 33 34
f 8 34 35
f 8 35 36
f 8 36 14
f 9 27 37
f 9 37 10
f 10 37 11
f 11 37 38
f 11 38 39
f 11 39 12
f 14 36 40
f 14 40 15
f 15 40 41
f 15 41 42
f 15 42 43
f 15 43 16
f 16 43 17
f 17 43 18
f 18 43 19
f 19 43 20
f 20 43 21
f 21 43 22
f 22 43 23
f 23 44 45
f 23 45 24
f 23 43 44
f 24 45 43
f 24 43 25
f 25 43 26
f 26 43 46
f 26 46 27
f 27 46 43
f 27 43 37
f 36 47 41
f 36 41 40
f 37 43 48
f 37 48 49
f 37 49 50
f 37 50 51
f 37 51 52
f 37 52 53
f 37 53 54
f 37 54 55
f 37 55 56
f 37 56 57
f 37 57 38
f 38 58 59
f 38 59 60
f 38 60 61
f 38 61 39
f 38 57 62
f 38 62 63
f 38 63 58
f 41 47 64
f 41 64 42
f 42 64 65
f 42 65 66
f 42 66 43
f 43 45 44
f 43 66 67
f 43 67 49
f 43 49 48
f 47 68 64
f 49 67 63
f 49 63 50
f 50 63 51
f 51 63 52
f 52 63 53
f 53 63 54
f 54 63 55
f 55 63 57
f 55 57 56
f 57 63 62
f 58 63 69
f 63 67 70
f 63 70 71
f 63 71 72
f 63 72 73
f 63 73 74
f 63 74 75
f 63 75 76
f 63 76 69
f 64 68 65
f 65 77 78
f 65 78 70
f 65 70 67
f 65 67 66
f 65 68 79
f 65 79 77
f 70 78 71

