# https://github.com/mikedh/trimesh
v 1713.00414914 -749.24348664 47.51885316
v 1537.34939914 -749.24348664 91.74967675
v 3040.81906651 -749.32032182 47.50072275
v 3040.81906651 -749.32032182 28.61971262
v 3039.90099843 -749.32032182 25.24941154
v 3027.96611335 -749.32032182 -15.61111096
v 3024.90600622 -749.32032182 -16.82512929
v 2985.12353523 -749.32032182 -31.42981226
v 2980.22729194 -749.32032182 -31.57478811
v 2924.83802299 -749.32032182 -33.16934279
v 40.61229095 -749.24348664 47.51885316
v 1236.53310451 -749.24348664 126.90238998
v 2898.21440804 -1398.96007148 98.12789545
v 3041.73713459 -814.31506680 47.50072275
v 1176.24741255 -749.24348664 130.09151056
v 1236.53310451 -765.06964679 151.94417749
v 1537.65548174 -775.28746777 151.94417749
v 1574.68374848 -779.58969872 151.94417749
v 3042.96110555 -934.85481801 28.61971262
v 3028.88418143 -934.85481801 -16.19094698
v 3028.57827856 -874.54647988 -16.00973278
v 3043.57327076 -1111.24709589 25.19504279
v 3029.80224951 -1111.24709589 -16.69830631
v 2985.12353523 -814.31506680 -31.64726481
v 2985.12353523 -874.54647988 -31.82845654
v 2985.12353523 -934.85481801 -32.00967075
v 2985.12353523 -1055.47149426 -32.35394628
v 2985.12353523 -1111.24709589 -32.49889967
v 2980.22729194 -1111.24709589 -32.57137636
v 2924.83802299 -1111.24709589 -33.16934279
v -81.48914655 -749.32032182 -33.16934279
v -81.48914655 -749.32032182 47.08397053
v 211.37070780 -749.24348664 77.68856899
v 2898.21440804 -1501.21529620 98.12789545
v 3044.79724172 -1111.24709589 47.50072275
v 1575.29573396 -781.12622261 151.94417749
v 1586.31237123 -814.23823162 151.94417749
v 754.55383111 -749.24348664 128.27950334
v 1176.24741255 -763.60995807 151.94417749
v 3044.49133884 -1111.24709589 28.61971262
v 2898.21440804 -1473.71162636 -17.33248862
v 2898.21440804 -1417.16776278 -33.16934279
v 3026.43623952 -1111.24709589 -17.89421670
v -81.48914655 -1111.24709589 -33.16934279
v -81.48914655 -1111.24709589 47.08397053
v -81.18306394 -1431.15005831 98.12789545
v 162.71372844 -819.23188934 151.94417749
v 211.37070780 -793.64882943 151.94417749
v 633.67645444 -749.24348664 124.99978689
v 1579.27390917 -852.49747885 151.94417749
v 1537.65548174 -860.87152507 151.94417749
v 2467.95213126 -1507.59180745 98.12789545
v 2898.21440804 -1501.36896656 88.88671252
v 2898.21440804 -1501.44580174 62.41344290
v 2898.21440804 -1501.21529620 28.61971262
v 693.65606380 -749.24348664 127.33727261
v 812.39131157 -766.22199477 151.94417749
v 934.79874180 -765.30015233 151.94417749
v 2428.16966026 -1507.82240286 -1.78556370
v 2381.96089242 -1508.05281853 -2.18420798
v 2261.38950849 -1508.66732025 -3.14458035
v 2140.51204195 -1509.28200170 -4.08679984
v 1959.65514578 -1510.28076919 -5.44579402
v 1838.77785897 -1510.89527091 -6.29742888
v 1718.20647504 -1511.50995236 -7.11282539
v 1597.94117371 -1512.12463381 -7.91011396
v 1477.67578251 -1512.73913553 -8.65303378
v 1357.41048118 -1513.35381698 -9.37784566
v 1296.81879648 -1513.66115770 -9.74022913
v 1055.67611848 -1514.96708619 -11.04487702
v 935.41081715 -1515.58176764 -11.66095139
v 814.53344048 -1516.19626935 -12.27702576
v 573.08476973 -1517.42563225 -13.36422111
v 392.22769383 -1518.34747470 -14.10714092
v 271.65639977 -1518.96197641 -14.59639231
v 1477.67578251 -1477.47610091 -24.48988795
v 1357.41048118 -1477.47610091 -25.19654695
v 1236.53310451 -1477.47610091 -25.90325089
v 1116.26780318 -1477.47610091 -26.55556360
v 1055.67611848 -1477.47610091 -26.88170873
v 935.41081715 -1477.47610091 -27.49778309
v 814.53344048 -1477.47610091 -28.09574952
v 633.67645444 -1477.47610091 -28.92927644
v 392.22769383 -1477.47610091 -29.94399509
v 151.08501583 -1477.47610091 -30.86810664
v -81.18306394 -1477.47610091 -31.64726481
v -81.18306394 -1417.16776278 -33.16934279
v -81.18306394 -1520.72909572 -15.82854105
v -81.18306394 -1533.94312930 28.61971262
v -81.18306394 -1534.09679966 88.88671252
v -81.18306394 -1534.09679966 97.87420455
v -81.18306394 -1533.94312930 98.12789545
v 162.71372844 -859.48867154 151.94417749
v 624.49586347 -769.98646932 151.94417749
v 1480.42998676 -861.48611666 151.94417749
v 2467.95213126 -1507.59180745 88.88671252
v 2321.67520045 -1509.12833134 98.12789545
v 2467.03406317 -1507.59180745 28.61971262
v 686.61769161 -768.21952975 151.94417749
v 693.65606380 -768.06585939 151.94417749
v 755.16581659 -766.99025672 151.94417749
v 753.94175577 -1525.33866740 28.61971262
v 30.51372176 -1520.19133931 -15.46613511
v -30.07805281 -1520.49868004 -15.66545725
v 1176.85948789 -1521.03643644 88.88671252
v 1176.85948789 -1521.03643644 98.12789545
v -73.53261640 -1533.94312930 98.12789545
v 211.37070780 -874.31606420 151.94417749
v 164.85585735 -860.18009831 151.94417749
v 1299.57300073 -863.32998128 151.94417749
v 2321.67520045 -1509.12833134 88.88671252
v 877.26725409 -867.63221223 151.94417749
v 334.69620612 -873.08688104 151.94417749
f 1 2 3
f 1 3 4
f 1 4 5
f 1 5 6
f 1 6 7
f 1 7 8
f 1 8 9
f 1 9 10
f 1 10 31
f 1 31 11
f 1 11 33
f 1 33 49
f 1 49 56
f 1 56 38
f 1 38 15
f 1 15 12
f 1 12 2
f 2 12 3
f 3 13 14
f 3 14 4
f 3 12 15
f 3 15 16
f 3 16 17
f 3 17 18
f 3 18 13
f 4 14 19
f 4 19 5
f 5 19 6
f 6 20 21
f 6 21 7
f 6 19 22
f 6 22 23
f 6 23 20
f 7 21 20
f 7 20 23
f 7 23 8
f 8 23 24
f 8 24 9
f 9 24 10
f 10 24 25
f 10 25 26
f 10 26 27
f 10 27 28
f 10 28 29
f 10 29 30
f 10 30 42
f 10 42 87
f 10 87 44
f 10 44 31
f 11 31 32
f 11 32 33
f 13 34 35
f 13 35 14
f 13 18 36
f 13 36 37
f 13 37 34
f 14 35 19
f 15 38 39
f 15 39 16
f 16 39 58
f 16 58 57
f 16 57 101
f 16 101 100
f 16 100 99
f 16 99 94
f 16 94 48
f 16 48 47
f 16 47 93
f 16 93 109
f 16 109 108
f 16 108 113
f 16 113 112
f 16 112 110
f 16 110 95
f 16 95 51
f 16 51 50
f 16 50 37
f 16 37 36
f 16 36 18
f 16 18 17
f 19 35 40
f 19 40 22
f 22 40 41
f 22 41 23
f 23 41 42
f 23 42 43
f 23 43 24
f 24 43 25
f 25 43 26
f 26 43 27
f 27 43 28
f 28 42 29
f 28 43 42
f 29 42 30
f 31 44 45
f 31 45 32
f 32 45 92
f 32 92 46
f 32 46 47
f 32 47 48
f 32 48 49
f 32 49 33
f 34 37 50
f 34 50 51
f 34 51 52
f 34 52 53
f 34 53 35
f 35 53 54
f 35 54 55
f 35 55 40
f 38 56 57
f 38 57 58
f 38 58 39
f 40 55 41
f 41 55 59
f 41 59 60
f 41 60 61
f 41 61 62
f 41 62 63
f 41 63 64
f 41 64 65
f 41 65 66
f 41 66 67
f 41 67 68
f 41 68 69
f 41 69 70
f 41 70 71
f 41 71 72
f 41 72 73
f 41 73 74
f 41 74 75
f 41 75 76
f 41 76 77
f 41 77 78
f 41 78 42
f 42 78 79
f 42 79 80
f 42 80 81
f 42 81 82
f 42 82 83
f 42 83 84
f 42 84 85
f 42 85 86
f 42 86 87
f 44 87 86
f 44 86 88
f 44 88 89
f 44 89 90
f 44 90 91
f 44 91 45
f 45 91 92
f 46 92 93
f 46 93 47
f 48 94 49
f 49 94 56
f 51 95 52
f 52 96 54
f 52 54 53
f 52 95 97
f 52 97 111
f 52 111 96
f 54 96 98
f 54 98 55
f 55 98 59
f 56 99 100
f 56 100 101
f 56 101 57
f 56 94 99
f 59 63 60
f 59 98 102
f 59 102 89
f 59 89 63
f 60 63 61
f 61 63 62
f 63 89 64
f 64 89 65
f 65 89 66
f 66 89 70
f 66 70 67
f 67 70 68
f 68 70 69
f 70 89 71
f 71 89 72
f 72 89 73
f 73 89 74
f 74 89 75
f 75 89 103
f 75 103 78
f 75 78 77
f 75 77 76
f 78 103 79
f 79 103 80
f 80 103 104
f 80 104 81
f 81 104 82
f 82 104 88
f 82 88 83
f 83 88 84
f 84 88 85
f 85 88 86
f 88 104 89
f 89 104 103
f 89 102 90
f 90 102 98
f 90 98 105
f 90 105 106
f 90 106 91
f 91 106 107
f 91 107 92
f 92 107 108
f 92 108 109
f 92 109 93
f 95 110 107
f 95 107 106
f 95 106 97
f 96 111 98
f 97 106 105
f 97 105 111
f 98 111 105
f 107 112 113
f 107 113 108
f 107 110 112

