# https://github.com/mikedh/trimesh
v -3047.62908994 1378.67118022 88.90176503
v -3047.62908994 1378.67118022 94.54023168
v -3047.40766083 1378.67118022 28.62883399
v -3045.41372048 1175.73985102 28.62883399
v -3041.72095877 813.91750091 28.62883399
v -3036.10830604 271.32794060 28.62883399
v -3046.15205715 1236.18748100 88.90176503
v -3046.15205715 1236.18748100 94.54023168
v -2920.01331281 1378.67118022 94.54023168
v -3037.06843128 1378.67118022 -0.70122158
v -3031.16030011 1356.79490108 -17.24158946
v -3030.64339255 1236.18748100 -17.00402945
v -3030.05243565 1115.58006091 -16.70399032
v -3027.91075607 693.31008082 -15.42877344
v -3025.10442971 150.72049805 -13.32840962
v -3023.77513614 -107.76513847 -12.14069948
v -3022.59322233 -331.70927215 -11.01551340
v -3021.63345656 -512.47650481 -10.02784433
v -3019.41772764 -934.45860010 -7.45238297
v -3017.86700497 -1236.12116010 -5.36453296
v -3016.90687973 -1417.17621016 -4.02679201
v -3016.53735194 -1477.33600027 -3.53920314
v -3019.19629853 -1356.72858018 28.60385133
v -3032.19411522 -107.76513847 71.48623995
v -3033.00650123 -30.04674022 88.90176503
v -3033.00650123 -30.04674022 94.54023168
v -2293.16009206 1378.67118022 56.63368489
v -2926.14305282 -107.76513847 94.54023168
v -2293.16009206 -876.60161878 72.88648250
v -2293.16009206 -160.15309493 72.88648250
v -3031.16030011 1378.67118022 -17.26657212
v -2985.15049494 1236.18748100 -32.81927092
v -2985.15049494 1115.58006091 -32.51920932
v -2985.15049494 1055.13234107 -32.35668718
v -2985.15049494 994.68471110 -32.18165125
v -2985.15049494 874.07729101 -31.83160184
v -2985.15049494 753.75771080 -31.44403351
v -2985.15049494 693.31008082 -31.24399244
v -3001.84107335 1378.67118022 -27.38082287
v -2985.15049494 572.70261581 -30.81892764
v -2985.15049494 452.09519572 -30.36885770
v -2985.15049494 391.93536068 -30.14381150
v -2985.15049494 271.32794060 -29.65622263
v -2985.15049494 210.88028816 -29.40617129
v -3028.72314208 874.07729101 -16.01636038
v -2985.15049494 90.56069671 -28.88108595
v -2985.15049494 30.11305550 -28.60605195
v -2985.15049494 -30.04674022 -28.33099548
v -2985.15049494 -90.49438705 -28.04344768
v -2985.15049494 -211.10182960 -27.45583827
v -3026.58146250 452.09519572 -14.55361623
v -2985.15049494 -271.26161971 -27.14328534
v -2985.15049494 -391.86903979 -26.50566567
v -2985.15049494 -512.47650481 -25.84306333
v -2985.15049494 -572.92413478 -25.50550526
v -3024.14430447 -30.04674022 -12.51575402
v -2985.15049494 -693.53159980 -24.78037885
v -2985.15049494 -814.13901988 -24.04276111
v -2985.15049494 -874.01097012 -23.65519278
v -2985.15049494 -994.90623007 -22.86754230
v -2985.15049494 -1115.22590015 -22.04239536
v -2985.15049494 -1175.67353013 -21.61733056
v -2985.15049494 -1236.12116010 -21.17975195
v -2985.15049494 -1356.72858018 -20.29210341
v -2985.15049494 -1417.17621016 -19.82951968
v -2985.15049494 -1477.33600027 -19.36695841
v -3020.96880978 -633.08392489 -9.32770059
v -3020.00868454 -814.13901988 -8.22751965
v -3018.45760241 -1115.22590015 -6.22717636
v -3016.09449372 -1510.15046391 -2.71407867
v -3017.86700497 -1477.33600027 28.60385133
v -3018.16212395 -1451.14203327 54.73336215
v -3018.53165175 -1417.17621016 54.73336215
v -3032.19411522 -107.76513847 94.54023168
v -2293.16009206 1378.67118022 -33.16934279
v -2924.81375925 -1561.96271818 54.73336215
v -2615.52276881 -1557.93278032 54.73336215
v -2612.05179566 -1557.64503032 54.73336215
v -2293.16009206 -1349.53240380 47.06952461
v -2985.15049494 1296.34727110 -32.94429659
v -2924.81375925 -1477.33600027 -33.16934279
v -2985.15049494 1378.67118022 -33.08181359
v -2985.15049494 -1522.81577748 -10.32788346
v -2985.15049494 -1538.35930997 28.60385133
v -3016.38997217 -1511.30182338 28.60385133
v -3017.86700497 -1477.33600027 54.73336215
v -3016.38997217 -1511.30182338 54.73336215
v -3002.87488846 -1523.39127748 54.73336215
v -2985.15049494 -1538.64723971 54.73336215
v -2959.08081222 -1548.72190461 54.73336215
v -2293.16009206 -1349.53240380 -33.16934279
v -2924.88762887 1378.67118022 -33.16934279
v -2924.81375925 -1561.38703845 28.60385133
v -2623.49870994 -1557.93278032 28.60385133
v -2612.05179566 -1557.64503032 28.60385133
v -2612.05179566 -1477.33600027 -33.16934279
v -2924.81375925 -1533.75387212 -17.34158752
v -2946.59990309 1378.67118022 -33.15682899
v -2924.88762887 -107.76513847 -33.16934279
v -2612.05179566 -1531.73890319 -17.34158752
f 1 2 9
f 1 9 27
f 1 27 75
f 1 75 92
f 1 92 98
f 1 98 82
f 1 82 39
f 1 39 31
f 1 31 10
f 1 10 3
f 1 3 4
f 1 4 5
f 1 5 6
f 1 6 7
f 1 7 8
f 1 8 2
f 2 8 26
f 2 26 74
f 2 74 28
f 2 28 9
f 3 10 11
f 3 11 12
f 3 12 13
f 3 13 14
f 3 14 15
f 3 15 16
f 3 16 17
f 3 17 18
f 3 18 19
f 3 19 20
f 3 20 21
f 3 21 22
f 3 22 4
f 4 22 5
f 5 22 6
f 6 22 23
f 6 23 24
f 6 24 7
f 7 24 25
f 7 25 26
f 7 26 8
f 9 28 29
f 9 29 30
f 9 30 27
f 10 31 11
f 11 32 33
f 11 33 34
f 11 34 35
f 11 35 36
f 11 36 37
f 11 37 38
f 11 38 12
f 11 31 39
f 11 39 32
f 12 38 40
f 12 40 41
f 12 41 42
f 12 42 43
f 12 43 44
f 12 44 13
f 13 45 14
f 13 44 46
f 13 46 47
f 13 47 48
f 13 48 49
f 13 49 50
f 13 50 45
f 14 51 15
f 14 45 50
f 14 50 52
f 14 52 53
f 14 53 54
f 14 54 55
f 14 55 51
f 15 56 16
f 15 51 57
f 15 57 58
f 15 58 59
f 15 59 60
f 15 60 56
f 16 56 61
f 16 61 62
f 16 62 63
f 16 63 64
f 16 64 17
f 17 64 65
f 17 65 66
f 17 66 18
f 18 66 67
f 18 67 19
f 19 67 68
f 19 68 66
f 19 66 69
f 19 69 20
f 20 69 66
f 20 66 21
f 21 66 22
f 22 66 70
f 22 70 71
f 22 71 23
f 23 71 72
f 23 72 73
f 23 73 74
f 23 74 26
f 23 26 25
f 23 25 24
f 27 30 29
f 27 29 79
f 27 79 91
f 27 91 75
f 28 74 76
f 28 76 77
f 28 77 29
f 29 77 78
f 29 78 79
f 32 39 80
f 32 80 81
f 32 81 33
f 33 81 34
f 34 81 35
f 35 81 36
f 36 81 37
f 37 81 38
f 38 81 40
f 39 82 80
f 40 81 41
f 41 81 42
f 42 81 43
f 43 81 44
f 44 81 46
f 46 81 47
f 47 81 48
f 48 81 49
f 49 81 50
f 50 81 52
f 51 55 57
f 52 81 53
f 53 81 54
f 54 81 55
f 55 81 57
f 56 60 61
f 57 81 58
f 58 81 59
f 59 81 60
f 60 81 61
f 61 81 62
f 62 81 63
f 63 81 64
f 64 81 65
f 65 81 66
f 66 68 67
f 66 81 83
f 66 83 70
f 70 83 84
f 70 84 85
f 70 85 71
f 71 85 87
f 71 87 86
f 71 86 72
f 72 86 74
f 72 74 73
f 74 86 87
f 74 87 88
f 74 88 89
f 74 89 90
f 74 90 76
f 75 91 96
f 75 96 81
f 75 81 99
f 75 99 92
f 76 93 94
f 76 94 77
f 76 90 84
f 76 84 93
f 77 94 95
f 77 95 78
f 78 95 91
f 78 91 79
f 80 82 81
f 81 96 97
f 81 97 83
f 81 82 98
f 81 98 99
f 83 97 93
f 83 93 84
f 84 90 89
f 84 89 88
f 84 88 85
f 85 88 87
f 91 95 100
f 91 100 96
f 92 99 98
f 93 97 100
f 93 100 94
f 94 100 95
f 96 100 97

