# https://github.com/mikedh/trimesh
v -2293.16009206 -863.40232317 92.12989856
v -2293.16009206 -751.03424062 92.12989856
v -2261.53563013 -875.28643413 92.12989856
v -2293.16009206 -846.40098915 486.16965579
v -2293.16009206 -751.03424062 500.76985670
v -1846.92256791 -751.03424062 92.12989856
v -2261.53563013 -853.40566170 450.76522871
v -2258.30316058 -875.44019436 92.12989856
v -1846.92256791 -875.18857037 450.76522871
v -2261.53563013 -848.84767294 492.00145727
v -2293.16009206 -845.68790475 486.58326271
v -2293.16009206 -753.85845026 501.05938155
v -2291.67497135 -751.03424062 501.43162778
v -1846.92256791 -751.03424062 104.00030500
v -1846.92256791 -893.85367813 92.12989856
v -1846.92256791 -859.51545153 495.80661852
v -2201.21309322 -850.16195893 495.02076537
v -2261.53563013 -814.15995859 511.73032790
v -2293.16009206 -814.15995859 495.43437229
v -2261.53563013 -753.85845026 514.66691461
v -2261.53563013 -751.03424062 514.37738976
v -1846.92256791 -768.03557465 450.76522871
v -2207.28477998 -751.03424062 499.11542900
v -1846.92256791 -814.15995859 513.34339491
v -2201.21309322 -814.15995859 513.63291976
v -1846.92256791 -776.01888477 498.41231969
v -1846.92256791 -769.00028303 456.63839089
f 1 2 6
f 1 6 15
f 1 15 8
f 1 8 3
f 1 3 4
f 1 4 11
f 1 11 19
f 1 19 12
f 1 12 5
f 1 5 2
f 2 5 13
f 2 13 21
f 2 21 23
f 2 23 14
f 2 14 6
f 3 7 4
f 3 8 9
f 3 9 7
f 4 7 10
f 4 10 11
f 5 12 13
f 6 14 22
f 6 22 27
f 6 27 26
f 6 26 24
f 6 24 16
f 6 16 9
f 6 9 15
f 7 9 10
f 8 15 9
f 9 16 17
f 9 17 10
f 10 17 18
f 10 18 11
f 11 18 19
f 12 19 18
f 12 18 20
f 12 20 13
f 13 20 21
f 14 23 22
f 16 24 25
f 16 25 17
f 17 25 18
f 18 25 20
f 20 25 24
f 20 24 21
f 21 24 26
f 21 26 23
f 22 23 27
f 23 26 27

