# https://github.com/mikedh/trimesh
v 215.36512623 -146.30043069 510.30287851
v 158.49279226 -150.73238279 505.29421322
v 211.10692948 -198.93010344 505.53273928
v 332.36470770 -198.28374433 505.37372191
v 332.36470770 -157.84201849 505.37372191
v 194.31945337 721.62775426 503.74391741
v 149.82038064 721.62775426 504.37994196
v 157.60103236 30.14754147 505.25447011
v 136.35472307 721.62775426 478.02486822
v 123.89230381 721.62775426 450.71575763
v 135.17313503 -150.73238279 450.71575763
v 165.87214865 -193.02080401 497.34397367
v 211.10692948 -216.93496784 450.71575763
v 332.36470770 -215.64233948 450.71575763
v 332.36470770 -134.75879795 450.71575763
v 207.69594169 721.62775426 450.71575763
v 104.60788652 721.62775426 104.20414289
v 134.28136390 -150.73238279 390.41312036
v 137.35796138 -171.50726780 130.55921664
v 158.31444253 -199.02244046 450.71575763
v 116.20083258 79.36091313 104.20414289
v 190.08358825 -216.93496784 130.55921664
v 211.10692948 -221.64397592 130.55921664
v 332.36470770 -221.18229084 130.75797712
v 332.36470770 -130.97316002 130.55921664
v 220.91635574 721.62775426 104.20414289
v 130.75889770 -150.73238279 130.55921664
v 153.90020520 -204.65472883 130.55921664
v 225.77647302 79.36091313 104.20414289
v 331.67359546 -221.18229084 130.55921664
v 332.36470770 -219.33564039 130.55921664
v 221.25076851 679.61634408 104.20414289
f 1 2 3
f 1 3 4
f 1 4 5
f 1 5 6
f 1 6 7
f 1 7 8
f 1 8 2
f 2 8 7
f 2 7 9
f 2 9 10
f 2 10 11
f 2 11 12
f 2 12 3
f 3 12 13
f 3 13 4
f 4 13 14
f 4 14 24
f 4 24 31
f 4 31 25
f 4 25 15
f 4 15 5
f 5 15 16
f 5 16 6
f 6 16 26
f 6 26 17
f 6 17 10
f 6 10 9
f 6 9 7
f 10 17 11
f 11 18 19
f 11 19 20
f 11 20 12
f 11 17 21
f 11 21 18
f 12 20 13
f 13 22 23
f 13 23 24
f 13 24 14
f 13 20 22
f 15 25 26
f 15 26 16
f 17 26 32
f 17 32 29
f 17 29 21
f 18 27 19
f 18 21 27
f 19 28 20
f 19 27 21
f 19 21 28
f 20 28 22
f 21 29 23
f 21 23 22
f 21 22 28
f 23 30 24
f 23 29 30
f 24 30 31
f 25 31 29
f 25 29 32
f 25 32 26
f 29 31 30

