# https://github.com/mikedh/trimesh
v -2292.99653647 -331.77141429 104.73205900
v -2292.99653647 -331.77141429 503.12907869
v -2292.99653647 -203.41053809 104.73205900
v -2202.61499828 -331.77141429 104.73205900
v -2261.49698787 -331.77141429 511.04323716
v -2261.49698787 -331.64971365 511.09495487
v -2179.06227434 -125.40216005 607.71993566
v -2187.00891925 -90.50527203 614.08229306
v -2292.99653647 -318.71929624 505.24986449
v -2292.99653647 -218.28809828 450.73020355
v -2212.85950938 -20.95490849 571.35624830
v -2205.48728607 -20.95490849 511.04323716
v -2261.49698787 -184.57777462 104.73205900
v -2195.24277498 -331.77141429 104.88723461
v -1599.05101521 -284.24838291 104.73205900
v -2224.06144974 -331.77141429 490.92163091
v -1315.07726191 -268.79273908 450.73020355
v -1315.07726191 -259.26987210 487.76632231
v -1315.07726191 -255.01043969 503.95669694
v -1899.68416352 -125.76725073 608.44409601
v -1959.90641030 -126.74083336 609.58208795
v -2080.54267728 -127.34932530 610.30624829
v -2140.86072090 -127.62314612 610.61662199
v -2140.86072090 -90.50527203 626.44489398
v -2190.83863631 -30.20395467 617.34104833
v -2140.86072090 -30.20395467 633.16934279
v -2292.99653647 -271.34838505 505.56021572
v -2292.99653647 -225.04233757 488.07668476
v -2190.83863631 -20.95490849 617.34104833
v -2292.99653647 -228.08478609 495.93910305
v -2183.56220985 -20.95490849 473.80019137
v -2201.17894425 -180.83556430 104.73205900
v -2140.86072090 -20.95490849 466.81712028
v -2215.54038321 -331.77141429 450.73020355
v -1315.07726191 -269.09697944 149.42371395
v -1599.05101521 -174.68981696 104.73205900
v -1315.07726191 -224.49469594 512.64675593
v -1899.68416352 -90.50527203 622.61715397
v -1959.90641030 -90.50527203 625.41038240
v -2020.22463365 -90.50527203 625.77245135
v -1959.90641030 -30.20395467 633.16934279
v -2183.17920220 -20.95490849 619.77218535
v -2140.86072090 -20.95490849 633.16934279
v -2187.20051295 -180.62259380 104.73205900
v -2089.73396226 -20.95490849 466.81712028
v -1315.07726191 -155.64409422 149.42371395
v -1718.82564977 -175.63296880 104.73205900
v -1779.23949024 -176.15019089 104.73205900
v -1839.36594017 -176.66740175 104.73205900
v -1899.68416352 -177.27589370 104.73205900
v -1959.90641030 -177.94523596 104.73205900
v -2020.22463365 -178.64499777 104.73205900
v -1899.68416352 -30.20395467 629.70367172
v -1315.07726191 -209.64753283 511.14667259
v -1899.68416352 -20.95490849 629.65193154
v -1950.61932847 -20.95490849 632.60035805
v -1959.90641030 -20.95490849 633.01416718
v -1959.90641030 -20.95490849 466.86884923
v -1315.07726191 -155.64409422 163.75192506
v -1899.68416352 -20.95490849 468.36891011
v -1868.95063024 -20.95490849 474.36917611
v -1863.49326546 -20.95490849 475.45543910
v -1853.05734040 -20.95490849 511.04323716
v -1848.74881885 -20.95490849 571.35624830
v -1315.07726191 -173.62495324 499.19785832
v -1893.55658029 -20.95490849 627.27253469
v -1315.07726191 -155.82663394 390.41716994
v -1859.18492364 -20.95490849 613.87537726
v -1315.07726191 -157.16530724 450.73020355
v -1315.07726191 -169.51765224 489.52502793
v -1315.07726191 -159.20375358 460.86858324
f 1 2 9
f 1 9 27
f 1 27 30
f 1 30 28
f 1 28 10
f 1 10 3
f 1 3 13
f 1 13 32
f 1 32 44
f 1 44 52
f 1 52 51
f 1 51 50
f 1 50 49
f 1 49 48
f 1 48 47
f 1 47 36
f 1 36 15
f 1 15 4
f 1 4 14
f 1 14 34
f 1 34 16
f 1 16 5
f 1 5 2
f 2 5 6
f 2 6 7
f 2 7 8
f 2 8 9
f 3 10 11
f 3 11 12
f 3 12 13
f 4 15 14
f 5 16 17
f 5 17 18
f 5 18 19
f 5 19 20
f 5 20 21
f 5 21 22
f 5 22 23
f 5 23 7
f 5 7 6
f 7 23 24
f 7 24 8
f 8 25 9
f 8 24 26
f 8 26 25
f 9 25 27
f 10 28 11
f 11 29 42
f 11 42 43
f 11 43 57
f 11 57 56
f 11 56 55
f 11 55 66
f 11 66 68
f 11 68 64
f 11 64 63
f 11 63 62
f 11 62 61
f 11 61 60
f 11 60 58
f 11 58 45
f 11 45 33
f 11 33 31
f 11 31 12
f 11 28 30
f 11 30 29
f 12 31 13
f 13 31 33
f 13 33 32
f 14 15 35
f 14 35 17
f 14 17 34
f 15 36 46
f 15 46 35
f 16 34 17
f 17 35 46
f 17 46 59
f 17 59 67
f 17 67 69
f 17 69 71
f 17 71 70
f 17 70 65
f 17 65 54
f 17 54 37
f 17 37 19
f 17 19 18
f 19 37 38
f 19 38 20
f 20 39 21
f 20 38 39
f 21 39 22
f 22 39 23
f 23 39 40
f 23 40 24
f 24 40 41
f 24 41 26
f 25 26 42
f 25 42 29
f 25 29 27
f 26 43 42
f 26 41 43
f 27 29 30
f 32 33 44
f 33 45 46
f 33 46 36
f 33 36 47
f 33 47 48
f 33 48 49
f 33 49 50
f 33 50 51
f 33 51 52
f 33 52 44
f 37 53 38
f 37 54 55
f 37 55 53
f 38 53 41
f 38 41 39
f 39 41 40
f 41 53 56
f 41 56 57
f 41 57 43
f 45 58 46
f 46 58 60
f 46 60 61
f 46 61 62
f 46 62 63
f 46 63 64
f 46 64 59
f 53 55 56
f 54 65 55
f 55 65 66
f 59 64 67
f 64 68 69
f 64 69 67
f 65 70 68
f 65 68 66
f 68 70 71
f 68 71 69

