# https://github.com/mikedh/trimesh
v -2261.52790168 -751.00179910 514.34755434
v -2299.89354990 -693.46455998 498.74646286
v -2293.14463515 -753.73829980 500.99371218
v -2293.14463515 -814.08231462 495.37557765
v -2293.14463515 -845.58743488 486.55943707
v -2207.30616802 -751.00179910 499.09217625
v -2261.58541573 -331.82180648 511.01989454
v -2293.14463515 -271.47783660 505.61786457
v -2293.14463515 -318.84083961 505.22890332
v -2299.58674837 -753.73829980 498.27107326
v -2300.52620449 -572.84680534 499.52434044
v -2312.47115454 -271.47783660 450.73306802
v -2297.15174712 -814.08231462 493.34441043
v -2293.81557254 -846.28910634 486.04084453
v -2293.14463515 -846.28910634 486.17049828
v -2185.39133649 -751.00179910 450.73306802
v -2224.15940336 -331.82180648 490.96750736
v -2293.14463515 -228.18455949 495.93739560
v -2298.72403756 -229.58790240 494.59767761
v -2302.07926368 -271.47783660 501.29622262
v -2301.13980755 -452.36937600 500.30224048
v -2300.83300602 -512.71334588 499.91330169
v -2307.46689266 -753.73829980 450.73306802
v -2302.23257458 -223.76402033 450.73306802
v -2334.32865174 -210.71289081 72.93554917
v -2341.80619766 -271.47783660 72.93554917
v -2341.69098982 -302.28133035 72.93554917
v -2341.36513676 -362.34460468 72.93554917
v -2339.62030415 -662.80139154 72.93554917
v -2339.25616830 -723.00503611 72.93554917
v -2339.00688082 -753.73829980 72.93554917
v -2302.61612142 -814.08231462 450.73306802
v -2336.95524669 -814.08231462 72.93554917
v -2325.87318718 -843.55260563 72.93554917
v -2315.92235722 -868.25147683 72.93554917
v -2293.14463515 -876.95227478 72.93554917
v -2145.95197278 -751.00179910 104.74279795
v -2215.68488727 -331.82180648 450.73306802
v -2293.14463515 -225.16736324 488.07201175
v -2293.14463515 -218.43129929 450.73306802
v -2338.60410272 -782.92794021 72.93554917
v -2309.21172527 -166.85826755 72.93554917
v -2293.14463515 -160.12220359 72.93554917
v -2195.28465240 -331.82180648 104.87242924
v -2304.18823214 -164.19190703 72.93554917
f 1 2 3
f 1 3 4
f 1 4 5
f 1 5 6
f 1 6 7
f 1 7 8
f 1 8 9
f 1 9 2
f 2 10 3
f 2 9 11
f 2 11 12
f 2 12 10
f 3 10 4
f 4 10 13
f 4 13 14
f 4 14 5
f 5 14 15
f 5 15 6
f 6 15 16
f 6 16 17
f 6 17 7
f 7 17 18
f 7 18 8
f 8 18 19
f 8 19 20
f 8 20 21
f 8 21 9
f 9 21 22
f 9 22 11
f 10 23 13
f 10 12 23
f 11 22 12
f 12 21 20
f 12 20 19
f 12 19 24
f 12 24 25
f 12 25 26
f 12 26 27
f 12 27 28
f 12 28 29
f 12 29 30
f 12 30 31
f 12 31 23
f 12 22 21
f 13 32 14
f 13 23 32
f 14 32 33
f 14 33 34
f 14 34 35
f 14 35 36
f 14 36 15
f 15 36 37
f 15 37 16
f 16 37 38
f 16 38 17
f 17 38 39
f 17 39 18
f 18 39 19
f 19 39 40
f 19 40 24
f 23 31 41
f 23 41 33
f 23 33 32
f 24 40 42
f 24 42 25
f 25 42 45
f 25 45 43
f 25 43 36
f 25 36 35
f 25 35 34
f 25 34 33
f 25 33 41
f 25 41 31
f 25 31 30
f 25 30 29
f 25 29 28
f 25 28 27
f 25 27 26
f 36 43 37
f 37 43 44
f 37 44 38
f 38 44 43
f 38 43 40
f 38 40 39
f 40 43 45
f 40 45 42

