# https://github.com/mikedh/trimesh
v -2293.15991232 214.29765641 47.50887807
v -2293.15991232 418.01052521 47.50887807
v -2244.36714588 167.87273907 47.50887807
v -2186.76825889 282.52619647 429.67165742
v -2200.94637180 331.73528827 429.67165742
v -2293.15991232 239.65692823 49.56633101
v -2293.15991232 393.75819672 49.60373761
v -2192.30668253 367.32547900 429.67165742
v -2187.87594361 381.38045343 429.67165742
v -2261.48063231 451.88998738 47.50887807
v -2189.98059852 161.93544647 47.50887807
v -2140.91068623 270.51744177 429.67165742
v -2151.26752946 272.09400084 429.67165742
v -2293.15991232 331.73528827 51.58637735
v -2293.15991232 317.44551722 51.58637735
v -2201.16798063 497.84528899 47.50887807
v -2140.91068623 393.95945098 429.67165742
v -2140.85532896 161.93544647 47.50887807
v -2095.55168853 270.48389939 429.67165742
v -2140.85532896 503.31294339 47.50887807
v -2125.90185471 394.12714039 429.67165742
v -2020.23002560 163.21011292 47.50887807
v -1960.02826820 271.12122700 429.67165742
v -1975.09245700 270.98705750 429.67165742
v -2035.29439413 270.68515365 429.67165742
v -2080.59803455 270.51744177 429.67165742
v -2080.54267728 503.78258159 47.50887807
v -1960.02826820 395.13350154 429.67165742
v -1960.08362548 504.62116345 47.50887807
v -1960.08362548 163.91453651 47.50887807
v -1899.77097380 165.49110681 47.50887807
v -1915.94302706 273.23450902 429.67165742
v -1899.77097380 392.91956993 429.67165742
v -1847.65515317 504.41990919 47.50887807
v -1907.74619601 504.62116345 47.50887807
v -1899.77097380 274.17374047 429.67165742
v -1839.45832212 183.13526149 47.50887807
v -1890.24502891 390.67211841 429.67165742
v -1796.31451415 495.43010313 47.50887807
v -1865.54400094 285.41097559 429.67165742
v -1779.14567044 229.52663645 47.50887807
v -1863.71631215 380.07223337 429.67165742
v -1734.78346318 436.39264586 47.50887807
v -1737.27579876 271.38958848 47.50887807
v -1727.41753048 331.73528827 47.50887807
v -1863.55006059 297.98999561 429.67165742
v -1861.44558541 344.11303157 429.67165742
v -1727.41753048 383.46017060 47.50887807
v -1860.67022408 331.73528827 429.67165742
f 1 2 10
f 1 10 16
f 1 16 20
f 1 20 27
f 1 27 29
f 1 29 35
f 1 35 34
f 1 34 39
f 1 39 43
f 1 43 48
f 1 48 45
f 1 45 44
f 1 44 41
f 1 41 37
f 1 37 31
f 1 31 30
f 1 30 22
f 1 22 18
f 1 18 11
f 1 11 3
f 1 3 4
f 1 4 5
f 1 5 6
f 1 6 15
f 1 15 14
f 1 14 7
f 1 7 2
f 2 7 5
f 2 5 8
f 2 8 9
f 2 9 10
f 3 11 12
f 3 12 13
f 3 13 4
f 4 13 12
f 4 12 19
f 4 19 26
f 4 26 25
f 4 25 24
f 4 24 23
f 4 23 32
f 4 32 36
f 4 36 40
f 4 40 46
f 4 46 49
f 4 49 47
f 4 47 42
f 4 42 38
f 4 38 33
f 4 33 28
f 4 28 21
f 4 21 17
f 4 17 9
f 4 9 8
f 4 8 5
f 5 7 14
f 5 14 15
f 5 15 6
f 9 16 10
f 9 17 16
f 11 18 19
f 11 19 12
f 16 17 20
f 17 21 20
f 18 22 23
f 18 23 24
f 18 24 25
f 18 25 26
f 18 26 19
f 20 21 27
f 21 28 29
f 21 29 27
f 22 30 23
f 23 30 31
f 23 31 32
f 28 33 34
f 28 34 35
f 28 35 29
f 31 36 32
f 31 37 36
f 33 38 39
f 33 39 34
f 36 37 40
f 37 41 40
f 38 42 39
f 39 42 43
f 40 41 44
f 40 44 45
f 40 45 46
f 42 47 48
f 42 48 43
f 45 48 49
f 45 49 46
f 47 49 48

