# https://github.com/mikedh/trimesh
v -2924.91458858 1378.69086081 -33.16934279
v -2985.19524807 1378.69086081 -33.03888025
v -2985.19524807 1417.22374912 -33.10412275
v -2924.91458858 1417.22374912 -33.16934279
v -2293.17177460 1295.74364314 -33.16934279
v -3001.79020935 1378.69086081 -27.36431005
v -3031.29222297 1417.22374912 -17.25444025
v -3026.04442502 1464.38428469 -12.03643279
v -2985.19524807 1473.12013026 -17.31966029
v -1599.02082034 1477.48805305 -23.71171831
v -2293.17177460 1417.22374912 -33.16934279
v -2293.17177460 1295.74364314 47.12263525
v -3047.46193972 1378.69086081 88.99709008
v -3047.31995190 1378.69086081 28.66397149
v -3037.10761273 1378.69086081 -0.62204989
v -3031.15059461 1378.69086081 -17.25444025
v -1599.02082034 1295.74364314 -33.16934279
v -3047.60356808 1417.22374912 28.66397149
v -2985.19524807 1499.56545165 28.66397149
v -3031.57583914 1472.99036418 28.66397149
v -2428.48454971 1507.84720579 -1.79610045
v -2293.17177460 1508.53917175 -2.90493097
v -2201.26144097 1509.01492082 -3.62241879
v -1959.99645574 1510.26908665 -5.44871466
v -1779.29592591 1511.17726951 -6.68798525
v -1599.02082034 1512.10702013 -7.86203581
v -1599.02082034 1417.20209148 -33.16934279
v -3047.46193972 1378.69086081 450.73498890
v -2227.50132935 1295.74364314 571.33602851
v -3048.02917208 1417.22374912 88.99709008
v -1599.02082034 1295.74364314 47.12263525
v -2985.19524807 1500.25741761 88.99709008
v -2924.91458858 1500.92772593 28.66397149
v -3031.71782697 1473.07681499 88.99709008
v -2293.17177460 1508.56073952 -2.83971093
v -2467.48968232 1507.58776349 28.66397149
v -2437.42025662 1507.93365660 28.66397149
v -2382.10377890 1508.51760398 28.66397149
v -2321.96474777 1509.14468690 28.66397149
v -1599.02082034 1516.64793441 29.51189938
v -1599.02082034 1516.62636664 28.66397149
v -1658.59243938 1511.80435242 -7.47069311
v -1599.02082034 1512.17190317 -7.34023057
v -3048.02917208 1417.22374912 450.73498890
v -3031.43421079 1378.69086081 505.00219460
v -2198.85016427 1295.74364314 617.31966029
v -1599.02082034 1439.84177982 497.69698865
v -1866.10026968 1295.74364314 606.75320529
v -2985.19524807 1500.25741761 390.40185907
v -2924.91458858 1501.38181736 88.99709008
v -3031.71782697 1473.07681499 450.73498890
v -2438.27128488 1507.95540411 88.99709008
v -2468.48251867 1507.58776349 88.99709008
v -2293.17177460 1509.46892238 88.99709008
v -1599.02082034 1516.64793441 450.73498890
v -3031.57583914 1417.22374912 505.06741464
v -3026.18605338 1464.51396091 496.97952329
v -2140.98060175 1295.74364314 633.16934279
v -1599.02082034 1477.48805305 509.24183409
v -1899.85742461 1295.74364314 622.53766775
v -2985.19524807 1499.76010077 450.73498890
v -2468.48251867 1507.56610585 450.73498890
v -2438.27128488 1507.95540411 450.73498890
v -2293.17177460 1509.46892238 450.73498890
v -1839.57658539 1510.89616957 489.60909730
v -1599.02082034 1512.15033540 492.34854111
v -2429.61919415 1507.86877356 481.45597469
v -2321.96474777 1508.43097344 483.02136794
v -2985.19524807 1473.33634716 505.06741464
v -2140.98060175 1296.67348363 633.16934279
v -1959.99645574 1295.74364314 633.16934279
v -1599.02082034 1511.65301857 492.60944373
v -1959.99645574 1346.36391864 617.31966029
v -1899.85742461 1340.07152169 611.90599271
v -1899.85742461 1296.67348363 622.53766775
v -1779.29592591 1511.19883728 490.32656266
v -2080.55795445 1509.64200373 486.47829956
v -2020.27711523 1509.94467144 487.32622746
v -1658.59243938 1511.82592019 491.69629579
v -2140.98060175 1345.62872727 617.31966029
v -2293.17177460 1508.56073952 483.47794190
v -2201.26144097 1509.01492082 484.84767504
v -2140.98060175 1509.31758852 485.69559171
v -1959.99645574 1296.67348363 633.16934279
f 1 2 3
f 1 3 4
f 1 4 11
f 1 11 27
f 1 27 17
f 1 17 5
f 1 5 2
f 2 6 3
f 2 5 6
f 3 6 7
f 3 7 8
f 3 8 9
f 3 9 10
f 3 10 4
f 4 10 11
f 5 12 28
f 5 28 13
f 5 13 14
f 5 14 15
f 5 15 16
f 5 16 6
f 5 17 31
f 5 31 48
f 5 48 60
f 5 60 71
f 5 71 58
f 5 58 46
f 5 46 29
f 5 29 12
f 6 16 7
f 7 16 15
f 7 15 18
f 7 18 8
f 8 19 9
f 8 18 20
f 8 20 19
f 9 19 21
f 9 21 22
f 9 22 23
f 9 23 24
f 9 24 25
f 9 25 26
f 9 26 10
f 10 26 43
f 10 43 41
f 10 41 40
f 10 40 55
f 10 55 66
f 10 66 72
f 10 72 59
f 10 59 47
f 10 47 31
f 10 31 17
f 10 17 27
f 10 27 11
f 12 29 28
f 13 28 44
f 13 44 30
f 13 30 14
f 14 30 18
f 14 18 15
f 18 30 20
f 19 20 32
f 19 32 33
f 19 33 21
f 20 30 34
f 20 34 32
f 21 35 22
f 21 33 36
f 21 36 37
f 21 37 38
f 21 38 39
f 21 39 40
f 21 40 41
f 21 41 35
f 22 35 23
f 23 35 24
f 24 35 41
f 24 41 42
f 24 42 25
f 25 42 26
f 26 42 43
f 28 29 45
f 28 45 44
f 29 46 45
f 30 44 51
f 30 51 34
f 31 47 48
f 32 34 51
f 32 51 49
f 32 49 50
f 32 50 33
f 33 50 36
f 36 52 37
f 36 50 53
f 36 53 52
f 37 52 38
f 38 52 54
f 38 54 39
f 39 54 40
f 40 54 64
f 40 64 55
f 41 43 42
f 44 45 56
f 44 56 57
f 44 57 51
f 45 46 58
f 45 58 56
f 47 59 48
f 48 59 60
f 49 51 61
f 49 61 62
f 49 62 50
f 50 62 53
f 51 57 61
f 52 53 63
f 52 63 64
f 52 64 54
f 53 62 63
f 55 65 66
f 55 64 67
f 55 67 68
f 55 68 65
f 56 69 57
f 56 58 70
f 56 70 69
f 57 69 61
f 58 71 84
f 58 84 70
f 59 72 73
f 59 73 74
f 59 74 75
f 59 75 60
f 60 75 84
f 60 84 71
f 61 69 67
f 61 67 62
f 62 67 63
f 63 67 64
f 65 76 66
f 65 68 77
f 65 77 78
f 65 78 69
f 65 69 76
f 66 76 79
f 66 79 69
f 66 69 80
f 66 80 73
f 66 73 72
f 67 69 81
f 67 81 68
f 68 81 82
f 68 82 77
f 69 70 80
f 69 79 76
f 69 78 83
f 69 83 82
f 69 82 81
f 70 84 73
f 70 73 80
f 73 84 74
f 74 84 75
f 77 82 83
f 77 83 78

