# https://github.com/mikedh/trimesh
v -81.20022829 1442.21666092 145.97127560
v -81.20022829 1448.96854123 450.74042577
v -81.20022829 1532.39869723 145.97127560
v 2870.23022625 1474.56615938 145.97127560
v 2870.23022625 1475.64373910 450.74042577
v -81.20022829 1453.25585448 458.56858275
v 2870.23022625 1491.18799052 504.72648660
v -81.20022829 1532.39869723 450.74042577
v -26.87586800 1532.97186072 145.97127560
v 2870.23022625 1559.32605828 145.97127560
v -81.20022829 1478.33764346 503.06916073
v 1597.94243183 1486.64851410 506.20749595
v 2870.23022625 1533.44185838 504.40912585
v 2683.56261334 1532.34136290 504.79700872
v 2563.06653687 1531.74519379 505.00857506
v 2442.28145228 1531.21804154 505.22014141
v 2261.39292338 1530.54171222 505.46698005
v 2261.39292338 1490.03025059 505.46698005
v 2140.89702664 1489.41116572 505.60802428
v 1718.72733669 1487.22167759 506.10170155
v 1658.33488426 1486.91218009 506.17222366
v -81.20022829 1521.92125421 495.24100375
v -30.05441813 1532.93753202 450.74042577
v 392.11518197 1537.31650829 450.74042577
v 1477.44635536 1548.57344646 450.74042577
v 1477.44635536 1548.57344646 145.97127560
v 2870.23022625 1559.28022676 444.85166066
v 1597.94243183 1549.74277907 145.97127560
v 1597.94243183 1549.74277907 450.74042577
v 573.00371087 1483.32420179 504.90280312
v 452.50763440 1482.68220116 504.65596449
v 331.72263967 1481.94853751 504.37385356
v 211.22656320 1481.10029509 504.05651528
v 90.73057660 1480.10296545 503.66863241
v -81.20022829 1520.04126358 503.06916073
v 1537.83880779 1486.47660099 506.17222366
v 1597.94243183 1528.71887617 506.20749595
v 2870.23022625 1536.05551266 499.15508224
v 1658.33488426 1528.89087914 506.17222366
v 1718.72733669 1529.02855341 506.10170155
v 2140.89702664 1530.14037196 505.60802428
v 1537.83880779 1549.19244146 450.74042577
v 1541.01735792 1549.22694990 145.97127560
v 2870.23022625 1559.24589806 450.74042577
v 693.78866066 1483.88586247 505.11436947
v 573.00371087 1523.43441302 504.90280312
v 452.50763440 1522.81541802 504.65596449
v 331.72263967 1522.18492020 504.37385356
v 211.22656320 1521.56592520 504.05651528
v 90.73057660 1520.93542738 503.66863241
v -30.05441813 1520.31625265 503.24547725
v 1537.83880779 1528.44388710 506.17222366
v 1417.05390293 1486.20143219 506.03117943
v 995.17322109 1485.03218945 505.53750216
v 814.28469219 1484.37877588 505.29066352
v 1477.44635536 1528.13438960 506.10170155
v 392.11518197 1522.50592052 504.51492026
v 633.39616329 1523.75541333 505.00857506
v 693.78866066 1524.06491084 505.11436947
v 814.28469219 1524.69540865 505.29066352
v 1055.56576339 1525.94490147 505.60802428
v 1417.05390293 1527.81338929 506.03117943
v 995.17322109 1525.62390116 505.53750216
f 1 2 6
f 1 6 11
f 1 11 35
f 1 35 22
f 1 22 8
f 1 8 3
f 1 3 9
f 1 9 26
f 1 26 43
f 1 43 28
f 1 28 10
f 1 10 4
f 1 4 5
f 1 5 2
f 2 5 7
f 2 7 6
f 3 8 9
f 4 10 27
f 4 27 44
f 4 44 38
f 4 38 13
f 4 13 7
f 4 7 5
f 6 7 12
f 6 12 11
f 7 13 14
f 7 14 15
f 7 15 16
f 7 16 17
f 7 17 18
f 7 18 19
f 7 19 20
f 7 20 21
f 7 21 12
f 8 22 23
f 8 23 9
f 9 23 24
f 9 24 25
f 9 25 26
f 10 28 29
f 10 29 27
f 11 30 31
f 11 31 32
f 11 32 33
f 11 33 34
f 11 34 50
f 11 50 35
f 11 12 36
f 11 36 30
f 12 21 39
f 12 39 37
f 12 37 52
f 12 52 36
f 13 16 14
f 13 38 37
f 13 37 39
f 13 39 16
f 14 16 15
f 16 39 17
f 17 39 40
f 17 40 41
f 17 41 19
f 17 19 18
f 19 41 40
f 19 40 20
f 20 40 39
f 20 39 21
f 22 24 23
f 22 35 42
f 22 42 25
f 22 25 24
f 25 42 43
f 25 43 26
f 27 29 44
f 28 43 29
f 29 43 42
f 29 42 35
f 29 35 44
f 30 45 59
f 30 59 58
f 30 58 46
f 30 46 47
f 30 47 31
f 30 36 45
f 31 47 57
f 31 57 48
f 31 48 32
f 32 48 49
f 32 49 33
f 33 49 50
f 33 50 34
f 35 50 51
f 35 51 44
f 36 52 56
f 36 56 62
f 36 62 53
f 36 53 54
f 36 54 55
f 36 55 45
f 37 38 44
f 37 44 52
f 44 56 52
f 44 51 50
f 44 50 49
f 44 49 57
f 44 57 47
f 44 47 58
f 44 58 59
f 44 59 60
f 44 60 61
f 44 61 56
f 45 55 60
f 45 60 59
f 46 58 47
f 48 57 49
f 53 62 63
f 53 63 54
f 54 63 60
f 54 60 55
f 56 61 63
f 56 63 62
f 60 63 61

