# https://github.com/mikedh/trimesh
v -1599.02064060 -1345.21561461 -18.31777625
v -1599.02064060 -1345.21561461 48.45174909
v -1599.02064060 -1296.39525939 -33.16934279
v -1598.72354457 -1345.21561461 -33.16934279
v -1312.62671389 -1345.21561461 51.34699757
v -1599.02064060 -271.93383768 149.41027902
v -1599.02064060 1265.52504036 -33.16934279
v -81.48914655 -1345.21561461 -33.16934279
v -479.73721382 -1345.21561461 51.34699757
v -1296.58388752 -268.86660870 149.41027902
v -1599.02064060 -191.41854335 149.41027902
v -1599.02064060 1265.52504036 47.09349629
v -81.48914655 1265.52504036 -33.16934279
v -81.48914655 -1345.21561461 47.43305387
v -1236.27474060 -258.13122863 149.41027902
v -1289.15666640 138.56640804 149.41027902
v -1277.12454662 853.49121386 149.24944187
v -1291.83044084 813.87256805 149.24944187
v -874.27158068 1265.52504036 97.34934388
v -81.48914655 1265.52504036 79.94208644
v -1203.29788962 -244.58419766 149.41027902
v -81.48914655 794.95781335 149.24944187
v -523.26074935 138.56640804 141.72534552
v -1287.81973424 138.56640804 149.41027902
v -271.47770180 879.30720568 149.24944187
v -331.78680379 879.05162761 149.24944187
v -573.17175974 877.77355749 149.24944187
v -753.95047274 876.75115532 149.24944187
v -814.40816768 876.23999917 149.24944187
v -1236.27474060 863.71532544 149.24944187
v -814.40816768 1265.52504036 101.08458960
v -181.60821843 1265.52504036 92.22010127
v -81.48914655 875.98433123 149.24944187
v -1200.62402531 -211.10007722 149.41027902
v -1203.89208168 138.31079626 149.41027902
v -331.78680379 1265.52504036 101.15607778
v -753.95047274 1265.52504036 101.15607778
v -211.16859982 1265.52504036 95.83023146
v -241.91732041 1265.52504036 98.13571376
v -271.47770180 1265.52504036 100.35182461
v -1200.92112134 -150.77748414 149.41027902
f 1 2 6
f 1 6 11
f 1 11 12
f 1 12 7
f 1 7 3
f 1 3 4
f 1 4 8
f 1 8 14
f 1 14 9
f 1 9 5
f 1 5 2
f 2 5 6
f 3 7 13
f 3 13 8
f 3 8 4
f 5 9 6
f 6 10 15
f 6 15 21
f 6 21 34
f 6 34 41
f 6 41 35
f 6 35 24
f 6 24 16
f 6 16 11
f 6 9 10
f 7 12 19
f 7 19 31
f 7 31 37
f 7 37 36
f 7 36 40
f 7 40 39
f 7 39 38
f 7 38 32
f 7 32 20
f 7 20 13
f 8 13 20
f 8 20 33
f 8 33 22
f 8 22 14
f 9 14 10
f 10 14 15
f 11 16 17
f 11 17 18
f 11 18 12
f 12 18 17
f 12 17 19
f 14 21 15
f 14 22 23
f 14 23 21
f 16 24 25
f 16 25 26
f 16 26 27
f 16 27 28
f 16 28 29
f 16 29 30
f 16 30 17
f 17 30 31
f 17 31 19
f 20 32 33
f 21 23 22
f 21 22 34
f 22 33 34
f 24 35 25
f 25 36 37
f 25 37 26
f 25 35 33
f 25 33 36
f 26 37 27
f 27 37 28
f 28 37 29
f 29 37 31
f 29 31 30
f 32 38 33
f 33 38 39
f 33 39 40
f 33 40 36
f 33 35 41
f 33 41 34

