# https://github.com/mikedh/trimesh
v -1599.02064060 1265.78061844 -33.16934279
v -1599.02064060 1265.78061844 47.12245552
v -1599.02064060 1417.23219650 -33.16934279
v -81.48914655 1265.78061844 -33.16934279
v -1599.02064060 1439.83378178 497.78746095
v -874.42012869 1265.78061844 97.39119883
v -1599.02064060 1477.52058443 -23.71075225
v -1296.58388752 1477.52058443 -25.57059050
v -1055.34747958 1477.52058443 -26.89905281
v -874.42012869 1477.52058443 -27.80238291
v -753.95047274 1477.52058443 -28.38691442
v -452.40500776 1477.52058443 -29.71537673
v -331.78680379 1477.52058443 -30.19361957
v -81.48914655 1477.52058443 -31.09694967
v -81.48914655 1417.23219650 -33.16934279
v -81.48914655 1265.78061844 79.96185690
v -1417.20200162 1440.79947869 496.29957687
v -81.48914655 1478.32964541 503.04813216
v -512.71406481 1477.52058443 506.44896511
v -573.02321172 1477.52058443 506.92723042
v -633.33226878 1477.52058443 507.35231769
v -753.95047274 1477.52058443 508.09624849
v -814.25961966 1477.52058443 508.41509203
v -874.42012869 1477.52058443 508.68078000
v -934.72927561 1477.52058443 508.94646797
v -995.03833266 1477.52058443 509.15902283
v -1115.65653663 1477.52058443 509.47784390
v -1175.96568355 1477.52058443 509.58413257
v -1296.58388752 1477.52058443 509.69039877
v -1477.51114853 1477.52058443 509.53099947
v -1599.02064060 1477.52058443 509.21215594
v -814.25961966 1265.78061844 101.11085286
v -784.69919334 1265.78061844 101.16398596
v -753.95047274 1265.78061844 101.21714153
v -331.78680379 1265.78061844 101.21714153
v -271.47770180 1265.78061844 100.36692205
v -1599.02064060 1478.01646342 -23.49819738
v -452.40500776 1518.07823703 -13.88018508
v -211.16859982 1519.33096502 -14.83667075
v -90.55039585 1519.95732901 -15.26178049
v -81.48914655 1513.64138725 -17.65299467
v -85.20275711 1265.78061844 80.44009974
v -81.48914655 1448.94230044 450.76015129
v -169.57609865 1447.24590546 481.26147159
v -1296.58388752 1441.39978162 495.18366943
v -1356.89294457 1441.11266068 495.76820093
v -874.42012869 1443.59205559 490.82635080
v -814.25961966 1443.90523759 490.13555309
v -633.33226878 1444.84478358 487.90373821
v -573.02321172 1445.15796557 487.10667430
v -452.40500776 1445.78432956 485.45939092
v -392.09590577 1446.09751156 484.60917145
v -211.16859982 1447.03705755 481.89913620
v -81.48914655 1453.24866522 458.57145845
v -81.48914655 1520.03551217 503.04813216
v -1236.27474060 1441.71296362 494.65229349
v -1175.96568355 1442.02614561 494.06778445
v -934.72927561 1443.27887360 491.51714850
v -995.03833266 1515.31163131 497.89372715
v -1115.65653663 1514.68526732 496.93724148
v -1236.27474060 1514.05890333 495.92762270
v -1356.89294457 1513.43253934 494.81171526
v -1477.51114853 1512.80617535 493.64267472
v -1599.02064060 1512.17981136 492.36734551
v -150.85949784 1519.67011820 502.78244419
v -331.78680379 1518.73066208 501.98535781
v -573.02321172 1517.47793410 500.71005107
v -693.64141569 1516.87763116 499.96612027
v -814.25961966 1516.25126717 499.22218946
v -874.42012869 1515.93799531 498.79707972
v -241.91732041 1265.78061844 98.18826274
v -1599.02064060 1512.15375030 -7.87556060
v -1537.82029545 1512.46684243 -8.30067033
v -1417.20200162 1513.09320642 -9.04460114
v -1175.96568355 1514.34611414 -10.42619655
v -934.72927561 1515.59884212 -11.70152576
v -814.25961966 1516.19896533 -12.28603480
v -81.48914655 1532.35430357 28.63036171
v -81.48914655 1519.98339006 -15.26178049
v -181.60821843 1265.78061844 92.28992692
v -211.16859982 1265.78061844 95.90331475
v -81.48914655 1521.91460415 495.23682500
v -81.48914655 1532.40642568 450.76015129
v -995.03833266 1522.93260290 450.76015129
v -1599.02064060 1516.66878325 450.76015129
v -1599.02064060 1516.64272220 28.63036171
v -1055.34747958 1522.27999812 28.63036171
v -271.47770180 1530.39684869 28.63036171
v -81.48914655 1532.40642568 88.94220460
v -995.03833266 1522.93260290 88.94220460
v -1599.02064060 1516.66878325 88.94220460
f 1 2 5
f 1 5 31
f 1 31 64
f 1 64 85
f 1 85 91
f 1 91 86
f 1 86 72
f 1 72 37
f 1 37 7
f 1 7 3
f 1 3 15
f 1 15 4
f 1 4 16
f 1 16 42
f 1 42 80
f 1 80 81
f 1 81 71
f 1 71 36
f 1 36 35
f 1 35 34
f 1 34 33
f 1 33 32
f 1 32 6
f 1 6 2
f 2 6 5
f 3 7 8
f 3 8 9
f 3 9 10
f 3 10 11
f 3 11 12
f 3 12 13
f 3 13 14
f 3 14 15
f 4 15 14
f 4 14 41
f 4 41 79
f 4 79 78
f 4 78 89
f 4 89 83
f 4 83 82
f 4 82 55
f 4 55 18
f 4 18 54
f 4 54 43
f 4 43 16
f 5 17 18
f 5 18 19
f 5 19 20
f 5 20 21
f 5 21 22
f 5 22 23
f 5 23 24
f 5 24 25
f 5 25 26
f 5 26 27
f 5 27 28
f 5 28 29
f 5 29 30
f 5 30 31
f 5 6 32
f 5 32 33
f 5 33 34
f 5 34 35
f 5 35 36
f 5 36 17
f 7 37 38
f 7 38 8
f 8 38 39
f 8 39 40
f 8 40 9
f 9 40 10
f 10 40 11
f 11 40 12
f 12 40 13
f 13 40 41
f 13 41 14
f 16 43 44
f 16 44 42
f 17 45 56
f 17 56 46
f 17 46 18
f 17 36 45
f 18 47 48
f 18 48 49
f 18 49 50
f 18 50 51
f 18 51 52
f 18 52 53
f 18 53 44
f 18 44 54
f 18 55 20
f 18 20 19
f 18 46 56
f 18 56 57
f 18 57 58
f 18 58 47
f 20 55 21
f 21 55 22
f 22 55 23
f 23 55 24
f 24 55 25
f 25 55 26
f 26 55 27
f 27 55 28
f 28 55 29
f 29 55 30
f 30 55 31
f 31 59 60
f 31 60 61
f 31 61 62
f 31 62 63
f 31 63 64
f 31 55 65
f 31 65 66
f 31 66 67
f 31 67 68
f 31 68 69
f 31 69 70
f 31 70 59
f 36 52 51
f 36 51 50
f 36 50 49
f 36 49 48
f 36 48 47
f 36 47 58
f 36 58 57
f 36 57 56
f 36 56 45
f 36 71 44
f 36 44 52
f 37 72 73
f 37 73 74
f 37 74 75
f 37 75 76
f 37 76 77
f 37 77 38
f 38 77 76
f 38 76 78
f 38 78 39
f 39 78 40
f 40 78 79
f 40 79 41
f 42 44 80
f 43 54 44
f 44 53 52
f 44 71 81
f 44 81 80
f 55 82 65
f 59 70 83
f 59 83 60
f 60 83 61
f 61 83 62
f 62 83 63
f 63 83 64
f 64 84 85
f 64 83 84
f 65 82 66
f 66 82 83
f 66 83 68
f 66 68 67
f 68 83 69
f 69 83 70
f 72 86 87
f 72 87 88
f 72 88 78
f 72 78 73
f 73 78 74
f 74 78 75
f 75 78 76
f 78 88 89
f 83 89 90
f 83 90 84
f 84 90 91
f 84 91 85
f 86 91 90
f 86 90 89
f 86 89 87
f 87 89 88

