# https://github.com/mikedh/trimesh
v -2227.46358575 1295.74355327 571.37902926
v -2198.84495206 1295.74355327 617.35324760
v -2219.41934667 1295.74355327 511.08268820
v -2221.53226922 934.74248587 511.08268820
v -2221.42119521 874.42525104 511.08268820
v -2226.87047207 1236.19970273 571.37902926
v -2190.94881167 -20.92451142 617.35324760
v -2140.90313751 1295.74355327 633.16934279
v -2140.90313751 -20.92451142 633.16934279
v -2219.01153609 1295.74355327 510.54486440
v -2198.91900140 932.03591045 429.67167989
v -2200.99507901 331.69918472 429.67167989
v -2215.30439586 331.69918472 511.08268820
v -2212.93194114 -20.92451142 571.37902926
v -1960.03401961 1295.74355327 633.16934279
v -1960.03401961 -20.92451142 633.02991614
v -1960.03401961 150.87643752 633.16934279
v -2190.80053325 1295.74355327 473.87306123
v -2190.09616582 1295.74355327 473.77346755
v -2140.90313751 1295.74355327 466.82155740
v -2140.90313751 953.17268467 429.67167989
v -2186.79683618 282.59478647 429.67167989
v -2183.57173562 -20.92451142 473.89297771
v -2186.98231900 -20.92451142 479.58995817
v -2205.55468535 -20.92451142 511.08268820
v -2206.70388804 -20.92451142 520.32535391
v -1899.71957061 633.28526901 626.59589084
v -1899.71957061 693.47359148 626.27718210
v -1899.71957061 814.10801621 625.59993165
v -1899.71957061 995.05963084 624.52426158
v -1899.71957061 1115.69410050 623.76732271
v -1899.71957061 1175.88237804 623.38885328
v -1899.71957061 1236.19970273 622.99047859
v -1900.60942086 1295.74355327 622.73153055
v -1899.71957061 -20.92451142 629.68342947
v -1899.71957061 30.24201279 629.48421966
v -1899.71957061 150.87643752 628.96632358
v -1899.71957061 271.51086225 628.40857205
v -1899.71957061 331.69918472 628.12971876
v -1899.71957061 512.65084428 627.23333078
v -1950.80337344 -20.92451142 632.59168601
v -1960.03401961 1295.74355327 466.82155740
v -1960.03401961 954.46153867 429.67167989
v -2020.34846860 954.07493639 429.67167989
v -2080.58868852 953.68824424 429.67167989
v -2151.32001104 272.15526678 429.67167989
v -2140.90313751 -20.92451142 466.84148512
v -2147.46459239 -20.92451142 467.91713273
v -1859.16407479 -20.92451142 613.86733428
v -1859.46063163 30.24201279 613.66814694
v -1860.05374531 150.87643752 613.15022839
v -1899.71957061 1295.74355327 622.57215372
v -1860.68388366 271.51086225 612.59249933
v -1899.71957061 1295.74355327 473.33523742
v -1864.13149172 925.33399547 429.67167989
v -1892.49077298 942.60429756 429.67167989
v -1899.71957061 946.72859441 429.67167989
v -2140.90313751 270.60867793 429.67167989
v -2089.81933469 -20.92451142 466.84148512
v -2095.60237279 270.47978804 429.67167989
v -1848.78422594 -20.92451142 571.37902926
v -1861.61075859 452.33360945 611.71603907
v -1862.87121502 693.47359148 610.46110938
v -1863.50135337 814.10801621 609.78383646
v -1863.79791021 874.42525104 609.42529475
v -1864.42804856 995.05963084 608.70818886
v -1865.05836665 1115.69410050 607.95124999
v -1865.39194816 1175.88237804 607.57278056
v -1865.68850500 1236.19970273 607.17438340
v -1865.98506184 1295.74355327 606.77600871
v -1861.01764491 331.69918472 612.31362357
v -1861.94434010 512.65084428 611.41723559
v -1862.24089694 572.96803418 611.09852685
v -1899.27473535 1295.74355327 473.43483110
v -1869.06206371 1295.74355327 480.38674125
v -1865.46617723 1295.74355327 511.08268820
v -1862.38917536 1295.74355327 571.37902926
v -1860.31327748 934.74248587 511.08268820
v -1859.72016380 874.42525104 511.08268820
v -1854.90084556 331.69918472 511.08268820
v -1860.64685899 331.69918472 429.67167989
v -1960.03401961 -20.92451142 466.88131810
v -1975.04770388 270.99532514 429.67167989
v -1849.41436429 -20.92451142 562.13638602
v -1850.52654230 150.87643752 571.37902926
v -1853.12150452 -20.92451142 511.08268820
v -1854.67851779 -20.92451142 505.66459474
v -1863.53837804 -20.92451142 475.46661614
v -1863.50135337 298.06074239 429.67167989
v -1899.71957061 -20.92451142 468.41512355
v -1960.03401961 271.12421504 429.67167989
v -1915.91966198 273.31523089 429.67167989
v -1899.71957061 274.21739274 429.67167989
v -1865.54022658 285.43020685 429.67167989
f 1 2 8
f 1 8 15
f 1 15 34
f 1 34 52
f 1 52 70
f 1 70 77
f 1 77 76
f 1 76 75
f 1 75 74
f 1 74 54
f 1 54 42
f 1 42 20
f 1 20 19
f 1 19 18
f 1 18 10
f 1 10 3
f 1 3 4
f 1 4 5
f 1 5 6
f 1 6 7
f 1 7 2
f 2 7 9
f 2 9 8
f 3 10 11
f 3 11 4
f 4 11 12
f 4 12 5
f 5 12 13
f 5 13 14
f 5 14 6
f 6 14 7
f 7 14 26
f 7 26 25
f 7 25 24
f 7 24 23
f 7 23 48
f 7 48 47
f 7 47 59
f 7 59 82
f 7 82 90
f 7 90 88
f 7 88 87
f 7 87 86
f 7 86 84
f 7 84 61
f 7 61 49
f 7 49 35
f 7 35 41
f 7 41 16
f 7 16 9
f 8 9 17
f 8 17 15
f 9 16 17
f 10 18 11
f 11 18 19
f 11 19 20
f 11 20 21
f 11 21 45
f 11 45 44
f 11 44 43
f 11 43 57
f 11 57 56
f 11 56 55
f 11 55 81
f 11 81 89
f 11 89 94
f 11 94 93
f 11 93 92
f 11 92 91
f 11 91 83
f 11 83 60
f 11 60 58
f 11 58 46
f 11 46 22
f 11 22 12
f 12 22 23
f 12 23 24
f 12 24 25
f 12 25 13
f 13 25 26
f 13 26 14
f 15 27 28
f 15 28 29
f 15 29 30
f 15 30 31
f 15 31 32
f 15 32 33
f 15 33 34
f 15 17 35
f 15 35 36
f 15 36 37
f 15 37 38
f 15 38 39
f 15 39 40
f 15 40 27
f 16 41 17
f 17 41 35
f 20 42 43
f 20 43 44
f 20 44 45
f 20 45 21
f 22 46 47
f 22 47 48
f 22 48 23
f 27 40 49
f 27 49 28
f 28 49 29
f 29 49 30
f 30 49 31
f 31 49 32
f 32 49 50
f 32 50 51
f 32 51 33
f 33 52 34
f 33 51 53
f 33 53 52
f 35 49 36
f 36 49 37
f 37 49 38
f 38 49 39
f 39 49 40
f 42 54 55
f 42 55 56
f 42 56 57
f 42 57 43
f 46 58 47
f 47 58 60
f 47 60 59
f 49 61 51
f 49 51 50
f 51 61 62
f 51 62 53
f 52 63 64
f 52 64 65
f 52 65 66
f 52 66 67
f 52 67 68
f 52 68 69
f 52 69 70
f 52 53 71
f 52 71 62
f 52 62 72
f 52 72 73
f 52 73 63
f 53 62 71
f 54 74 55
f 55 74 75
f 55 75 76
f 55 76 77
f 55 77 78
f 55 78 79
f 55 79 61
f 55 61 80
f 55 80 81
f 59 60 82
f 60 83 82
f 61 84 80
f 61 79 78
f 61 78 85
f 61 85 70
f 61 70 66
f 61 66 65
f 61 65 73
f 61 73 62
f 62 73 72
f 63 65 64
f 63 73 65
f 66 70 67
f 67 70 69
f 67 69 68
f 70 85 77
f 77 85 78
f 80 84 81
f 81 84 86
f 81 86 87
f 81 87 88
f 81 88 89
f 82 83 91
f 82 91 92
f 82 92 93
f 82 93 90
f 88 90 94
f 88 94 89
f 90 93 94

