# https://github.com/mikedh/trimesh
v -2924.92824817 -1356.57428076 519.40546604
v -2985.21897261 -1356.57428076 512.49196225
v -2970.01603116 -1402.03015370 513.12872820
v -2921.00866540 -1402.03015370 510.30874225
v -2891.23705466 -1402.03015370 489.52273636
v -2889.80962774 -1356.57428076 493.20691589
v -2924.92824817 -1296.42015219 518.76870010
v -2985.06044950 1378.67118022 506.94295692
v -3010.79888722 1378.67118022 506.94295692
v -2985.21897261 -934.67850149 517.04031291
v -2985.21897261 -994.83280979 516.99481840
v -2985.21897261 -1175.83960196 514.81162086
v -2985.21897261 -1296.42015219 513.31066133
v -3017.61861615 -1296.42015219 487.20307774
v -3017.32421608 -1356.57428076 486.38437867
v -3008.98647560 -1402.03015370 492.34272230
v -2985.21897261 -1402.03015370 511.35486897
v -3021.06262958 -633.09115908 494.70787543
v -3019.81637193 -874.25225955 492.25175574
v -3018.88751996 -1055.25905172 490.20499682
v -2816.15119935 -1402.03015370 54.74502222
v -2890.51201812 -1235.99373053 491.97885605
v -2924.92824817 -994.83280979 515.26645368
v -2924.92824817 -1055.25905172 516.03968071
v -2924.92824817 -1175.83960196 517.44967369
v -2891.75809604 -994.83280979 489.15887010
v -2891.12382387 -1115.41336002 490.56886307
v -2965.48464264 1378.67118022 482.60923256
v -2892.27931716 -934.67850149 487.74887712
v -3031.48489505 1378.67118022 504.98716456
v -3030.12540660 1115.46260643 504.48683722
v -3028.87950841 874.30150596 503.80457676
v -3028.26770266 753.72100066 503.39523846
v -3027.63325076 633.14049535 502.98587769
v -3026.99879885 512.55999005 502.48555035
v -3026.68175263 452.13361331 502.21265066
v -3026.06994689 331.55308555 501.62137923
v -3025.43549498 210.97255778 500.98461328
v -3024.82368923 90.39201877 500.30235282
v -3024.18923733 -29.91631700 499.52912579
v -3023.87219111 -90.34267688 499.11976502
v -3023.26038536 -210.92319903 498.25559389
v -3022.62593345 -331.50374927 497.30043374
v -3021.69708148 -512.51060884 495.79947420
v -3021.38003526 -572.93698558 495.25367482
v -3017.07510834 -1402.03015370 485.70211820
v -3047.61686820 1378.67118022 450.72522723
v -3020.13377761 -814.09813098 492.84304964
v -3018.75164301 -1402.03015370 54.74502222
v -2838.51374184 -934.67850149 54.74502222
v -2920.12492602 1378.67118022 94.58866929
v -2946.42987717 1378.67118022 452.18070349
v -3018.77428916 -1402.03015370 450.67974395
v -3047.39040662 1356.62370690 450.72522723
v -3041.77128356 813.87526402 450.72522723
v -3047.61686820 1378.67118022 94.58866929
v -3047.41305278 1358.80115303 94.58866929
v -3018.77428916 -1402.03015370 63.43238524
v -3018.88751996 -1390.87045022 54.74502222
v -2898.10225564 -108.03508383 54.74502222
v -2911.83247785 -107.76289183 54.74502222
v -3044.33173735 1060.75236278 94.58866929
v -3041.77128356 813.87526402 94.58866929
v -3032.18728543 -107.76289183 54.74502222
v -3026.38699311 -667.38719374 54.74502222
f 1 2 3
f 1 3 4
f 1 4 5
f 1 5 6
f 1 6 7
f 1 7 8
f 1 8 9
f 1 9 10
f 1 10 11
f 1 11 12
f 1 12 13
f 1 13 2
f 2 14 15
f 2 15 16
f 2 16 17
f 2 17 3
f 2 13 18
f 2 18 19
f 2 19 20
f 2 20 14
f 3 17 16
f 3 16 46
f 3 46 53
f 3 53 58
f 3 58 49
f 3 49 21
f 3 21 5
f 3 5 4
f 5 21 6
f 6 22 23
f 6 23 24
f 6 24 25
f 6 25 7
f 6 21 26
f 6 26 27
f 6 27 22
f 7 25 8
f 8 28 52
f 8 52 51
f 8 51 56
f 8 56 47
f 8 47 30
f 8 30 9
f 8 25 24
f 8 24 23
f 8 23 26
f 8 26 29
f 8 29 28
f 9 30 10
f 10 30 11
f 11 30 31
f 11 31 32
f 11 32 33
f 11 33 34
f 11 34 35
f 11 35 36
f 11 36 37
f 11 37 38
f 11 38 39
f 11 39 40
f 11 40 41
f 11 41 42
f 11 42 43
f 11 43 12
f 12 43 44
f 12 44 13
f 13 44 45
f 13 45 18
f 14 20 15
f 15 46 16
f 15 20 47
f 15 47 46
f 18 48 19
f 18 45 47
f 18 47 48
f 19 48 47
f 19 47 20
f 21 29 26
f 21 49 59
f 21 59 65
f 21 65 64
f 21 64 61
f 21 61 60
f 21 60 50
f 21 50 51
f 21 51 52
f 21 52 29
f 22 27 23
f 23 27 26
f 28 29 52
f 30 47 31
f 31 47 32
f 32 47 33
f 33 47 34
f 34 47 35
f 35 47 37
f 35 37 36
f 37 47 39
f 37 39 38
f 39 47 40
f 40 47 42
f 40 42 41
f 42 44 43
f 42 47 44
f 44 47 45
f 46 47 54
f 46 54 55
f 46 55 53
f 47 56 57
f 47 57 54
f 49 58 59
f 50 60 51
f 51 60 61
f 51 61 64
f 51 64 56
f 53 55 63
f 53 63 58
f 54 57 62
f 54 62 55
f 55 62 63
f 56 64 57
f 57 64 62
f 58 63 59
f 59 63 62
f 59 62 65
f 62 64 65

