# https://github.com/mikedh/trimesh
v -1175.98617293 -1345.47119268 508.39222121
v -1215.58648613 -1175.98464521 500.29372571
v -1215.27069803 -1236.26566416 499.93576812
v -1214.86010160 -1345.47119268 499.21989788
v -1142.25966220 -1345.47119268 490.09230522
v -1175.98617293 -1296.60797153 508.16850052
v -1217.13379391 -874.51844178 501.94920933
v -1216.84963854 -934.79946073 501.63600487
v -1216.21806233 -1055.36131890 501.00961841
v -1324.94505595 -1085.37907181 51.38671821
v -1314.39760755 -1314.40991915 51.38671821
v -1312.81866704 -1345.47119268 51.38671821
v -1143.30174496 -1175.98464521 488.03413335
v -1175.98617293 -874.51844178 504.90226393
v -1175.98617293 -934.79946073 505.48391973
v -1175.98617293 -995.08038981 506.02082241
v -1175.98617293 -1115.64233785 507.00516645
v -1175.98617293 -1236.26566416 507.81054294
v -1002.36391566 -1345.47119268 51.38671821
v -1002.36391566 -1303.85150713 51.38671821
v -1002.90077341 -1244.06169415 51.38671821
v -1143.90177830 -1055.36131890 486.42338038
v -1212.64958489 -814.17613442 493.53750937
v -1324.18721843 -874.51844178 51.38671821
v -1324.94505595 -1054.19504173 51.38671821
v -1144.84914261 -874.51844178 483.87301403
v -1145.29119203 -841.24728060 482.57546552
v -1179.20722954 -818.35039660 492.01626265
v -1003.50071688 -1184.39454786 51.38671821
v -1201.43901742 -783.05348261 483.64931581
v -1207.37581576 -783.05348261 483.64931581
v -1316.03981352 -815.89490597 51.38671821
v -1004.19546868 -1124.72740157 51.38671821
v -1004.95339607 -1065.24447998 51.38671821
v -1005.86921751 -1005.88431495 51.38671821
v -1006.91130027 -946.58552820 51.38671821
v -1008.11136695 -887.53225457 51.38671821
v -1102.12249126 -740.26743002 51.38671821
v -1009.65867473 -874.51844178 51.38671821
v -1146.42808311 -718.35268836 51.38671821
v -1159.78608156 -718.35268836 52.10261091
v -1175.98617293 -718.35268836 52.28157847
v -1191.08100594 -718.35268836 51.38671821
v -1239.52347585 -727.74473334 51.38671821
v -1268.44998946 -751.62384954 51.38671821
f 1 2 3
f 1 3 4
f 1 4 12
f 1 12 19
f 1 19 5
f 1 5 6
f 1 6 7
f 1 7 8
f 1 8 9
f 1 9 2
f 2 4 3
f 2 9 4
f 4 10 11
f 4 11 12
f 4 9 8
f 4 8 10
f 5 13 14
f 5 14 15
f 5 15 16
f 5 16 17
f 5 17 18
f 5 18 6
f 5 19 20
f 5 20 21
f 5 21 22
f 5 22 13
f 6 18 7
f 7 16 15
f 7 15 14
f 7 14 23
f 7 23 24
f 7 24 25
f 7 25 10
f 7 10 8
f 7 18 17
f 7 17 16
f 10 25 24
f 10 24 32
f 10 32 45
f 10 45 44
f 10 44 43
f 10 43 40
f 10 40 38
f 10 38 39
f 10 39 37
f 10 37 36
f 10 36 35
f 10 35 34
f 10 34 33
f 10 33 29
f 10 29 21
f 10 21 20
f 10 20 19
f 10 19 12
f 10 12 11
f 13 22 14
f 14 22 26
f 14 26 27
f 14 27 28
f 14 28 23
f 21 29 26
f 21 26 22
f 23 28 30
f 23 30 31
f 23 31 32
f 23 32 24
f 26 29 33
f 26 33 34
f 26 34 35
f 26 35 36
f 26 36 37
f 26 37 27
f 27 38 30
f 27 30 28
f 27 37 39
f 27 39 38
f 30 38 40
f 30 40 41
f 30 41 42
f 30 42 31
f 31 42 43
f 31 43 44
f 31 44 45
f 31 45 32
f 40 43 42
f 40 42 41

