# https://github.com/mikedh/trimesh
v -81.62178833 777.63691686 104.20416536
v -1168.86027153 756.00192715 149.28627558
v -81.62178833 890.88119008 104.20416536
v 104.48209699 721.66086977 104.20416536
v -1168.86027153 756.13447907 397.56572873
v -1168.86027153 864.87279577 149.28627558
v -814.06577933 876.50195771 149.28627558
v -1168.86027153 864.07757411 450.76261137
v -1115.53234222 864.64085237 450.76261137
v -1055.26624098 865.27036167 450.76261137
v -392.20307063 872.14517827 450.76261137
v -150.86657476 874.64659028 450.76261137
v 90.33386443 877.13146700 450.76261137
v -30.19833806 890.66578197 104.20416536
v 220.93304830 721.66086977 104.20416536
v 123.79989940 721.66086977 450.76261137
v -1168.86027153 756.87991513 450.76261137
v 136.31567642 721.66086977 478.05778153
v 149.64765875 721.66086977 504.41031657
v -1168.86027153 855.39708581 494.86111893
v -81.62178833 859.82018614 504.82014914
v 30.06776318 860.39999970 505.02506542
v 90.33386443 860.71470941 505.10704541
v 150.73597742 859.88641717 504.24637905
v 150.73597742 875.49150768 450.76261137
v 90.33386443 890.00320210 104.20416536
v 30.06776318 890.40076800 104.20416536
v -1168.86027153 854.18776297 500.76277978
v -1055.26624098 854.76757652 501.41850739
v -934.59798181 855.39708581 502.03325624
v -814.06577933 856.02659510 502.56604756
v -693.39752016 856.65610440 503.05786012
v -512.59921643 857.58378811 503.67260897
v -392.20307063 858.21329740 504.04146277
v -271.53481146 858.84280669 504.36933781
v 220.79703655 739.75079206 104.20416536
v 207.60106597 721.66086977 450.76261137
v -1168.86027153 757.11185852 454.94295072
v 194.26908364 721.66086977 503.75458896
v 150.73597742 814.13156102 522.89398547
v -1168.86027153 814.14809632 512.23820395
v -1168.86027153 774.62192233 494.73816018
v -1168.86027153 770.81179599 492.32012108
v 189.37158223 854.03867576 495.84472159
v 193.58884516 858.90903772 450.76261137
v 150.73597742 888.13120952 104.20416536
v -1168.86027153 818.91906681 511.62345511
v -1115.53234222 854.45286681 501.09063235
v 220.25285475 799.80202439 104.20416536
v 207.32899754 753.86492059 450.76261137
v 193.72490184 814.13156102 503.42671392
v 194.13302696 753.86492059 503.63163020
v 206.64875905 814.13156102 450.76261137
v 209.50563487 851.75258198 104.20416536
v 205.01630351 866.86062525 104.20416536
v 220.11684300 814.13156102 104.20416536
f 1 2 6
f 1 6 3
f 1 3 14
f 1 14 27
f 1 27 26
f 1 26 46
f 1 46 55
f 1 55 54
f 1 54 56
f 1 56 49
f 1 49 36
f 1 36 15
f 1 15 4
f 1 4 2
f 2 5 17
f 2 17 38
f 2 38 43
f 2 43 42
f 2 42 41
f 2 41 47
f 2 47 28
f 2 28 20
f 2 20 8
f 2 8 6
f 2 4 5
f 3 6 7
f 3 7 8
f 3 8 9
f 3 9 10
f 3 10 11
f 3 11 12
f 3 12 13
f 3 13 14
f 4 15 37
f 4 37 39
f 4 39 19
f 4 19 18
f 4 18 16
f 4 16 5
f 5 16 18
f 5 18 19
f 5 19 17
f 6 8 7
f 8 20 9
f 9 20 10
f 10 20 11
f 11 20 12
f 12 20 13
f 13 21 22
f 13 22 23
f 13 23 24
f 13 24 25
f 13 25 26
f 13 26 27
f 13 27 14
f 13 20 28
f 13 28 29
f 13 29 30
f 13 30 31
f 13 31 32
f 13 32 33
f 13 33 34
f 13 34 35
f 13 35 21
f 15 36 37
f 17 19 38
f 19 39 40
f 19 40 41
f 19 41 42
f 19 42 43
f 19 43 38
f 21 40 22
f 21 35 40
f 22 40 23
f 23 40 24
f 24 40 44
f 24 44 25
f 25 44 45
f 25 45 46
f 25 46 26
f 28 47 48
f 28 48 29
f 29 48 40
f 29 40 30
f 30 40 31
f 31 40 32
f 32 40 33
f 33 40 34
f 34 40 35
f 36 49 50
f 36 50 37
f 37 50 51
f 37 51 52
f 37 52 39
f 39 52 40
f 40 52 51
f 40 51 44
f 40 48 47
f 40 47 41
f 44 51 53
f 44 53 45
f 45 53 54
f 45 54 55
f 45 55 46
f 49 56 50
f 50 56 53
f 50 53 51
f 53 56 54

