# https://github.com/mikedh/trimesh
v 1848.96467628 -249.38152127 55.39866046
v 332.36473016 -221.18514408 130.79451877
v 332.36473016 -219.33211316 130.56919174
v 1848.96467628 -60.48863682 55.39866046
v 2165.41490830 -250.31758496 55.39866046
v 2225.46245614 -250.31758496 450.71991392
v 2230.26631748 -250.31758496 474.92050223
v 2232.26780655 -250.31758496 483.57322202
v 332.36473016 -215.72160103 450.71991392
v 332.36473016 -131.05602744 130.56919174
v 332.36473016 -134.87667929 450.71991392
v 1851.96690989 -60.43132496 55.39866046
v 2377.18255294 -250.31758496 55.39866046
v 2258.08838153 -250.31758496 505.25008916
v 332.36473016 -198.31854482 505.34022446
v 332.36473016 -157.62864360 504.75436744
v 1381.59487120 -120.58744743 481.04952332
v 2201.04306730 -55.15883080 55.39866046
v 2375.18088414 -150.35030750 55.39866046
v 2317.33522590 -211.06042397 450.71991392
v 2317.73548777 -250.31758496 450.71991392
v 2304.72508988 -250.31758496 503.53758574
v 2261.49105674 -211.06042397 515.79560545
v 332.36473016 -157.89608395 505.34022446
v 1477.47070897 -120.07166319 482.53671093
v 2201.04306730 -116.32741966 491.91049071
v 2261.49105674 -116.32741966 491.82035540
v 2261.49105674 -58.38727886 55.39866046
v 1658.21374528 -119.13559950 485.19561260
v 1848.96467628 -118.14222395 487.76437896
v 1959.85231114 -117.56912786 489.11638609
v 2140.79547839 -116.63307540 491.27956603
v 2361.16974171 -117.30168751 55.39866046
v 2295.11772666 -117.87478360 487.94464957
v 2309.52895122 -150.78967218 450.71991392
v 2300.52189094 -150.78967218 497.36349700
v 2304.52504881 -211.06042397 503.40238278
v 2261.49105674 -150.78967218 514.35348548
v 1778.90914389 -118.52429925 486.86307083
v 2266.49495915 -59.74361078 55.39866046
v 2327.14298965 -85.87685102 55.39866046
f 1 2 3
f 1 3 10
f 1 10 4
f 1 4 12
f 1 12 18
f 1 18 28
f 1 28 40
f 1 40 41
f 1 41 33
f 1 33 19
f 1 19 13
f 1 13 5
f 1 5 6
f 1 6 7
f 1 7 8
f 1 8 2
f 2 9 15
f 2 15 24
f 2 24 16
f 2 16 11
f 2 11 10
f 2 10 3
f 2 8 9
f 4 10 11
f 4 11 12
f 5 13 21
f 5 21 22
f 5 22 14
f 5 14 8
f 5 8 7
f 5 7 6
f 8 14 9
f 9 14 15
f 11 16 17
f 11 17 12
f 12 17 18
f 13 19 20
f 13 20 21
f 14 22 23
f 14 23 15
f 15 23 24
f 16 24 17
f 17 24 25
f 17 25 18
f 18 26 27
f 18 27 28
f 18 25 29
f 18 29 30
f 18 30 31
f 18 31 32
f 18 32 26
f 19 33 34
f 19 34 35
f 19 35 20
f 20 35 36
f 20 36 37
f 20 37 21
f 21 37 22
f 22 37 23
f 23 37 38
f 23 38 24
f 24 39 29
f 24 29 25
f 24 38 26
f 24 26 32
f 24 32 31
f 24 31 30
f 24 30 39
f 26 38 27
f 27 38 34
f 27 34 28
f 28 34 40
f 29 39 30
f 33 41 34
f 34 36 35
f 34 41 40
f 34 38 36
f 36 38 37

