# https://github.com/mikedh/trimesh
v -2611.30159672 -1477.47322521 -33.16934279
v -2611.30159672 -1349.65596915 -33.16934279
v -2292.75192201 -1477.51573169 -33.16934279
v -2611.30159672 -1531.89706684 -17.30036163
v -2984.87370856 -1538.82211838 54.82143054
v -3016.14949154 -1511.61024249 54.82143054
v -3017.88713489 -1477.51573169 54.82143054
v -3018.46622951 -1402.06169656 54.82143054
v -2611.30159672 -1349.65596915 47.21526433
v -1598.89231237 -1345.47119268 -18.28533473
v -1598.31321774 -1345.47119268 -33.16934279
v -814.10145601 -1477.51573169 -33.16934279
v -2611.30159672 -1557.85549581 28.71968823
v -2924.63888058 -1561.91293258 54.82143054
v -2958.81049617 -1548.95483653 54.82143054
v -693.63166526 -1477.51573169 -33.11461457
v -633.39679235 -1477.51573169 -33.05990882
v -693.63166526 -1523.73977670 -17.30036163
v -633.39679235 -1523.52733416 -17.24563341
v -2984.87370856 -1539.05576922 89.07653137
v -2924.63888058 -1562.48645553 89.07653137
v -3016.14949154 -1511.63145080 89.07653137
v -3018.46622951 -1417.27146781 89.07653137
v -3017.88713489 -1477.51573169 450.67042038
v -3018.46622951 -1402.06169656 450.67042038
v -1598.89231237 -1345.47119268 48.47383358
v -3016.72858616 -1402.06169656 485.74635460
v -3008.62018297 -1402.06169656 492.31281949
v -2984.87370856 -1402.06169656 511.35561036
v -1214.31587487 -1345.47119268 499.20763121
v -81.43682224 -1345.47119268 -33.16934279
v -81.43682224 -1417.27146781 -33.16934279
v -452.11298913 -1522.69895206 -16.86260329
v -331.64324332 -1522.08283276 -16.58898468
v -150.93860213 -1521.16943769 -16.04179237
v -81.43682224 -1520.82956558 -15.76819622
v -633.39679235 -1539.58687556 28.66496001
v -572.58273495 -1539.01335260 28.66496001
v -512.34786204 -1477.51573169 -32.84101842
v -331.64324332 -1477.51573169 -32.40326009
v -150.93860213 -1477.51573169 -31.85604532
v -81.43682224 -1477.51573169 -31.63717738
v -512.34786204 -1522.95381121 -17.02676548
v -2984.87370856 -1539.05576922 390.36829423
v -2924.63888058 -1562.46524722 330.06616807
v -1537.49911541 -1549.16727907 88.96709740
v -1537.49911541 -1549.16727907 450.72514860
v -3016.14949154 -1511.63145080 450.67042038
v -3018.46622951 -1417.27146781 450.67042038
v -3015.57039691 -1510.29317066 483.06503144
v -3016.14949154 -1477.51573169 484.65192506
v -3016.72858616 -1417.27146781 485.47273598
v -2984.87370856 -1417.27146781 510.91782956
v -2969.81509143 -1402.06169656 513.05193795
v -1175.51069346 -1345.47119268 508.40069105
v -81.43682224 -1345.47119268 47.48886048
v 2898.45201298 -1399.08777065 98.16015724
v 2898.45201298 -1501.26508180 98.16015724
v -81.43682224 -1534.02131247 28.66496001
v -90.12454472 -1534.12753374 28.66496001
v -452.11298913 -1537.82371035 28.66496001
v -2924.63888058 -1562.44403892 390.36829423
v -2984.87370856 -1538.67348049 450.67042038
v -150.93860213 -1534.80727796 88.96709740
v -80.85764336 -1534.08493739 149.26922356
v -2924.63888058 -1561.59426877 450.67042038
v -80.85764336 -1534.08493739 450.72514860
v 2429.31508859 -1507.87146953 481.42340960
v -2984.87370856 -1522.95381121 494.44692788
v -2984.87370856 -1477.51573169 508.94788335
v -2918.84703564 -1471.95016860 509.93285646
v -1175.51069346 -1477.51573169 525.85656583
v 2898.45201298 -1428.91249203 504.40609288
v -583.00801092 -1345.47119268 505.44577174
v 2898.45201298 -1409.19928050 451.49123130
v 2898.45201298 -1500.33038856 390.42302244
v 2468.12018013 -1507.57410390 450.72514860
v 2468.12018013 -1507.59540208 98.16015724
v 2463.48670417 -1507.65911686 98.16015724
v 2438.00276614 -1507.93527419 98.16015724
v 2381.82213976 -1508.53000545 98.16015724
v 2321.58731179 -1508.42378418 483.06503144
v 2261.35230408 -1508.74244799 483.94057057
v 2140.88264813 -1509.35856729 485.69162638
v 2080.06854580 -1509.67705136 486.51243730
v 1899.36388214 -1510.61183446 488.81070788
v 1778.89422619 -1511.22777403 490.34287328
v 1658.42439050 -1511.86510164 491.71089897
v 1416.90571438 -1513.11854855 494.17333173
v 1236.20114058 -1514.05315193 495.86965932
v 1055.49647692 -1514.98775530 497.40184719
v 935.02673111 -1515.60387460 498.33209208
v 874.21262877 -1515.92253840 498.76985041
v 693.50805498 -1516.85714178 499.97371392
v 512.22420683 -1517.81313319 501.06812099
v 331.51958810 -1518.74773656 501.94366013
v 271.28471519 -1519.04519206 502.27198449
v 150.81496938 -1519.68251967 502.76447104
v -81.43682224 -1520.89337023 503.63998771
v -150.93860213 -1521.25445065 503.85887812
v -391.87811623 -1522.48650952 504.51552685
v -693.63166526 -1524.03723220 505.11744737
v -1055.04094765 -1525.92782698 505.60993392
v -1477.26428743 -1528.11587727 506.10242047
v -1597.73394338 -1528.71060853 506.15714869
v -2924.63888058 -1534.19115866 504.78912300
v 2381.82213976 -1508.53000545 450.72514860
v 2438.00276614 -1507.93527419 450.72514860
v 2898.45201298 -1500.05423124 450.72514860
v 2898.45201298 -1473.58581436 504.40609288
v -1537.49911541 -1528.39194472 506.15714869
v -512.34786204 -1523.08124078 504.78912300
v 2898.45201298 -1416.08191542 477.37408322
v 1597.61028817 -1512.16255714 492.36754771
v 1356.67088640 -1513.41582432 494.77525225
v 1175.96622274 -1514.35060742 496.41687409
v 813.97780080 -1516.21981417 499.20763121
f 1 2 11
f 1 11 31
f 1 31 32
f 1 32 12
f 1 12 3
f 1 3 4
f 1 4 5
f 1 5 6
f 1 6 7
f 1 7 8
f 1 8 2
f 2 9 26
f 2 26 10
f 2 10 11
f 2 8 25
f 2 25 9
f 3 12 4
f 4 13 14
f 4 14 15
f 4 15 5
f 4 12 16
f 4 16 17
f 4 17 18
f 4 18 19
f 4 19 13
f 5 20 6
f 5 15 21
f 5 21 20
f 6 22 7
f 6 20 22
f 7 23 8
f 7 22 48
f 7 48 24
f 7 24 49
f 7 49 23
f 8 23 49
f 8 49 25
f 9 25 27
f 9 27 28
f 9 28 29
f 9 29 30
f 9 30 26
f 10 26 30
f 10 30 55
f 10 55 74
f 10 74 56
f 10 56 31
f 10 31 11
f 12 32 16
f 13 19 33
f 13 33 34
f 13 34 35
f 13 35 36
f 13 36 37
f 13 37 14
f 14 21 15
f 14 37 38
f 14 38 21
f 16 32 17
f 17 39 18
f 17 32 39
f 18 39 19
f 19 39 40
f 19 40 41
f 19 41 42
f 19 42 43
f 19 43 33
f 20 21 44
f 20 44 48
f 20 48 22
f 21 45 44
f 21 38 46
f 21 46 47
f 21 47 45
f 24 48 50
f 24 50 51
f 24 51 52
f 24 52 49
f 25 49 27
f 27 49 52
f 27 52 28
f 28 52 51
f 28 51 29
f 29 51 53
f 29 53 54
f 29 54 55
f 29 55 30
f 31 56 57
f 31 57 58
f 31 58 32
f 32 42 41
f 32 41 40
f 32 40 39
f 32 58 42
f 33 43 34
f 34 43 42
f 34 42 35
f 35 42 36
f 36 59 60
f 36 60 61
f 36 61 38
f 36 38 37
f 36 42 58
f 36 58 59
f 38 61 46
f 44 45 62
f 44 62 63
f 44 63 48
f 45 47 62
f 46 61 60
f 46 60 64
f 46 64 65
f 46 65 67
f 46 67 47
f 47 66 62
f 47 67 68
f 47 68 66
f 48 63 50
f 50 63 69
f 50 69 70
f 50 70 51
f 51 70 53
f 53 70 54
f 54 70 71
f 54 71 72
f 54 72 55
f 55 72 73
f 55 73 74
f 56 74 57
f 57 75 113
f 57 113 73
f 57 73 110
f 57 110 109
f 57 109 76
f 57 76 58
f 57 74 75
f 58 76 77
f 58 77 78
f 58 78 59
f 59 78 79
f 59 79 60
f 60 79 80
f 60 80 81
f 60 81 64
f 62 66 63
f 63 66 69
f 64 81 65
f 65 81 107
f 65 107 67
f 66 68 82
f 66 82 83
f 66 83 84
f 66 84 85
f 66 85 86
f 66 86 87
f 66 87 88
f 66 88 89
f 66 89 90
f 66 90 91
f 66 91 92
f 66 92 93
f 66 93 94
f 66 94 95
f 66 95 96
f 66 96 97
f 66 97 98
f 66 98 99
f 66 99 100
f 66 100 101
f 66 101 102
f 66 102 103
f 66 103 104
f 66 104 105
f 66 105 106
f 66 106 69
f 67 107 68
f 68 107 108
f 68 108 77
f 68 77 109
f 68 109 110
f 68 110 82
f 69 106 70
f 70 106 72
f 70 72 71
f 72 106 105
f 72 105 111
f 72 111 104
f 72 104 103
f 72 103 102
f 72 102 112
f 72 112 101
f 72 101 100
f 72 100 99
f 72 99 110
f 72 110 73
f 73 113 74
f 74 113 75
f 76 109 77
f 77 108 79
f 77 79 78
f 79 108 80
f 80 108 107
f 80 107 81
f 82 110 83
f 83 110 84
f 84 110 85
f 85 110 86
f 86 110 87
f 87 110 88
f 88 110 114
f 88 114 89
f 89 114 110
f 89 110 115
f 89 115 90
f 90 115 110
f 90 110 116
f 90 116 91
f 91 116 110
f 91 110 92
f 92 110 93
f 93 110 117
f 93 117 94
f 94 117 110
f 94 110 95
f 95 110 97
f 95 97 96
f 97 110 98
f 98 110 99
f 101 112 102
f 104 111 105

