# https://github.com/mikedh/trimesh
v 2979.61944028 -1411.29548803 509.96255707
v 2898.46657122 -1473.36249808 504.43341206
v 2924.94909701 -1473.36249808 504.69923483
v 2985.21483879 -1473.06270607 505.12456923
v 3031.70272953 -1416.99243478 505.07139119
v 2985.19560753 512.18282367 509.59040070
v 2985.19560753 633.01863745 509.59040070
v 2925.77298583 1477.07035723 507.94230853
v 2870.56614427 1490.86294625 504.64607926
v 2852.26607102 -748.94733419 47.58802729
v 2852.84085210 -765.43854552 47.58802729
v 2866.02469080 -1110.85501180 47.58802729
v 2898.46657122 -1500.04847983 450.73694348
v 2924.94909701 -1500.04847983 450.73694348
v 2985.21483879 -1499.74850810 450.73694348
v 3026.35643877 -1464.36730007 497.04350768
v 3048.02917208 -1416.99243478 450.73694348
v 3031.39610773 -1356.72453623 504.96508006
v 2985.19560753 873.79070927 509.11193320
v 2985.19560753 813.82260272 509.27142237
v 2985.19560753 934.05878756 508.89926600
v 2985.19560753 1477.07035723 506.82583943
v 2924.98737980 1533.44042053 504.43341206
v 2870.56614427 1532.84065678 504.32710093
v 2869.83805230 -748.94733419 -33.16934279
v 2870.56614427 1535.53932403 499.11693425
v 2870.56614427 1558.92669507 450.57745431
v 2870.56614427 1560.42601455 28.82085455
v 2870.56614427 1533.14044879 -17.27306492
v 2870.56614427 1477.07035723 -33.16934279
v 2869.83805230 79.51264014 -33.16934279
v 2898.46657122 -1416.99243478 -33.16934279
v 2898.46657122 -1473.66229008 -17.27306492
v 2898.46657122 -1501.24782759 28.71452095
v 2898.46657122 -1501.54761959 62.47419212
v 2924.94909701 -1500.34827184 390.44802758
v 2985.21483879 -1500.04847983 390.44802758
v 3031.85622016 -1473.06270607 450.73694348
v 3027.60197749 -632.60911941 502.89163102
v 3028.21522109 -748.94733419 503.31696542
v 3028.54089442 -814.01275856 503.58278819
v 3030.11246594 -1110.85501180 504.48659009
v 3030.76381260 -1236.18855938 504.75241286
v 3048.02917208 -1416.99243478 89.00344808
v 3018.61504713 1416.80227894 450.57745431
v 3016.66028823 1477.07035723 484.65610382
v 3017.29258335 1356.23440865 486.35737402
v 3018.23150028 1175.43053325 488.69662336
v 3018.53812208 1115.16245496 489.44093609
v 3019.78366081 873.79070927 492.20551983
v 3021.04861053 633.01863745 494.65110277
v 3021.98752746 452.21467218 496.29919494
v 3022.60077105 331.67869534 497.30933044
v 3023.23306618 211.14271850 498.21313235
v 3023.92287537 79.51264014 499.17011228
v 3024.17198311 30.33875604 499.48909062
v 3025.11090004 -150.46520080 500.55238168
v 3025.72414364 -271.00118888 501.24353885
v 3026.04981697 -331.26917730 501.50936162
v 3026.35643877 -391.53716573 501.82833995
v 3021.66185413 512.18282367 495.76754941
v 3020.39690441 753.55461430 493.48145564
v 3018.03990659 1207.21369802 488.32446699
v 3017.90582695 1235.69843181 487.95233309
v 3016.12361021 1509.75289802 483.11432278
v 2985.19560753 1522.34631902 494.43843557
v 2924.98737980 1560.12622255 450.57745431
v 2924.98737980 1560.42601455 390.39486078
v 2924.98737980 1561.62536231 89.00344808
v 2924.98737980 1561.32557030 28.82085455
v 2924.98737980 1533.74021253 -17.27306492
v 2924.98737980 1477.07035723 -33.16934279
v 2924.94909701 -1416.99243478 -33.16934279
v 2985.21483879 -1416.99243478 -33.11618722
v 2985.21483879 -1473.06270607 -17.27306492
v 2985.21483879 -1499.44871609 28.71452095
v 2985.21483879 -1500.04847983 89.00344808
v 2924.94909701 -1501.24782759 89.00344808
v 3031.85622016 -1473.06270607 89.00344808
v 3031.70272953 -1472.76291407 28.71452095
v 3047.74160181 -1416.99243478 28.71452095
v 3047.20528326 -1356.72453623 28.71452095
v 3046.61109119 -1296.45645794 28.71452095
v 3044.75230886 -1110.85501180 28.71452095
v 3037.94983415 -451.80515415 28.76767651
v 3032.33502465 90.60674727 28.82085455
v 3017.94428948 1477.07035723 28.82085455
v 3018.61504713 1416.80227894 89.00344808
v 3017.96334101 1477.07035723 450.57745431
v 3016.50715706 1511.25221751 450.57745431
v 2985.19560753 1538.23781154 450.57745431
v 2985.19560753 1538.53760354 390.39486078
v 2985.19560753 1538.53760354 89.00344808
v 2985.19560753 1537.93783980 28.82085455
v 2985.19560753 1522.34631902 -10.30847247
v 2985.19560753 1477.07035723 -19.29333592
v 2985.19560753 1356.23440865 -20.25029339
v 2985.19560753 1235.69843181 -21.15409530
v 2985.19560753 994.62647812 -22.80220993
v 2985.19560753 873.79070927 -23.59967823
v 2985.19560753 633.01863745 -25.08830370
v 2985.19560753 512.18282367 -25.77943841
v 2985.19560753 151.17457824 -27.69337581
v 2985.19560753 79.51264014 -28.06553218
v 2985.19560753 -29.92922958 -28.59717771
v 2985.19560753 -271.00118888 -29.66046878
v 2985.19560753 -391.53716573 -30.13895875
v 2985.19560753 -632.60911941 -31.04276065
v 2985.19560753 -748.94733419 -31.41491702
v 2985.21483879 -1175.92048110 -32.69087529
v 2985.21483879 -1296.45645794 -32.95669805
v 2924.98737980 -748.94733419 -33.16934279
v 3031.20451404 -1356.72453623 -17.21990935
v 3031.43457025 -1416.99243478 -17.21990935
v 3026.14579354 -1464.36730007 -12.06292071
v 3030.64878449 -1236.18855938 -16.95408659
v 3030.34216269 -1175.92048110 -16.84775299
v 3030.01648936 -1110.85501180 -16.68824135
v 3028.15770704 -748.94733419 -15.57179472
v 3026.64400903 -451.80515415 -14.50850365
v 3025.07243752 -150.46520080 -13.28570094
v 3023.88441284 79.51264014 -12.22240988
v 3023.21401465 211.14271850 -11.58443074
v 3021.96847593 452.21467218 -10.30847247
v 3021.33582133 572.45081209 -9.61733777
v 3019.78366081 873.79070927 -7.75655593
v 3018.82569235 1054.89455641 -6.58693126
v 3017.56110209 1295.96651009 -4.88566106
v 3016.64123670 1477.07035723 -3.50336919
v 3016.10455868 1509.75289802 -2.65274532
v 3016.50715706 1511.25221751 28.82085455
v 3017.96334101 1477.07035723 89.00344808
v 3018.02085506 1207.21369802 -5.52364019
v 3019.45798748 934.05878756 -7.38439956
v 3024.74676419 -90.19721238 -13.01987818
v 3026.01171391 -331.26917730 -14.03001368
f 1 2 3
f 1 3 4
f 1 4 5
f 1 5 6
f 1 6 7
f 1 7 8
f 1 8 9
f 1 9 2
f 2 10 11
f 2 11 12
f 2 12 13
f 2 13 3
f 2 9 10
f 3 13 14
f 3 14 4
f 4 14 15
f 4 15 16
f 4 16 5
f 5 17 18
f 5 18 19
f 5 19 20
f 5 20 7
f 5 7 6
f 5 16 17
f 7 20 8
f 8 20 19
f 8 19 21
f 8 21 22
f 8 22 23
f 8 23 24
f 8 24 9
f 9 24 10
f 10 25 11
f 10 24 26
f 10 26 27
f 10 27 28
f 10 28 29
f 10 29 30
f 10 30 31
f 10 31 25
f 11 25 12
f 12 25 32
f 12 32 33
f 12 33 34
f 12 34 35
f 12 35 13
f 13 35 36
f 13 36 14
f 14 36 37
f 14 37 15
f 15 37 38
f 15 38 16
f 16 38 17
f 17 39 40
f 17 40 41
f 17 41 42
f 17 42 43
f 17 43 18
f 17 38 79
f 17 79 44
f 17 44 88
f 17 88 45
f 17 45 46
f 17 46 47
f 17 47 48
f 17 48 49
f 17 49 50
f 17 50 51
f 17 51 52
f 17 52 53
f 17 53 54
f 17 54 55
f 17 55 56
f 17 56 57
f 17 57 58
f 17 58 59
f 17 59 60
f 17 60 39
f 18 43 19
f 19 43 42
f 19 42 21
f 21 42 22
f 22 42 41
f 22 41 39
f 22 39 60
f 22 60 58
f 22 58 57
f 22 57 56
f 22 56 55
f 22 55 54
f 22 54 53
f 22 53 52
f 22 52 61
f 22 61 51
f 22 51 62
f 22 62 50
f 22 50 49
f 22 49 48
f 22 48 63
f 22 63 64
f 22 64 47
f 22 47 46
f 22 46 65
f 22 65 66
f 22 66 23
f 23 26 24
f 23 66 67
f 23 67 26
f 25 31 30
f 25 30 72
f 25 72 112
f 25 112 73
f 25 73 32
f 26 67 27
f 27 67 68
f 27 68 69
f 27 69 28
f 28 69 70
f 28 70 29
f 29 70 71
f 29 71 30
f 30 71 72
f 32 73 33
f 33 73 74
f 33 74 75
f 33 75 34
f 34 75 76
f 34 76 77
f 34 77 35
f 35 77 78
f 35 78 37
f 35 37 36
f 37 78 77
f 37 77 79
f 37 79 38
f 39 41 40
f 44 79 80
f 44 80 81
f 44 81 82
f 44 82 83
f 44 83 84
f 44 84 85
f 44 85 86
f 44 86 87
f 44 87 88
f 45 88 132
f 45 132 89
f 45 89 46
f 46 89 65
f 47 64 48
f 48 64 63
f 50 62 51
f 51 61 52
f 58 60 59
f 65 90 91
f 65 91 66
f 65 89 90
f 66 91 67
f 67 91 92
f 67 92 68
f 68 92 69
f 69 92 93
f 69 93 70
f 70 93 94
f 70 94 95
f 70 95 71
f 71 95 72
f 72 95 96
f 72 96 97
f 72 97 98
f 72 98 99
f 72 99 100
f 72 100 101
f 72 101 102
f 72 102 103
f 72 103 104
f 72 104 105
f 72 105 106
f 72 106 107
f 72 107 108
f 72 108 109
f 72 109 110
f 72 110 111
f 72 111 74
f 72 74 112
f 73 112 74
f 74 111 113
f 74 113 114
f 74 114 115
f 74 115 75
f 75 115 76
f 76 115 80
f 76 80 77
f 77 80 79
f 80 115 81
f 81 114 113
f 81 113 116
f 81 116 117
f 81 117 118
f 81 118 119
f 81 119 120
f 81 120 121
f 81 121 122
f 81 122 123
f 81 123 124
f 81 124 125
f 81 125 126
f 81 126 127
f 81 127 128
f 81 128 129
f 81 129 82
f 81 115 114
f 82 129 83
f 83 129 84
f 84 129 85
f 85 129 86
f 86 129 87
f 87 129 130
f 87 130 131
f 87 131 132
f 87 132 88
f 89 132 131
f 89 131 90
f 90 131 93
f 90 93 92
f 90 92 91
f 93 131 94
f 94 131 130
f 94 130 95
f 95 130 96
f 96 129 128
f 96 128 133
f 96 133 127
f 96 127 134
f 96 134 126
f 96 126 125
f 96 125 124
f 96 124 97
f 96 130 129
f 97 124 123
f 97 123 98
f 98 123 122
f 98 122 135
f 98 135 99
f 99 135 121
f 99 121 100
f 100 121 136
f 100 136 101
f 101 136 120
f 101 120 102
f 102 120 119
f 102 119 103
f 103 119 104
f 104 119 118
f 104 118 105
f 105 118 106
f 106 118 117
f 106 117 107
f 107 117 113
f 107 113 108
f 108 113 109
f 109 113 110
f 110 113 111
f 113 117 116
f 120 136 121
f 121 135 122
f 126 134 127
f 127 133 128

