# https://github.com/mikedh/trimesh
v -2293.09215358 -1405.66998451 -33.16934279
v -1599.02082034 -1405.66998451 -33.16934279
v -2293.09215358 -1405.66998451 55.08431021
v -2293.09215358 1295.74355327 -33.16934279
v -1599.02082034 -1405.66998451 62.18455494
v -1599.02082034 1295.74355327 -33.16934279
v -1832.46137802 -1405.66998451 97.96928247
v -2293.09215358 -750.94212827 104.73205900
v -2293.09215358 1295.74355327 47.06615465
v -1699.50362368 -1405.66998451 97.96928247
v -1599.02082034 -283.95930739 104.73205900
v -1599.02082034 1295.74355327 47.06615465
v -2145.79902134 -750.94212827 104.73205900
v -2293.09215358 -203.04384107 104.73205900
v -2261.43228456 -184.53375165 104.73205900
v -2201.10183947 -180.56731516 104.73205900
v -1899.85760434 -177.12972712 104.73205900
v -1779.19671416 -175.80757788 104.73205900
v -1599.02082034 -174.48542863 104.73205900
v -1779.19671416 -750.94212827 104.28659468
f 1 2 5
f 1 5 10
f 1 10 7
f 1 7 3
f 1 3 8
f 1 8 14
f 1 14 9
f 1 9 4
f 1 4 6
f 1 6 2
f 2 6 12
f 2 12 19
f 2 19 11
f 2 11 5
f 3 7 8
f 4 9 12
f 4 12 6
f 5 11 10
f 7 10 13
f 7 13 8
f 8 13 11
f 8 11 19
f 8 19 18
f 8 18 17
f 8 17 16
f 8 16 15
f 8 15 14
f 9 14 15
f 9 15 16
f 9 16 17
f 9 17 18
f 9 18 19
f 9 19 12
f 10 11 20
f 10 20 13
f 11 13 20

