ISO-10303-21;
HEADER;
/* Generated by software containing ST-Developer
 * from STEP Tools, Inc. (www.steptools.com) 
 */

FILE_DESCRIPTION(
/* description */ (''),
/* implementation_level */ '2;1');

FILE_NAME(
/* name */ 'lidar_chassis.step',
/* time_stamp */ '2026-07-18T14:42:25+03:00',
/* author */ (''),
/* organization */ (''),
/* preprocessor_version */ 'ST-DEVELOPER v20.1',
/* originating_system */ 'Autodesk Translation Framework v15.8.0.0',
/* authorisation */ '');

FILE_SCHEMA (('AUTOMOTIVE_DESIGN { 1 0 10303 214 3 1 1 }'));
ENDSEC;

DATA;
#10=MECHANICAL_DESIGN_GEOMETRIC_PRESENTATION_REPRESENTATION('',(#13),#385);
#11=SHAPE_REPRESENTATION_RELATIONSHIP('SRR','None',#392,#12);
#12=ADVANCED_BREP_SHAPE_REPRESENTATION('',(#14),#384);
#13=STYLED_ITEM('',(#402),#14);
#14=MANIFOLD_SOLID_BREP('Body1',#237);
#15=FACE_BOUND('',#40,.T.);
#16=FACE_BOUND('',#42,.T.);
#17=FACE_OUTER_BOUND('',#29,.T.);
#18=FACE_OUTER_BOUND('',#30,.T.);
#19=FACE_OUTER_BOUND('',#31,.T.);
#20=FACE_OUTER_BOUND('',#32,.T.);
#21=FACE_OUTER_BOUND('',#33,.T.);
#22=FACE_OUTER_BOUND('',#34,.T.);
#23=FACE_OUTER_BOUND('',#35,.T.);
#24=FACE_OUTER_BOUND('',#36,.T.);
#25=FACE_OUTER_BOUND('',#37,.T.);
#26=FACE_OUTER_BOUND('',#38,.T.);
#27=FACE_OUTER_BOUND('',#39,.T.);
#28=FACE_OUTER_BOUND('',#41,.T.);
#29=EDGE_LOOP('',(#153,#154,#155,#156));
#30=EDGE_LOOP('',(#157,#158,#159,#160));
#31=EDGE_LOOP('',(#161,#162,#163,#164));
#32=EDGE_LOOP('',(#165,#166,#167,#168));
#33=EDGE_LOOP('',(#169,#170,#171,#172));
#34=EDGE_LOOP('',(#173,#174,#175,#176));
#35=EDGE_LOOP('',(#177,#178,#179,#180));
#36=EDGE_LOOP('',(#181,#182,#183,#184));
#37=EDGE_LOOP('',(#185,#186,#187,#188));
#38=EDGE_LOOP('',(#189,#190,#191,#192));
#39=EDGE_LOOP('',(#193,#194,#195,#196,#197,#198));
#40=EDGE_LOOP('',(#199,#200,#201,#202));
#41=EDGE_LOOP('',(#203,#204,#205,#206,#207,#208));
#42=EDGE_LOOP('',(#209,#210,#211,#212));
#43=LINE('',#323,#73);
#44=LINE('',#325,#74);
#45=LINE('',#327,#75);
#46=LINE('',#328,#76);
#47=LINE('',#331,#77);
#48=LINE('',#333,#78);
#49=LINE('',#334,#79);
#50=LINE('',#337,#80);
#51=LINE('',#339,#81);
#52=LINE('',#340,#82);
#53=LINE('',#342,#83);
#54=LINE('',#343,#84);
#55=LINE('',#347,#85);
#56=LINE('',#349,#86);
#57=LINE('',#351,#87);
#58=LINE('',#352,#88);
#59=LINE('',#355,#89);
#60=LINE('',#357,#90);
#61=LINE('',#358,#91);
#62=LINE('',#361,#92);
#63=LINE('',#363,#93);
#64=LINE('',#364,#94);
#65=LINE('',#367,#95);
#66=LINE('',#369,#96);
#67=LINE('',#370,#97);
#68=LINE('',#373,#98);
#69=LINE('',#375,#99);
#70=LINE('',#376,#100);
#71=LINE('',#378,#101);
#72=LINE('',#379,#102);
#73=VECTOR('',#267,10.);
#74=VECTOR('',#268,10.);
#75=VECTOR('',#269,10.);
#76=VECTOR('',#270,10.);
#77=VECTOR('',#273,10.);
#78=VECTOR('',#274,10.);
#79=VECTOR('',#275,10.);
#80=VECTOR('',#278,10.);
#81=VECTOR('',#279,10.);
#82=VECTOR('',#280,10.);
#83=VECTOR('',#283,10.);
#84=VECTOR('',#284,10.);
#85=VECTOR('',#287,10.);
#86=VECTOR('',#288,10.);
#87=VECTOR('',#289,10.);
#88=VECTOR('',#290,10.);
#89=VECTOR('',#293,10.);
#90=VECTOR('',#294,10.);
#91=VECTOR('',#295,10.);
#92=VECTOR('',#298,10.);
#93=VECTOR('',#299,10.);
#94=VECTOR('',#300,10.);
#95=VECTOR('',#303,10.);
#96=VECTOR('',#304,10.);
#97=VECTOR('',#305,10.);
#98=VECTOR('',#308,10.);
#99=VECTOR('',#309,10.);
#100=VECTOR('',#310,10.);
#101=VECTOR('',#313,10.);
#102=VECTOR('',#314,10.);
#103=VERTEX_POINT('',#321);
#104=VERTEX_POINT('',#322);
#105=VERTEX_POINT('',#324);
#106=VERTEX_POINT('',#326);
#107=VERTEX_POINT('',#330);
#108=VERTEX_POINT('',#332);
#109=VERTEX_POINT('',#336);
#110=VERTEX_POINT('',#338);
#111=VERTEX_POINT('',#345);
#112=VERTEX_POINT('',#346);
#113=VERTEX_POINT('',#348);
#114=VERTEX_POINT('',#350);
#115=VERTEX_POINT('',#354);
#116=VERTEX_POINT('',#356);
#117=VERTEX_POINT('',#360);
#118=VERTEX_POINT('',#362);
#119=VERTEX_POINT('',#366);
#120=VERTEX_POINT('',#368);
#121=VERTEX_POINT('',#372);
#122=VERTEX_POINT('',#374);
#123=EDGE_CURVE('',#103,#104,#43,.T.);
#124=EDGE_CURVE('',#105,#103,#44,.T.);
#125=EDGE_CURVE('',#106,#105,#45,.T.);
#126=EDGE_CURVE('',#106,#104,#46,.T.);
#127=EDGE_CURVE('',#104,#107,#47,.T.);
#128=EDGE_CURVE('',#108,#106,#48,.T.);
#129=EDGE_CURVE('',#108,#107,#49,.T.);
#130=EDGE_CURVE('',#107,#109,#50,.T.);
#131=EDGE_CURVE('',#110,#108,#51,.T.);
#132=EDGE_CURVE('',#110,#109,#52,.T.);
#133=EDGE_CURVE('',#109,#103,#53,.T.);
#134=EDGE_CURVE('',#105,#110,#54,.T.);
#135=EDGE_CURVE('',#111,#112,#55,.T.);
#136=EDGE_CURVE('',#111,#113,#56,.T.);
#137=EDGE_CURVE('',#114,#113,#57,.T.);
#138=EDGE_CURVE('',#112,#114,#58,.T.);
#139=EDGE_CURVE('',#115,#112,#59,.T.);
#140=EDGE_CURVE('',#116,#114,#60,.T.);
#141=EDGE_CURVE('',#115,#116,#61,.T.);
#142=EDGE_CURVE('',#117,#115,#62,.T.);
#143=EDGE_CURVE('',#118,#116,#63,.T.);
#144=EDGE_CURVE('',#117,#118,#64,.T.);
#145=EDGE_CURVE('',#119,#117,#65,.T.);
#146=EDGE_CURVE('',#120,#118,#66,.T.);
#147=EDGE_CURVE('',#119,#120,#67,.T.);
#148=EDGE_CURVE('',#121,#119,#68,.T.);
#149=EDGE_CURVE('',#122,#120,#69,.T.);
#150=EDGE_CURVE('',#121,#122,#70,.T.);
#151=EDGE_CURVE('',#111,#121,#71,.T.);
#152=EDGE_CURVE('',#113,#122,#72,.T.);
#153=ORIENTED_EDGE('',*,*,#123,.F.);
#154=ORIENTED_EDGE('',*,*,#124,.F.);
#155=ORIENTED_EDGE('',*,*,#125,.F.);
#156=ORIENTED_EDGE('',*,*,#126,.T.);
#157=ORIENTED_EDGE('',*,*,#127,.F.);
#158=ORIENTED_EDGE('',*,*,#126,.F.);
#159=ORIENTED_EDGE('',*,*,#128,.F.);
#160=ORIENTED_EDGE('',*,*,#129,.T.);
#161=ORIENTED_EDGE('',*,*,#130,.F.);
#162=ORIENTED_EDGE('',*,*,#129,.F.);
#163=ORIENTED_EDGE('',*,*,#131,.F.);
#164=ORIENTED_EDGE('',*,*,#132,.T.);
#165=ORIENTED_EDGE('',*,*,#133,.F.);
#166=ORIENTED_EDGE('',*,*,#132,.F.);
#167=ORIENTED_EDGE('',*,*,#134,.F.);
#168=ORIENTED_EDGE('',*,*,#124,.T.);
#169=ORIENTED_EDGE('',*,*,#135,.F.);
#170=ORIENTED_EDGE('',*,*,#136,.T.);
#171=ORIENTED_EDGE('',*,*,#137,.F.);
#172=ORIENTED_EDGE('',*,*,#138,.F.);
#173=ORIENTED_EDGE('',*,*,#139,.T.);
#174=ORIENTED_EDGE('',*,*,#138,.T.);
#175=ORIENTED_EDGE('',*,*,#140,.F.);
#176=ORIENTED_EDGE('',*,*,#141,.F.);
#177=ORIENTED_EDGE('',*,*,#142,.T.);
#178=ORIENTED_EDGE('',*,*,#141,.T.);
#179=ORIENTED_EDGE('',*,*,#143,.F.);
#180=ORIENTED_EDGE('',*,*,#144,.F.);
#181=ORIENTED_EDGE('',*,*,#145,.T.);
#182=ORIENTED_EDGE('',*,*,#144,.T.);
#183=ORIENTED_EDGE('',*,*,#146,.F.);
#184=ORIENTED_EDGE('',*,*,#147,.F.);
#185=ORIENTED_EDGE('',*,*,#148,.T.);
#186=ORIENTED_EDGE('',*,*,#147,.T.);
#187=ORIENTED_EDGE('',*,*,#149,.F.);
#188=ORIENTED_EDGE('',*,*,#150,.F.);
#189=ORIENTED_EDGE('',*,*,#151,.T.);
#190=ORIENTED_EDGE('',*,*,#150,.T.);
#191=ORIENTED_EDGE('',*,*,#152,.F.);
#192=ORIENTED_EDGE('',*,*,#136,.F.);
#193=ORIENTED_EDGE('',*,*,#152,.T.);
#194=ORIENTED_EDGE('',*,*,#149,.T.);
#195=ORIENTED_EDGE('',*,*,#146,.T.);
#196=ORIENTED_EDGE('',*,*,#143,.T.);
#197=ORIENTED_EDGE('',*,*,#140,.T.);
#198=ORIENTED_EDGE('',*,*,#137,.T.);
#199=ORIENTED_EDGE('',*,*,#125,.T.);
#200=ORIENTED_EDGE('',*,*,#134,.T.);
#201=ORIENTED_EDGE('',*,*,#131,.T.);
#202=ORIENTED_EDGE('',*,*,#128,.T.);
#203=ORIENTED_EDGE('',*,*,#151,.F.);
#204=ORIENTED_EDGE('',*,*,#135,.T.);
#205=ORIENTED_EDGE('',*,*,#139,.F.);
#206=ORIENTED_EDGE('',*,*,#142,.F.);
#207=ORIENTED_EDGE('',*,*,#145,.F.);
#208=ORIENTED_EDGE('',*,*,#148,.F.);
#209=ORIENTED_EDGE('',*,*,#123,.T.);
#210=ORIENTED_EDGE('',*,*,#127,.T.);
#211=ORIENTED_EDGE('',*,*,#130,.T.);
#212=ORIENTED_EDGE('',*,*,#133,.T.);
#213=PLANE('',#251);
#214=PLANE('',#252);
#215=PLANE('',#253);
#216=PLANE('',#254);
#217=PLANE('',#255);
#218=PLANE('',#256);
#219=PLANE('',#257);
#220=PLANE('',#258);
#221=PLANE('',#259);
#222=PLANE('',#260);
#223=PLANE('',#261);
#224=PLANE('',#262);
#225=ADVANCED_FACE('',(#17),#213,.F.);
#226=ADVANCED_FACE('',(#18),#214,.F.);
#227=ADVANCED_FACE('',(#19),#215,.F.);
#228=ADVANCED_FACE('',(#20),#216,.F.);
#229=ADVANCED_FACE('',(#21),#217,.T.);
#230=ADVANCED_FACE('',(#22),#218,.T.);
#231=ADVANCED_FACE('',(#23),#219,.T.);
#232=ADVANCED_FACE('',(#24),#220,.T.);
#233=ADVANCED_FACE('',(#25),#221,.T.);
#234=ADVANCED_FACE('',(#26),#222,.T.);
#235=ADVANCED_FACE('',(#27,#15),#223,.T.);
#236=ADVANCED_FACE('',(#28,#16),#224,.F.);
#237=CLOSED_SHELL('',(#225,#226,#227,#228,#229,#230,#231,#232,#233,#234,
#235,#236));
#238=DERIVED_UNIT_ELEMENT(#240,1.);
#239=DERIVED_UNIT_ELEMENT(#387,-3.);
#240=(
MASS_UNIT()
NAMED_UNIT(*)
SI_UNIT(.KILO.,.GRAM.)
);
#241=DERIVED_UNIT((#238,#239));
#242=MEASURE_REPRESENTATION_ITEM('density measure',
POSITIVE_RATIO_MEASURE(7850.),#241);
#243=PROPERTY_DEFINITION_REPRESENTATION(#248,#245);
#244=PROPERTY_DEFINITION_REPRESENTATION(#249,#246);
#245=REPRESENTATION('material name',(#247),#384);
#246=REPRESENTATION('density',(#242),#384);
#247=DESCRIPTIVE_REPRESENTATION_ITEM('Steel','Steel');
#248=PROPERTY_DEFINITION('material property','material name',#394);
#249=PROPERTY_DEFINITION('material property','density of part',#394);
#250=AXIS2_PLACEMENT_3D('',#319,#263,#264);
#251=AXIS2_PLACEMENT_3D('',#320,#265,#266);
#252=AXIS2_PLACEMENT_3D('',#329,#271,#272);
#253=AXIS2_PLACEMENT_3D('',#335,#276,#277);
#254=AXIS2_PLACEMENT_3D('',#341,#281,#282);
#255=AXIS2_PLACEMENT_3D('',#344,#285,#286);
#256=AXIS2_PLACEMENT_3D('',#353,#291,#292);
#257=AXIS2_PLACEMENT_3D('',#359,#296,#297);
#258=AXIS2_PLACEMENT_3D('',#365,#301,#302);
#259=AXIS2_PLACEMENT_3D('',#371,#306,#307);
#260=AXIS2_PLACEMENT_3D('',#377,#311,#312);
#261=AXIS2_PLACEMENT_3D('',#380,#315,#316);
#262=AXIS2_PLACEMENT_3D('',#381,#317,#318);
#263=DIRECTION('axis',(0.,0.,1.));
#264=DIRECTION('refdir',(1.,0.,0.));
#265=DIRECTION('center_axis',(1.,0.,0.));
#266=DIRECTION('ref_axis',(0.,-1.,0.));
#267=DIRECTION('',(0.,1.,0.));
#268=DIRECTION('',(0.,0.,-1.));
#269=DIRECTION('',(0.,-1.,0.));
#270=DIRECTION('',(0.,0.,-1.));
#271=DIRECTION('center_axis',(0.,1.,0.));
#272=DIRECTION('ref_axis',(1.,0.,0.));
#273=DIRECTION('',(-1.,0.,0.));
#274=DIRECTION('',(1.,0.,0.));
#275=DIRECTION('',(0.,0.,-1.));
#276=DIRECTION('center_axis',(-1.,0.,0.));
#277=DIRECTION('ref_axis',(0.,1.,0.));
#278=DIRECTION('',(0.,-1.,0.));
#279=DIRECTION('',(0.,1.,0.));
#280=DIRECTION('',(0.,0.,-1.));
#281=DIRECTION('center_axis',(0.,-1.,0.));
#282=DIRECTION('ref_axis',(-1.,0.,0.));
#283=DIRECTION('',(1.,0.,0.));
#284=DIRECTION('',(-1.,0.,0.));
#285=DIRECTION('center_axis',(0.5,0.866025403784439,0.));
#286=DIRECTION('ref_axis',(-0.866025403784439,0.5,0.));
#287=DIRECTION('',(0.866025403784439,-0.5,0.));
#288=DIRECTION('',(0.,0.,1.));
#289=DIRECTION('',(-0.866025403784439,0.5,0.));
#290=DIRECTION('',(0.,0.,1.));
#291=DIRECTION('center_axis',(1.,0.,0.));
#292=DIRECTION('ref_axis',(0.,1.,0.));
#293=DIRECTION('',(0.,1.,0.));
#294=DIRECTION('',(0.,1.,0.));
#295=DIRECTION('',(0.,0.,1.));
#296=DIRECTION('center_axis',(0.500000000000002,-0.866025403784438,0.));
#297=DIRECTION('ref_axis',(0.866025403784438,0.500000000000002,0.));
#298=DIRECTION('',(0.866025403784438,0.500000000000002,0.));
#299=DIRECTION('',(0.866025403784438,0.500000000000002,0.));
#300=DIRECTION('',(0.,0.,1.));
#301=DIRECTION('center_axis',(0.,-1.,0.));
#302=DIRECTION('ref_axis',(1.,0.,0.));
#303=DIRECTION('',(1.,0.,0.));
#304=DIRECTION('',(1.,0.,0.));
#305=DIRECTION('',(0.,0.,1.));
#306=DIRECTION('center_axis',(-1.,-1.54074395550979E-33,0.));
#307=DIRECTION('ref_axis',(1.54074395550979E-33,-1.,0.));
#308=DIRECTION('',(1.54074395550979E-33,-1.,0.));
#309=DIRECTION('',(1.54074395550979E-33,-1.,0.));
#310=DIRECTION('',(0.,0.,1.));
#311=DIRECTION('center_axis',(0.,1.,0.));
#312=DIRECTION('ref_axis',(-1.,0.,0.));
#313=DIRECTION('',(-1.,0.,0.));
#314=DIRECTION('',(-1.,0.,0.));
#315=DIRECTION('center_axis',(0.,0.,1.));
#316=DIRECTION('ref_axis',(1.,0.,0.));
#317=DIRECTION('center_axis',(0.,0.,1.));
#318=DIRECTION('ref_axis',(1.,0.,0.));
#319=CARTESIAN_POINT('',(0.,0.,0.));
#320=CARTESIAN_POINT('Origin',(80.,55.,5.));
#321=CARTESIAN_POINT('',(80.,25.,0.));
#322=CARTESIAN_POINT('',(80.,55.,0.));
#323=CARTESIAN_POINT('',(80.,47.5,0.));
#324=CARTESIAN_POINT('',(80.,25.,5.));
#325=CARTESIAN_POINT('',(80.,25.,5.));
#326=CARTESIAN_POINT('',(80.,55.,5.));
#327=CARTESIAN_POINT('',(80.,47.5,5.));
#328=CARTESIAN_POINT('',(80.,55.,5.));
#329=CARTESIAN_POINT('Origin',(30.,55.,5.));
#330=CARTESIAN_POINT('',(30.,55.,0.));
#331=CARTESIAN_POINT('',(42.5,55.,0.));
#332=CARTESIAN_POINT('',(30.,55.,5.));
#333=CARTESIAN_POINT('',(42.5,55.,5.));
#334=CARTESIAN_POINT('',(30.,55.,5.));
#335=CARTESIAN_POINT('Origin',(30.,25.,5.));
#336=CARTESIAN_POINT('',(30.,25.,0.));
#337=CARTESIAN_POINT('',(30.,32.5,0.));
#338=CARTESIAN_POINT('',(30.,25.,5.));
#339=CARTESIAN_POINT('',(30.,32.5,5.));
#340=CARTESIAN_POINT('',(30.,25.,5.));
#341=CARTESIAN_POINT('Origin',(80.,25.,5.));
#342=CARTESIAN_POINT('',(67.5,25.,0.));
#343=CARTESIAN_POINT('',(67.5,25.,5.));
#344=CARTESIAN_POINT('Origin',(110.,70.,0.));
#345=CARTESIAN_POINT('',(92.6794919243112,80.,0.));
#346=CARTESIAN_POINT('',(110.,70.,0.));
#347=CARTESIAN_POINT('',(92.6794919243112,80.,0.));
#348=CARTESIAN_POINT('',(92.6794919243112,80.,5.));
#349=CARTESIAN_POINT('',(92.6794919243112,80.,0.));
#350=CARTESIAN_POINT('',(110.,70.,5.));
#351=CARTESIAN_POINT('',(92.6794919243112,80.,5.));
#352=CARTESIAN_POINT('',(110.,70.,0.));
#353=CARTESIAN_POINT('Origin',(110.,10.,0.));
#354=CARTESIAN_POINT('',(110.,10.,0.));
#355=CARTESIAN_POINT('',(110.,10.,0.));
#356=CARTESIAN_POINT('',(110.,10.,5.));
#357=CARTESIAN_POINT('',(110.,10.,5.));
#358=CARTESIAN_POINT('',(110.,10.,0.));
#359=CARTESIAN_POINT('Origin',(92.6794919243113,0.,0.));
#360=CARTESIAN_POINT('',(92.6794919243113,0.,0.));
#361=CARTESIAN_POINT('',(92.6794919243113,0.,0.));
#362=CARTESIAN_POINT('',(92.6794919243113,0.,5.));
#363=CARTESIAN_POINT('',(92.6794919243113,0.,5.));
#364=CARTESIAN_POINT('',(92.6794919243113,0.,0.));
#365=CARTESIAN_POINT('Origin',(0.,0.,0.));
#366=CARTESIAN_POINT('',(0.,0.,0.));
#367=CARTESIAN_POINT('',(0.,0.,0.));
#368=CARTESIAN_POINT('',(0.,0.,5.));
#369=CARTESIAN_POINT('',(0.,0.,5.));
#370=CARTESIAN_POINT('',(0.,0.,0.));
#371=CARTESIAN_POINT('Origin',(-1.23259516440783E-31,80.,0.));
#372=CARTESIAN_POINT('',(-1.23259516440783E-31,80.,0.));
#373=CARTESIAN_POINT('',(-1.23259516440783E-31,80.,0.));
#374=CARTESIAN_POINT('',(0.,80.,5.));
#375=CARTESIAN_POINT('',(-1.23259516440783E-31,80.,5.));
#376=CARTESIAN_POINT('',(-1.23259516440783E-31,80.,0.));
#377=CARTESIAN_POINT('Origin',(92.6794919243112,80.,0.));
#378=CARTESIAN_POINT('',(92.6794919243112,80.,0.));
#379=CARTESIAN_POINT('',(92.6794919243112,80.,5.));
#380=CARTESIAN_POINT('Origin',(55.,40.,5.));
#381=CARTESIAN_POINT('Origin',(55.,40.,0.));
#382=UNCERTAINTY_MEASURE_WITH_UNIT(LENGTH_MEASURE(0.01),#386,
'DISTANCE_ACCURACY_VALUE',
'Maximum model space distance between geometric entities at asserted c
onnectivities');
#383=UNCERTAINTY_MEASURE_WITH_UNIT(LENGTH_MEASURE(0.01),#386,
'DISTANCE_ACCURACY_VALUE',
'Maximum model space distance between geometric entities at asserted c
onnectivities');
#384=(
GEOMETRIC_REPRESENTATION_CONTEXT(3)
GLOBAL_UNCERTAINTY_ASSIGNED_CONTEXT((#382))
GLOBAL_UNIT_ASSIGNED_CONTEXT((#386,#388,#389))
REPRESENTATION_CONTEXT('','3D')
);
#385=(
GEOMETRIC_REPRESENTATION_CONTEXT(3)
GLOBAL_UNCERTAINTY_ASSIGNED_CONTEXT((#383))
GLOBAL_UNIT_ASSIGNED_CONTEXT((#386,#388,#389))
REPRESENTATION_CONTEXT('','3D')
);
#386=(
LENGTH_UNIT()
NAMED_UNIT(*)
SI_UNIT(.MILLI.,.METRE.)
);
#387=(
LENGTH_UNIT()
NAMED_UNIT(*)
SI_UNIT($,.METRE.)
);
#388=(
NAMED_UNIT(*)
PLANE_ANGLE_UNIT()
SI_UNIT($,.RADIAN.)
);
#389=(
NAMED_UNIT(*)
SI_UNIT($,.STERADIAN.)
SOLID_ANGLE_UNIT()
);
#390=SHAPE_DEFINITION_REPRESENTATION(#391,#392);
#391=PRODUCT_DEFINITION_SHAPE('',$,#394);
#392=SHAPE_REPRESENTATION('',(#250),#384);
#393=PRODUCT_DEFINITION_CONTEXT('part definition',#398,'design');
#394=PRODUCT_DEFINITION('2026-06-29-20-04-35-290','lidar_chassis',#395,
#393);
#395=PRODUCT_DEFINITION_FORMATION('',$,#400);
#396=PRODUCT_RELATED_PRODUCT_CATEGORY('lidar_chassis','lidar_chassis',(#400));
#397=APPLICATION_PROTOCOL_DEFINITION('international standard',
'automotive_design',2009,#398);
#398=APPLICATION_CONTEXT(
'Core Data for Automotive Mechanical Design Process');
#399=PRODUCT_CONTEXT('part definition',#398,'mechanical');
#400=PRODUCT('2026-06-29-20-04-35-290','lidar_chassis',$,(#399));
#401=PRESENTATION_STYLE_ASSIGNMENT((#403));
#402=PRESENTATION_STYLE_ASSIGNMENT((#404));
#403=SURFACE_STYLE_USAGE(.BOTH.,#405);
#404=SURFACE_STYLE_USAGE(.BOTH.,#406);
#405=SURFACE_SIDE_STYLE('',(#407));
#406=SURFACE_SIDE_STYLE('',(#408));
#407=SURFACE_STYLE_FILL_AREA(#409);
#408=SURFACE_STYLE_FILL_AREA(#410);
#409=FILL_AREA_STYLE('Steel - Satin',(#411));
#410=FILL_AREA_STYLE('Plastic - Glossy (Grey)',(#412));
#411=FILL_AREA_STYLE_COLOUR('Steel - Satin',#413);
#412=FILL_AREA_STYLE_COLOUR('Plastic - Glossy (Grey)',#414);
#413=COLOUR_RGB('Steel - Satin',0.627450980392157,0.627450980392157,0.627450980392157);
#414=COLOUR_RGB('Plastic - Glossy (Grey)',0.701960784313725,0.701960784313725,
0.701960784313725);
ENDSEC;
END-ISO-10303-21;
