ISO-10303-21;
HEADER;
/* Generated by software containing ST-Developer
 * from STEP Tools, Inc. (www.steptools.com) 
 */

FILE_DESCRIPTION(
/* description */ (''),
/* implementation_level */ '2;1');

FILE_NAME(
/* name */ 'second_chasis.step',
/* time_stamp */ '2026-07-18T14:32:24+03:00',
/* author */ (''),
/* organization */ (''),
/* preprocessor_version */ 'ST-DEVELOPER v20.1',
/* originating_system */ 'Autodesk Translation Framework v15.8.0.0',
/* authorisation */ '');

FILE_SCHEMA (('AUTOMOTIVE_DESIGN { 1 0 10303 214 3 1 1 }'));
ENDSEC;

DATA;
#10=MECHANICAL_DESIGN_GEOMETRIC_PRESENTATION_REPRESENTATION('',(#13),#817);
#11=SHAPE_REPRESENTATION_RELATIONSHIP('SRR','None',#824,#12);
#12=ADVANCED_BREP_SHAPE_REPRESENTATION('',(#14),#816);
#13=STYLED_ITEM('',(#834),#14);
#14=MANIFOLD_SOLID_BREP('Body1',#485);
#15=(
BOUNDED_SURFACE()
B_SPLINE_SURFACE(1,2,((#741,#742,#743),(#744,#745,#746)),.UNSPECIFIED.,
 .F.,.F.,.F.)
B_SPLINE_SURFACE_WITH_KNOTS((2,2),(3,3),(0.,0.333333333333334),(-2.30052398302186,
-0.841068670567931),.UNSPECIFIED.)
GEOMETRIC_REPRESENTATION_ITEM()
RATIONAL_B_SPLINE_SURFACE(((1.,0.74535599249993,1.),(1.,0.74535599249993,
1.)))
REPRESENTATION_ITEM('')
SURFACE()
);
#16=(
BOUNDED_SURFACE()
B_SPLINE_SURFACE(1,2,((#752,#753,#754,#755,#756,#757,#758),(#759,#760,#761,
#762,#763,#764,#765)),.UNSPECIFIED.,.F.,.F.,.F.)
B_SPLINE_SURFACE_WITH_KNOTS((2,2),(3,2,2,3),(0.,0.333333333333334),(-2.30052398302186,
-0.766841327673954,0.766841327673956,2.30052398302187),.UNSPECIFIED.)
GEOMETRIC_REPRESENTATION_ITEM()
RATIONAL_B_SPLINE_SURFACE(((1.,0.720105947697874,1.,0.720105947697874,1.,
0.720105947697874,1.),(1.,0.720105947697874,1.,0.720105947697874,1.,0.720105947697874,
1.)))
REPRESENTATION_ITEM('')
SURFACE()
);
#17=(
BOUNDED_SURFACE()
B_SPLINE_SURFACE(1,2,((#769,#770,#771),(#772,#773,#774)),.UNSPECIFIED.,
 .F.,.F.,.F.)
B_SPLINE_SURFACE_WITH_KNOTS((2,2),(3,3),(0.,0.333333333333334),(0.841068670567927,
2.30052398302186),.UNSPECIFIED.)
GEOMETRIC_REPRESENTATION_ITEM()
RATIONAL_B_SPLINE_SURFACE(((1.,0.745355992499928,1.),(1.,0.745355992499928,
1.)))
REPRESENTATION_ITEM('')
SURFACE()
);
#18=(
BOUNDED_SURFACE()
B_SPLINE_SURFACE(1,2,((#790,#791,#792,#793,#794,#795,#796),(#797,#798,#799,
#800,#801,#802,#803)),.UNSPECIFIED.,.F.,.F.,.F.)
B_SPLINE_SURFACE_WITH_KNOTS((2,2),(3,2,2,3),(0.,0.333333333333334),(0.841068670567926,
2.37475132591584,3.90843398126375,5.44211663661166),.UNSPECIFIED.)
GEOMETRIC_REPRESENTATION_ITEM()
RATIONAL_B_SPLINE_SURFACE(((1.,0.720105947697874,1.,0.720105947697874,1.,
0.720105947697874,1.),(1.,0.720105947697874,1.,0.720105947697874,1.,0.720105947697874,
1.)))
REPRESENTATION_ITEM('')
SURFACE()
);
#19=ELLIPSE('',#512,15.,10.6674537220982);
#20=ELLIPSE('',#513,15.,10.6674537220982);
#21=ELLIPSE('',#514,15.,10.6674537220982);
#22=ELLIPSE('',#515,15.,10.6674537220982);
#23=ELLIPSE('',#516,15.,10.6674537220982);
#24=ELLIPSE('',#517,15.,10.6674537220982);
#25=ELLIPSE('',#518,15.,10.6674537220982);
#26=ELLIPSE('',#520,15.,10.6674537220982);
#27=FACE_BOUND('',#68,.T.);
#28=FACE_BOUND('',#69,.T.);
#29=FACE_BOUND('',#74,.T.);
#30=FACE_BOUND('',#75,.T.);
#31=FACE_OUTER_BOUND('',#55,.T.);
#32=FACE_OUTER_BOUND('',#56,.T.);
#33=FACE_OUTER_BOUND('',#57,.T.);
#34=FACE_OUTER_BOUND('',#58,.T.);
#35=FACE_OUTER_BOUND('',#59,.T.);
#36=FACE_OUTER_BOUND('',#60,.T.);
#37=FACE_OUTER_BOUND('',#61,.T.);
#38=FACE_OUTER_BOUND('',#62,.T.);
#39=FACE_OUTER_BOUND('',#63,.T.);
#40=FACE_OUTER_BOUND('',#64,.T.);
#41=FACE_OUTER_BOUND('',#65,.T.);
#42=FACE_OUTER_BOUND('',#66,.T.);
#43=FACE_OUTER_BOUND('',#67,.T.);
#44=FACE_OUTER_BOUND('',#70,.T.);
#45=FACE_OUTER_BOUND('',#71,.T.);
#46=FACE_OUTER_BOUND('',#72,.T.);
#47=FACE_OUTER_BOUND('',#73,.T.);
#48=FACE_OUTER_BOUND('',#76,.T.);
#49=FACE_OUTER_BOUND('',#77,.T.);
#50=FACE_OUTER_BOUND('',#78,.T.);
#51=FACE_OUTER_BOUND('',#79,.T.);
#52=FACE_OUTER_BOUND('',#80,.T.);
#53=FACE_OUTER_BOUND('',#81,.T.);
#54=FACE_OUTER_BOUND('',#82,.T.);
#55=EDGE_LOOP('',(#309,#310,#311,#312));
#56=EDGE_LOOP('',(#313,#314,#315,#316));
#57=EDGE_LOOP('',(#317,#318,#319,#320));
#58=EDGE_LOOP('',(#321,#322,#323,#324));
#59=EDGE_LOOP('',(#325,#326,#327,#328));
#60=EDGE_LOOP('',(#329,#330,#331,#332));
#61=EDGE_LOOP('',(#333,#334,#335,#336));
#62=EDGE_LOOP('',(#337,#338,#339,#340));
#63=EDGE_LOOP('',(#341,#342,#343,#344));
#64=EDGE_LOOP('',(#345,#346,#347,#348));
#65=EDGE_LOOP('',(#349,#350,#351,#352));
#66=EDGE_LOOP('',(#353,#354,#355,#356));
#67=EDGE_LOOP('',(#357,#358,#359,#360,#361,#362,#363,#364,#365,#366,#367,
#368,#369,#370));
#68=EDGE_LOOP('',(#371,#372,#373,#374));
#69=EDGE_LOOP('',(#375,#376,#377,#378));
#70=EDGE_LOOP('',(#379,#380,#381,#382));
#71=EDGE_LOOP('',(#383,#384,#385,#386));
#72=EDGE_LOOP('',(#387,#388,#389,#390));
#73=EDGE_LOOP('',(#391,#392,#393,#394,#395,#396,#397,#398,#399,#400,#401,
#402,#403,#404));
#74=EDGE_LOOP('',(#405,#406,#407,#408));
#75=EDGE_LOOP('',(#409,#410,#411,#412));
#76=EDGE_LOOP('',(#413,#414,#415,#416));
#77=EDGE_LOOP('',(#417,#418,#419,#420));
#78=EDGE_LOOP('',(#421,#422,#423,#424));
#79=EDGE_LOOP('',(#425,#426,#427,#428));
#80=EDGE_LOOP('',(#429,#430,#431,#432));
#81=EDGE_LOOP('',(#433,#434,#435,#436));
#82=EDGE_LOOP('',(#437,#438,#439,#440));
#83=LINE('',#647,#141);
#84=LINE('',#649,#142);
#85=LINE('',#651,#143);
#86=LINE('',#652,#144);
#87=LINE('',#655,#145);
#88=LINE('',#657,#146);
#89=LINE('',#658,#147);
#90=LINE('',#661,#148);
#91=LINE('',#663,#149);
#92=LINE('',#664,#150);
#93=LINE('',#666,#151);
#94=LINE('',#667,#152);
#95=LINE('',#671,#153);
#96=LINE('',#673,#154);
#97=LINE('',#675,#155);
#98=LINE('',#676,#156);
#99=LINE('',#679,#157);
#100=LINE('',#681,#158);
#101=LINE('',#682,#159);
#102=LINE('',#685,#160);
#103=LINE('',#687,#161);
#104=LINE('',#688,#162);
#105=LINE('',#692,#163);
#106=LINE('',#694,#164);
#107=LINE('',#696,#165);
#108=LINE('',#697,#166);
#109=LINE('',#700,#167);
#110=LINE('',#702,#168);
#111=LINE('',#703,#169);
#112=LINE('',#706,#170);
#113=LINE('',#708,#171);
#114=LINE('',#709,#172);
#115=LINE('',#712,#173);
#116=LINE('',#714,#174);
#117=LINE('',#715,#175);
#118=LINE('',#718,#176);
#119=LINE('',#720,#177);
#120=LINE('',#721,#178);
#121=LINE('',#724,#179);
#122=LINE('',#726,#180);
#123=LINE('',#728,#181);
#124=LINE('',#730,#182);
#125=LINE('',#731,#183);
#126=LINE('',#732,#184);
#127=LINE('',#748,#185);
#128=LINE('',#751,#186);
#129=LINE('',#767,#187);
#130=LINE('',#776,#188);
#131=LINE('',#779,#189);
#132=LINE('',#781,#190);
#133=LINE('',#783,#191);
#134=LINE('',#785,#192);
#135=LINE('',#787,#193);
#136=LINE('',#788,#194);
#137=LINE('',#805,#195);
#138=LINE('',#806,#196);
#139=LINE('',#808,#197);
#140=LINE('',#812,#198);
#141=VECTOR('',#531,10.);
#142=VECTOR('',#532,10.);
#143=VECTOR('',#533,10.);
#144=VECTOR('',#534,10.);
#145=VECTOR('',#537,10.);
#146=VECTOR('',#538,10.);
#147=VECTOR('',#539,10.);
#148=VECTOR('',#542,10.);
#149=VECTOR('',#543,10.);
#150=VECTOR('',#544,10.);
#151=VECTOR('',#547,10.);
#152=VECTOR('',#548,10.);
#153=VECTOR('',#551,10.);
#154=VECTOR('',#552,10.);
#155=VECTOR('',#553,10.);
#156=VECTOR('',#554,10.);
#157=VECTOR('',#557,10.);
#158=VECTOR('',#558,10.);
#159=VECTOR('',#559,10.);
#160=VECTOR('',#562,10.);
#161=VECTOR('',#563,10.);
#162=VECTOR('',#564,10.);
#163=VECTOR('',#567,10.);
#164=VECTOR('',#568,10.);
#165=VECTOR('',#569,10.);
#166=VECTOR('',#570,10.);
#167=VECTOR('',#573,10.);
#168=VECTOR('',#574,10.);
#169=VECTOR('',#575,10.);
#170=VECTOR('',#578,10.);
#171=VECTOR('',#579,10.);
#172=VECTOR('',#580,10.);
#173=VECTOR('',#583,10.);
#174=VECTOR('',#584,10.);
#175=VECTOR('',#585,10.);
#176=VECTOR('',#588,10.);
#177=VECTOR('',#589,10.);
#178=VECTOR('',#590,10.);
#179=VECTOR('',#593,10.);
#180=VECTOR('',#594,10.);
#181=VECTOR('',#595,10.);
#182=VECTOR('',#596,10.);
#183=VECTOR('',#597,10.);
#184=VECTOR('',#598,10.);
#185=VECTOR('',#607,10.);
#186=VECTOR('',#610,10.);
#187=VECTOR('',#611,10.);
#188=VECTOR('',#614,10.);
#189=VECTOR('',#619,10.);
#190=VECTOR('',#620,10.);
#191=VECTOR('',#621,10.);
#192=VECTOR('',#622,10.);
#193=VECTOR('',#623,10.);
#194=VECTOR('',#624,10.);
#195=VECTOR('',#629,10.);
#196=VECTOR('',#630,10.);
#197=VECTOR('',#633,10.);
#198=VECTOR('',#640,10.);
#199=VERTEX_POINT('',#645);
#200=VERTEX_POINT('',#646);
#201=VERTEX_POINT('',#648);
#202=VERTEX_POINT('',#650);
#203=VERTEX_POINT('',#654);
#204=VERTEX_POINT('',#656);
#205=VERTEX_POINT('',#660);
#206=VERTEX_POINT('',#662);
#207=VERTEX_POINT('',#669);
#208=VERTEX_POINT('',#670);
#209=VERTEX_POINT('',#672);
#210=VERTEX_POINT('',#674);
#211=VERTEX_POINT('',#678);
#212=VERTEX_POINT('',#680);
#213=VERTEX_POINT('',#684);
#214=VERTEX_POINT('',#686);
#215=VERTEX_POINT('',#690);
#216=VERTEX_POINT('',#691);
#217=VERTEX_POINT('',#693);
#218=VERTEX_POINT('',#695);
#219=VERTEX_POINT('',#699);
#220=VERTEX_POINT('',#701);
#221=VERTEX_POINT('',#705);
#222=VERTEX_POINT('',#707);
#223=VERTEX_POINT('',#711);
#224=VERTEX_POINT('',#713);
#225=VERTEX_POINT('',#717);
#226=VERTEX_POINT('',#719);
#227=VERTEX_POINT('',#723);
#228=VERTEX_POINT('',#725);
#229=VERTEX_POINT('',#727);
#230=VERTEX_POINT('',#729);
#231=VERTEX_POINT('',#733);
#232=VERTEX_POINT('',#734);
#233=VERTEX_POINT('',#736);
#234=VERTEX_POINT('',#738);
#235=VERTEX_POINT('',#747);
#236=VERTEX_POINT('',#749);
#237=VERTEX_POINT('',#766);
#238=VERTEX_POINT('',#775);
#239=VERTEX_POINT('',#780);
#240=VERTEX_POINT('',#782);
#241=VERTEX_POINT('',#784);
#242=VERTEX_POINT('',#786);
#243=EDGE_CURVE('',#199,#200,#83,.T.);
#244=EDGE_CURVE('',#201,#199,#84,.T.);
#245=EDGE_CURVE('',#202,#201,#85,.T.);
#246=EDGE_CURVE('',#202,#200,#86,.T.);
#247=EDGE_CURVE('',#200,#203,#87,.T.);
#248=EDGE_CURVE('',#204,#202,#88,.T.);
#249=EDGE_CURVE('',#204,#203,#89,.T.);
#250=EDGE_CURVE('',#203,#205,#90,.T.);
#251=EDGE_CURVE('',#206,#204,#91,.T.);
#252=EDGE_CURVE('',#206,#205,#92,.T.);
#253=EDGE_CURVE('',#205,#199,#93,.T.);
#254=EDGE_CURVE('',#201,#206,#94,.T.);
#255=EDGE_CURVE('',#207,#208,#95,.T.);
#256=EDGE_CURVE('',#209,#207,#96,.T.);
#257=EDGE_CURVE('',#210,#209,#97,.T.);
#258=EDGE_CURVE('',#210,#208,#98,.T.);
#259=EDGE_CURVE('',#208,#211,#99,.T.);
#260=EDGE_CURVE('',#212,#210,#100,.T.);
#261=EDGE_CURVE('',#212,#211,#101,.T.);
#262=EDGE_CURVE('',#211,#213,#102,.T.);
#263=EDGE_CURVE('',#214,#212,#103,.T.);
#264=EDGE_CURVE('',#213,#214,#104,.T.);
#265=EDGE_CURVE('',#215,#216,#105,.T.);
#266=EDGE_CURVE('',#217,#215,#106,.T.);
#267=EDGE_CURVE('',#218,#217,#107,.T.);
#268=EDGE_CURVE('',#218,#216,#108,.T.);
#269=EDGE_CURVE('',#216,#219,#109,.T.);
#270=EDGE_CURVE('',#220,#218,#110,.T.);
#271=EDGE_CURVE('',#219,#220,#111,.T.);
#272=EDGE_CURVE('',#221,#215,#112,.T.);
#273=EDGE_CURVE('',#222,#221,#113,.T.);
#274=EDGE_CURVE('',#217,#222,#114,.T.);
#275=EDGE_CURVE('',#223,#220,#115,.T.);
#276=EDGE_CURVE('',#224,#223,#116,.T.);
#277=EDGE_CURVE('',#219,#224,#117,.T.);
#278=EDGE_CURVE('',#225,#207,#118,.T.);
#279=EDGE_CURVE('',#225,#226,#119,.T.);
#280=EDGE_CURVE('',#209,#226,#120,.T.);
#281=EDGE_CURVE('',#226,#227,#121,.T.);
#282=EDGE_CURVE('',#227,#228,#122,.T.);
#283=EDGE_CURVE('',#228,#229,#123,.T.);
#284=EDGE_CURVE('',#229,#230,#124,.T.);
#285=EDGE_CURVE('',#230,#223,#125,.T.);
#286=EDGE_CURVE('',#222,#214,#126,.T.);
#287=EDGE_CURVE('',#231,#232,#19,.T.);
#288=EDGE_CURVE('',#232,#233,#20,.T.);
#289=EDGE_CURVE('',#233,#234,#21,.T.);
#290=EDGE_CURVE('',#234,#231,#22,.T.);
#291=EDGE_CURVE('',#235,#233,#127,.T.);
#292=EDGE_CURVE('',#236,#235,#23,.T.);
#293=EDGE_CURVE('',#234,#236,#128,.T.);
#294=EDGE_CURVE('',#237,#231,#129,.T.);
#295=EDGE_CURVE('',#237,#236,#24,.T.);
#296=EDGE_CURVE('',#232,#238,#130,.T.);
#297=EDGE_CURVE('',#238,#237,#25,.T.);
#298=EDGE_CURVE('',#213,#221,#131,.T.);
#299=EDGE_CURVE('',#224,#239,#132,.T.);
#300=EDGE_CURVE('',#239,#240,#133,.T.);
#301=EDGE_CURVE('',#240,#241,#134,.T.);
#302=EDGE_CURVE('',#241,#242,#135,.T.);
#303=EDGE_CURVE('',#242,#225,#136,.T.);
#304=EDGE_CURVE('',#235,#238,#26,.T.);
#305=EDGE_CURVE('',#240,#229,#137,.T.);
#306=EDGE_CURVE('',#241,#228,#138,.T.);
#307=EDGE_CURVE('',#242,#227,#139,.T.);
#308=EDGE_CURVE('',#239,#230,#140,.T.);
#309=ORIENTED_EDGE('',*,*,#243,.F.);
#310=ORIENTED_EDGE('',*,*,#244,.F.);
#311=ORIENTED_EDGE('',*,*,#245,.F.);
#312=ORIENTED_EDGE('',*,*,#246,.T.);
#313=ORIENTED_EDGE('',*,*,#247,.F.);
#314=ORIENTED_EDGE('',*,*,#246,.F.);
#315=ORIENTED_EDGE('',*,*,#248,.F.);
#316=ORIENTED_EDGE('',*,*,#249,.T.);
#317=ORIENTED_EDGE('',*,*,#250,.F.);
#318=ORIENTED_EDGE('',*,*,#249,.F.);
#319=ORIENTED_EDGE('',*,*,#251,.F.);
#320=ORIENTED_EDGE('',*,*,#252,.T.);
#321=ORIENTED_EDGE('',*,*,#253,.F.);
#322=ORIENTED_EDGE('',*,*,#252,.F.);
#323=ORIENTED_EDGE('',*,*,#254,.F.);
#324=ORIENTED_EDGE('',*,*,#244,.T.);
#325=ORIENTED_EDGE('',*,*,#255,.F.);
#326=ORIENTED_EDGE('',*,*,#256,.F.);
#327=ORIENTED_EDGE('',*,*,#257,.F.);
#328=ORIENTED_EDGE('',*,*,#258,.T.);
#329=ORIENTED_EDGE('',*,*,#259,.F.);
#330=ORIENTED_EDGE('',*,*,#258,.F.);
#331=ORIENTED_EDGE('',*,*,#260,.F.);
#332=ORIENTED_EDGE('',*,*,#261,.T.);
#333=ORIENTED_EDGE('',*,*,#262,.F.);
#334=ORIENTED_EDGE('',*,*,#261,.F.);
#335=ORIENTED_EDGE('',*,*,#263,.F.);
#336=ORIENTED_EDGE('',*,*,#264,.F.);
#337=ORIENTED_EDGE('',*,*,#265,.F.);
#338=ORIENTED_EDGE('',*,*,#266,.F.);
#339=ORIENTED_EDGE('',*,*,#267,.F.);
#340=ORIENTED_EDGE('',*,*,#268,.T.);
#341=ORIENTED_EDGE('',*,*,#269,.F.);
#342=ORIENTED_EDGE('',*,*,#268,.F.);
#343=ORIENTED_EDGE('',*,*,#270,.F.);
#344=ORIENTED_EDGE('',*,*,#271,.F.);
#345=ORIENTED_EDGE('',*,*,#272,.F.);
#346=ORIENTED_EDGE('',*,*,#273,.F.);
#347=ORIENTED_EDGE('',*,*,#274,.F.);
#348=ORIENTED_EDGE('',*,*,#266,.T.);
#349=ORIENTED_EDGE('',*,*,#271,.T.);
#350=ORIENTED_EDGE('',*,*,#275,.F.);
#351=ORIENTED_EDGE('',*,*,#276,.F.);
#352=ORIENTED_EDGE('',*,*,#277,.F.);
#353=ORIENTED_EDGE('',*,*,#256,.T.);
#354=ORIENTED_EDGE('',*,*,#278,.F.);
#355=ORIENTED_EDGE('',*,*,#279,.T.);
#356=ORIENTED_EDGE('',*,*,#280,.F.);
#357=ORIENTED_EDGE('',*,*,#263,.T.);
#358=ORIENTED_EDGE('',*,*,#260,.T.);
#359=ORIENTED_EDGE('',*,*,#257,.T.);
#360=ORIENTED_EDGE('',*,*,#280,.T.);
#361=ORIENTED_EDGE('',*,*,#281,.T.);
#362=ORIENTED_EDGE('',*,*,#282,.T.);
#363=ORIENTED_EDGE('',*,*,#283,.T.);
#364=ORIENTED_EDGE('',*,*,#284,.T.);
#365=ORIENTED_EDGE('',*,*,#285,.T.);
#366=ORIENTED_EDGE('',*,*,#275,.T.);
#367=ORIENTED_EDGE('',*,*,#270,.T.);
#368=ORIENTED_EDGE('',*,*,#267,.T.);
#369=ORIENTED_EDGE('',*,*,#274,.T.);
#370=ORIENTED_EDGE('',*,*,#286,.T.);
#371=ORIENTED_EDGE('',*,*,#245,.T.);
#372=ORIENTED_EDGE('',*,*,#254,.T.);
#373=ORIENTED_EDGE('',*,*,#251,.T.);
#374=ORIENTED_EDGE('',*,*,#248,.T.);
#375=ORIENTED_EDGE('',*,*,#287,.T.);
#376=ORIENTED_EDGE('',*,*,#288,.T.);
#377=ORIENTED_EDGE('',*,*,#289,.T.);
#378=ORIENTED_EDGE('',*,*,#290,.T.);
#379=ORIENTED_EDGE('',*,*,#291,.F.);
#380=ORIENTED_EDGE('',*,*,#292,.F.);
#381=ORIENTED_EDGE('',*,*,#293,.F.);
#382=ORIENTED_EDGE('',*,*,#289,.F.);
#383=ORIENTED_EDGE('',*,*,#294,.T.);
#384=ORIENTED_EDGE('',*,*,#290,.F.);
#385=ORIENTED_EDGE('',*,*,#293,.T.);
#386=ORIENTED_EDGE('',*,*,#295,.F.);
#387=ORIENTED_EDGE('',*,*,#296,.F.);
#388=ORIENTED_EDGE('',*,*,#287,.F.);
#389=ORIENTED_EDGE('',*,*,#294,.F.);
#390=ORIENTED_EDGE('',*,*,#297,.F.);
#391=ORIENTED_EDGE('',*,*,#262,.T.);
#392=ORIENTED_EDGE('',*,*,#298,.T.);
#393=ORIENTED_EDGE('',*,*,#272,.T.);
#394=ORIENTED_EDGE('',*,*,#265,.T.);
#395=ORIENTED_EDGE('',*,*,#269,.T.);
#396=ORIENTED_EDGE('',*,*,#277,.T.);
#397=ORIENTED_EDGE('',*,*,#299,.T.);
#398=ORIENTED_EDGE('',*,*,#300,.T.);
#399=ORIENTED_EDGE('',*,*,#301,.T.);
#400=ORIENTED_EDGE('',*,*,#302,.T.);
#401=ORIENTED_EDGE('',*,*,#303,.T.);
#402=ORIENTED_EDGE('',*,*,#278,.T.);
#403=ORIENTED_EDGE('',*,*,#255,.T.);
#404=ORIENTED_EDGE('',*,*,#259,.T.);
#405=ORIENTED_EDGE('',*,*,#243,.T.);
#406=ORIENTED_EDGE('',*,*,#247,.T.);
#407=ORIENTED_EDGE('',*,*,#250,.T.);
#408=ORIENTED_EDGE('',*,*,#253,.T.);
#409=ORIENTED_EDGE('',*,*,#297,.T.);
#410=ORIENTED_EDGE('',*,*,#295,.T.);
#411=ORIENTED_EDGE('',*,*,#292,.T.);
#412=ORIENTED_EDGE('',*,*,#304,.T.);
#413=ORIENTED_EDGE('',*,*,#296,.T.);
#414=ORIENTED_EDGE('',*,*,#304,.F.);
#415=ORIENTED_EDGE('',*,*,#291,.T.);
#416=ORIENTED_EDGE('',*,*,#288,.F.);
#417=ORIENTED_EDGE('',*,*,#301,.F.);
#418=ORIENTED_EDGE('',*,*,#305,.T.);
#419=ORIENTED_EDGE('',*,*,#283,.F.);
#420=ORIENTED_EDGE('',*,*,#306,.F.);
#421=ORIENTED_EDGE('',*,*,#302,.F.);
#422=ORIENTED_EDGE('',*,*,#306,.T.);
#423=ORIENTED_EDGE('',*,*,#282,.F.);
#424=ORIENTED_EDGE('',*,*,#307,.F.);
#425=ORIENTED_EDGE('',*,*,#303,.F.);
#426=ORIENTED_EDGE('',*,*,#307,.T.);
#427=ORIENTED_EDGE('',*,*,#281,.F.);
#428=ORIENTED_EDGE('',*,*,#279,.F.);
#429=ORIENTED_EDGE('',*,*,#264,.T.);
#430=ORIENTED_EDGE('',*,*,#286,.F.);
#431=ORIENTED_EDGE('',*,*,#273,.T.);
#432=ORIENTED_EDGE('',*,*,#298,.F.);
#433=ORIENTED_EDGE('',*,*,#299,.F.);
#434=ORIENTED_EDGE('',*,*,#276,.T.);
#435=ORIENTED_EDGE('',*,*,#285,.F.);
#436=ORIENTED_EDGE('',*,*,#308,.F.);
#437=ORIENTED_EDGE('',*,*,#300,.F.);
#438=ORIENTED_EDGE('',*,*,#308,.T.);
#439=ORIENTED_EDGE('',*,*,#284,.F.);
#440=ORIENTED_EDGE('',*,*,#305,.F.);
#441=PLANE('',#499);
#442=PLANE('',#500);
#443=PLANE('',#501);
#444=PLANE('',#502);
#445=PLANE('',#503);
#446=PLANE('',#504);
#447=PLANE('',#505);
#448=PLANE('',#506);
#449=PLANE('',#507);
#450=PLANE('',#508);
#451=PLANE('',#509);
#452=PLANE('',#510);
#453=PLANE('',#511);
#454=PLANE('',#519);
#455=PLANE('',#521);
#456=PLANE('',#522);
#457=PLANE('',#523);
#458=PLANE('',#524);
#459=PLANE('',#525);
#460=PLANE('',#526);
#461=ADVANCED_FACE('',(#31),#441,.F.);
#462=ADVANCED_FACE('',(#32),#442,.F.);
#463=ADVANCED_FACE('',(#33),#443,.F.);
#464=ADVANCED_FACE('',(#34),#444,.F.);
#465=ADVANCED_FACE('',(#35),#445,.F.);
#466=ADVANCED_FACE('',(#36),#446,.F.);
#467=ADVANCED_FACE('',(#37),#447,.F.);
#468=ADVANCED_FACE('',(#38),#448,.F.);
#469=ADVANCED_FACE('',(#39),#449,.F.);
#470=ADVANCED_FACE('',(#40),#450,.F.);
#471=ADVANCED_FACE('',(#41),#451,.T.);
#472=ADVANCED_FACE('',(#42),#452,.T.);
#473=ADVANCED_FACE('',(#43,#27,#28),#453,.T.);
#474=ADVANCED_FACE('',(#44),#15,.T.);
#475=ADVANCED_FACE('',(#45),#16,.T.);
#476=ADVANCED_FACE('',(#46),#17,.T.);
#477=ADVANCED_FACE('',(#47,#29,#30),#454,.F.);
#478=ADVANCED_FACE('',(#48),#18,.T.);
#479=ADVANCED_FACE('',(#49),#455,.T.);
#480=ADVANCED_FACE('',(#50),#456,.T.);
#481=ADVANCED_FACE('',(#51),#457,.T.);
#482=ADVANCED_FACE('',(#52),#458,.T.);
#483=ADVANCED_FACE('',(#53),#459,.T.);
#484=ADVANCED_FACE('',(#54),#460,.T.);
#485=CLOSED_SHELL('',(#461,#462,#463,#464,#465,#466,#467,#468,#469,#470,
#471,#472,#473,#474,#475,#476,#477,#478,#479,#480,#481,#482,#483,#484));
#486=DERIVED_UNIT_ELEMENT(#488,1.);
#487=DERIVED_UNIT_ELEMENT(#819,-3.);
#488=(
MASS_UNIT()
NAMED_UNIT(*)
SI_UNIT(.KILO.,.GRAM.)
);
#489=DERIVED_UNIT((#486,#487));
#490=MEASURE_REPRESENTATION_ITEM('density measure',
POSITIVE_RATIO_MEASURE(7850.),#489);
#491=PROPERTY_DEFINITION_REPRESENTATION(#496,#493);
#492=PROPERTY_DEFINITION_REPRESENTATION(#497,#494);
#493=REPRESENTATION('material name',(#495),#816);
#494=REPRESENTATION('density',(#490),#816);
#495=DESCRIPTIVE_REPRESENTATION_ITEM('Steel','Steel');
#496=PROPERTY_DEFINITION('material property','material name',#826);
#497=PROPERTY_DEFINITION('material property','density of part',#826);
#498=AXIS2_PLACEMENT_3D('',#643,#527,#528);
#499=AXIS2_PLACEMENT_3D('',#644,#529,#530);
#500=AXIS2_PLACEMENT_3D('',#653,#535,#536);
#501=AXIS2_PLACEMENT_3D('',#659,#540,#541);
#502=AXIS2_PLACEMENT_3D('',#665,#545,#546);
#503=AXIS2_PLACEMENT_3D('',#668,#549,#550);
#504=AXIS2_PLACEMENT_3D('',#677,#555,#556);
#505=AXIS2_PLACEMENT_3D('',#683,#560,#561);
#506=AXIS2_PLACEMENT_3D('',#689,#565,#566);
#507=AXIS2_PLACEMENT_3D('',#698,#571,#572);
#508=AXIS2_PLACEMENT_3D('',#704,#576,#577);
#509=AXIS2_PLACEMENT_3D('',#710,#581,#582);
#510=AXIS2_PLACEMENT_3D('',#716,#586,#587);
#511=AXIS2_PLACEMENT_3D('',#722,#591,#592);
#512=AXIS2_PLACEMENT_3D('',#735,#599,#600);
#513=AXIS2_PLACEMENT_3D('',#737,#601,#602);
#514=AXIS2_PLACEMENT_3D('',#739,#603,#604);
#515=AXIS2_PLACEMENT_3D('',#740,#605,#606);
#516=AXIS2_PLACEMENT_3D('',#750,#608,#609);
#517=AXIS2_PLACEMENT_3D('',#768,#612,#613);
#518=AXIS2_PLACEMENT_3D('',#777,#615,#616);
#519=AXIS2_PLACEMENT_3D('',#778,#617,#618);
#520=AXIS2_PLACEMENT_3D('',#789,#625,#626);
#521=AXIS2_PLACEMENT_3D('',#804,#627,#628);
#522=AXIS2_PLACEMENT_3D('',#807,#631,#632);
#523=AXIS2_PLACEMENT_3D('',#809,#634,#635);
#524=AXIS2_PLACEMENT_3D('',#810,#636,#637);
#525=AXIS2_PLACEMENT_3D('',#811,#638,#639);
#526=AXIS2_PLACEMENT_3D('',#813,#641,#642);
#527=DIRECTION('axis',(0.,0.,1.));
#528=DIRECTION('refdir',(1.,0.,0.));
#529=DIRECTION('center_axis',(1.,0.,0.));
#530=DIRECTION('ref_axis',(0.,-1.,0.));
#531=DIRECTION('',(0.,1.,0.));
#532=DIRECTION('',(0.,0.,-1.));
#533=DIRECTION('',(0.,-1.,0.));
#534=DIRECTION('',(0.,0.,-1.));
#535=DIRECTION('center_axis',(0.,1.,0.));
#536=DIRECTION('ref_axis',(1.,0.,0.));
#537=DIRECTION('',(-1.,0.,0.));
#538=DIRECTION('',(1.,0.,0.));
#539=DIRECTION('',(0.,0.,-1.));
#540=DIRECTION('center_axis',(-1.,0.,0.));
#541=DIRECTION('ref_axis',(0.,1.,0.));
#542=DIRECTION('',(0.,-1.,0.));
#543=DIRECTION('',(0.,1.,0.));
#544=DIRECTION('',(0.,0.,-1.));
#545=DIRECTION('center_axis',(0.,-1.,0.));
#546=DIRECTION('ref_axis',(-1.,0.,0.));
#547=DIRECTION('',(1.,0.,0.));
#548=DIRECTION('',(-1.,0.,0.));
#549=DIRECTION('center_axis',(0.,-1.,0.));
#550=DIRECTION('ref_axis',(-1.,0.,0.));
#551=DIRECTION('',(1.,0.,0.));
#552=DIRECTION('',(0.,0.,-1.));
#553=DIRECTION('',(-1.,0.,0.));
#554=DIRECTION('',(0.,0.,-1.));
#555=DIRECTION('center_axis',(1.,0.,0.));
#556=DIRECTION('ref_axis',(0.,-1.,0.));
#557=DIRECTION('',(0.,1.,0.));
#558=DIRECTION('',(0.,-1.,0.));
#559=DIRECTION('',(0.,0.,-1.));
#560=DIRECTION('center_axis',(0.,1.,0.));
#561=DIRECTION('ref_axis',(1.,0.,0.));
#562=DIRECTION('',(-1.,0.,0.));
#563=DIRECTION('',(1.,0.,0.));
#564=DIRECTION('',(0.,0.,1.));
#565=DIRECTION('center_axis',(1.,0.,0.));
#566=DIRECTION('ref_axis',(0.,-1.,0.));
#567=DIRECTION('',(0.,1.,0.));
#568=DIRECTION('',(0.,0.,-1.));
#569=DIRECTION('',(0.,-1.,0.));
#570=DIRECTION('',(0.,0.,-1.));
#571=DIRECTION('center_axis',(0.,1.,0.));
#572=DIRECTION('ref_axis',(1.,0.,0.));
#573=DIRECTION('',(-1.,0.,0.));
#574=DIRECTION('',(1.,0.,0.));
#575=DIRECTION('',(0.,0.,1.));
#576=DIRECTION('center_axis',(0.,-1.,0.));
#577=DIRECTION('ref_axis',(-1.,0.,0.));
#578=DIRECTION('',(1.,0.,0.));
#579=DIRECTION('',(0.,0.,-1.));
#580=DIRECTION('',(-1.,0.,0.));
#581=DIRECTION('center_axis',(-1.,0.,0.));
#582=DIRECTION('ref_axis',(0.,-1.,0.));
#583=DIRECTION('',(0.,-1.,0.));
#584=DIRECTION('',(0.,0.,1.));
#585=DIRECTION('',(0.,1.,0.));
#586=DIRECTION('center_axis',(-1.,0.,0.));
#587=DIRECTION('ref_axis',(0.,-1.,0.));
#588=DIRECTION('',(0.,1.,0.));
#589=DIRECTION('',(0.,0.,1.));
#590=DIRECTION('',(0.,-1.,0.));
#591=DIRECTION('center_axis',(0.,0.,1.));
#592=DIRECTION('ref_axis',(1.,0.,0.));
#593=DIRECTION('',(1.,-6.12323399573677E-17,0.));
#594=DIRECTION('',(0.866025403784439,0.499999999999999,0.));
#595=DIRECTION('',(0.,1.,0.));
#596=DIRECTION('',(-0.866025403784441,0.499999999999997,0.));
#597=DIRECTION('',(-1.,-2.66120874816517E-16,0.));
#598=DIRECTION('',(0.,-1.,0.));
#599=DIRECTION('center_axis',(0.,0.,-1.));
#600=DIRECTION('ref_axis',(2.90377474356901E-16,1.,0.));
#601=DIRECTION('center_axis',(0.,0.,-1.));
#602=DIRECTION('ref_axis',(2.90377474356901E-16,1.,0.));
#603=DIRECTION('center_axis',(0.,0.,-1.));
#604=DIRECTION('ref_axis',(2.90377474356901E-16,1.,0.));
#605=DIRECTION('center_axis',(0.,0.,-1.));
#606=DIRECTION('ref_axis',(2.90377474356901E-16,1.,0.));
#607=DIRECTION('',(0.,0.,1.));
#608=DIRECTION('center_axis',(0.,0.,1.));
#609=DIRECTION('ref_axis',(2.90377474356901E-16,1.,0.));
#610=DIRECTION('',(0.,0.,-1.));
#611=DIRECTION('',(0.,0.,1.));
#612=DIRECTION('center_axis',(0.,0.,1.));
#613=DIRECTION('ref_axis',(2.90377474356901E-16,1.,0.));
#614=DIRECTION('',(0.,0.,-1.));
#615=DIRECTION('center_axis',(0.,0.,1.));
#616=DIRECTION('ref_axis',(2.90377474356901E-16,1.,0.));
#617=DIRECTION('center_axis',(0.,0.,1.));
#618=DIRECTION('ref_axis',(1.,0.,0.));
#619=DIRECTION('',(0.,1.,0.));
#620=DIRECTION('',(1.,2.66120874816517E-16,0.));
#621=DIRECTION('',(0.866025403784441,-0.499999999999997,0.));
#622=DIRECTION('',(0.,-1.,0.));
#623=DIRECTION('',(-0.866025403784439,-0.499999999999999,0.));
#624=DIRECTION('',(-1.,6.12323399573677E-17,0.));
#625=DIRECTION('center_axis',(0.,0.,1.));
#626=DIRECTION('ref_axis',(2.90377474356901E-16,1.,0.));
#627=DIRECTION('center_axis',(1.,0.,0.));
#628=DIRECTION('ref_axis',(0.,1.,0.));
#629=DIRECTION('',(0.,0.,1.));
#630=DIRECTION('',(0.,0.,1.));
#631=DIRECTION('center_axis',(0.499999999999999,-0.866025403784439,0.));
#632=DIRECTION('ref_axis',(0.866025403784439,0.499999999999999,0.));
#633=DIRECTION('',(0.,0.,1.));
#634=DIRECTION('center_axis',(-6.12323399573677E-17,-1.,0.));
#635=DIRECTION('ref_axis',(1.,-6.12323399573677E-17,0.));
#636=DIRECTION('center_axis',(-1.,0.,0.));
#637=DIRECTION('ref_axis',(0.,-1.,0.));
#638=DIRECTION('center_axis',(-2.66120874816517E-16,1.,0.));
#639=DIRECTION('ref_axis',(-1.,-2.66120874816517E-16,0.));
#640=DIRECTION('',(0.,0.,1.));
#641=DIRECTION('center_axis',(0.499999999999997,0.866025403784441,0.));
#642=DIRECTION('ref_axis',(-0.866025403784441,0.499999999999997,0.));
#643=CARTESIAN_POINT('',(0.,0.,0.));
#644=CARTESIAN_POINT('Origin',(190.,160.,5.));
#645=CARTESIAN_POINT('',(190.,80.,0.));
#646=CARTESIAN_POINT('',(190.,160.,0.));
#647=CARTESIAN_POINT('',(190.,137.5,0.));
#648=CARTESIAN_POINT('',(190.,80.,5.));
#649=CARTESIAN_POINT('',(190.,80.,5.));
#650=CARTESIAN_POINT('',(190.,160.,5.));
#651=CARTESIAN_POINT('',(190.,137.5,5.));
#652=CARTESIAN_POINT('',(190.,160.,5.));
#653=CARTESIAN_POINT('Origin',(183.,160.,5.));
#654=CARTESIAN_POINT('',(183.,160.,0.));
#655=CARTESIAN_POINT('',(166.5,160.,0.));
#656=CARTESIAN_POINT('',(183.,160.,5.));
#657=CARTESIAN_POINT('',(166.5,160.,5.));
#658=CARTESIAN_POINT('',(183.,160.,5.));
#659=CARTESIAN_POINT('Origin',(183.,80.,5.));
#660=CARTESIAN_POINT('',(183.,80.,0.));
#661=CARTESIAN_POINT('',(183.,97.5,0.));
#662=CARTESIAN_POINT('',(183.,80.,5.));
#663=CARTESIAN_POINT('',(183.,97.5,5.));
#664=CARTESIAN_POINT('',(183.,80.,5.));
#665=CARTESIAN_POINT('Origin',(190.,80.,5.));
#666=CARTESIAN_POINT('',(170.,80.,0.));
#667=CARTESIAN_POINT('',(170.,80.,5.));
#668=CARTESIAN_POINT('Origin',(120.,30.,5.));
#669=CARTESIAN_POINT('',(3.5527136788005E-14,30.,0.));
#670=CARTESIAN_POINT('',(120.,30.,0.));
#671=CARTESIAN_POINT('',(135.,30.,0.));
#672=CARTESIAN_POINT('',(3.5527136788005E-14,30.,5.));
#673=CARTESIAN_POINT('',(0.,30.,2.5));
#674=CARTESIAN_POINT('',(120.,30.,5.));
#675=CARTESIAN_POINT('',(135.,30.,5.));
#676=CARTESIAN_POINT('',(120.,30.,5.));
#677=CARTESIAN_POINT('Origin',(120.,40.,5.));
#678=CARTESIAN_POINT('',(120.,40.,0.));
#679=CARTESIAN_POINT('',(120.,77.5,0.));
#680=CARTESIAN_POINT('',(120.,40.,5.));
#681=CARTESIAN_POINT('',(120.,77.5,5.));
#682=CARTESIAN_POINT('',(120.,40.,5.));
#683=CARTESIAN_POINT('Origin',(3.99680288865056E-14,40.,5.));
#684=CARTESIAN_POINT('',(3.99680288865056E-14,40.,0.));
#685=CARTESIAN_POINT('',(75.,40.,0.));
#686=CARTESIAN_POINT('',(3.99680288865056E-14,40.,5.));
#687=CARTESIAN_POINT('',(75.,40.,5.));
#688=CARTESIAN_POINT('',(0.,40.,2.5));
#689=CARTESIAN_POINT('Origin',(120.,210.,5.));
#690=CARTESIAN_POINT('',(120.,200.,0.));
#691=CARTESIAN_POINT('',(120.,210.,0.));
#692=CARTESIAN_POINT('',(120.,162.5,0.));
#693=CARTESIAN_POINT('',(120.,200.,5.));
#694=CARTESIAN_POINT('',(120.,200.,5.));
#695=CARTESIAN_POINT('',(120.,210.,5.));
#696=CARTESIAN_POINT('',(120.,162.5,5.));
#697=CARTESIAN_POINT('',(120.,210.,5.));
#698=CARTESIAN_POINT('Origin',(0.,210.,5.));
#699=CARTESIAN_POINT('',(0.,210.,0.));
#700=CARTESIAN_POINT('',(75.,210.,0.));
#701=CARTESIAN_POINT('',(0.,210.,5.));
#702=CARTESIAN_POINT('',(75.,210.,5.));
#703=CARTESIAN_POINT('',(0.,210.,2.5));
#704=CARTESIAN_POINT('Origin',(120.,200.,5.));
#705=CARTESIAN_POINT('',(0.,200.,0.));
#706=CARTESIAN_POINT('',(135.,200.,0.));
#707=CARTESIAN_POINT('',(0.,200.,5.));
#708=CARTESIAN_POINT('',(0.,200.,2.5));
#709=CARTESIAN_POINT('',(135.,200.,5.));
#710=CARTESIAN_POINT('Origin',(0.,230.,0.));
#711=CARTESIAN_POINT('',(0.,230.,5.));
#712=CARTESIAN_POINT('',(0.,0.,5.));
#713=CARTESIAN_POINT('',(0.,230.,0.));
#714=CARTESIAN_POINT('',(0.,230.,0.));
#715=CARTESIAN_POINT('',(0.,0.,0.));
#716=CARTESIAN_POINT('Origin',(0.,230.,0.));
#717=CARTESIAN_POINT('',(0.,0.,0.));
#718=CARTESIAN_POINT('',(0.,0.,0.));
#719=CARTESIAN_POINT('',(0.,0.,5.));
#720=CARTESIAN_POINT('',(0.,0.,0.));
#721=CARTESIAN_POINT('',(0.,0.,5.));
#722=CARTESIAN_POINT('Origin',(150.,115.,5.));
#723=CARTESIAN_POINT('',(267.,0.,5.));
#724=CARTESIAN_POINT('',(267.,-1.63490347686172E-14,5.));
#725=CARTESIAN_POINT('',(300.,19.0525588832576,5.));
#726=CARTESIAN_POINT('',(300.,19.0525588832576,5.));
#727=CARTESIAN_POINT('',(300.,210.947441116743,5.));
#728=CARTESIAN_POINT('',(300.,210.947441116743,5.));
#729=CARTESIAN_POINT('',(267.,230.,5.));
#730=CARTESIAN_POINT('',(267.,230.,5.));
#731=CARTESIAN_POINT('',(0.,230.,5.));
#732=CARTESIAN_POINT('',(0.,0.,5.));
#733=CARTESIAN_POINT('',(227.233597813192,95.8757563299241,5.));
#734=CARTESIAN_POINT('',(227.233597813192,75.8757563299242,5.));
#735=CARTESIAN_POINT('Origin',(219.28254725671,85.8757563299241,5.));
#736=CARTESIAN_POINT('',(211.331496700229,75.8757563299241,5.));
#737=CARTESIAN_POINT('Origin',(219.28254725671,65.8757563299242,5.));
#738=CARTESIAN_POINT('',(211.331496700229,95.8757563299241,5.));
#739=CARTESIAN_POINT('Origin',(219.28254725671,85.8757563299241,5.));
#740=CARTESIAN_POINT('Origin',(219.28254725671,105.875756329924,5.));
#741=CARTESIAN_POINT('Ctrl Pts',(211.331496700229,75.8757563299242,5.));
#742=CARTESIAN_POINT('Ctrl Pts',(204.970656255043,85.8757563299241,5.));
#743=CARTESIAN_POINT('Ctrl Pts',(211.331496700229,95.8757563299241,5.));
#744=CARTESIAN_POINT('Ctrl Pts',(211.331496700229,75.8757563299242,0.));
#745=CARTESIAN_POINT('Ctrl Pts',(204.970656255043,85.8757563299241,0.));
#746=CARTESIAN_POINT('Ctrl Pts',(211.331496700229,95.8757563299241,0.));
#747=CARTESIAN_POINT('',(211.331496700229,75.8757563299241,0.));
#748=CARTESIAN_POINT('',(211.331496700229,75.8757563299241,5.));
#749=CARTESIAN_POINT('',(211.331496700229,95.8757563299241,0.));
#750=CARTESIAN_POINT('Origin',(219.28254725671,85.8757563299241,0.));
#751=CARTESIAN_POINT('',(211.331496700229,95.8757563299241,5.));
#752=CARTESIAN_POINT('Ctrl Pts',(211.331496700229,95.8757563299241,5.));
#753=CARTESIAN_POINT('Ctrl Pts',(204.479020369017,106.648666592747,5.));
#754=CARTESIAN_POINT('Ctrl Pts',(211.880783812864,116.677345545392,5.));
#755=CARTESIAN_POINT('Ctrl Pts',(219.28254725671,126.706024498037,5.));
#756=CARTESIAN_POINT('Ctrl Pts',(226.684310700557,116.677345545392,5.));
#757=CARTESIAN_POINT('Ctrl Pts',(234.086074144403,106.648666592747,5.));
#758=CARTESIAN_POINT('Ctrl Pts',(227.233597813192,95.8757563299241,5.));
#759=CARTESIAN_POINT('Ctrl Pts',(211.331496700229,95.8757563299241,0.));
#760=CARTESIAN_POINT('Ctrl Pts',(204.479020369017,106.648666592747,0.));
#761=CARTESIAN_POINT('Ctrl Pts',(211.880783812864,116.677345545392,0.));
#762=CARTESIAN_POINT('Ctrl Pts',(219.28254725671,126.706024498037,0.));
#763=CARTESIAN_POINT('Ctrl Pts',(226.684310700557,116.677345545392,0.));
#764=CARTESIAN_POINT('Ctrl Pts',(234.086074144403,106.648666592747,0.));
#765=CARTESIAN_POINT('Ctrl Pts',(227.233597813192,95.8757563299241,0.));
#766=CARTESIAN_POINT('',(227.233597813192,95.8757563299241,0.));
#767=CARTESIAN_POINT('',(227.233597813192,95.8757563299241,5.));
#768=CARTESIAN_POINT('Origin',(219.28254725671,105.875756329924,0.));
#769=CARTESIAN_POINT('Ctrl Pts',(227.233597813192,95.8757563299242,5.));
#770=CARTESIAN_POINT('Ctrl Pts',(233.594438258377,85.8757563299241,5.));
#771=CARTESIAN_POINT('Ctrl Pts',(227.233597813192,75.8757563299241,5.));
#772=CARTESIAN_POINT('Ctrl Pts',(227.233597813192,95.8757563299242,0.));
#773=CARTESIAN_POINT('Ctrl Pts',(233.594438258377,85.8757563299241,0.));
#774=CARTESIAN_POINT('Ctrl Pts',(227.233597813192,75.8757563299241,0.));
#775=CARTESIAN_POINT('',(227.233597813192,75.8757563299242,0.));
#776=CARTESIAN_POINT('',(227.233597813192,75.8757563299242,5.));
#777=CARTESIAN_POINT('Origin',(219.28254725671,85.8757563299241,0.));
#778=CARTESIAN_POINT('Origin',(150.,115.,0.));
#779=CARTESIAN_POINT('',(0.,0.,0.));
#780=CARTESIAN_POINT('',(267.,230.,0.));
#781=CARTESIAN_POINT('',(0.,230.,0.));
#782=CARTESIAN_POINT('',(300.,210.947441116743,0.));
#783=CARTESIAN_POINT('',(267.,230.,0.));
#784=CARTESIAN_POINT('',(300.,19.0525588832576,0.));
#785=CARTESIAN_POINT('',(300.,210.947441116743,0.));
#786=CARTESIAN_POINT('',(267.,-1.63490347686172E-14,0.));
#787=CARTESIAN_POINT('',(300.,19.0525588832576,0.));
#788=CARTESIAN_POINT('',(267.,-1.63490347686172E-14,0.));
#789=CARTESIAN_POINT('Origin',(219.28254725671,65.8757563299242,0.));
#790=CARTESIAN_POINT('Ctrl Pts',(227.233597813192,75.8757563299242,5.));
#791=CARTESIAN_POINT('Ctrl Pts',(234.086074144403,65.1028460671012,5.));
#792=CARTESIAN_POINT('Ctrl Pts',(226.684310700557,55.0741671144561,5.));
#793=CARTESIAN_POINT('Ctrl Pts',(219.28254725671,45.045488161811,5.));
#794=CARTESIAN_POINT('Ctrl Pts',(211.880783812864,55.074167114456,5.));
#795=CARTESIAN_POINT('Ctrl Pts',(204.479020369017,65.1028460671011,5.));
#796=CARTESIAN_POINT('Ctrl Pts',(211.331496700229,75.8757563299241,5.));
#797=CARTESIAN_POINT('Ctrl Pts',(227.233597813192,75.8757563299242,0.));
#798=CARTESIAN_POINT('Ctrl Pts',(234.086074144403,65.1028460671012,0.));
#799=CARTESIAN_POINT('Ctrl Pts',(226.684310700557,55.0741671144561,0.));
#800=CARTESIAN_POINT('Ctrl Pts',(219.28254725671,45.045488161811,0.));
#801=CARTESIAN_POINT('Ctrl Pts',(211.880783812864,55.074167114456,0.));
#802=CARTESIAN_POINT('Ctrl Pts',(204.479020369017,65.1028460671011,0.));
#803=CARTESIAN_POINT('Ctrl Pts',(211.331496700229,75.8757563299241,0.));
#804=CARTESIAN_POINT('Origin',(300.,19.0525588832576,0.));
#805=CARTESIAN_POINT('',(300.,210.947441116743,0.));
#806=CARTESIAN_POINT('',(300.,19.0525588832576,0.));
#807=CARTESIAN_POINT('Origin',(267.,-1.55431223447522E-14,0.));
#808=CARTESIAN_POINT('',(267.,-1.63490347686172E-14,0.));
#809=CARTESIAN_POINT('Origin',(0.,0.,0.));
#810=CARTESIAN_POINT('Origin',(0.,230.,0.));
#811=CARTESIAN_POINT('Origin',(267.,230.,0.));
#812=CARTESIAN_POINT('',(267.,230.,0.));
#813=CARTESIAN_POINT('Origin',(300.,210.947441116743,0.));
#814=UNCERTAINTY_MEASURE_WITH_UNIT(LENGTH_MEASURE(0.01),#818,
'DISTANCE_ACCURACY_VALUE',
'Maximum model space distance between geometric entities at asserted c
onnectivities');
#815=UNCERTAINTY_MEASURE_WITH_UNIT(LENGTH_MEASURE(0.01),#818,
'DISTANCE_ACCURACY_VALUE',
'Maximum model space distance between geometric entities at asserted c
onnectivities');
#816=(
GEOMETRIC_REPRESENTATION_CONTEXT(3)
GLOBAL_UNCERTAINTY_ASSIGNED_CONTEXT((#814))
GLOBAL_UNIT_ASSIGNED_CONTEXT((#818,#820,#821))
REPRESENTATION_CONTEXT('','3D')
);
#817=(
GEOMETRIC_REPRESENTATION_CONTEXT(3)
GLOBAL_UNCERTAINTY_ASSIGNED_CONTEXT((#815))
GLOBAL_UNIT_ASSIGNED_CONTEXT((#818,#820,#821))
REPRESENTATION_CONTEXT('','3D')
);
#818=(
LENGTH_UNIT()
NAMED_UNIT(*)
SI_UNIT(.MILLI.,.METRE.)
);
#819=(
LENGTH_UNIT()
NAMED_UNIT(*)
SI_UNIT($,.METRE.)
);
#820=(
NAMED_UNIT(*)
PLANE_ANGLE_UNIT()
SI_UNIT($,.RADIAN.)
);
#821=(
NAMED_UNIT(*)
SI_UNIT($,.STERADIAN.)
SOLID_ANGLE_UNIT()
);
#822=SHAPE_DEFINITION_REPRESENTATION(#823,#824);
#823=PRODUCT_DEFINITION_SHAPE('',$,#826);
#824=SHAPE_REPRESENTATION('',(#498),#816);
#825=PRODUCT_DEFINITION_CONTEXT('part definition',#830,'design');
#826=PRODUCT_DEFINITION('2026-06-29-19-26-32-904','2nd_chasis',#827,#825);
#827=PRODUCT_DEFINITION_FORMATION('',$,#832);
#828=PRODUCT_RELATED_PRODUCT_CATEGORY('2nd_chasis','2nd_chasis',(#832));
#829=APPLICATION_PROTOCOL_DEFINITION('international standard',
'automotive_design',2009,#830);
#830=APPLICATION_CONTEXT(
'Core Data for Automotive Mechanical Design Process');
#831=PRODUCT_CONTEXT('part definition',#830,'mechanical');
#832=PRODUCT('2026-06-29-19-26-32-904','2nd_chasis',$,(#831));
#833=PRESENTATION_STYLE_ASSIGNMENT((#835));
#834=PRESENTATION_STYLE_ASSIGNMENT((#836));
#835=SURFACE_STYLE_USAGE(.BOTH.,#837);
#836=SURFACE_STYLE_USAGE(.BOTH.,#838);
#837=SURFACE_SIDE_STYLE('',(#839));
#838=SURFACE_SIDE_STYLE('',(#840));
#839=SURFACE_STYLE_FILL_AREA(#841);
#840=SURFACE_STYLE_FILL_AREA(#842);
#841=FILL_AREA_STYLE('Steel - Satin',(#843));
#842=FILL_AREA_STYLE('ABS (White)',(#844));
#843=FILL_AREA_STYLE_COLOUR('Steel - Satin',#845);
#844=FILL_AREA_STYLE_COLOUR('ABS (White)',#846);
#845=COLOUR_RGB('Steel - Satin',0.627450980392157,0.627450980392157,0.627450980392157);
#846=COLOUR_RGB('ABS (White)',0.964705882352941,0.964705882352941,0.952941176470588);
ENDSEC;
END-ISO-10303-21;
