ISO-10303-21;
HEADER;
/* Generated by software containing ST-Developer
 * from STEP Tools, Inc. (www.steptools.com) 
 */

FILE_DESCRIPTION(
/* description */ (''),
/* implementation_level */ '2;1');

FILE_NAME(
/* name */ 'front_wall.step',
/* time_stamp */ '2026-07-18T15:39:55+03:00',
/* author */ (''),
/* organization */ (''),
/* preprocessor_version */ 'ST-DEVELOPER v20.1',
/* originating_system */ 'Autodesk Translation Framework v15.8.0.0',
/* authorisation */ '');

FILE_SCHEMA (('AUTOMOTIVE_DESIGN { 1 0 10303 214 3 1 1 }'));
ENDSEC;

DATA;
#10=MECHANICAL_DESIGN_GEOMETRIC_PRESENTATION_REPRESENTATION('',(#13),#1415);
#11=SHAPE_REPRESENTATION_RELATIONSHIP('SRR','None',#1422,#12);
#12=ADVANCED_BREP_SHAPE_REPRESENTATION('',(#14),#1414);
#13=STYLED_ITEM('',(#1432),#14);
#14=MANIFOLD_SOLID_BREP('Body1',#867);
#15=CYLINDRICAL_SURFACE('',#903,10.0000000000006);
#16=CYLINDRICAL_SURFACE('',#906,10.);
#17=CYLINDRICAL_SURFACE('',#909,10.0000000000006);
#18=CYLINDRICAL_SURFACE('',#912,10.);
#19=CYLINDRICAL_SURFACE('',#915,10.0000000000006);
#20=CYLINDRICAL_SURFACE('',#918,10.);
#21=CYLINDRICAL_SURFACE('',#921,10.0000000000006);
#22=CYLINDRICAL_SURFACE('',#924,10.);
#23=CYLINDRICAL_SURFACE('',#927,10.0000000000006);
#24=CYLINDRICAL_SURFACE('',#930,10.);
#25=FACE_BOUND('',#105,.T.);
#26=FACE_BOUND('',#106,.T.);
#27=FACE_BOUND('',#107,.T.);
#28=FACE_BOUND('',#108,.T.);
#29=FACE_BOUND('',#109,.T.);
#30=FACE_BOUND('',#110,.T.);
#31=FACE_BOUND('',#147,.T.);
#32=FACE_BOUND('',#148,.T.);
#33=FACE_BOUND('',#149,.T.);
#34=FACE_BOUND('',#150,.T.);
#35=FACE_BOUND('',#151,.T.);
#36=FACE_BOUND('',#152,.T.);
#37=CIRCLE('',#887,10.0000000000006);
#38=CIRCLE('',#888,10.);
#39=CIRCLE('',#889,10.0000000000006);
#40=CIRCLE('',#890,10.);
#41=CIRCLE('',#891,10.0000000000006);
#42=CIRCLE('',#892,10.);
#43=CIRCLE('',#893,10.0000000000006);
#44=CIRCLE('',#894,10.);
#45=CIRCLE('',#895,10.0000000000006);
#46=CIRCLE('',#896,10.);
#47=CIRCLE('',#904,10.0000000000006);
#48=CIRCLE('',#907,10.);
#49=CIRCLE('',#910,10.0000000000006);
#50=CIRCLE('',#913,10.);
#51=CIRCLE('',#916,10.0000000000006);
#52=CIRCLE('',#919,10.);
#53=CIRCLE('',#922,10.0000000000006);
#54=CIRCLE('',#925,10.);
#55=CIRCLE('',#928,10.0000000000006);
#56=CIRCLE('',#931,10.);
#57=FACE_OUTER_BOUND('',#99,.T.);
#58=FACE_OUTER_BOUND('',#100,.T.);
#59=FACE_OUTER_BOUND('',#101,.T.);
#60=FACE_OUTER_BOUND('',#102,.T.);
#61=FACE_OUTER_BOUND('',#103,.T.);
#62=FACE_OUTER_BOUND('',#104,.T.);
#63=FACE_OUTER_BOUND('',#111,.T.);
#64=FACE_OUTER_BOUND('',#112,.T.);
#65=FACE_OUTER_BOUND('',#113,.T.);
#66=FACE_OUTER_BOUND('',#114,.T.);
#67=FACE_OUTER_BOUND('',#115,.T.);
#68=FACE_OUTER_BOUND('',#116,.T.);
#69=FACE_OUTER_BOUND('',#117,.T.);
#70=FACE_OUTER_BOUND('',#118,.T.);
#71=FACE_OUTER_BOUND('',#119,.T.);
#72=FACE_OUTER_BOUND('',#120,.T.);
#73=FACE_OUTER_BOUND('',#121,.T.);
#74=FACE_OUTER_BOUND('',#122,.T.);
#75=FACE_OUTER_BOUND('',#123,.T.);
#76=FACE_OUTER_BOUND('',#124,.T.);
#77=FACE_OUTER_BOUND('',#125,.T.);
#78=FACE_OUTER_BOUND('',#126,.T.);
#79=FACE_OUTER_BOUND('',#127,.T.);
#80=FACE_OUTER_BOUND('',#128,.T.);
#81=FACE_OUTER_BOUND('',#129,.T.);
#82=FACE_OUTER_BOUND('',#130,.T.);
#83=FACE_OUTER_BOUND('',#131,.T.);
#84=FACE_OUTER_BOUND('',#132,.T.);
#85=FACE_OUTER_BOUND('',#133,.T.);
#86=FACE_OUTER_BOUND('',#134,.T.);
#87=FACE_OUTER_BOUND('',#135,.T.);
#88=FACE_OUTER_BOUND('',#136,.T.);
#89=FACE_OUTER_BOUND('',#137,.T.);
#90=FACE_OUTER_BOUND('',#138,.T.);
#91=FACE_OUTER_BOUND('',#139,.T.);
#92=FACE_OUTER_BOUND('',#140,.T.);
#93=FACE_OUTER_BOUND('',#141,.T.);
#94=FACE_OUTER_BOUND('',#142,.T.);
#95=FACE_OUTER_BOUND('',#143,.T.);
#96=FACE_OUTER_BOUND('',#144,.T.);
#97=FACE_OUTER_BOUND('',#145,.T.);
#98=FACE_OUTER_BOUND('',#146,.T.);
#99=EDGE_LOOP('',(#553,#554,#555,#556));
#100=EDGE_LOOP('',(#557,#558,#559,#560));
#101=EDGE_LOOP('',(#561,#562,#563,#564));
#102=EDGE_LOOP('',(#565,#566,#567,#568));
#103=EDGE_LOOP('',(#569,#570,#571,#572));
#104=EDGE_LOOP('',(#573,#574,#575,#576,#577,#578,#579,#580,#581,#582,#583,
#584,#585,#586,#587,#588));
#105=EDGE_LOOP('',(#589,#590,#591,#592));
#106=EDGE_LOOP('',(#593,#594,#595,#596));
#107=EDGE_LOOP('',(#597,#598,#599,#600));
#108=EDGE_LOOP('',(#601,#602,#603,#604));
#109=EDGE_LOOP('',(#605,#606,#607,#608));
#110=EDGE_LOOP('',(#609,#610,#611,#612));
#111=EDGE_LOOP('',(#613,#614,#615,#616));
#112=EDGE_LOOP('',(#617,#618,#619,#620));
#113=EDGE_LOOP('',(#621,#622,#623,#624));
#114=EDGE_LOOP('',(#625,#626,#627,#628));
#115=EDGE_LOOP('',(#629,#630,#631,#632));
#116=EDGE_LOOP('',(#633,#634,#635,#636));
#117=EDGE_LOOP('',(#637,#638,#639,#640));
#118=EDGE_LOOP('',(#641,#642,#643,#644));
#119=EDGE_LOOP('',(#645,#646,#647,#648));
#120=EDGE_LOOP('',(#649,#650,#651,#652));
#121=EDGE_LOOP('',(#653,#654,#655,#656));
#122=EDGE_LOOP('',(#657,#658,#659,#660));
#123=EDGE_LOOP('',(#661,#662,#663,#664));
#124=EDGE_LOOP('',(#665,#666,#667,#668));
#125=EDGE_LOOP('',(#669,#670,#671,#672));
#126=EDGE_LOOP('',(#673,#674,#675,#676));
#127=EDGE_LOOP('',(#677,#678,#679,#680));
#128=EDGE_LOOP('',(#681,#682,#683,#684));
#129=EDGE_LOOP('',(#685,#686,#687,#688));
#130=EDGE_LOOP('',(#689,#690,#691,#692));
#131=EDGE_LOOP('',(#693,#694,#695,#696));
#132=EDGE_LOOP('',(#697,#698,#699,#700));
#133=EDGE_LOOP('',(#701,#702,#703,#704));
#134=EDGE_LOOP('',(#705,#706,#707,#708));
#135=EDGE_LOOP('',(#709,#710,#711,#712));
#136=EDGE_LOOP('',(#713,#714,#715,#716));
#137=EDGE_LOOP('',(#717,#718,#719,#720));
#138=EDGE_LOOP('',(#721,#722,#723,#724));
#139=EDGE_LOOP('',(#725,#726,#727,#728));
#140=EDGE_LOOP('',(#729,#730,#731,#732));
#141=EDGE_LOOP('',(#733,#734,#735,#736));
#142=EDGE_LOOP('',(#737,#738,#739,#740));
#143=EDGE_LOOP('',(#741,#742,#743,#744));
#144=EDGE_LOOP('',(#745,#746,#747,#748));
#145=EDGE_LOOP('',(#749,#750,#751,#752));
#146=EDGE_LOOP('',(#753,#754,#755,#756,#757,#758,#759,#760,#761,#762,#763,
#764,#765,#766,#767,#768));
#147=EDGE_LOOP('',(#769,#770,#771,#772));
#148=EDGE_LOOP('',(#773,#774,#775,#776));
#149=EDGE_LOOP('',(#777,#778,#779,#780));
#150=EDGE_LOOP('',(#781,#782,#783,#784));
#151=EDGE_LOOP('',(#785,#786,#787,#788));
#152=EDGE_LOOP('',(#789,#790,#791,#792));
#153=LINE('',#1173,#253);
#154=LINE('',#1175,#254);
#155=LINE('',#1177,#255);
#156=LINE('',#1178,#256);
#157=LINE('',#1181,#257);
#158=LINE('',#1183,#258);
#159=LINE('',#1184,#259);
#160=LINE('',#1188,#260);
#161=LINE('',#1190,#261);
#162=LINE('',#1192,#262);
#163=LINE('',#1193,#263);
#164=LINE('',#1196,#264);
#165=LINE('',#1198,#265);
#166=LINE('',#1199,#266);
#167=LINE('',#1202,#267);
#168=LINE('',#1204,#268);
#169=LINE('',#1205,#269);
#170=LINE('',#1208,#270);
#171=LINE('',#1210,#271);
#172=LINE('',#1212,#272);
#173=LINE('',#1214,#273);
#174=LINE('',#1216,#274);
#175=LINE('',#1218,#275);
#176=LINE('',#1220,#276);
#177=LINE('',#1222,#277);
#178=LINE('',#1224,#278);
#179=LINE('',#1225,#279);
#180=LINE('',#1226,#280);
#181=LINE('',#1229,#281);
#182=LINE('',#1233,#282);
#183=LINE('',#1237,#283);
#184=LINE('',#1241,#284);
#185=LINE('',#1245,#285);
#186=LINE('',#1249,#286);
#187=LINE('',#1253,#287);
#188=LINE('',#1257,#288);
#189=LINE('',#1261,#289);
#190=LINE('',#1265,#290);
#191=LINE('',#1269,#291);
#192=LINE('',#1271,#292);
#193=LINE('',#1273,#293);
#194=LINE('',#1274,#294);
#195=LINE('',#1276,#295);
#196=LINE('',#1279,#296);
#197=LINE('',#1281,#297);
#198=LINE('',#1282,#298);
#199=LINE('',#1285,#299);
#200=LINE('',#1286,#300);
#201=LINE('',#1289,#301);
#202=LINE('',#1290,#302);
#203=LINE('',#1292,#303);
#204=LINE('',#1295,#304);
#205=LINE('',#1297,#305);
#206=LINE('',#1298,#306);
#207=LINE('',#1302,#307);
#208=LINE('',#1305,#308);
#209=LINE('',#1306,#309);
#210=LINE('',#1311,#310);
#211=LINE('',#1313,#311);
#212=LINE('',#1314,#312);
#213=LINE('',#1318,#313);
#214=LINE('',#1321,#314);
#215=LINE('',#1322,#315);
#216=LINE('',#1327,#316);
#217=LINE('',#1329,#317);
#218=LINE('',#1330,#318);
#219=LINE('',#1334,#319);
#220=LINE('',#1337,#320);
#221=LINE('',#1338,#321);
#222=LINE('',#1343,#322);
#223=LINE('',#1345,#323);
#224=LINE('',#1346,#324);
#225=LINE('',#1350,#325);
#226=LINE('',#1353,#326);
#227=LINE('',#1354,#327);
#228=LINE('',#1359,#328);
#229=LINE('',#1361,#329);
#230=LINE('',#1362,#330);
#231=LINE('',#1366,#331);
#232=LINE('',#1369,#332);
#233=LINE('',#1370,#333);
#234=LINE('',#1375,#334);
#235=LINE('',#1377,#335);
#236=LINE('',#1378,#336);
#237=LINE('',#1381,#337);
#238=LINE('',#1382,#338);
#239=LINE('',#1385,#339);
#240=LINE('',#1386,#340);
#241=LINE('',#1389,#341);
#242=LINE('',#1390,#342);
#243=LINE('',#1393,#343);
#244=LINE('',#1394,#344);
#245=LINE('',#1397,#345);
#246=LINE('',#1398,#346);
#247=LINE('',#1401,#347);
#248=LINE('',#1402,#348);
#249=LINE('',#1405,#349);
#250=LINE('',#1406,#350);
#251=LINE('',#1408,#351);
#252=LINE('',#1410,#352);
#253=VECTOR('',#947,10.);
#254=VECTOR('',#948,10.);
#255=VECTOR('',#949,10.);
#256=VECTOR('',#950,10.);
#257=VECTOR('',#953,10.);
#258=VECTOR('',#954,10.);
#259=VECTOR('',#955,10.);
#260=VECTOR('',#958,10.);
#261=VECTOR('',#959,10.);
#262=VECTOR('',#960,10.);
#263=VECTOR('',#961,10.);
#264=VECTOR('',#964,10.);
#265=VECTOR('',#965,10.);
#266=VECTOR('',#966,10.);
#267=VECTOR('',#969,10.);
#268=VECTOR('',#970,10.);
#269=VECTOR('',#971,10.);
#270=VECTOR('',#974,10.);
#271=VECTOR('',#975,10.);
#272=VECTOR('',#976,10.);
#273=VECTOR('',#977,10.);
#274=VECTOR('',#978,10.);
#275=VECTOR('',#979,10.);
#276=VECTOR('',#980,10.);
#277=VECTOR('',#981,10.);
#278=VECTOR('',#982,10.);
#279=VECTOR('',#983,10.);
#280=VECTOR('',#984,10.);
#281=VECTOR('',#985,10.);
#282=VECTOR('',#988,10.);
#283=VECTOR('',#991,10.);
#284=VECTOR('',#994,10.);
#285=VECTOR('',#997,10.);
#286=VECTOR('',#1000,10.);
#287=VECTOR('',#1003,10.);
#288=VECTOR('',#1006,10.);
#289=VECTOR('',#1009,10.);
#290=VECTOR('',#1012,10.);
#291=VECTOR('',#1015,10.);
#292=VECTOR('',#1016,10.);
#293=VECTOR('',#1017,10.);
#294=VECTOR('',#1018,10.);
#295=VECTOR('',#1021,10.);
#296=VECTOR('',#1024,10.);
#297=VECTOR('',#1025,10.);
#298=VECTOR('',#1026,10.);
#299=VECTOR('',#1029,10.);
#300=VECTOR('',#1030,10.);
#301=VECTOR('',#1033,10.);
#302=VECTOR('',#1034,10.);
#303=VECTOR('',#1037,10.);
#304=VECTOR('',#1040,10.);
#305=VECTOR('',#1041,10.);
#306=VECTOR('',#1042,10.);
#307=VECTOR('',#1047,10.);
#308=VECTOR('',#1050,10.);
#309=VECTOR('',#1051,10.);
#310=VECTOR('',#1058,10.);
#311=VECTOR('',#1059,10.);
#312=VECTOR('',#1060,10.);
#313=VECTOR('',#1065,10.);
#314=VECTOR('',#1068,10.);
#315=VECTOR('',#1069,10.);
#316=VECTOR('',#1076,10.);
#317=VECTOR('',#1077,10.);
#318=VECTOR('',#1078,10.);
#319=VECTOR('',#1083,10.);
#320=VECTOR('',#1086,10.);
#321=VECTOR('',#1087,10.);
#322=VECTOR('',#1094,10.);
#323=VECTOR('',#1095,10.);
#324=VECTOR('',#1096,10.);
#325=VECTOR('',#1101,10.);
#326=VECTOR('',#1104,10.);
#327=VECTOR('',#1105,10.);
#328=VECTOR('',#1112,10.);
#329=VECTOR('',#1113,10.);
#330=VECTOR('',#1114,10.);
#331=VECTOR('',#1119,10.);
#332=VECTOR('',#1122,10.);
#333=VECTOR('',#1123,10.);
#334=VECTOR('',#1130,10.);
#335=VECTOR('',#1131,10.);
#336=VECTOR('',#1132,10.);
#337=VECTOR('',#1135,10.);
#338=VECTOR('',#1136,10.);
#339=VECTOR('',#1139,10.);
#340=VECTOR('',#1140,10.);
#341=VECTOR('',#1143,10.);
#342=VECTOR('',#1144,10.);
#343=VECTOR('',#1147,10.);
#344=VECTOR('',#1148,10.);
#345=VECTOR('',#1151,10.);
#346=VECTOR('',#1152,10.);
#347=VECTOR('',#1155,10.);
#348=VECTOR('',#1156,10.);
#349=VECTOR('',#1159,10.);
#350=VECTOR('',#1160,10.);
#351=VECTOR('',#1163,10.);
#352=VECTOR('',#1166,10.);
#353=VERTEX_POINT('',#1171);
#354=VERTEX_POINT('',#1172);
#355=VERTEX_POINT('',#1174);
#356=VERTEX_POINT('',#1176);
#357=VERTEX_POINT('',#1180);
#358=VERTEX_POINT('',#1182);
#359=VERTEX_POINT('',#1186);
#360=VERTEX_POINT('',#1187);
#361=VERTEX_POINT('',#1189);
#362=VERTEX_POINT('',#1191);
#363=VERTEX_POINT('',#1195);
#364=VERTEX_POINT('',#1197);
#365=VERTEX_POINT('',#1201);
#366=VERTEX_POINT('',#1203);
#367=VERTEX_POINT('',#1207);
#368=VERTEX_POINT('',#1209);
#369=VERTEX_POINT('',#1211);
#370=VERTEX_POINT('',#1213);
#371=VERTEX_POINT('',#1215);
#372=VERTEX_POINT('',#1217);
#373=VERTEX_POINT('',#1219);
#374=VERTEX_POINT('',#1221);
#375=VERTEX_POINT('',#1223);
#376=VERTEX_POINT('',#1227);
#377=VERTEX_POINT('',#1228);
#378=VERTEX_POINT('',#1230);
#379=VERTEX_POINT('',#1232);
#380=VERTEX_POINT('',#1235);
#381=VERTEX_POINT('',#1236);
#382=VERTEX_POINT('',#1238);
#383=VERTEX_POINT('',#1240);
#384=VERTEX_POINT('',#1243);
#385=VERTEX_POINT('',#1244);
#386=VERTEX_POINT('',#1246);
#387=VERTEX_POINT('',#1248);
#388=VERTEX_POINT('',#1251);
#389=VERTEX_POINT('',#1252);
#390=VERTEX_POINT('',#1254);
#391=VERTEX_POINT('',#1256);
#392=VERTEX_POINT('',#1259);
#393=VERTEX_POINT('',#1260);
#394=VERTEX_POINT('',#1262);
#395=VERTEX_POINT('',#1264);
#396=VERTEX_POINT('',#1267);
#397=VERTEX_POINT('',#1268);
#398=VERTEX_POINT('',#1270);
#399=VERTEX_POINT('',#1272);
#400=VERTEX_POINT('',#1278);
#401=VERTEX_POINT('',#1280);
#402=VERTEX_POINT('',#1284);
#403=VERTEX_POINT('',#1288);
#404=VERTEX_POINT('',#1294);
#405=VERTEX_POINT('',#1296);
#406=VERTEX_POINT('',#1300);
#407=VERTEX_POINT('',#1304);
#408=VERTEX_POINT('',#1310);
#409=VERTEX_POINT('',#1312);
#410=VERTEX_POINT('',#1316);
#411=VERTEX_POINT('',#1320);
#412=VERTEX_POINT('',#1326);
#413=VERTEX_POINT('',#1328);
#414=VERTEX_POINT('',#1332);
#415=VERTEX_POINT('',#1336);
#416=VERTEX_POINT('',#1342);
#417=VERTEX_POINT('',#1344);
#418=VERTEX_POINT('',#1348);
#419=VERTEX_POINT('',#1352);
#420=VERTEX_POINT('',#1358);
#421=VERTEX_POINT('',#1360);
#422=VERTEX_POINT('',#1364);
#423=VERTEX_POINT('',#1368);
#424=VERTEX_POINT('',#1374);
#425=VERTEX_POINT('',#1376);
#426=VERTEX_POINT('',#1380);
#427=VERTEX_POINT('',#1384);
#428=VERTEX_POINT('',#1388);
#429=VERTEX_POINT('',#1392);
#430=VERTEX_POINT('',#1396);
#431=VERTEX_POINT('',#1400);
#432=VERTEX_POINT('',#1404);
#433=EDGE_CURVE('',#353,#354,#153,.T.);
#434=EDGE_CURVE('',#355,#353,#154,.T.);
#435=EDGE_CURVE('',#356,#355,#155,.T.);
#436=EDGE_CURVE('',#354,#356,#156,.T.);
#437=EDGE_CURVE('',#357,#353,#157,.T.);
#438=EDGE_CURVE('',#358,#357,#158,.T.);
#439=EDGE_CURVE('',#355,#358,#159,.T.);
#440=EDGE_CURVE('',#359,#360,#160,.T.);
#441=EDGE_CURVE('',#361,#359,#161,.T.);
#442=EDGE_CURVE('',#362,#361,#162,.T.);
#443=EDGE_CURVE('',#360,#362,#163,.T.);
#444=EDGE_CURVE('',#363,#359,#164,.T.);
#445=EDGE_CURVE('',#364,#363,#165,.T.);
#446=EDGE_CURVE('',#361,#364,#166,.T.);
#447=EDGE_CURVE('',#362,#365,#167,.T.);
#448=EDGE_CURVE('',#365,#366,#168,.T.);
#449=EDGE_CURVE('',#360,#366,#169,.T.);
#450=EDGE_CURVE('',#367,#358,#170,.T.);
#451=EDGE_CURVE('',#368,#367,#171,.T.);
#452=EDGE_CURVE('',#369,#368,#172,.T.);
#453=EDGE_CURVE('',#370,#369,#173,.T.);
#454=EDGE_CURVE('',#371,#370,#174,.T.);
#455=EDGE_CURVE('',#372,#371,#175,.T.);
#456=EDGE_CURVE('',#373,#372,#176,.T.);
#457=EDGE_CURVE('',#374,#373,#177,.T.);
#458=EDGE_CURVE('',#375,#374,#178,.T.);
#459=EDGE_CURVE('',#365,#375,#179,.T.);
#460=EDGE_CURVE('',#356,#364,#180,.T.);
#461=EDGE_CURVE('',#376,#377,#181,.T.);
#462=EDGE_CURVE('',#377,#378,#37,.T.);
#463=EDGE_CURVE('',#378,#379,#182,.T.);
#464=EDGE_CURVE('',#379,#376,#38,.T.);
#465=EDGE_CURVE('',#380,#381,#183,.T.);
#466=EDGE_CURVE('',#381,#382,#39,.T.);
#467=EDGE_CURVE('',#382,#383,#184,.T.);
#468=EDGE_CURVE('',#383,#380,#40,.T.);
#469=EDGE_CURVE('',#384,#385,#185,.T.);
#470=EDGE_CURVE('',#385,#386,#41,.T.);
#471=EDGE_CURVE('',#386,#387,#186,.T.);
#472=EDGE_CURVE('',#387,#384,#42,.T.);
#473=EDGE_CURVE('',#388,#389,#187,.T.);
#474=EDGE_CURVE('',#389,#390,#43,.T.);
#475=EDGE_CURVE('',#390,#391,#188,.T.);
#476=EDGE_CURVE('',#391,#388,#44,.T.);
#477=EDGE_CURVE('',#392,#393,#189,.T.);
#478=EDGE_CURVE('',#393,#394,#45,.T.);
#479=EDGE_CURVE('',#394,#395,#190,.T.);
#480=EDGE_CURVE('',#395,#392,#46,.T.);
#481=EDGE_CURVE('',#396,#397,#191,.T.);
#482=EDGE_CURVE('',#397,#398,#192,.T.);
#483=EDGE_CURVE('',#398,#399,#193,.T.);
#484=EDGE_CURVE('',#399,#396,#194,.T.);
#485=EDGE_CURVE('',#354,#363,#195,.T.);
#486=EDGE_CURVE('',#400,#396,#196,.T.);
#487=EDGE_CURVE('',#401,#400,#197,.T.);
#488=EDGE_CURVE('',#401,#397,#198,.T.);
#489=EDGE_CURVE('',#402,#401,#199,.T.);
#490=EDGE_CURVE('',#402,#398,#200,.T.);
#491=EDGE_CURVE('',#403,#402,#201,.T.);
#492=EDGE_CURVE('',#403,#399,#202,.T.);
#493=EDGE_CURVE('',#400,#403,#203,.T.);
#494=EDGE_CURVE('',#404,#376,#204,.T.);
#495=EDGE_CURVE('',#405,#404,#205,.T.);
#496=EDGE_CURVE('',#405,#377,#206,.T.);
#497=EDGE_CURVE('',#406,#405,#47,.T.);
#498=EDGE_CURVE('',#406,#378,#207,.T.);
#499=EDGE_CURVE('',#407,#406,#208,.T.);
#500=EDGE_CURVE('',#407,#379,#209,.T.);
#501=EDGE_CURVE('',#404,#407,#48,.T.);
#502=EDGE_CURVE('',#408,#380,#210,.T.);
#503=EDGE_CURVE('',#409,#408,#211,.T.);
#504=EDGE_CURVE('',#409,#381,#212,.T.);
#505=EDGE_CURVE('',#410,#409,#49,.T.);
#506=EDGE_CURVE('',#410,#382,#213,.T.);
#507=EDGE_CURVE('',#411,#410,#214,.T.);
#508=EDGE_CURVE('',#411,#383,#215,.T.);
#509=EDGE_CURVE('',#408,#411,#50,.T.);
#510=EDGE_CURVE('',#412,#384,#216,.T.);
#511=EDGE_CURVE('',#413,#412,#217,.T.);
#512=EDGE_CURVE('',#413,#385,#218,.T.);
#513=EDGE_CURVE('',#414,#413,#51,.T.);
#514=EDGE_CURVE('',#414,#386,#219,.T.);
#515=EDGE_CURVE('',#415,#414,#220,.T.);
#516=EDGE_CURVE('',#415,#387,#221,.T.);
#517=EDGE_CURVE('',#412,#415,#52,.T.);
#518=EDGE_CURVE('',#416,#388,#222,.T.);
#519=EDGE_CURVE('',#417,#416,#223,.T.);
#520=EDGE_CURVE('',#417,#389,#224,.T.);
#521=EDGE_CURVE('',#418,#417,#53,.T.);
#522=EDGE_CURVE('',#418,#390,#225,.T.);
#523=EDGE_CURVE('',#419,#418,#226,.T.);
#524=EDGE_CURVE('',#419,#391,#227,.T.);
#525=EDGE_CURVE('',#416,#419,#54,.T.);
#526=EDGE_CURVE('',#420,#392,#228,.T.);
#527=EDGE_CURVE('',#421,#420,#229,.T.);
#528=EDGE_CURVE('',#421,#393,#230,.T.);
#529=EDGE_CURVE('',#422,#421,#55,.T.);
#530=EDGE_CURVE('',#422,#394,#231,.T.);
#531=EDGE_CURVE('',#423,#422,#232,.T.);
#532=EDGE_CURVE('',#423,#395,#233,.T.);
#533=EDGE_CURVE('',#420,#423,#56,.T.);
#534=EDGE_CURVE('',#367,#424,#234,.T.);
#535=EDGE_CURVE('',#425,#424,#235,.T.);
#536=EDGE_CURVE('',#368,#425,#236,.T.);
#537=EDGE_CURVE('',#426,#425,#237,.T.);
#538=EDGE_CURVE('',#369,#426,#238,.T.);
#539=EDGE_CURVE('',#427,#426,#239,.T.);
#540=EDGE_CURVE('',#370,#427,#240,.T.);
#541=EDGE_CURVE('',#428,#427,#241,.T.);
#542=EDGE_CURVE('',#371,#428,#242,.T.);
#543=EDGE_CURVE('',#429,#428,#243,.T.);
#544=EDGE_CURVE('',#372,#429,#244,.T.);
#545=EDGE_CURVE('',#430,#429,#245,.T.);
#546=EDGE_CURVE('',#373,#430,#246,.T.);
#547=EDGE_CURVE('',#431,#430,#247,.T.);
#548=EDGE_CURVE('',#374,#431,#248,.T.);
#549=EDGE_CURVE('',#432,#431,#249,.T.);
#550=EDGE_CURVE('',#375,#432,#250,.T.);
#551=EDGE_CURVE('',#366,#432,#251,.T.);
#552=EDGE_CURVE('',#424,#357,#252,.T.);
#553=ORIENTED_EDGE('',*,*,#433,.F.);
#554=ORIENTED_EDGE('',*,*,#434,.F.);
#555=ORIENTED_EDGE('',*,*,#435,.F.);
#556=ORIENTED_EDGE('',*,*,#436,.F.);
#557=ORIENTED_EDGE('',*,*,#437,.F.);
#558=ORIENTED_EDGE('',*,*,#438,.F.);
#559=ORIENTED_EDGE('',*,*,#439,.F.);
#560=ORIENTED_EDGE('',*,*,#434,.T.);
#561=ORIENTED_EDGE('',*,*,#440,.F.);
#562=ORIENTED_EDGE('',*,*,#441,.F.);
#563=ORIENTED_EDGE('',*,*,#442,.F.);
#564=ORIENTED_EDGE('',*,*,#443,.F.);
#565=ORIENTED_EDGE('',*,*,#444,.F.);
#566=ORIENTED_EDGE('',*,*,#445,.F.);
#567=ORIENTED_EDGE('',*,*,#446,.F.);
#568=ORIENTED_EDGE('',*,*,#441,.T.);
#569=ORIENTED_EDGE('',*,*,#443,.T.);
#570=ORIENTED_EDGE('',*,*,#447,.T.);
#571=ORIENTED_EDGE('',*,*,#448,.T.);
#572=ORIENTED_EDGE('',*,*,#449,.F.);
#573=ORIENTED_EDGE('',*,*,#435,.T.);
#574=ORIENTED_EDGE('',*,*,#439,.T.);
#575=ORIENTED_EDGE('',*,*,#450,.F.);
#576=ORIENTED_EDGE('',*,*,#451,.F.);
#577=ORIENTED_EDGE('',*,*,#452,.F.);
#578=ORIENTED_EDGE('',*,*,#453,.F.);
#579=ORIENTED_EDGE('',*,*,#454,.F.);
#580=ORIENTED_EDGE('',*,*,#455,.F.);
#581=ORIENTED_EDGE('',*,*,#456,.F.);
#582=ORIENTED_EDGE('',*,*,#457,.F.);
#583=ORIENTED_EDGE('',*,*,#458,.F.);
#584=ORIENTED_EDGE('',*,*,#459,.F.);
#585=ORIENTED_EDGE('',*,*,#447,.F.);
#586=ORIENTED_EDGE('',*,*,#442,.T.);
#587=ORIENTED_EDGE('',*,*,#446,.T.);
#588=ORIENTED_EDGE('',*,*,#460,.F.);
#589=ORIENTED_EDGE('',*,*,#461,.T.);
#590=ORIENTED_EDGE('',*,*,#462,.T.);
#591=ORIENTED_EDGE('',*,*,#463,.T.);
#592=ORIENTED_EDGE('',*,*,#464,.T.);
#593=ORIENTED_EDGE('',*,*,#465,.T.);
#594=ORIENTED_EDGE('',*,*,#466,.T.);
#595=ORIENTED_EDGE('',*,*,#467,.T.);
#596=ORIENTED_EDGE('',*,*,#468,.T.);
#597=ORIENTED_EDGE('',*,*,#469,.T.);
#598=ORIENTED_EDGE('',*,*,#470,.T.);
#599=ORIENTED_EDGE('',*,*,#471,.T.);
#600=ORIENTED_EDGE('',*,*,#472,.T.);
#601=ORIENTED_EDGE('',*,*,#473,.T.);
#602=ORIENTED_EDGE('',*,*,#474,.T.);
#603=ORIENTED_EDGE('',*,*,#475,.T.);
#604=ORIENTED_EDGE('',*,*,#476,.T.);
#605=ORIENTED_EDGE('',*,*,#477,.T.);
#606=ORIENTED_EDGE('',*,*,#478,.T.);
#607=ORIENTED_EDGE('',*,*,#479,.T.);
#608=ORIENTED_EDGE('',*,*,#480,.T.);
#609=ORIENTED_EDGE('',*,*,#481,.T.);
#610=ORIENTED_EDGE('',*,*,#482,.T.);
#611=ORIENTED_EDGE('',*,*,#483,.T.);
#612=ORIENTED_EDGE('',*,*,#484,.T.);
#613=ORIENTED_EDGE('',*,*,#436,.T.);
#614=ORIENTED_EDGE('',*,*,#460,.T.);
#615=ORIENTED_EDGE('',*,*,#445,.T.);
#616=ORIENTED_EDGE('',*,*,#485,.F.);
#617=ORIENTED_EDGE('',*,*,#481,.F.);
#618=ORIENTED_EDGE('',*,*,#486,.F.);
#619=ORIENTED_EDGE('',*,*,#487,.F.);
#620=ORIENTED_EDGE('',*,*,#488,.T.);
#621=ORIENTED_EDGE('',*,*,#482,.F.);
#622=ORIENTED_EDGE('',*,*,#488,.F.);
#623=ORIENTED_EDGE('',*,*,#489,.F.);
#624=ORIENTED_EDGE('',*,*,#490,.T.);
#625=ORIENTED_EDGE('',*,*,#483,.F.);
#626=ORIENTED_EDGE('',*,*,#490,.F.);
#627=ORIENTED_EDGE('',*,*,#491,.F.);
#628=ORIENTED_EDGE('',*,*,#492,.T.);
#629=ORIENTED_EDGE('',*,*,#484,.F.);
#630=ORIENTED_EDGE('',*,*,#492,.F.);
#631=ORIENTED_EDGE('',*,*,#493,.F.);
#632=ORIENTED_EDGE('',*,*,#486,.T.);
#633=ORIENTED_EDGE('',*,*,#461,.F.);
#634=ORIENTED_EDGE('',*,*,#494,.F.);
#635=ORIENTED_EDGE('',*,*,#495,.F.);
#636=ORIENTED_EDGE('',*,*,#496,.T.);
#637=ORIENTED_EDGE('',*,*,#462,.F.);
#638=ORIENTED_EDGE('',*,*,#496,.F.);
#639=ORIENTED_EDGE('',*,*,#497,.F.);
#640=ORIENTED_EDGE('',*,*,#498,.T.);
#641=ORIENTED_EDGE('',*,*,#463,.F.);
#642=ORIENTED_EDGE('',*,*,#498,.F.);
#643=ORIENTED_EDGE('',*,*,#499,.F.);
#644=ORIENTED_EDGE('',*,*,#500,.T.);
#645=ORIENTED_EDGE('',*,*,#464,.F.);
#646=ORIENTED_EDGE('',*,*,#500,.F.);
#647=ORIENTED_EDGE('',*,*,#501,.F.);
#648=ORIENTED_EDGE('',*,*,#494,.T.);
#649=ORIENTED_EDGE('',*,*,#465,.F.);
#650=ORIENTED_EDGE('',*,*,#502,.F.);
#651=ORIENTED_EDGE('',*,*,#503,.F.);
#652=ORIENTED_EDGE('',*,*,#504,.T.);
#653=ORIENTED_EDGE('',*,*,#466,.F.);
#654=ORIENTED_EDGE('',*,*,#504,.F.);
#655=ORIENTED_EDGE('',*,*,#505,.F.);
#656=ORIENTED_EDGE('',*,*,#506,.T.);
#657=ORIENTED_EDGE('',*,*,#467,.F.);
#658=ORIENTED_EDGE('',*,*,#506,.F.);
#659=ORIENTED_EDGE('',*,*,#507,.F.);
#660=ORIENTED_EDGE('',*,*,#508,.T.);
#661=ORIENTED_EDGE('',*,*,#468,.F.);
#662=ORIENTED_EDGE('',*,*,#508,.F.);
#663=ORIENTED_EDGE('',*,*,#509,.F.);
#664=ORIENTED_EDGE('',*,*,#502,.T.);
#665=ORIENTED_EDGE('',*,*,#469,.F.);
#666=ORIENTED_EDGE('',*,*,#510,.F.);
#667=ORIENTED_EDGE('',*,*,#511,.F.);
#668=ORIENTED_EDGE('',*,*,#512,.T.);
#669=ORIENTED_EDGE('',*,*,#470,.F.);
#670=ORIENTED_EDGE('',*,*,#512,.F.);
#671=ORIENTED_EDGE('',*,*,#513,.F.);
#672=ORIENTED_EDGE('',*,*,#514,.T.);
#673=ORIENTED_EDGE('',*,*,#471,.F.);
#674=ORIENTED_EDGE('',*,*,#514,.F.);
#675=ORIENTED_EDGE('',*,*,#515,.F.);
#676=ORIENTED_EDGE('',*,*,#516,.T.);
#677=ORIENTED_EDGE('',*,*,#472,.F.);
#678=ORIENTED_EDGE('',*,*,#516,.F.);
#679=ORIENTED_EDGE('',*,*,#517,.F.);
#680=ORIENTED_EDGE('',*,*,#510,.T.);
#681=ORIENTED_EDGE('',*,*,#473,.F.);
#682=ORIENTED_EDGE('',*,*,#518,.F.);
#683=ORIENTED_EDGE('',*,*,#519,.F.);
#684=ORIENTED_EDGE('',*,*,#520,.T.);
#685=ORIENTED_EDGE('',*,*,#474,.F.);
#686=ORIENTED_EDGE('',*,*,#520,.F.);
#687=ORIENTED_EDGE('',*,*,#521,.F.);
#688=ORIENTED_EDGE('',*,*,#522,.T.);
#689=ORIENTED_EDGE('',*,*,#475,.F.);
#690=ORIENTED_EDGE('',*,*,#522,.F.);
#691=ORIENTED_EDGE('',*,*,#523,.F.);
#692=ORIENTED_EDGE('',*,*,#524,.T.);
#693=ORIENTED_EDGE('',*,*,#476,.F.);
#694=ORIENTED_EDGE('',*,*,#524,.F.);
#695=ORIENTED_EDGE('',*,*,#525,.F.);
#696=ORIENTED_EDGE('',*,*,#518,.T.);
#697=ORIENTED_EDGE('',*,*,#477,.F.);
#698=ORIENTED_EDGE('',*,*,#526,.F.);
#699=ORIENTED_EDGE('',*,*,#527,.F.);
#700=ORIENTED_EDGE('',*,*,#528,.T.);
#701=ORIENTED_EDGE('',*,*,#478,.F.);
#702=ORIENTED_EDGE('',*,*,#528,.F.);
#703=ORIENTED_EDGE('',*,*,#529,.F.);
#704=ORIENTED_EDGE('',*,*,#530,.T.);
#705=ORIENTED_EDGE('',*,*,#479,.F.);
#706=ORIENTED_EDGE('',*,*,#530,.F.);
#707=ORIENTED_EDGE('',*,*,#531,.F.);
#708=ORIENTED_EDGE('',*,*,#532,.T.);
#709=ORIENTED_EDGE('',*,*,#480,.F.);
#710=ORIENTED_EDGE('',*,*,#532,.F.);
#711=ORIENTED_EDGE('',*,*,#533,.F.);
#712=ORIENTED_EDGE('',*,*,#526,.T.);
#713=ORIENTED_EDGE('',*,*,#451,.T.);
#714=ORIENTED_EDGE('',*,*,#534,.T.);
#715=ORIENTED_EDGE('',*,*,#535,.F.);
#716=ORIENTED_EDGE('',*,*,#536,.F.);
#717=ORIENTED_EDGE('',*,*,#452,.T.);
#718=ORIENTED_EDGE('',*,*,#536,.T.);
#719=ORIENTED_EDGE('',*,*,#537,.F.);
#720=ORIENTED_EDGE('',*,*,#538,.F.);
#721=ORIENTED_EDGE('',*,*,#453,.T.);
#722=ORIENTED_EDGE('',*,*,#538,.T.);
#723=ORIENTED_EDGE('',*,*,#539,.F.);
#724=ORIENTED_EDGE('',*,*,#540,.F.);
#725=ORIENTED_EDGE('',*,*,#454,.T.);
#726=ORIENTED_EDGE('',*,*,#540,.T.);
#727=ORIENTED_EDGE('',*,*,#541,.F.);
#728=ORIENTED_EDGE('',*,*,#542,.F.);
#729=ORIENTED_EDGE('',*,*,#455,.T.);
#730=ORIENTED_EDGE('',*,*,#542,.T.);
#731=ORIENTED_EDGE('',*,*,#543,.F.);
#732=ORIENTED_EDGE('',*,*,#544,.F.);
#733=ORIENTED_EDGE('',*,*,#456,.T.);
#734=ORIENTED_EDGE('',*,*,#544,.T.);
#735=ORIENTED_EDGE('',*,*,#545,.F.);
#736=ORIENTED_EDGE('',*,*,#546,.F.);
#737=ORIENTED_EDGE('',*,*,#457,.T.);
#738=ORIENTED_EDGE('',*,*,#546,.T.);
#739=ORIENTED_EDGE('',*,*,#547,.F.);
#740=ORIENTED_EDGE('',*,*,#548,.F.);
#741=ORIENTED_EDGE('',*,*,#458,.T.);
#742=ORIENTED_EDGE('',*,*,#548,.T.);
#743=ORIENTED_EDGE('',*,*,#549,.F.);
#744=ORIENTED_EDGE('',*,*,#550,.F.);
#745=ORIENTED_EDGE('',*,*,#459,.T.);
#746=ORIENTED_EDGE('',*,*,#550,.T.);
#747=ORIENTED_EDGE('',*,*,#551,.F.);
#748=ORIENTED_EDGE('',*,*,#448,.F.);
#749=ORIENTED_EDGE('',*,*,#438,.T.);
#750=ORIENTED_EDGE('',*,*,#552,.F.);
#751=ORIENTED_EDGE('',*,*,#534,.F.);
#752=ORIENTED_EDGE('',*,*,#450,.T.);
#753=ORIENTED_EDGE('',*,*,#433,.T.);
#754=ORIENTED_EDGE('',*,*,#485,.T.);
#755=ORIENTED_EDGE('',*,*,#444,.T.);
#756=ORIENTED_EDGE('',*,*,#440,.T.);
#757=ORIENTED_EDGE('',*,*,#449,.T.);
#758=ORIENTED_EDGE('',*,*,#551,.T.);
#759=ORIENTED_EDGE('',*,*,#549,.T.);
#760=ORIENTED_EDGE('',*,*,#547,.T.);
#761=ORIENTED_EDGE('',*,*,#545,.T.);
#762=ORIENTED_EDGE('',*,*,#543,.T.);
#763=ORIENTED_EDGE('',*,*,#541,.T.);
#764=ORIENTED_EDGE('',*,*,#539,.T.);
#765=ORIENTED_EDGE('',*,*,#537,.T.);
#766=ORIENTED_EDGE('',*,*,#535,.T.);
#767=ORIENTED_EDGE('',*,*,#552,.T.);
#768=ORIENTED_EDGE('',*,*,#437,.T.);
#769=ORIENTED_EDGE('',*,*,#487,.T.);
#770=ORIENTED_EDGE('',*,*,#493,.T.);
#771=ORIENTED_EDGE('',*,*,#491,.T.);
#772=ORIENTED_EDGE('',*,*,#489,.T.);
#773=ORIENTED_EDGE('',*,*,#527,.T.);
#774=ORIENTED_EDGE('',*,*,#533,.T.);
#775=ORIENTED_EDGE('',*,*,#531,.T.);
#776=ORIENTED_EDGE('',*,*,#529,.T.);
#777=ORIENTED_EDGE('',*,*,#519,.T.);
#778=ORIENTED_EDGE('',*,*,#525,.T.);
#779=ORIENTED_EDGE('',*,*,#523,.T.);
#780=ORIENTED_EDGE('',*,*,#521,.T.);
#781=ORIENTED_EDGE('',*,*,#511,.T.);
#782=ORIENTED_EDGE('',*,*,#517,.T.);
#783=ORIENTED_EDGE('',*,*,#515,.T.);
#784=ORIENTED_EDGE('',*,*,#513,.T.);
#785=ORIENTED_EDGE('',*,*,#503,.T.);
#786=ORIENTED_EDGE('',*,*,#509,.T.);
#787=ORIENTED_EDGE('',*,*,#507,.T.);
#788=ORIENTED_EDGE('',*,*,#505,.T.);
#789=ORIENTED_EDGE('',*,*,#495,.T.);
#790=ORIENTED_EDGE('',*,*,#501,.T.);
#791=ORIENTED_EDGE('',*,*,#499,.T.);
#792=ORIENTED_EDGE('',*,*,#497,.T.);
#793=PLANE('',#881);
#794=PLANE('',#882);
#795=PLANE('',#883);
#796=PLANE('',#884);
#797=PLANE('',#885);
#798=PLANE('',#886);
#799=PLANE('',#897);
#800=PLANE('',#898);
#801=PLANE('',#899);
#802=PLANE('',#900);
#803=PLANE('',#901);
#804=PLANE('',#902);
#805=PLANE('',#905);
#806=PLANE('',#908);
#807=PLANE('',#911);
#808=PLANE('',#914);
#809=PLANE('',#917);
#810=PLANE('',#920);
#811=PLANE('',#923);
#812=PLANE('',#926);
#813=PLANE('',#929);
#814=PLANE('',#932);
#815=PLANE('',#933);
#816=PLANE('',#934);
#817=PLANE('',#935);
#818=PLANE('',#936);
#819=PLANE('',#937);
#820=PLANE('',#938);
#821=PLANE('',#939);
#822=PLANE('',#940);
#823=PLANE('',#941);
#824=PLANE('',#942);
#825=ADVANCED_FACE('',(#57),#793,.F.);
#826=ADVANCED_FACE('',(#58),#794,.F.);
#827=ADVANCED_FACE('',(#59),#795,.F.);
#828=ADVANCED_FACE('',(#60),#796,.F.);
#829=ADVANCED_FACE('',(#61),#797,.T.);
#830=ADVANCED_FACE('',(#62,#25,#26,#27,#28,#29,#30),#798,.F.);
#831=ADVANCED_FACE('',(#63),#799,.T.);
#832=ADVANCED_FACE('',(#64),#800,.F.);
#833=ADVANCED_FACE('',(#65),#801,.F.);
#834=ADVANCED_FACE('',(#66),#802,.F.);
#835=ADVANCED_FACE('',(#67),#803,.F.);
#836=ADVANCED_FACE('',(#68),#804,.F.);
#837=ADVANCED_FACE('',(#69),#15,.F.);
#838=ADVANCED_FACE('',(#70),#805,.F.);
#839=ADVANCED_FACE('',(#71),#16,.F.);
#840=ADVANCED_FACE('',(#72),#806,.F.);
#841=ADVANCED_FACE('',(#73),#17,.F.);
#842=ADVANCED_FACE('',(#74),#807,.F.);
#843=ADVANCED_FACE('',(#75),#18,.F.);
#844=ADVANCED_FACE('',(#76),#808,.F.);
#845=ADVANCED_FACE('',(#77),#19,.F.);
#846=ADVANCED_FACE('',(#78),#809,.F.);
#847=ADVANCED_FACE('',(#79),#20,.F.);
#848=ADVANCED_FACE('',(#80),#810,.F.);
#849=ADVANCED_FACE('',(#81),#21,.F.);
#850=ADVANCED_FACE('',(#82),#811,.F.);
#851=ADVANCED_FACE('',(#83),#22,.F.);
#852=ADVANCED_FACE('',(#84),#812,.F.);
#853=ADVANCED_FACE('',(#85),#23,.F.);
#854=ADVANCED_FACE('',(#86),#813,.F.);
#855=ADVANCED_FACE('',(#87),#24,.F.);
#856=ADVANCED_FACE('',(#88),#814,.T.);
#857=ADVANCED_FACE('',(#89),#815,.T.);
#858=ADVANCED_FACE('',(#90),#816,.T.);
#859=ADVANCED_FACE('',(#91),#817,.T.);
#860=ADVANCED_FACE('',(#92),#818,.T.);
#861=ADVANCED_FACE('',(#93),#819,.T.);
#862=ADVANCED_FACE('',(#94),#820,.T.);
#863=ADVANCED_FACE('',(#95),#821,.T.);
#864=ADVANCED_FACE('',(#96),#822,.T.);
#865=ADVANCED_FACE('',(#97),#823,.T.);
#866=ADVANCED_FACE('',(#98,#31,#32,#33,#34,#35,#36),#824,.T.);
#867=CLOSED_SHELL('',(#825,#826,#827,#828,#829,#830,#831,#832,#833,#834,
#835,#836,#837,#838,#839,#840,#841,#842,#843,#844,#845,#846,#847,#848,#849,
#850,#851,#852,#853,#854,#855,#856,#857,#858,#859,#860,#861,#862,#863,#864,
#865,#866));
#868=DERIVED_UNIT_ELEMENT(#870,1.);
#869=DERIVED_UNIT_ELEMENT(#1417,-3.);
#870=(
MASS_UNIT()
NAMED_UNIT(*)
SI_UNIT(.KILO.,.GRAM.)
);
#871=DERIVED_UNIT((#868,#869));
#872=MEASURE_REPRESENTATION_ITEM('density measure',
POSITIVE_RATIO_MEASURE(7850.),#871);
#873=PROPERTY_DEFINITION_REPRESENTATION(#878,#875);
#874=PROPERTY_DEFINITION_REPRESENTATION(#879,#876);
#875=REPRESENTATION('material name',(#877),#1414);
#876=REPRESENTATION('density',(#872),#1414);
#877=DESCRIPTIVE_REPRESENTATION_ITEM('Steel','Steel');
#878=PROPERTY_DEFINITION('material property','material name',#1424);
#879=PROPERTY_DEFINITION('material property','density of part',#1424);
#880=AXIS2_PLACEMENT_3D('',#1169,#943,#944);
#881=AXIS2_PLACEMENT_3D('',#1170,#945,#946);
#882=AXIS2_PLACEMENT_3D('',#1179,#951,#952);
#883=AXIS2_PLACEMENT_3D('',#1185,#956,#957);
#884=AXIS2_PLACEMENT_3D('',#1194,#962,#963);
#885=AXIS2_PLACEMENT_3D('',#1200,#967,#968);
#886=AXIS2_PLACEMENT_3D('',#1206,#972,#973);
#887=AXIS2_PLACEMENT_3D('',#1231,#986,#987);
#888=AXIS2_PLACEMENT_3D('',#1234,#989,#990);
#889=AXIS2_PLACEMENT_3D('',#1239,#992,#993);
#890=AXIS2_PLACEMENT_3D('',#1242,#995,#996);
#891=AXIS2_PLACEMENT_3D('',#1247,#998,#999);
#892=AXIS2_PLACEMENT_3D('',#1250,#1001,#1002);
#893=AXIS2_PLACEMENT_3D('',#1255,#1004,#1005);
#894=AXIS2_PLACEMENT_3D('',#1258,#1007,#1008);
#895=AXIS2_PLACEMENT_3D('',#1263,#1010,#1011);
#896=AXIS2_PLACEMENT_3D('',#1266,#1013,#1014);
#897=AXIS2_PLACEMENT_3D('',#1275,#1019,#1020);
#898=AXIS2_PLACEMENT_3D('',#1277,#1022,#1023);
#899=AXIS2_PLACEMENT_3D('',#1283,#1027,#1028);
#900=AXIS2_PLACEMENT_3D('',#1287,#1031,#1032);
#901=AXIS2_PLACEMENT_3D('',#1291,#1035,#1036);
#902=AXIS2_PLACEMENT_3D('',#1293,#1038,#1039);
#903=AXIS2_PLACEMENT_3D('',#1299,#1043,#1044);
#904=AXIS2_PLACEMENT_3D('',#1301,#1045,#1046);
#905=AXIS2_PLACEMENT_3D('',#1303,#1048,#1049);
#906=AXIS2_PLACEMENT_3D('',#1307,#1052,#1053);
#907=AXIS2_PLACEMENT_3D('',#1308,#1054,#1055);
#908=AXIS2_PLACEMENT_3D('',#1309,#1056,#1057);
#909=AXIS2_PLACEMENT_3D('',#1315,#1061,#1062);
#910=AXIS2_PLACEMENT_3D('',#1317,#1063,#1064);
#911=AXIS2_PLACEMENT_3D('',#1319,#1066,#1067);
#912=AXIS2_PLACEMENT_3D('',#1323,#1070,#1071);
#913=AXIS2_PLACEMENT_3D('',#1324,#1072,#1073);
#914=AXIS2_PLACEMENT_3D('',#1325,#1074,#1075);
#915=AXIS2_PLACEMENT_3D('',#1331,#1079,#1080);
#916=AXIS2_PLACEMENT_3D('',#1333,#1081,#1082);
#917=AXIS2_PLACEMENT_3D('',#1335,#1084,#1085);
#918=AXIS2_PLACEMENT_3D('',#1339,#1088,#1089);
#919=AXIS2_PLACEMENT_3D('',#1340,#1090,#1091);
#920=AXIS2_PLACEMENT_3D('',#1341,#1092,#1093);
#921=AXIS2_PLACEMENT_3D('',#1347,#1097,#1098);
#922=AXIS2_PLACEMENT_3D('',#1349,#1099,#1100);
#923=AXIS2_PLACEMENT_3D('',#1351,#1102,#1103);
#924=AXIS2_PLACEMENT_3D('',#1355,#1106,#1107);
#925=AXIS2_PLACEMENT_3D('',#1356,#1108,#1109);
#926=AXIS2_PLACEMENT_3D('',#1357,#1110,#1111);
#927=AXIS2_PLACEMENT_3D('',#1363,#1115,#1116);
#928=AXIS2_PLACEMENT_3D('',#1365,#1117,#1118);
#929=AXIS2_PLACEMENT_3D('',#1367,#1120,#1121);
#930=AXIS2_PLACEMENT_3D('',#1371,#1124,#1125);
#931=AXIS2_PLACEMENT_3D('',#1372,#1126,#1127);
#932=AXIS2_PLACEMENT_3D('',#1373,#1128,#1129);
#933=AXIS2_PLACEMENT_3D('',#1379,#1133,#1134);
#934=AXIS2_PLACEMENT_3D('',#1383,#1137,#1138);
#935=AXIS2_PLACEMENT_3D('',#1387,#1141,#1142);
#936=AXIS2_PLACEMENT_3D('',#1391,#1145,#1146);
#937=AXIS2_PLACEMENT_3D('',#1395,#1149,#1150);
#938=AXIS2_PLACEMENT_3D('',#1399,#1153,#1154);
#939=AXIS2_PLACEMENT_3D('',#1403,#1157,#1158);
#940=AXIS2_PLACEMENT_3D('',#1407,#1161,#1162);
#941=AXIS2_PLACEMENT_3D('',#1409,#1164,#1165);
#942=AXIS2_PLACEMENT_3D('',#1411,#1167,#1168);
#943=DIRECTION('axis',(0.,0.,1.));
#944=DIRECTION('refdir',(1.,0.,0.));
#945=DIRECTION('center_axis',(0.,1.,0.));
#946=DIRECTION('ref_axis',(0.,0.,1.));
#947=DIRECTION('',(0.,0.,-1.));
#948=DIRECTION('',(1.,0.,0.));
#949=DIRECTION('',(0.,0.,1.));
#950=DIRECTION('',(-1.,0.,0.));
#951=DIRECTION('center_axis',(0.,-2.22044604925031E-17,1.));
#952=DIRECTION('ref_axis',(0.,-1.,-2.22044604925031E-17));
#953=DIRECTION('',(0.,1.,2.22044604925031E-17));
#954=DIRECTION('',(1.,0.,0.));
#955=DIRECTION('',(0.,-1.,-2.22044604925031E-17));
#956=DIRECTION('center_axis',(0.,0.,1.));
#957=DIRECTION('ref_axis',(0.,-1.,0.));
#958=DIRECTION('',(0.,1.,0.));
#959=DIRECTION('',(1.,0.,0.));
#960=DIRECTION('',(0.,-1.,0.));
#961=DIRECTION('',(-1.,0.,0.));
#962=DIRECTION('center_axis',(0.,-1.,0.));
#963=DIRECTION('ref_axis',(0.,0.,-1.));
#964=DIRECTION('',(0.,0.,1.));
#965=DIRECTION('',(1.,0.,0.));
#966=DIRECTION('',(0.,0.,-1.));
#967=DIRECTION('center_axis',(0.,1.,0.));
#968=DIRECTION('ref_axis',(0.,0.,1.));
#969=DIRECTION('',(0.,0.,1.));
#970=DIRECTION('',(1.,0.,0.));
#971=DIRECTION('',(0.,0.,1.));
#972=DIRECTION('center_axis',(1.,0.,0.));
#973=DIRECTION('ref_axis',(0.,1.,0.));
#974=DIRECTION('',(0.,-6.12323399573677E-17,-1.));
#975=DIRECTION('',(0.,-1.,0.));
#976=DIRECTION('',(0.,4.93432455388958E-17,-1.));
#977=DIRECTION('',(0.,1.,0.));
#978=DIRECTION('',(0.,-2.32682891837997E-16,-1.));
#979=DIRECTION('',(0.,-1.,0.));
#980=DIRECTION('',(0.,0.,1.));
#981=DIRECTION('',(0.,1.,0.));
#982=DIRECTION('',(0.,0.,1.));
#983=DIRECTION('',(0.,-1.,4.44089209850063E-16));
#984=DIRECTION('',(0.,1.,6.16297582203915E-33));
#985=DIRECTION('',(0.,0.,1.));
#986=DIRECTION('center_axis',(1.,0.,0.));
#987=DIRECTION('ref_axis',(0.,1.,0.));
#988=DIRECTION('',(0.,2.76322175017817E-14,-1.));
#989=DIRECTION('center_axis',(1.,0.,0.));
#990=DIRECTION('ref_axis',(0.,-1.,0.));
#991=DIRECTION('',(0.,0.,1.));
#992=DIRECTION('center_axis',(1.,0.,0.));
#993=DIRECTION('ref_axis',(0.,1.,0.));
#994=DIRECTION('',(0.,2.76322175017817E-14,-1.));
#995=DIRECTION('center_axis',(1.,0.,0.));
#996=DIRECTION('ref_axis',(0.,-1.,0.));
#997=DIRECTION('',(0.,0.,1.));
#998=DIRECTION('center_axis',(1.,0.,0.));
#999=DIRECTION('ref_axis',(0.,1.,0.));
#1000=DIRECTION('',(0.,2.76322175017817E-14,-1.));
#1001=DIRECTION('center_axis',(1.,0.,0.));
#1002=DIRECTION('ref_axis',(0.,-1.,0.));
#1003=DIRECTION('',(0.,0.,1.));
#1004=DIRECTION('center_axis',(1.,0.,0.));
#1005=DIRECTION('ref_axis',(0.,1.,0.));
#1006=DIRECTION('',(0.,2.76322175017817E-14,-1.));
#1007=DIRECTION('center_axis',(1.,0.,0.));
#1008=DIRECTION('ref_axis',(0.,-1.,0.));
#1009=DIRECTION('',(0.,0.,1.));
#1010=DIRECTION('center_axis',(1.,0.,0.));
#1011=DIRECTION('ref_axis',(0.,1.,0.));
#1012=DIRECTION('',(0.,2.76322175017817E-14,-1.));
#1013=DIRECTION('center_axis',(1.,0.,0.));
#1014=DIRECTION('ref_axis',(0.,-1.,0.));
#1015=DIRECTION('',(0.,0.,-1.));
#1016=DIRECTION('',(0.,1.,0.));
#1017=DIRECTION('',(0.,0.,1.));
#1018=DIRECTION('',(0.,-1.,0.));
#1019=DIRECTION('center_axis',(0.,6.16297582203915E-33,-1.));
#1020=DIRECTION('ref_axis',(0.,1.,6.16297582203915E-33));
#1021=DIRECTION('',(0.,1.,6.16297582203915E-33));
#1022=DIRECTION('center_axis',(0.,-1.,0.));
#1023=DIRECTION('ref_axis',(0.,0.,1.));
#1024=DIRECTION('',(-1.,0.,0.));
#1025=DIRECTION('',(0.,0.,1.));
#1026=DIRECTION('',(-1.,0.,0.));
#1027=DIRECTION('center_axis',(0.,0.,-1.));
#1028=DIRECTION('ref_axis',(0.,-1.,0.));
#1029=DIRECTION('',(0.,-1.,0.));
#1030=DIRECTION('',(-1.,0.,0.));
#1031=DIRECTION('center_axis',(0.,1.,0.));
#1032=DIRECTION('ref_axis',(0.,0.,-1.));
#1033=DIRECTION('',(0.,0.,-1.));
#1034=DIRECTION('',(-1.,0.,0.));
#1035=DIRECTION('center_axis',(0.,0.,1.));
#1036=DIRECTION('ref_axis',(0.,1.,0.));
#1037=DIRECTION('',(0.,1.,0.));
#1038=DIRECTION('center_axis',(0.,1.,0.));
#1039=DIRECTION('ref_axis',(0.,0.,-1.));
#1040=DIRECTION('',(-1.,0.,0.));
#1041=DIRECTION('',(0.,0.,-1.));
#1042=DIRECTION('',(-1.,0.,0.));
#1043=DIRECTION('center_axis',(-1.,0.,0.));
#1044=DIRECTION('ref_axis',(0.,1.,0.));
#1045=DIRECTION('center_axis',(-1.,0.,0.));
#1046=DIRECTION('ref_axis',(0.,1.,0.));
#1047=DIRECTION('',(-1.,0.,0.));
#1048=DIRECTION('center_axis',(0.,-1.,-2.76322175017817E-14));
#1049=DIRECTION('ref_axis',(0.,-2.76322175017817E-14,1.));
#1050=DIRECTION('',(0.,-2.76322175017817E-14,1.));
#1051=DIRECTION('',(-1.,0.,0.));
#1052=DIRECTION('center_axis',(-1.,0.,0.));
#1053=DIRECTION('ref_axis',(0.,-1.,0.));
#1054=DIRECTION('center_axis',(-1.,0.,0.));
#1055=DIRECTION('ref_axis',(0.,-1.,0.));
#1056=DIRECTION('center_axis',(0.,1.,0.));
#1057=DIRECTION('ref_axis',(0.,0.,-1.));
#1058=DIRECTION('',(-1.,0.,0.));
#1059=DIRECTION('',(0.,0.,-1.));
#1060=DIRECTION('',(-1.,0.,0.));
#1061=DIRECTION('center_axis',(-1.,0.,0.));
#1062=DIRECTION('ref_axis',(0.,1.,0.));
#1063=DIRECTION('center_axis',(-1.,0.,0.));
#1064=DIRECTION('ref_axis',(0.,1.,0.));
#1065=DIRECTION('',(-1.,0.,0.));
#1066=DIRECTION('center_axis',(0.,-1.,-2.76322175017817E-14));
#1067=DIRECTION('ref_axis',(0.,-2.76322175017817E-14,1.));
#1068=DIRECTION('',(0.,-2.76322175017817E-14,1.));
#1069=DIRECTION('',(-1.,0.,0.));
#1070=DIRECTION('center_axis',(-1.,0.,0.));
#1071=DIRECTION('ref_axis',(0.,-1.,0.));
#1072=DIRECTION('center_axis',(-1.,0.,0.));
#1073=DIRECTION('ref_axis',(0.,-1.,0.));
#1074=DIRECTION('center_axis',(0.,1.,0.));
#1075=DIRECTION('ref_axis',(0.,0.,-1.));
#1076=DIRECTION('',(-1.,0.,0.));
#1077=DIRECTION('',(0.,0.,-1.));
#1078=DIRECTION('',(-1.,0.,0.));
#1079=DIRECTION('center_axis',(-1.,0.,0.));
#1080=DIRECTION('ref_axis',(0.,1.,0.));
#1081=DIRECTION('center_axis',(-1.,0.,0.));
#1082=DIRECTION('ref_axis',(0.,1.,0.));
#1083=DIRECTION('',(-1.,0.,0.));
#1084=DIRECTION('center_axis',(0.,-1.,-2.76322175017817E-14));
#1085=DIRECTION('ref_axis',(0.,-2.76322175017817E-14,1.));
#1086=DIRECTION('',(0.,-2.76322175017817E-14,1.));
#1087=DIRECTION('',(-1.,0.,0.));
#1088=DIRECTION('center_axis',(-1.,0.,0.));
#1089=DIRECTION('ref_axis',(0.,-1.,0.));
#1090=DIRECTION('center_axis',(-1.,0.,0.));
#1091=DIRECTION('ref_axis',(0.,-1.,0.));
#1092=DIRECTION('center_axis',(0.,1.,0.));
#1093=DIRECTION('ref_axis',(0.,0.,-1.));
#1094=DIRECTION('',(-1.,0.,0.));
#1095=DIRECTION('',(0.,0.,-1.));
#1096=DIRECTION('',(-1.,0.,0.));
#1097=DIRECTION('center_axis',(-1.,0.,0.));
#1098=DIRECTION('ref_axis',(0.,1.,0.));
#1099=DIRECTION('center_axis',(-1.,0.,0.));
#1100=DIRECTION('ref_axis',(0.,1.,0.));
#1101=DIRECTION('',(-1.,0.,0.));
#1102=DIRECTION('center_axis',(0.,-1.,-2.76322175017817E-14));
#1103=DIRECTION('ref_axis',(0.,-2.76322175017817E-14,1.));
#1104=DIRECTION('',(0.,-2.76322175017817E-14,1.));
#1105=DIRECTION('',(-1.,0.,0.));
#1106=DIRECTION('center_axis',(-1.,0.,0.));
#1107=DIRECTION('ref_axis',(0.,-1.,0.));
#1108=DIRECTION('center_axis',(-1.,0.,0.));
#1109=DIRECTION('ref_axis',(0.,-1.,0.));
#1110=DIRECTION('center_axis',(0.,1.,0.));
#1111=DIRECTION('ref_axis',(0.,0.,-1.));
#1112=DIRECTION('',(-1.,0.,0.));
#1113=DIRECTION('',(0.,0.,-1.));
#1114=DIRECTION('',(-1.,0.,0.));
#1115=DIRECTION('center_axis',(-1.,0.,0.));
#1116=DIRECTION('ref_axis',(0.,1.,0.));
#1117=DIRECTION('center_axis',(-1.,0.,0.));
#1118=DIRECTION('ref_axis',(0.,1.,0.));
#1119=DIRECTION('',(-1.,0.,0.));
#1120=DIRECTION('center_axis',(0.,-1.,-2.76322175017817E-14));
#1121=DIRECTION('ref_axis',(0.,-2.76322175017817E-14,1.));
#1122=DIRECTION('',(0.,-2.76322175017817E-14,1.));
#1123=DIRECTION('',(-1.,0.,0.));
#1124=DIRECTION('center_axis',(-1.,0.,0.));
#1125=DIRECTION('ref_axis',(0.,-1.,0.));
#1126=DIRECTION('center_axis',(-1.,0.,0.));
#1127=DIRECTION('ref_axis',(0.,-1.,0.));
#1128=DIRECTION('center_axis',(0.,0.,1.));
#1129=DIRECTION('ref_axis',(0.,-1.,0.));
#1130=DIRECTION('',(1.,0.,0.));
#1131=DIRECTION('',(0.,-1.,0.));
#1132=DIRECTION('',(1.,0.,0.));
#1133=DIRECTION('center_axis',(0.,-1.,-4.93432455388958E-17));
#1134=DIRECTION('ref_axis',(0.,4.93432455388958E-17,-1.));
#1135=DIRECTION('',(0.,4.93432455388958E-17,-1.));
#1136=DIRECTION('',(1.,0.,0.));
#1137=DIRECTION('center_axis',(0.,0.,-1.));
#1138=DIRECTION('ref_axis',(0.,1.,0.));
#1139=DIRECTION('',(0.,1.,0.));
#1140=DIRECTION('',(1.,0.,0.));
#1141=DIRECTION('center_axis',(0.,-1.,2.32682891837997E-16));
#1142=DIRECTION('ref_axis',(0.,-2.32682891837997E-16,-1.));
#1143=DIRECTION('',(0.,-2.32682891837997E-16,-1.));
#1144=DIRECTION('',(1.,0.,0.));
#1145=DIRECTION('center_axis',(0.,0.,1.));
#1146=DIRECTION('ref_axis',(0.,-1.,0.));
#1147=DIRECTION('',(0.,-1.,0.));
#1148=DIRECTION('',(1.,0.,0.));
#1149=DIRECTION('center_axis',(0.,1.,0.));
#1150=DIRECTION('ref_axis',(0.,0.,1.));
#1151=DIRECTION('',(0.,0.,1.));
#1152=DIRECTION('',(1.,0.,0.));
#1153=DIRECTION('center_axis',(0.,0.,-1.));
#1154=DIRECTION('ref_axis',(0.,1.,0.));
#1155=DIRECTION('',(0.,1.,0.));
#1156=DIRECTION('',(1.,0.,0.));
#1157=DIRECTION('center_axis',(0.,1.,0.));
#1158=DIRECTION('ref_axis',(0.,0.,1.));
#1159=DIRECTION('',(0.,0.,1.));
#1160=DIRECTION('',(1.,0.,0.));
#1161=DIRECTION('center_axis',(0.,4.44089209850063E-16,1.));
#1162=DIRECTION('ref_axis',(0.,-1.,4.44089209850063E-16));
#1163=DIRECTION('',(0.,-1.,4.44089209850063E-16));
#1164=DIRECTION('center_axis',(0.,-1.,6.12323399573677E-17));
#1165=DIRECTION('ref_axis',(0.,-6.12323399573677E-17,-1.));
#1166=DIRECTION('',(0.,-6.12323399573677E-17,-1.));
#1167=DIRECTION('center_axis',(1.,0.,0.));
#1168=DIRECTION('ref_axis',(0.,0.,-1.));
#1169=CARTESIAN_POINT('',(0.,0.,0.));
#1170=CARTESIAN_POINT('Origin',(0.,50.,0.));
#1171=CARTESIAN_POINT('',(5.,50.,7.));
#1172=CARTESIAN_POINT('',(5.,50.,3.08148791101958E-31));
#1173=CARTESIAN_POINT('',(5.,50.,26.25));
#1174=CARTESIAN_POINT('',(0.,50.,7.));
#1175=CARTESIAN_POINT('',(0.,50.,7.));
#1176=CARTESIAN_POINT('',(0.,50.,0.));
#1177=CARTESIAN_POINT('',(0.,50.,26.25));
#1178=CARTESIAN_POINT('',(0.,50.,3.08148791101958E-31));
#1179=CARTESIAN_POINT('Origin',(0.,50.,7.));
#1180=CARTESIAN_POINT('',(5.,4.28626379701574E-16,7.));
#1181=CARTESIAN_POINT('',(5.,70.,7.));
#1182=CARTESIAN_POINT('',(0.,0.,7.));
#1183=CARTESIAN_POINT('',(0.,0.,7.));
#1184=CARTESIAN_POINT('',(0.,70.,7.));
#1185=CARTESIAN_POINT('Origin',(0.,180.,7.));
#1186=CARTESIAN_POINT('',(5.,130.,7.));
#1187=CARTESIAN_POINT('',(5.,180.,7.));
#1188=CARTESIAN_POINT('',(5.,135.,7.));
#1189=CARTESIAN_POINT('',(0.,130.,7.));
#1190=CARTESIAN_POINT('',(0.,130.,7.));
#1191=CARTESIAN_POINT('',(0.,180.,7.));
#1192=CARTESIAN_POINT('',(0.,135.,7.));
#1193=CARTESIAN_POINT('',(0.,180.,7.));
#1194=CARTESIAN_POINT('Origin',(0.,130.,7.));
#1195=CARTESIAN_POINT('',(5.,130.,1.10933564796705E-30));
#1196=CARTESIAN_POINT('',(5.,130.,29.75));
#1197=CARTESIAN_POINT('',(0.,130.,1.10933564796705E-30));
#1198=CARTESIAN_POINT('',(0.,130.,0.));
#1199=CARTESIAN_POINT('',(0.,130.,29.75));
#1200=CARTESIAN_POINT('Origin',(0.,180.,1.10933564796705E-30));
#1201=CARTESIAN_POINT('',(0.,180.,24.9999999999999));
#1202=CARTESIAN_POINT('',(0.,180.,1.10933564796705E-30));
#1203=CARTESIAN_POINT('',(5.,180.,24.9999999999999));
#1204=CARTESIAN_POINT('',(0.,180.,24.9999999999999));
#1205=CARTESIAN_POINT('',(5.,180.,1.10933564796705E-30));
#1206=CARTESIAN_POINT('Origin',(0.,90.,52.5));
#1207=CARTESIAN_POINT('',(0.,1.53080849893419E-15,25.));
#1208=CARTESIAN_POINT('',(0.,1.53080849893419E-15,25.));
#1209=CARTESIAN_POINT('',(0.,10.,25.));
#1210=CARTESIAN_POINT('',(0.,10.,25.));
#1211=CARTESIAN_POINT('',(0.,10.,70.));
#1212=CARTESIAN_POINT('',(0.,10.,70.));
#1213=CARTESIAN_POINT('',(0.,1.20015386316441E-14,70.));
#1214=CARTESIAN_POINT('',(0.,1.20015386316441E-14,70.));
#1215=CARTESIAN_POINT('',(0.,2.0145439845974E-14,105.));
#1216=CARTESIAN_POINT('',(0.,2.0145439845974E-14,105.));
#1217=CARTESIAN_POINT('',(0.,180.,105.));
#1218=CARTESIAN_POINT('',(0.,180.,105.));
#1219=CARTESIAN_POINT('',(0.,180.,70.));
#1220=CARTESIAN_POINT('',(0.,180.,70.));
#1221=CARTESIAN_POINT('',(0.,170.,70.));
#1222=CARTESIAN_POINT('',(0.,170.,70.));
#1223=CARTESIAN_POINT('',(0.,170.,24.9999999999999));
#1224=CARTESIAN_POINT('',(0.,170.,24.9999999999999));
#1225=CARTESIAN_POINT('',(0.,180.,24.9999999999999));
#1226=CARTESIAN_POINT('',(0.,0.,0.));
#1227=CARTESIAN_POINT('',(0.,44.6138209506875,24.8664316237011));
#1228=CARTESIAN_POINT('',(0.,44.6138209506875,69.8664316237011));
#1229=CARTESIAN_POINT('',(0.,44.6138209506875,61.1832158118505));
#1230=CARTESIAN_POINT('',(0.,24.6138209506863,69.8664316237011));
#1231=CARTESIAN_POINT('Origin',(0.,34.6138209506869,69.8664316237011));
#1232=CARTESIAN_POINT('',(0.,24.6138209506875,24.8664316237011));
#1233=CARTESIAN_POINT('',(0.,24.6138209506871,38.6832158118496));
#1234=CARTESIAN_POINT('Origin',(0.,34.6138209506875,24.8664316237011));
#1235=CARTESIAN_POINT('',(0.,72.1138209506875,24.8664316237011));
#1236=CARTESIAN_POINT('',(0.,72.1138209506875,69.8664316237011));
#1237=CARTESIAN_POINT('',(0.,72.1138209506875,61.1832158118505));
#1238=CARTESIAN_POINT('',(0.,52.1138209506863,69.8664316237011));
#1239=CARTESIAN_POINT('Origin',(0.,62.1138209506869,69.8664316237011));
#1240=CARTESIAN_POINT('',(0.,52.1138209506875,24.8664316237011));
#1241=CARTESIAN_POINT('',(0.,52.1138209506871,38.68321581185));
#1242=CARTESIAN_POINT('Origin',(0.,62.1138209506875,24.8664316237011));
#1243=CARTESIAN_POINT('',(0.,99.6138209506875,24.8664316237011));
#1244=CARTESIAN_POINT('',(0.,99.6138209506875,69.8664316237011));
#1245=CARTESIAN_POINT('',(0.,99.6138209506875,61.1832158118505));
#1246=CARTESIAN_POINT('',(0.,79.6138209506863,69.8664316237011));
#1247=CARTESIAN_POINT('Origin',(0.,89.6138209506869,69.8664316237011));
#1248=CARTESIAN_POINT('',(0.,79.6138209506875,24.8664316237011));
#1249=CARTESIAN_POINT('',(0.,79.6138209506871,38.6832158118504));
#1250=CARTESIAN_POINT('Origin',(0.,89.6138209506875,24.8664316237011));
#1251=CARTESIAN_POINT('',(0.,127.113820950687,24.8664316237011));
#1252=CARTESIAN_POINT('',(0.,127.113820950687,69.8664316237011));
#1253=CARTESIAN_POINT('',(0.,127.113820950687,61.1832158118505));
#1254=CARTESIAN_POINT('',(0.,107.113820950686,69.8664316237011));
#1255=CARTESIAN_POINT('Origin',(0.,117.113820950687,69.8664316237011));
#1256=CARTESIAN_POINT('',(0.,107.113820950687,24.8664316237011));
#1257=CARTESIAN_POINT('',(0.,107.113820950687,38.6832158118508));
#1258=CARTESIAN_POINT('Origin',(0.,117.113820950687,24.8664316237011));
#1259=CARTESIAN_POINT('',(0.,154.613820950688,24.8664316237011));
#1260=CARTESIAN_POINT('',(0.,154.613820950688,69.8664316237011));
#1261=CARTESIAN_POINT('',(0.,154.613820950688,61.1832158118505));
#1262=CARTESIAN_POINT('',(0.,134.613820950686,69.8664316237011));
#1263=CARTESIAN_POINT('Origin',(0.,144.613820950687,69.8664316237011));
#1264=CARTESIAN_POINT('',(0.,134.613820950688,24.8664316237011));
#1265=CARTESIAN_POINT('',(0.,134.613820950687,38.6832158118512));
#1266=CARTESIAN_POINT('Origin',(0.,144.613820950688,24.8664316237011));
#1267=CARTESIAN_POINT('',(0.,50.,96.5));
#1268=CARTESIAN_POINT('',(0.,50.,90.));
#1269=CARTESIAN_POINT('',(0.,50.,71.25));
#1270=CARTESIAN_POINT('',(0.,130.,90.));
#1271=CARTESIAN_POINT('',(0.,110.,90.));
#1272=CARTESIAN_POINT('',(0.,130.,96.5));
#1273=CARTESIAN_POINT('',(0.,130.,74.5));
#1274=CARTESIAN_POINT('',(0.,70.,96.5));
#1275=CARTESIAN_POINT('Origin',(0.,0.,0.));
#1276=CARTESIAN_POINT('',(5.,0.,0.));
#1277=CARTESIAN_POINT('Origin',(5.,50.,90.));
#1278=CARTESIAN_POINT('',(5.,50.,96.5));
#1279=CARTESIAN_POINT('',(5.,50.,96.5));
#1280=CARTESIAN_POINT('',(5.,50.,90.));
#1281=CARTESIAN_POINT('',(5.,50.,71.25));
#1282=CARTESIAN_POINT('',(5.,50.,90.));
#1283=CARTESIAN_POINT('Origin',(5.,130.,90.));
#1284=CARTESIAN_POINT('',(5.,130.,90.));
#1285=CARTESIAN_POINT('',(5.,110.,90.));
#1286=CARTESIAN_POINT('',(5.,130.,90.));
#1287=CARTESIAN_POINT('Origin',(5.,130.,96.5));
#1288=CARTESIAN_POINT('',(5.,130.,96.5));
#1289=CARTESIAN_POINT('',(5.,130.,74.5));
#1290=CARTESIAN_POINT('',(5.,130.,96.5));
#1291=CARTESIAN_POINT('Origin',(5.,50.,96.5));
#1292=CARTESIAN_POINT('',(5.,70.,96.5));
#1293=CARTESIAN_POINT('Origin',(5.,44.6138209506875,69.8664316237011));
#1294=CARTESIAN_POINT('',(5.,44.6138209506875,24.8664316237011));
#1295=CARTESIAN_POINT('',(5.,44.6138209506875,24.8664316237011));
#1296=CARTESIAN_POINT('',(5.,44.6138209506875,69.8664316237011));
#1297=CARTESIAN_POINT('',(5.,44.6138209506875,61.1832158118505));
#1298=CARTESIAN_POINT('',(5.,44.6138209506875,69.8664316237011));
#1299=CARTESIAN_POINT('Origin',(5.,34.6138209506869,69.8664316237011));
#1300=CARTESIAN_POINT('',(5.,24.6138209506863,69.8664316237011));
#1301=CARTESIAN_POINT('Origin',(5.,34.6138209506869,69.8664316237011));
#1302=CARTESIAN_POINT('',(5.,24.6138209506863,69.8664316237011));
#1303=CARTESIAN_POINT('Origin',(5.,24.6138209506875,24.8664316237011));
#1304=CARTESIAN_POINT('',(5.,24.6138209506875,24.8664316237011));
#1305=CARTESIAN_POINT('',(5.,24.6138209506871,38.6832158118496));
#1306=CARTESIAN_POINT('',(5.,24.6138209506875,24.8664316237011));
#1307=CARTESIAN_POINT('Origin',(5.,34.6138209506875,24.8664316237011));
#1308=CARTESIAN_POINT('Origin',(5.,34.6138209506875,24.8664316237011));
#1309=CARTESIAN_POINT('Origin',(5.,72.1138209506875,69.8664316237011));
#1310=CARTESIAN_POINT('',(5.,72.1138209506875,24.8664316237011));
#1311=CARTESIAN_POINT('',(5.,72.1138209506875,24.8664316237011));
#1312=CARTESIAN_POINT('',(5.,72.1138209506875,69.8664316237011));
#1313=CARTESIAN_POINT('',(5.,72.1138209506875,61.1832158118505));
#1314=CARTESIAN_POINT('',(5.,72.1138209506875,69.8664316237011));
#1315=CARTESIAN_POINT('Origin',(5.,62.1138209506869,69.8664316237011));
#1316=CARTESIAN_POINT('',(5.,52.1138209506863,69.8664316237011));
#1317=CARTESIAN_POINT('Origin',(5.,62.1138209506869,69.8664316237011));
#1318=CARTESIAN_POINT('',(5.,52.1138209506863,69.8664316237011));
#1319=CARTESIAN_POINT('Origin',(5.,52.1138209506875,24.8664316237011));
#1320=CARTESIAN_POINT('',(5.,52.1138209506875,24.8664316237011));
#1321=CARTESIAN_POINT('',(5.,52.1138209506871,38.68321581185));
#1322=CARTESIAN_POINT('',(5.,52.1138209506875,24.8664316237011));
#1323=CARTESIAN_POINT('Origin',(5.,62.1138209506875,24.8664316237011));
#1324=CARTESIAN_POINT('Origin',(5.,62.1138209506875,24.8664316237011));
#1325=CARTESIAN_POINT('Origin',(5.,99.6138209506875,69.8664316237011));
#1326=CARTESIAN_POINT('',(5.,99.6138209506875,24.8664316237011));
#1327=CARTESIAN_POINT('',(5.,99.6138209506875,24.8664316237011));
#1328=CARTESIAN_POINT('',(5.,99.6138209506875,69.8664316237011));
#1329=CARTESIAN_POINT('',(5.,99.6138209506875,61.1832158118505));
#1330=CARTESIAN_POINT('',(5.,99.6138209506875,69.8664316237011));
#1331=CARTESIAN_POINT('Origin',(5.,89.6138209506869,69.8664316237011));
#1332=CARTESIAN_POINT('',(5.,79.6138209506863,69.8664316237011));
#1333=CARTESIAN_POINT('Origin',(5.,89.6138209506869,69.8664316237011));
#1334=CARTESIAN_POINT('',(5.,79.6138209506863,69.8664316237011));
#1335=CARTESIAN_POINT('Origin',(5.,79.6138209506875,24.8664316237011));
#1336=CARTESIAN_POINT('',(5.,79.6138209506875,24.8664316237011));
#1337=CARTESIAN_POINT('',(5.,79.6138209506871,38.6832158118504));
#1338=CARTESIAN_POINT('',(5.,79.6138209506875,24.8664316237011));
#1339=CARTESIAN_POINT('Origin',(5.,89.6138209506875,24.8664316237011));
#1340=CARTESIAN_POINT('Origin',(5.,89.6138209506875,24.8664316237011));
#1341=CARTESIAN_POINT('Origin',(5.,127.113820950687,69.8664316237011));
#1342=CARTESIAN_POINT('',(5.,127.113820950687,24.8664316237011));
#1343=CARTESIAN_POINT('',(5.,127.113820950687,24.8664316237011));
#1344=CARTESIAN_POINT('',(5.,127.113820950687,69.8664316237011));
#1345=CARTESIAN_POINT('',(5.,127.113820950687,61.1832158118505));
#1346=CARTESIAN_POINT('',(5.,127.113820950687,69.8664316237011));
#1347=CARTESIAN_POINT('Origin',(5.,117.113820950687,69.8664316237011));
#1348=CARTESIAN_POINT('',(5.,107.113820950686,69.8664316237011));
#1349=CARTESIAN_POINT('Origin',(5.,117.113820950687,69.8664316237011));
#1350=CARTESIAN_POINT('',(5.,107.113820950686,69.8664316237011));
#1351=CARTESIAN_POINT('Origin',(5.,107.113820950687,24.8664316237011));
#1352=CARTESIAN_POINT('',(5.,107.113820950687,24.8664316237011));
#1353=CARTESIAN_POINT('',(5.,107.113820950687,38.6832158118508));
#1354=CARTESIAN_POINT('',(5.,107.113820950687,24.8664316237011));
#1355=CARTESIAN_POINT('Origin',(5.,117.113820950687,24.8664316237011));
#1356=CARTESIAN_POINT('Origin',(5.,117.113820950687,24.8664316237011));
#1357=CARTESIAN_POINT('Origin',(5.,154.613820950688,69.8664316237011));
#1358=CARTESIAN_POINT('',(5.,154.613820950688,24.8664316237011));
#1359=CARTESIAN_POINT('',(5.,154.613820950688,24.8664316237011));
#1360=CARTESIAN_POINT('',(5.,154.613820950688,69.8664316237011));
#1361=CARTESIAN_POINT('',(5.,154.613820950688,61.1832158118505));
#1362=CARTESIAN_POINT('',(5.,154.613820950688,69.8664316237011));
#1363=CARTESIAN_POINT('Origin',(5.,144.613820950687,69.8664316237011));
#1364=CARTESIAN_POINT('',(5.,134.613820950686,69.8664316237011));
#1365=CARTESIAN_POINT('Origin',(5.,144.613820950687,69.8664316237011));
#1366=CARTESIAN_POINT('',(5.,134.613820950686,69.8664316237011));
#1367=CARTESIAN_POINT('Origin',(5.,134.613820950688,24.8664316237011));
#1368=CARTESIAN_POINT('',(5.,134.613820950688,24.8664316237011));
#1369=CARTESIAN_POINT('',(5.,134.613820950687,38.6832158118512));
#1370=CARTESIAN_POINT('',(5.,134.613820950688,24.8664316237011));
#1371=CARTESIAN_POINT('Origin',(5.,144.613820950688,24.8664316237011));
#1372=CARTESIAN_POINT('Origin',(5.,144.613820950688,24.8664316237011));
#1373=CARTESIAN_POINT('Origin',(0.,10.,25.));
#1374=CARTESIAN_POINT('',(5.,1.53080849893419E-15,25.));
#1375=CARTESIAN_POINT('',(0.,1.53080849893419E-15,25.));
#1376=CARTESIAN_POINT('',(5.,10.,25.));
#1377=CARTESIAN_POINT('',(5.,10.,25.));
#1378=CARTESIAN_POINT('',(0.,10.,25.));
#1379=CARTESIAN_POINT('Origin',(0.,10.,70.));
#1380=CARTESIAN_POINT('',(5.,10.,70.));
#1381=CARTESIAN_POINT('',(5.,10.,70.));
#1382=CARTESIAN_POINT('',(0.,10.,70.));
#1383=CARTESIAN_POINT('Origin',(0.,1.20015386316441E-14,70.));
#1384=CARTESIAN_POINT('',(5.,1.20015386316441E-14,70.));
#1385=CARTESIAN_POINT('',(5.,1.20015386316441E-14,70.));
#1386=CARTESIAN_POINT('',(0.,1.20015386316441E-14,70.));
#1387=CARTESIAN_POINT('Origin',(0.,2.0145439845974E-14,105.));
#1388=CARTESIAN_POINT('',(5.,2.0145439845974E-14,105.));
#1389=CARTESIAN_POINT('',(5.,2.0145439845974E-14,105.));
#1390=CARTESIAN_POINT('',(0.,2.0145439845974E-14,105.));
#1391=CARTESIAN_POINT('Origin',(0.,180.,105.));
#1392=CARTESIAN_POINT('',(5.,180.,105.));
#1393=CARTESIAN_POINT('',(5.,180.,105.));
#1394=CARTESIAN_POINT('',(0.,180.,105.));
#1395=CARTESIAN_POINT('Origin',(0.,180.,70.));
#1396=CARTESIAN_POINT('',(5.,180.,70.));
#1397=CARTESIAN_POINT('',(5.,180.,70.));
#1398=CARTESIAN_POINT('',(0.,180.,70.));
#1399=CARTESIAN_POINT('Origin',(0.,170.,70.));
#1400=CARTESIAN_POINT('',(5.,170.,70.));
#1401=CARTESIAN_POINT('',(5.,170.,70.));
#1402=CARTESIAN_POINT('',(0.,170.,70.));
#1403=CARTESIAN_POINT('Origin',(0.,170.,24.9999999999999));
#1404=CARTESIAN_POINT('',(5.,170.,24.9999999999999));
#1405=CARTESIAN_POINT('',(5.,170.,24.9999999999999));
#1406=CARTESIAN_POINT('',(0.,170.,24.9999999999999));
#1407=CARTESIAN_POINT('Origin',(0.,180.,24.9999999999999));
#1408=CARTESIAN_POINT('',(5.,180.,24.9999999999999));
#1409=CARTESIAN_POINT('Origin',(0.,1.53080849893419E-15,25.));
#1410=CARTESIAN_POINT('',(5.,1.53080849893419E-15,25.));
#1411=CARTESIAN_POINT('Origin',(5.,90.,52.5));
#1412=UNCERTAINTY_MEASURE_WITH_UNIT(LENGTH_MEASURE(0.01),#1416,
'DISTANCE_ACCURACY_VALUE',
'Maximum model space distance between geometric entities at asserted c
onnectivities');
#1413=UNCERTAINTY_MEASURE_WITH_UNIT(LENGTH_MEASURE(0.01),#1416,
'DISTANCE_ACCURACY_VALUE',
'Maximum model space distance between geometric entities at asserted c
onnectivities');
#1414=(
GEOMETRIC_REPRESENTATION_CONTEXT(3)
GLOBAL_UNCERTAINTY_ASSIGNED_CONTEXT((#1412))
GLOBAL_UNIT_ASSIGNED_CONTEXT((#1416,#1418,#1419))
REPRESENTATION_CONTEXT('','3D')
);
#1415=(
GEOMETRIC_REPRESENTATION_CONTEXT(3)
GLOBAL_UNCERTAINTY_ASSIGNED_CONTEXT((#1413))
GLOBAL_UNIT_ASSIGNED_CONTEXT((#1416,#1418,#1419))
REPRESENTATION_CONTEXT('','3D')
);
#1416=(
LENGTH_UNIT()
NAMED_UNIT(*)
SI_UNIT(.MILLI.,.METRE.)
);
#1417=(
LENGTH_UNIT()
NAMED_UNIT(*)
SI_UNIT($,.METRE.)
);
#1418=(
NAMED_UNIT(*)
PLANE_ANGLE_UNIT()
SI_UNIT($,.RADIAN.)
);
#1419=(
NAMED_UNIT(*)
SI_UNIT($,.STERADIAN.)
SOLID_ANGLE_UNIT()
);
#1420=SHAPE_DEFINITION_REPRESENTATION(#1421,#1422);
#1421=PRODUCT_DEFINITION_SHAPE('',$,#1424);
#1422=SHAPE_REPRESENTATION('',(#880),#1414);
#1423=PRODUCT_DEFINITION_CONTEXT('part definition',#1428,'design');
#1424=PRODUCT_DEFINITION('2026-06-29-22-34-53-178',
'redone front plane up',#1425,#1423);
#1425=PRODUCT_DEFINITION_FORMATION('',$,#1430);
#1426=PRODUCT_RELATED_PRODUCT_CATEGORY('redone front plane up',
'redone front plane up',(#1430));
#1427=APPLICATION_PROTOCOL_DEFINITION('international standard',
'automotive_design',2009,#1428);
#1428=APPLICATION_CONTEXT(
'Core Data for Automotive Mechanical Design Process');
#1429=PRODUCT_CONTEXT('part definition',#1428,'mechanical');
#1430=PRODUCT('2026-06-29-22-34-53-178','redone front plane up',$,(#1429));
#1431=PRESENTATION_STYLE_ASSIGNMENT((#1433));
#1432=PRESENTATION_STYLE_ASSIGNMENT((#1434));
#1433=SURFACE_STYLE_USAGE(.BOTH.,#1435);
#1434=SURFACE_STYLE_USAGE(.BOTH.,#1436);
#1435=SURFACE_SIDE_STYLE('',(#1437));
#1436=SURFACE_SIDE_STYLE('',(#1438));
#1437=SURFACE_STYLE_FILL_AREA(#1439);
#1438=SURFACE_STYLE_FILL_AREA(#1440);
#1439=FILL_AREA_STYLE('Steel - Satin',(#1441));
#1440=FILL_AREA_STYLE('Powder Coat (Blue)',(#1442));
#1441=FILL_AREA_STYLE_COLOUR('Steel - Satin',#1443);
#1442=FILL_AREA_STYLE_COLOUR('Powder Coat (Blue)',#1444);
#1443=COLOUR_RGB('Steel - Satin',0.627450980392157,0.627450980392157,0.627450980392157);
#1444=COLOUR_RGB('Powder Coat (Blue)',0.188235294117647,0.231372549019608,
0.588235294117647);
ENDSEC;
END-ISO-10303-21;
