ISO-10303-21;
HEADER;
/* Generated by software containing ST-Developer
 * from STEP Tools, Inc. (www.steptools.com) 
 */

FILE_DESCRIPTION(
/* description */ (''),
/* implementation_level */ '2;1');

FILE_NAME(
/* name */ 'side_wall.step',
/* time_stamp */ '2026-07-18T15:31:38+03:00',
/* author */ (''),
/* organization */ (''),
/* preprocessor_version */ 'ST-DEVELOPER v20.1',
/* originating_system */ 'Autodesk Translation Framework v15.8.0.0',
/* authorisation */ '');

FILE_SCHEMA (('AUTOMOTIVE_DESIGN { 1 0 10303 214 3 1 1 }'));
ENDSEC;

DATA;
#10=MECHANICAL_DESIGN_GEOMETRIC_PRESENTATION_REPRESENTATION('',(#13),#828);
#11=SHAPE_REPRESENTATION_RELATIONSHIP('SRR','None',#835,#12);
#12=ADVANCED_BREP_SHAPE_REPRESENTATION('',(#14),#827);
#13=STYLED_ITEM('',(#845),#14);
#14=MANIFOLD_SOLID_BREP('Body3',#520);
#15=FACE_BOUND('',#71,.T.);
#16=FACE_BOUND('',#72,.T.);
#17=FACE_BOUND('',#74,.T.);
#18=FACE_BOUND('',#75,.T.);
#19=FACE_BOUND('',#76,.T.);
#20=FACE_OUTER_BOUND('',#46,.T.);
#21=FACE_OUTER_BOUND('',#47,.T.);
#22=FACE_OUTER_BOUND('',#48,.T.);
#23=FACE_OUTER_BOUND('',#49,.T.);
#24=FACE_OUTER_BOUND('',#50,.T.);
#25=FACE_OUTER_BOUND('',#51,.T.);
#26=FACE_OUTER_BOUND('',#52,.T.);
#27=FACE_OUTER_BOUND('',#53,.T.);
#28=FACE_OUTER_BOUND('',#54,.T.);
#29=FACE_OUTER_BOUND('',#55,.T.);
#30=FACE_OUTER_BOUND('',#56,.T.);
#31=FACE_OUTER_BOUND('',#57,.T.);
#32=FACE_OUTER_BOUND('',#58,.T.);
#33=FACE_OUTER_BOUND('',#59,.T.);
#34=FACE_OUTER_BOUND('',#60,.T.);
#35=FACE_OUTER_BOUND('',#61,.T.);
#36=FACE_OUTER_BOUND('',#62,.T.);
#37=FACE_OUTER_BOUND('',#63,.T.);
#38=FACE_OUTER_BOUND('',#64,.T.);
#39=FACE_OUTER_BOUND('',#65,.T.);
#40=FACE_OUTER_BOUND('',#66,.T.);
#41=FACE_OUTER_BOUND('',#67,.T.);
#42=FACE_OUTER_BOUND('',#68,.T.);
#43=FACE_OUTER_BOUND('',#69,.T.);
#44=FACE_OUTER_BOUND('',#70,.T.);
#45=FACE_OUTER_BOUND('',#73,.T.);
#46=EDGE_LOOP('',(#330,#331,#332,#333));
#47=EDGE_LOOP('',(#334,#335,#336,#337));
#48=EDGE_LOOP('',(#338,#339,#340,#341));
#49=EDGE_LOOP('',(#342,#343,#344,#345));
#50=EDGE_LOOP('',(#346,#347,#348,#349));
#51=EDGE_LOOP('',(#350,#351,#352,#353));
#52=EDGE_LOOP('',(#354,#355,#356,#357));
#53=EDGE_LOOP('',(#358,#359,#360,#361));
#54=EDGE_LOOP('',(#362,#363,#364,#365));
#55=EDGE_LOOP('',(#366,#367,#368,#369));
#56=EDGE_LOOP('',(#370,#371,#372,#373));
#57=EDGE_LOOP('',(#374,#375,#376,#377));
#58=EDGE_LOOP('',(#378,#379,#380,#381));
#59=EDGE_LOOP('',(#382,#383,#384,#385));
#60=EDGE_LOOP('',(#386,#387,#388,#389));
#61=EDGE_LOOP('',(#390,#391,#392,#393));
#62=EDGE_LOOP('',(#394,#395,#396,#397));
#63=EDGE_LOOP('',(#398,#399,#400,#401));
#64=EDGE_LOOP('',(#402,#403,#404,#405));
#65=EDGE_LOOP('',(#406,#407,#408,#409));
#66=EDGE_LOOP('',(#410,#411,#412,#413));
#67=EDGE_LOOP('',(#414,#415,#416,#417));
#68=EDGE_LOOP('',(#418,#419,#420,#421));
#69=EDGE_LOOP('',(#422,#423,#424,#425));
#70=EDGE_LOOP('',(#426,#427,#428,#429,#430,#431,#432,#433,#434,#435,#436,
#437));
#71=EDGE_LOOP('',(#438,#439,#440));
#72=EDGE_LOOP('',(#441,#442,#443,#444));
#73=EDGE_LOOP('',(#445,#446,#447,#448,#449,#450,#451,#452,#453,#454,#455,
#456));
#74=EDGE_LOOP('',(#457,#458,#459));
#75=EDGE_LOOP('',(#460,#461,#462,#463));
#76=EDGE_LOOP('',(#464,#465,#466,#467));
#77=LINE('',#687,#146);
#78=LINE('',#689,#147);
#79=LINE('',#691,#148);
#80=LINE('',#692,#149);
#81=LINE('',#695,#150);
#82=LINE('',#697,#151);
#83=LINE('',#698,#152);
#84=LINE('',#700,#153);
#85=LINE('',#701,#154);
#86=LINE('',#705,#155);
#87=LINE('',#707,#156);
#88=LINE('',#709,#157);
#89=LINE('',#710,#158);
#90=LINE('',#713,#159);
#91=LINE('',#715,#160);
#92=LINE('',#716,#161);
#93=LINE('',#719,#162);
#94=LINE('',#721,#163);
#95=LINE('',#722,#164);
#96=LINE('',#724,#165);
#97=LINE('',#725,#166);
#98=LINE('',#730,#167);
#99=LINE('',#732,#168);
#100=LINE('',#734,#169);
#101=LINE('',#735,#170);
#102=LINE('',#738,#171);
#103=LINE('',#740,#172);
#104=LINE('',#741,#173);
#105=LINE('',#744,#174);
#106=LINE('',#746,#175);
#107=LINE('',#747,#176);
#108=LINE('',#749,#177);
#109=LINE('',#750,#178);
#110=LINE('',#754,#179);
#111=LINE('',#756,#180);
#112=LINE('',#758,#181);
#113=LINE('',#759,#182);
#114=LINE('',#762,#183);
#115=LINE('',#764,#184);
#116=LINE('',#765,#185);
#117=LINE('',#768,#186);
#118=LINE('',#770,#187);
#119=LINE('',#771,#188);
#120=LINE('',#774,#189);
#121=LINE('',#776,#190);
#122=LINE('',#777,#191);
#123=LINE('',#780,#192);
#124=LINE('',#782,#193);
#125=LINE('',#783,#194);
#126=LINE('',#786,#195);
#127=LINE('',#788,#196);
#128=LINE('',#789,#197);
#129=LINE('',#792,#198);
#130=LINE('',#794,#199);
#131=LINE('',#795,#200);
#132=LINE('',#798,#201);
#133=LINE('',#800,#202);
#134=LINE('',#801,#203);
#135=LINE('',#804,#204);
#136=LINE('',#806,#205);
#137=LINE('',#807,#206);
#138=LINE('',#810,#207);
#139=LINE('',#812,#208);
#140=LINE('',#813,#209);
#141=LINE('',#816,#210);
#142=LINE('',#818,#211);
#143=LINE('',#819,#212);
#144=LINE('',#821,#213);
#145=LINE('',#822,#214);
#146=VECTOR('',#564,10.);
#147=VECTOR('',#565,10.);
#148=VECTOR('',#566,10.);
#149=VECTOR('',#567,10.);
#150=VECTOR('',#570,10.);
#151=VECTOR('',#571,10.);
#152=VECTOR('',#572,10.);
#153=VECTOR('',#575,10.);
#154=VECTOR('',#576,10.);
#155=VECTOR('',#579,10.);
#156=VECTOR('',#580,10.);
#157=VECTOR('',#581,10.);
#158=VECTOR('',#582,10.);
#159=VECTOR('',#585,10.);
#160=VECTOR('',#586,10.);
#161=VECTOR('',#587,10.);
#162=VECTOR('',#590,10.);
#163=VECTOR('',#591,10.);
#164=VECTOR('',#592,10.);
#165=VECTOR('',#595,10.);
#166=VECTOR('',#596,10.);
#167=VECTOR('',#601,10.);
#168=VECTOR('',#602,10.);
#169=VECTOR('',#603,10.);
#170=VECTOR('',#604,10.);
#171=VECTOR('',#607,10.);
#172=VECTOR('',#608,10.);
#173=VECTOR('',#609,10.);
#174=VECTOR('',#612,10.);
#175=VECTOR('',#613,10.);
#176=VECTOR('',#614,10.);
#177=VECTOR('',#617,10.);
#178=VECTOR('',#618,10.);
#179=VECTOR('',#621,10.);
#180=VECTOR('',#622,10.);
#181=VECTOR('',#623,10.);
#182=VECTOR('',#624,10.);
#183=VECTOR('',#627,10.);
#184=VECTOR('',#628,10.);
#185=VECTOR('',#629,10.);
#186=VECTOR('',#632,10.);
#187=VECTOR('',#633,10.);
#188=VECTOR('',#634,10.);
#189=VECTOR('',#637,10.);
#190=VECTOR('',#638,10.);
#191=VECTOR('',#639,10.);
#192=VECTOR('',#642,10.);
#193=VECTOR('',#643,10.);
#194=VECTOR('',#644,10.);
#195=VECTOR('',#647,10.);
#196=VECTOR('',#648,10.);
#197=VECTOR('',#649,10.);
#198=VECTOR('',#652,10.);
#199=VECTOR('',#653,10.);
#200=VECTOR('',#654,10.);
#201=VECTOR('',#657,10.);
#202=VECTOR('',#658,10.);
#203=VECTOR('',#659,10.);
#204=VECTOR('',#662,10.);
#205=VECTOR('',#663,10.);
#206=VECTOR('',#664,10.);
#207=VECTOR('',#667,10.);
#208=VECTOR('',#668,10.);
#209=VECTOR('',#669,10.);
#210=VECTOR('',#672,10.);
#211=VECTOR('',#673,10.);
#212=VECTOR('',#674,10.);
#213=VECTOR('',#677,10.);
#214=VECTOR('',#678,10.);
#215=VERTEX_POINT('',#685);
#216=VERTEX_POINT('',#686);
#217=VERTEX_POINT('',#688);
#218=VERTEX_POINT('',#690);
#219=VERTEX_POINT('',#694);
#220=VERTEX_POINT('',#696);
#221=VERTEX_POINT('',#703);
#222=VERTEX_POINT('',#704);
#223=VERTEX_POINT('',#706);
#224=VERTEX_POINT('',#708);
#225=VERTEX_POINT('',#712);
#226=VERTEX_POINT('',#714);
#227=VERTEX_POINT('',#718);
#228=VERTEX_POINT('',#720);
#229=VERTEX_POINT('',#728);
#230=VERTEX_POINT('',#729);
#231=VERTEX_POINT('',#731);
#232=VERTEX_POINT('',#733);
#233=VERTEX_POINT('',#737);
#234=VERTEX_POINT('',#739);
#235=VERTEX_POINT('',#743);
#236=VERTEX_POINT('',#745);
#237=VERTEX_POINT('',#752);
#238=VERTEX_POINT('',#753);
#239=VERTEX_POINT('',#755);
#240=VERTEX_POINT('',#757);
#241=VERTEX_POINT('',#761);
#242=VERTEX_POINT('',#763);
#243=VERTEX_POINT('',#767);
#244=VERTEX_POINT('',#769);
#245=VERTEX_POINT('',#773);
#246=VERTEX_POINT('',#775);
#247=VERTEX_POINT('',#779);
#248=VERTEX_POINT('',#781);
#249=VERTEX_POINT('',#785);
#250=VERTEX_POINT('',#787);
#251=VERTEX_POINT('',#791);
#252=VERTEX_POINT('',#793);
#253=VERTEX_POINT('',#797);
#254=VERTEX_POINT('',#799);
#255=VERTEX_POINT('',#803);
#256=VERTEX_POINT('',#805);
#257=VERTEX_POINT('',#809);
#258=VERTEX_POINT('',#811);
#259=VERTEX_POINT('',#815);
#260=VERTEX_POINT('',#817);
#261=EDGE_CURVE('',#215,#216,#77,.T.);
#262=EDGE_CURVE('',#217,#215,#78,.T.);
#263=EDGE_CURVE('',#218,#217,#79,.T.);
#264=EDGE_CURVE('',#218,#216,#80,.T.);
#265=EDGE_CURVE('',#216,#219,#81,.T.);
#266=EDGE_CURVE('',#220,#218,#82,.T.);
#267=EDGE_CURVE('',#220,#219,#83,.T.);
#268=EDGE_CURVE('',#219,#215,#84,.T.);
#269=EDGE_CURVE('',#217,#220,#85,.T.);
#270=EDGE_CURVE('',#221,#222,#86,.T.);
#271=EDGE_CURVE('',#221,#223,#87,.T.);
#272=EDGE_CURVE('',#223,#224,#88,.T.);
#273=EDGE_CURVE('',#222,#224,#89,.T.);
#274=EDGE_CURVE('',#225,#221,#90,.T.);
#275=EDGE_CURVE('',#225,#226,#91,.T.);
#276=EDGE_CURVE('',#226,#223,#92,.T.);
#277=EDGE_CURVE('',#227,#225,#93,.T.);
#278=EDGE_CURVE('',#227,#228,#94,.T.);
#279=EDGE_CURVE('',#228,#226,#95,.T.);
#280=EDGE_CURVE('',#222,#227,#96,.T.);
#281=EDGE_CURVE('',#224,#228,#97,.T.);
#282=EDGE_CURVE('',#229,#230,#98,.T.);
#283=EDGE_CURVE('',#231,#229,#99,.T.);
#284=EDGE_CURVE('',#232,#231,#100,.T.);
#285=EDGE_CURVE('',#232,#230,#101,.T.);
#286=EDGE_CURVE('',#230,#233,#102,.T.);
#287=EDGE_CURVE('',#234,#232,#103,.T.);
#288=EDGE_CURVE('',#234,#233,#104,.T.);
#289=EDGE_CURVE('',#233,#235,#105,.T.);
#290=EDGE_CURVE('',#236,#234,#106,.T.);
#291=EDGE_CURVE('',#236,#235,#107,.T.);
#292=EDGE_CURVE('',#235,#229,#108,.T.);
#293=EDGE_CURVE('',#231,#236,#109,.T.);
#294=EDGE_CURVE('',#237,#238,#110,.T.);
#295=EDGE_CURVE('',#237,#239,#111,.T.);
#296=EDGE_CURVE('',#240,#239,#112,.T.);
#297=EDGE_CURVE('',#238,#240,#113,.T.);
#298=EDGE_CURVE('',#238,#241,#114,.T.);
#299=EDGE_CURVE('',#242,#240,#115,.T.);
#300=EDGE_CURVE('',#241,#242,#116,.T.);
#301=EDGE_CURVE('',#241,#243,#117,.T.);
#302=EDGE_CURVE('',#244,#242,#118,.T.);
#303=EDGE_CURVE('',#243,#244,#119,.T.);
#304=EDGE_CURVE('',#243,#245,#120,.T.);
#305=EDGE_CURVE('',#246,#244,#121,.T.);
#306=EDGE_CURVE('',#245,#246,#122,.T.);
#307=EDGE_CURVE('',#247,#245,#123,.T.);
#308=EDGE_CURVE('',#248,#246,#124,.T.);
#309=EDGE_CURVE('',#247,#248,#125,.T.);
#310=EDGE_CURVE('',#249,#247,#126,.T.);
#311=EDGE_CURVE('',#250,#248,#127,.T.);
#312=EDGE_CURVE('',#249,#250,#128,.T.);
#313=EDGE_CURVE('',#251,#249,#129,.T.);
#314=EDGE_CURVE('',#252,#250,#130,.T.);
#315=EDGE_CURVE('',#251,#252,#131,.T.);
#316=EDGE_CURVE('',#253,#251,#132,.T.);
#317=EDGE_CURVE('',#254,#252,#133,.T.);
#318=EDGE_CURVE('',#253,#254,#134,.T.);
#319=EDGE_CURVE('',#255,#253,#135,.T.);
#320=EDGE_CURVE('',#256,#254,#136,.T.);
#321=EDGE_CURVE('',#255,#256,#137,.T.);
#322=EDGE_CURVE('',#257,#255,#138,.T.);
#323=EDGE_CURVE('',#258,#256,#139,.T.);
#324=EDGE_CURVE('',#257,#258,#140,.T.);
#325=EDGE_CURVE('',#259,#257,#141,.T.);
#326=EDGE_CURVE('',#260,#258,#142,.T.);
#327=EDGE_CURVE('',#259,#260,#143,.T.);
#328=EDGE_CURVE('',#237,#259,#144,.T.);
#329=EDGE_CURVE('',#239,#260,#145,.T.);
#330=ORIENTED_EDGE('',*,*,#261,.F.);
#331=ORIENTED_EDGE('',*,*,#262,.F.);
#332=ORIENTED_EDGE('',*,*,#263,.F.);
#333=ORIENTED_EDGE('',*,*,#264,.T.);
#334=ORIENTED_EDGE('',*,*,#265,.F.);
#335=ORIENTED_EDGE('',*,*,#264,.F.);
#336=ORIENTED_EDGE('',*,*,#266,.F.);
#337=ORIENTED_EDGE('',*,*,#267,.T.);
#338=ORIENTED_EDGE('',*,*,#268,.F.);
#339=ORIENTED_EDGE('',*,*,#267,.F.);
#340=ORIENTED_EDGE('',*,*,#269,.F.);
#341=ORIENTED_EDGE('',*,*,#262,.T.);
#342=ORIENTED_EDGE('',*,*,#270,.F.);
#343=ORIENTED_EDGE('',*,*,#271,.T.);
#344=ORIENTED_EDGE('',*,*,#272,.T.);
#345=ORIENTED_EDGE('',*,*,#273,.F.);
#346=ORIENTED_EDGE('',*,*,#274,.F.);
#347=ORIENTED_EDGE('',*,*,#275,.T.);
#348=ORIENTED_EDGE('',*,*,#276,.T.);
#349=ORIENTED_EDGE('',*,*,#271,.F.);
#350=ORIENTED_EDGE('',*,*,#277,.F.);
#351=ORIENTED_EDGE('',*,*,#278,.T.);
#352=ORIENTED_EDGE('',*,*,#279,.T.);
#353=ORIENTED_EDGE('',*,*,#275,.F.);
#354=ORIENTED_EDGE('',*,*,#280,.F.);
#355=ORIENTED_EDGE('',*,*,#273,.T.);
#356=ORIENTED_EDGE('',*,*,#281,.T.);
#357=ORIENTED_EDGE('',*,*,#278,.F.);
#358=ORIENTED_EDGE('',*,*,#281,.F.);
#359=ORIENTED_EDGE('',*,*,#272,.F.);
#360=ORIENTED_EDGE('',*,*,#276,.F.);
#361=ORIENTED_EDGE('',*,*,#279,.F.);
#362=ORIENTED_EDGE('',*,*,#282,.F.);
#363=ORIENTED_EDGE('',*,*,#283,.F.);
#364=ORIENTED_EDGE('',*,*,#284,.F.);
#365=ORIENTED_EDGE('',*,*,#285,.T.);
#366=ORIENTED_EDGE('',*,*,#286,.F.);
#367=ORIENTED_EDGE('',*,*,#285,.F.);
#368=ORIENTED_EDGE('',*,*,#287,.F.);
#369=ORIENTED_EDGE('',*,*,#288,.T.);
#370=ORIENTED_EDGE('',*,*,#289,.F.);
#371=ORIENTED_EDGE('',*,*,#288,.F.);
#372=ORIENTED_EDGE('',*,*,#290,.F.);
#373=ORIENTED_EDGE('',*,*,#291,.T.);
#374=ORIENTED_EDGE('',*,*,#292,.F.);
#375=ORIENTED_EDGE('',*,*,#291,.F.);
#376=ORIENTED_EDGE('',*,*,#293,.F.);
#377=ORIENTED_EDGE('',*,*,#283,.T.);
#378=ORIENTED_EDGE('',*,*,#294,.F.);
#379=ORIENTED_EDGE('',*,*,#295,.T.);
#380=ORIENTED_EDGE('',*,*,#296,.F.);
#381=ORIENTED_EDGE('',*,*,#297,.F.);
#382=ORIENTED_EDGE('',*,*,#298,.F.);
#383=ORIENTED_EDGE('',*,*,#297,.T.);
#384=ORIENTED_EDGE('',*,*,#299,.F.);
#385=ORIENTED_EDGE('',*,*,#300,.F.);
#386=ORIENTED_EDGE('',*,*,#301,.F.);
#387=ORIENTED_EDGE('',*,*,#300,.T.);
#388=ORIENTED_EDGE('',*,*,#302,.F.);
#389=ORIENTED_EDGE('',*,*,#303,.F.);
#390=ORIENTED_EDGE('',*,*,#304,.F.);
#391=ORIENTED_EDGE('',*,*,#303,.T.);
#392=ORIENTED_EDGE('',*,*,#305,.F.);
#393=ORIENTED_EDGE('',*,*,#306,.F.);
#394=ORIENTED_EDGE('',*,*,#307,.T.);
#395=ORIENTED_EDGE('',*,*,#306,.T.);
#396=ORIENTED_EDGE('',*,*,#308,.F.);
#397=ORIENTED_EDGE('',*,*,#309,.F.);
#398=ORIENTED_EDGE('',*,*,#310,.T.);
#399=ORIENTED_EDGE('',*,*,#309,.T.);
#400=ORIENTED_EDGE('',*,*,#311,.F.);
#401=ORIENTED_EDGE('',*,*,#312,.F.);
#402=ORIENTED_EDGE('',*,*,#313,.T.);
#403=ORIENTED_EDGE('',*,*,#312,.T.);
#404=ORIENTED_EDGE('',*,*,#314,.F.);
#405=ORIENTED_EDGE('',*,*,#315,.F.);
#406=ORIENTED_EDGE('',*,*,#316,.T.);
#407=ORIENTED_EDGE('',*,*,#315,.T.);
#408=ORIENTED_EDGE('',*,*,#317,.F.);
#409=ORIENTED_EDGE('',*,*,#318,.F.);
#410=ORIENTED_EDGE('',*,*,#319,.T.);
#411=ORIENTED_EDGE('',*,*,#318,.T.);
#412=ORIENTED_EDGE('',*,*,#320,.F.);
#413=ORIENTED_EDGE('',*,*,#321,.F.);
#414=ORIENTED_EDGE('',*,*,#322,.T.);
#415=ORIENTED_EDGE('',*,*,#321,.T.);
#416=ORIENTED_EDGE('',*,*,#323,.F.);
#417=ORIENTED_EDGE('',*,*,#324,.F.);
#418=ORIENTED_EDGE('',*,*,#325,.T.);
#419=ORIENTED_EDGE('',*,*,#324,.T.);
#420=ORIENTED_EDGE('',*,*,#326,.F.);
#421=ORIENTED_EDGE('',*,*,#327,.F.);
#422=ORIENTED_EDGE('',*,*,#328,.T.);
#423=ORIENTED_EDGE('',*,*,#327,.T.);
#424=ORIENTED_EDGE('',*,*,#329,.F.);
#425=ORIENTED_EDGE('',*,*,#295,.F.);
#426=ORIENTED_EDGE('',*,*,#329,.T.);
#427=ORIENTED_EDGE('',*,*,#326,.T.);
#428=ORIENTED_EDGE('',*,*,#323,.T.);
#429=ORIENTED_EDGE('',*,*,#320,.T.);
#430=ORIENTED_EDGE('',*,*,#317,.T.);
#431=ORIENTED_EDGE('',*,*,#314,.T.);
#432=ORIENTED_EDGE('',*,*,#311,.T.);
#433=ORIENTED_EDGE('',*,*,#308,.T.);
#434=ORIENTED_EDGE('',*,*,#305,.T.);
#435=ORIENTED_EDGE('',*,*,#302,.T.);
#436=ORIENTED_EDGE('',*,*,#299,.T.);
#437=ORIENTED_EDGE('',*,*,#296,.T.);
#438=ORIENTED_EDGE('',*,*,#261,.T.);
#439=ORIENTED_EDGE('',*,*,#265,.T.);
#440=ORIENTED_EDGE('',*,*,#268,.T.);
#441=ORIENTED_EDGE('',*,*,#282,.T.);
#442=ORIENTED_EDGE('',*,*,#286,.T.);
#443=ORIENTED_EDGE('',*,*,#289,.T.);
#444=ORIENTED_EDGE('',*,*,#292,.T.);
#445=ORIENTED_EDGE('',*,*,#328,.F.);
#446=ORIENTED_EDGE('',*,*,#294,.T.);
#447=ORIENTED_EDGE('',*,*,#298,.T.);
#448=ORIENTED_EDGE('',*,*,#301,.T.);
#449=ORIENTED_EDGE('',*,*,#304,.T.);
#450=ORIENTED_EDGE('',*,*,#307,.F.);
#451=ORIENTED_EDGE('',*,*,#310,.F.);
#452=ORIENTED_EDGE('',*,*,#313,.F.);
#453=ORIENTED_EDGE('',*,*,#316,.F.);
#454=ORIENTED_EDGE('',*,*,#319,.F.);
#455=ORIENTED_EDGE('',*,*,#322,.F.);
#456=ORIENTED_EDGE('',*,*,#325,.F.);
#457=ORIENTED_EDGE('',*,*,#263,.T.);
#458=ORIENTED_EDGE('',*,*,#269,.T.);
#459=ORIENTED_EDGE('',*,*,#266,.T.);
#460=ORIENTED_EDGE('',*,*,#270,.T.);
#461=ORIENTED_EDGE('',*,*,#280,.T.);
#462=ORIENTED_EDGE('',*,*,#277,.T.);
#463=ORIENTED_EDGE('',*,*,#274,.T.);
#464=ORIENTED_EDGE('',*,*,#284,.T.);
#465=ORIENTED_EDGE('',*,*,#293,.T.);
#466=ORIENTED_EDGE('',*,*,#290,.T.);
#467=ORIENTED_EDGE('',*,*,#287,.T.);
#468=PLANE('',#534);
#469=PLANE('',#535);
#470=PLANE('',#536);
#471=PLANE('',#537);
#472=PLANE('',#538);
#473=PLANE('',#539);
#474=PLANE('',#540);
#475=PLANE('',#541);
#476=PLANE('',#542);
#477=PLANE('',#543);
#478=PLANE('',#544);
#479=PLANE('',#545);
#480=PLANE('',#546);
#481=PLANE('',#547);
#482=PLANE('',#548);
#483=PLANE('',#549);
#484=PLANE('',#550);
#485=PLANE('',#551);
#486=PLANE('',#552);
#487=PLANE('',#553);
#488=PLANE('',#554);
#489=PLANE('',#555);
#490=PLANE('',#556);
#491=PLANE('',#557);
#492=PLANE('',#558);
#493=PLANE('',#559);
#494=ADVANCED_FACE('',(#20),#468,.F.);
#495=ADVANCED_FACE('',(#21),#469,.F.);
#496=ADVANCED_FACE('',(#22),#470,.F.);
#497=ADVANCED_FACE('',(#23),#471,.F.);
#498=ADVANCED_FACE('',(#24),#472,.F.);
#499=ADVANCED_FACE('',(#25),#473,.F.);
#500=ADVANCED_FACE('',(#26),#474,.F.);
#501=ADVANCED_FACE('',(#27),#475,.F.);
#502=ADVANCED_FACE('',(#28),#476,.F.);
#503=ADVANCED_FACE('',(#29),#477,.F.);
#504=ADVANCED_FACE('',(#30),#478,.F.);
#505=ADVANCED_FACE('',(#31),#479,.F.);
#506=ADVANCED_FACE('',(#32),#480,.T.);
#507=ADVANCED_FACE('',(#33),#481,.T.);
#508=ADVANCED_FACE('',(#34),#482,.T.);
#509=ADVANCED_FACE('',(#35),#483,.T.);
#510=ADVANCED_FACE('',(#36),#484,.T.);
#511=ADVANCED_FACE('',(#37),#485,.T.);
#512=ADVANCED_FACE('',(#38),#486,.T.);
#513=ADVANCED_FACE('',(#39),#487,.T.);
#514=ADVANCED_FACE('',(#40),#488,.T.);
#515=ADVANCED_FACE('',(#41),#489,.T.);
#516=ADVANCED_FACE('',(#42),#490,.T.);
#517=ADVANCED_FACE('',(#43),#491,.T.);
#518=ADVANCED_FACE('',(#44,#15,#16),#492,.T.);
#519=ADVANCED_FACE('',(#45,#17,#18,#19),#493,.F.);
#520=CLOSED_SHELL('',(#494,#495,#496,#497,#498,#499,#500,#501,#502,#503,
#504,#505,#506,#507,#508,#509,#510,#511,#512,#513,#514,#515,#516,#517,#518,
#519));
#521=DERIVED_UNIT_ELEMENT(#523,1.);
#522=DERIVED_UNIT_ELEMENT(#830,-3.);
#523=(
MASS_UNIT()
NAMED_UNIT(*)
SI_UNIT(.KILO.,.GRAM.)
);
#524=DERIVED_UNIT((#521,#522));
#525=MEASURE_REPRESENTATION_ITEM('density measure',
POSITIVE_RATIO_MEASURE(7850.),#524);
#526=PROPERTY_DEFINITION_REPRESENTATION(#531,#528);
#527=PROPERTY_DEFINITION_REPRESENTATION(#532,#529);
#528=REPRESENTATION('material name',(#530),#827);
#529=REPRESENTATION('density',(#525),#827);
#530=DESCRIPTIVE_REPRESENTATION_ITEM('Steel','Steel');
#531=PROPERTY_DEFINITION('material property','material name',#837);
#532=PROPERTY_DEFINITION('material property','density of part',#837);
#533=AXIS2_PLACEMENT_3D('',#683,#560,#561);
#534=AXIS2_PLACEMENT_3D('',#684,#562,#563);
#535=AXIS2_PLACEMENT_3D('',#693,#568,#569);
#536=AXIS2_PLACEMENT_3D('',#699,#573,#574);
#537=AXIS2_PLACEMENT_3D('',#702,#577,#578);
#538=AXIS2_PLACEMENT_3D('',#711,#583,#584);
#539=AXIS2_PLACEMENT_3D('',#717,#588,#589);
#540=AXIS2_PLACEMENT_3D('',#723,#593,#594);
#541=AXIS2_PLACEMENT_3D('',#726,#597,#598);
#542=AXIS2_PLACEMENT_3D('',#727,#599,#600);
#543=AXIS2_PLACEMENT_3D('',#736,#605,#606);
#544=AXIS2_PLACEMENT_3D('',#742,#610,#611);
#545=AXIS2_PLACEMENT_3D('',#748,#615,#616);
#546=AXIS2_PLACEMENT_3D('',#751,#619,#620);
#547=AXIS2_PLACEMENT_3D('',#760,#625,#626);
#548=AXIS2_PLACEMENT_3D('',#766,#630,#631);
#549=AXIS2_PLACEMENT_3D('',#772,#635,#636);
#550=AXIS2_PLACEMENT_3D('',#778,#640,#641);
#551=AXIS2_PLACEMENT_3D('',#784,#645,#646);
#552=AXIS2_PLACEMENT_3D('',#790,#650,#651);
#553=AXIS2_PLACEMENT_3D('',#796,#655,#656);
#554=AXIS2_PLACEMENT_3D('',#802,#660,#661);
#555=AXIS2_PLACEMENT_3D('',#808,#665,#666);
#556=AXIS2_PLACEMENT_3D('',#814,#670,#671);
#557=AXIS2_PLACEMENT_3D('',#820,#675,#676);
#558=AXIS2_PLACEMENT_3D('',#823,#679,#680);
#559=AXIS2_PLACEMENT_3D('',#824,#681,#682);
#560=DIRECTION('axis',(0.,0.,1.));
#561=DIRECTION('refdir',(1.,0.,0.));
#562=DIRECTION('center_axis',(0.,0.,-1.));
#563=DIRECTION('ref_axis',(-1.,0.,0.));
#564=DIRECTION('',(1.,0.,0.));
#565=DIRECTION('',(0.,1.,0.));
#566=DIRECTION('',(-1.,0.,0.));
#567=DIRECTION('',(0.,1.,0.));
#568=DIRECTION('center_axis',(1.,0.,0.));
#569=DIRECTION('ref_axis',(0.,0.,-1.));
#570=DIRECTION('',(0.,0.,1.));
#571=DIRECTION('',(0.,0.,-1.));
#572=DIRECTION('',(0.,1.,0.));
#573=DIRECTION('center_axis',(-0.386547804647183,0.,0.922269372104725));
#574=DIRECTION('ref_axis',(0.922269372104725,0.,0.386547804647183));
#575=DIRECTION('',(-0.922269372104725,0.,-0.386547804647183));
#576=DIRECTION('',(0.922269372104725,0.,0.386547804647183));
#577=DIRECTION('center_axis',(0.,0.,-1.));
#578=DIRECTION('ref_axis',(-1.,0.,0.));
#579=DIRECTION('',(-1.,0.,0.));
#580=DIRECTION('',(0.,1.,0.));
#581=DIRECTION('',(-1.,0.,0.));
#582=DIRECTION('',(0.,1.,0.));
#583=DIRECTION('center_axis',(1.,0.,0.));
#584=DIRECTION('ref_axis',(0.,0.,-1.));
#585=DIRECTION('',(0.,0.,-1.));
#586=DIRECTION('',(0.,1.,0.));
#587=DIRECTION('',(0.,0.,-1.));
#588=DIRECTION('center_axis',(0.,0.,1.));
#589=DIRECTION('ref_axis',(1.,0.,0.));
#590=DIRECTION('',(1.,0.,0.));
#591=DIRECTION('',(0.,1.,0.));
#592=DIRECTION('',(1.,0.,0.));
#593=DIRECTION('center_axis',(-1.,0.,0.));
#594=DIRECTION('ref_axis',(0.,0.,1.));
#595=DIRECTION('',(0.,0.,1.));
#596=DIRECTION('',(0.,0.,1.));
#597=DIRECTION('center_axis',(0.,1.,0.));
#598=DIRECTION('ref_axis',(0.,0.,1.));
#599=DIRECTION('center_axis',(0.404933834233317,0.,-0.914345990253747));
#600=DIRECTION('ref_axis',(-0.914345990253747,0.,-0.404933834233317));
#601=DIRECTION('',(0.914345990253747,0.,0.404933834233317));
#602=DIRECTION('',(0.,1.,0.));
#603=DIRECTION('',(-0.914345990253747,0.,-0.404933834233317));
#604=DIRECTION('',(0.,1.,0.));
#605=DIRECTION('center_axis',(1.,0.,-1.16987413350547E-13));
#606=DIRECTION('ref_axis',(-1.16987413350547E-13,0.,-1.));
#607=DIRECTION('',(1.16987413350547E-13,0.,1.));
#608=DIRECTION('',(-1.16987413350547E-13,0.,-1.));
#609=DIRECTION('',(0.,1.,0.));
#610=DIRECTION('center_axis',(-0.401734032336478,0.,0.915756390784511));
#611=DIRECTION('ref_axis',(0.915756390784511,0.,0.401734032336478));
#612=DIRECTION('',(-0.915756390784511,0.,-0.401734032336478));
#613=DIRECTION('',(0.915756390784511,0.,0.401734032336478));
#614=DIRECTION('',(0.,1.,0.));
#615=DIRECTION('center_axis',(-1.,0.,0.));
#616=DIRECTION('ref_axis',(0.,0.,1.));
#617=DIRECTION('',(0.,0.,-1.));
#618=DIRECTION('',(0.,0.,1.));
#619=DIRECTION('center_axis',(1.,0.,0.));
#620=DIRECTION('ref_axis',(0.,0.,-1.));
#621=DIRECTION('',(0.,0.,1.));
#622=DIRECTION('',(0.,1.,0.));
#623=DIRECTION('',(0.,0.,-1.));
#624=DIRECTION('',(0.,1.,0.));
#625=DIRECTION('center_axis',(0.,0.,-1.));
#626=DIRECTION('ref_axis',(-1.,0.,0.));
#627=DIRECTION('',(1.,0.,0.));
#628=DIRECTION('',(-1.,0.,0.));
#629=DIRECTION('',(0.,1.,0.));
#630=DIRECTION('center_axis',(1.,0.,0.));
#631=DIRECTION('ref_axis',(0.,0.,-1.));
#632=DIRECTION('',(0.,0.,1.));
#633=DIRECTION('',(0.,0.,-1.));
#634=DIRECTION('',(0.,1.,0.));
#635=DIRECTION('center_axis',(-8.88178419700125E-16,0.,-1.));
#636=DIRECTION('ref_axis',(-1.,0.,8.88178419700125E-16));
#637=DIRECTION('',(1.,0.,-8.88178419700125E-16));
#638=DIRECTION('',(-1.,0.,8.88178419700125E-16));
#639=DIRECTION('',(0.,1.,0.));
#640=DIRECTION('center_axis',(1.,0.,0.));
#641=DIRECTION('ref_axis',(0.,0.,-1.));
#642=DIRECTION('',(0.,0.,-1.));
#643=DIRECTION('',(0.,0.,-1.));
#644=DIRECTION('',(0.,1.,0.));
#645=DIRECTION('center_axis',(0.,0.,1.));
#646=DIRECTION('ref_axis',(1.,0.,0.));
#647=DIRECTION('',(1.,0.,0.));
#648=DIRECTION('',(1.,0.,0.));
#649=DIRECTION('',(0.,1.,0.));
#650=DIRECTION('center_axis',(1.,0.,0.));
#651=DIRECTION('ref_axis',(0.,0.,-1.));
#652=DIRECTION('',(0.,0.,-1.));
#653=DIRECTION('',(0.,0.,-1.));
#654=DIRECTION('',(0.,1.,0.));
#655=DIRECTION('center_axis',(0.,0.,1.));
#656=DIRECTION('ref_axis',(1.,0.,0.));
#657=DIRECTION('',(1.,0.,0.));
#658=DIRECTION('',(1.,0.,0.));
#659=DIRECTION('',(0.,1.,0.));
#660=DIRECTION('center_axis',(-1.,0.,-1.34053101111615E-18));
#661=DIRECTION('ref_axis',(-1.34053101111615E-18,0.,1.));
#662=DIRECTION('',(-1.34053101111615E-18,0.,1.));
#663=DIRECTION('',(-1.34053101111615E-18,0.,1.));
#664=DIRECTION('',(0.,1.,0.));
#665=DIRECTION('center_axis',(0.,0.,-1.));
#666=DIRECTION('ref_axis',(-1.,0.,0.));
#667=DIRECTION('',(-1.,0.,0.));
#668=DIRECTION('',(-1.,0.,0.));
#669=DIRECTION('',(0.,1.,0.));
#670=DIRECTION('center_axis',(-1.,0.,0.));
#671=DIRECTION('ref_axis',(0.,0.,1.));
#672=DIRECTION('',(0.,0.,1.));
#673=DIRECTION('',(0.,0.,1.));
#674=DIRECTION('',(0.,1.,0.));
#675=DIRECTION('center_axis',(-1.1686558153949E-17,0.,-1.));
#676=DIRECTION('ref_axis',(-1.,0.,1.1686558153949E-17));
#677=DIRECTION('',(-1.,0.,1.1686558153949E-17));
#678=DIRECTION('',(-1.,0.,1.1686558153949E-17));
#679=DIRECTION('center_axis',(0.,1.,0.));
#680=DIRECTION('ref_axis',(0.,0.,1.));
#681=DIRECTION('center_axis',(0.,1.,0.));
#682=DIRECTION('ref_axis',(1.,0.,0.));
#683=CARTESIAN_POINT('',(0.,0.,0.));
#684=CARTESIAN_POINT('Origin',(179.5,0.,10.5));
#685=CARTESIAN_POINT('',(15.2575177149001,10.,10.5));
#686=CARTESIAN_POINT('',(179.5,10.,10.5));
#687=CARTESIAN_POINT('',(137.25,10.,10.5));
#688=CARTESIAN_POINT('',(15.2575177149001,0.,10.5));
#689=CARTESIAN_POINT('',(15.2575177149001,0.,10.5));
#690=CARTESIAN_POINT('',(179.5,0.,10.5));
#691=CARTESIAN_POINT('',(137.25,0.,10.5));
#692=CARTESIAN_POINT('',(179.5,0.,10.5));
#693=CARTESIAN_POINT('Origin',(179.5,0.,79.3384249519457));
#694=CARTESIAN_POINT('',(179.5,10.,79.3384249519457));
#695=CARTESIAN_POINT('',(179.5,10.,63.4342670003416));
#696=CARTESIAN_POINT('',(179.5,0.,79.3384249519457));
#697=CARTESIAN_POINT('',(179.5,0.,63.4342670003416));
#698=CARTESIAN_POINT('',(179.5,0.,79.3384249519457));
#699=CARTESIAN_POINT('Origin',(15.2575177149002,0.,10.5));
#700=CARTESIAN_POINT('',(55.7718688685073,10.,27.4806500885878));
#701=CARTESIAN_POINT('',(55.7718688685073,0.,27.4806500885878));
#702=CARTESIAN_POINT('Origin',(44.,0.,74.9905351563193));
#703=CARTESIAN_POINT('',(44.,0.,74.9905351563193));
#704=CARTESIAN_POINT('',(3.99999999999998,0.,74.9905351563193));
#705=CARTESIAN_POINT('',(69.5,0.,74.9905351563193));
#706=CARTESIAN_POINT('',(44.,9.,74.9905351563193));
#707=CARTESIAN_POINT('',(44.,0.,74.9905351563193));
#708=CARTESIAN_POINT('',(3.99999999999998,9.,74.9905351563193));
#709=CARTESIAN_POINT('',(44.,9.,74.9905351563193));
#710=CARTESIAN_POINT('',(3.99999999999998,0.,74.9905351563193));
#711=CARTESIAN_POINT('Origin',(44.,0.,94.9905351563193));
#712=CARTESIAN_POINT('',(44.,0.,94.9905351563193));
#713=CARTESIAN_POINT('',(44.,0.,71.2603221025284));
#714=CARTESIAN_POINT('',(44.,9.,94.9905351563193));
#715=CARTESIAN_POINT('',(44.,0.,94.9905351563193));
#716=CARTESIAN_POINT('',(44.,9.,94.9905351563193));
#717=CARTESIAN_POINT('Origin',(3.99999999999998,0.,94.9905351563193));
#718=CARTESIAN_POINT('',(3.99999999999998,0.,94.9905351563193));
#719=CARTESIAN_POINT('',(49.5,0.,94.9905351563193));
#720=CARTESIAN_POINT('',(3.99999999999998,9.,94.9905351563193));
#721=CARTESIAN_POINT('',(3.99999999999998,0.,94.9905351563193));
#722=CARTESIAN_POINT('',(3.99999999999998,9.,94.9905351563193));
#723=CARTESIAN_POINT('Origin',(3.99999999999998,0.,74.9905351563193));
#724=CARTESIAN_POINT('',(3.99999999999999,0.,61.2603221025284));
#725=CARTESIAN_POINT('',(3.99999999999998,9.,74.9905351563193));
#726=CARTESIAN_POINT('Origin',(24.,9.,84.9905351563193));
#727=CARTESIAN_POINT('Origin',(180.129517304789,0.,87.4047426046801));
#728=CARTESIAN_POINT('',(0.917703215055019,10.,8.03771109495001));
#729=CARTESIAN_POINT('',(180.129517304789,10.,87.4047426046801));
#730=CARTESIAN_POINT('',(137.162378036117,10.,68.3760066168164));
#731=CARTESIAN_POINT('',(0.917703215055019,0.,8.03771109495001));
#732=CARTESIAN_POINT('',(0.917703215055019,0.,8.03771109495001));
#733=CARTESIAN_POINT('',(180.129517304789,0.,87.4047426046801));
#734=CARTESIAN_POINT('',(137.162378036117,0.,68.3760066168164));
#735=CARTESIAN_POINT('',(180.129517304789,0.,87.4047426046801));
#736=CARTESIAN_POINT('Origin',(180.12951730479,0.,91.6563103655784));
#737=CARTESIAN_POINT('',(180.12951730479,10.,91.6563103655784));
#738=CARTESIAN_POINT('',(180.129517304787,10.,69.593209707153));
#739=CARTESIAN_POINT('',(180.12951730479,0.,91.6563103655784));
#740=CARTESIAN_POINT('',(180.129517304787,0.,69.593209707153));
#741=CARTESIAN_POINT('',(180.12951730479,0.,91.6563103655784));
#742=CARTESIAN_POINT('Origin',(0.917703215055035,0.,13.03771109495));
#743=CARTESIAN_POINT('',(0.917703215055035,10.,13.03771109495));
#744=CARTESIAN_POINT('',(46.7115826144245,10.,33.1270711175197));
#745=CARTESIAN_POINT('',(0.917703215055035,0.,13.03771109495));
#746=CARTESIAN_POINT('',(46.7115826144245,0.,33.1270711175197));
#747=CARTESIAN_POINT('',(0.917703215055035,0.,13.03771109495));
#748=CARTESIAN_POINT('Origin',(0.917703215055019,0.,8.03771109495001));
#749=CARTESIAN_POINT('',(0.917703215055017,10.,27.7839100718438));
#750=CARTESIAN_POINT('',(0.917703215055017,0.,27.7839100718438));
#751=CARTESIAN_POINT('Origin',(120.,0.,5.03010904873751));
#752=CARTESIAN_POINT('',(120.,0.,0.0301090487375183));
#753=CARTESIAN_POINT('',(120.,0.,5.03010904873751));
#754=CARTESIAN_POINT('',(120.,0.,0.0301090487375183));
#755=CARTESIAN_POINT('',(120.,10.,0.0301090487375183));
#756=CARTESIAN_POINT('',(120.,0.,0.0301090487375183));
#757=CARTESIAN_POINT('',(120.,10.,5.03010904873751));
#758=CARTESIAN_POINT('',(120.,10.,0.0301090487375183));
#759=CARTESIAN_POINT('',(120.,0.,5.03010904873751));
#760=CARTESIAN_POINT('Origin',(185.,0.,5.03010904873751));
#761=CARTESIAN_POINT('',(185.,0.,5.03010904873751));
#762=CARTESIAN_POINT('',(120.,0.,5.03010904873751));
#763=CARTESIAN_POINT('',(185.,10.,5.03010904873751));
#764=CARTESIAN_POINT('',(120.,10.,5.03010904873751));
#765=CARTESIAN_POINT('',(185.,0.,5.03010904873751));
#766=CARTESIAN_POINT('Origin',(185.,0.,25.0301090487375));
#767=CARTESIAN_POINT('',(185.,0.,25.0301090487375));
#768=CARTESIAN_POINT('',(185.,0.,0.03010904873751));
#769=CARTESIAN_POINT('',(185.,10.,25.0301090487375));
#770=CARTESIAN_POINT('',(185.,10.,0.03010904873751));
#771=CARTESIAN_POINT('',(185.,0.,25.0301090487375));
#772=CARTESIAN_POINT('Origin',(190.,0.,25.0301090487375));
#773=CARTESIAN_POINT('',(190.,0.,25.0301090487375));
#774=CARTESIAN_POINT('',(185.,0.,25.0301090487375));
#775=CARTESIAN_POINT('',(190.,10.,25.0301090487375));
#776=CARTESIAN_POINT('',(185.,10.,25.0301090487375));
#777=CARTESIAN_POINT('',(190.,0.,25.0301090487375));
#778=CARTESIAN_POINT('Origin',(190.,0.,70.0301090487375));
#779=CARTESIAN_POINT('',(190.,0.,70.0301090487375));
#780=CARTESIAN_POINT('',(190.,0.,95.0301090487375));
#781=CARTESIAN_POINT('',(190.,10.,70.0301090487375));
#782=CARTESIAN_POINT('',(190.,10.,95.0301090487375));
#783=CARTESIAN_POINT('',(190.,0.,70.0301090487375));
#784=CARTESIAN_POINT('Origin',(185.,0.,70.0301090487375));
#785=CARTESIAN_POINT('',(185.,0.,70.0301090487375));
#786=CARTESIAN_POINT('',(185.,0.,70.0301090487375));
#787=CARTESIAN_POINT('',(185.,10.,70.0301090487375));
#788=CARTESIAN_POINT('',(185.,10.,70.0301090487375));
#789=CARTESIAN_POINT('',(185.,0.,70.0301090487375));
#790=CARTESIAN_POINT('Origin',(185.,0.,95.0301090487375));
#791=CARTESIAN_POINT('',(185.,0.,95.0301090487375));
#792=CARTESIAN_POINT('',(185.,0.,95.0301090487375));
#793=CARTESIAN_POINT('',(185.,10.,95.0301090487375));
#794=CARTESIAN_POINT('',(185.,10.,95.0301090487375));
#795=CARTESIAN_POINT('',(185.,0.,95.0301090487375));
#796=CARTESIAN_POINT('Origin',(-1.78909188400585E-14,0.,95.0301090487375));
#797=CARTESIAN_POINT('',(-1.78909188400585E-14,0.,95.0301090487375));
#798=CARTESIAN_POINT('',(-1.78909188400585E-14,0.,95.0301090487375));
#799=CARTESIAN_POINT('',(-1.77635683940025E-14,10.,95.0301090487375));
#800=CARTESIAN_POINT('',(-1.78909188400585E-14,10.,95.0301090487375));
#801=CARTESIAN_POINT('',(-1.78909188400585E-14,0.,95.0301090487375));
#802=CARTESIAN_POINT('Origin',(-1.77702306869445E-14,0.,4.99999999999999));
#803=CARTESIAN_POINT('',(0.,0.,4.99999999999999));
#804=CARTESIAN_POINT('',(-1.77635683940025E-14,0.,0.0301090487375122));
#805=CARTESIAN_POINT('',(0.,10.,4.99999999999999));
#806=CARTESIAN_POINT('',(-1.77635683940025E-14,10.,0.0301090487375122));
#807=CARTESIAN_POINT('',(0.,0.,4.99999999999999));
#808=CARTESIAN_POINT('Origin',(70.,0.,4.99999999999999));
#809=CARTESIAN_POINT('',(70.,0.,4.99999999999999));
#810=CARTESIAN_POINT('',(70.,0.,4.99999999999999));
#811=CARTESIAN_POINT('',(70.,10.,4.99999999999999));
#812=CARTESIAN_POINT('',(70.,10.,4.99999999999999));
#813=CARTESIAN_POINT('',(70.,0.,4.99999999999999));
#814=CARTESIAN_POINT('Origin',(70.,0.,0.0301090487375114));
#815=CARTESIAN_POINT('',(70.,0.,0.0301090487375114));
#816=CARTESIAN_POINT('',(70.,0.,0.));
#817=CARTESIAN_POINT('',(70.,10.,0.0301090487375114));
#818=CARTESIAN_POINT('',(70.,10.,0.));
#819=CARTESIAN_POINT('',(70.,0.,0.0301090487375114));
#820=CARTESIAN_POINT('Origin',(120.,0.,0.0301090487375108));
#821=CARTESIAN_POINT('',(190.,0.,0.03010904873751));
#822=CARTESIAN_POINT('',(190.,10.,0.03010904873751));
#823=CARTESIAN_POINT('Origin',(95.,10.,47.5301090487375));
#824=CARTESIAN_POINT('Origin',(95.,0.,47.5301090487375));
#825=UNCERTAINTY_MEASURE_WITH_UNIT(LENGTH_MEASURE(0.01),#829,
'DISTANCE_ACCURACY_VALUE',
'Maximum model space distance between geometric entities at asserted c
onnectivities');
#826=UNCERTAINTY_MEASURE_WITH_UNIT(LENGTH_MEASURE(0.01),#829,
'DISTANCE_ACCURACY_VALUE',
'Maximum model space distance between geometric entities at asserted c
onnectivities');
#827=(
GEOMETRIC_REPRESENTATION_CONTEXT(3)
GLOBAL_UNCERTAINTY_ASSIGNED_CONTEXT((#825))
GLOBAL_UNIT_ASSIGNED_CONTEXT((#829,#831,#832))
REPRESENTATION_CONTEXT('','3D')
);
#828=(
GEOMETRIC_REPRESENTATION_CONTEXT(3)
GLOBAL_UNCERTAINTY_ASSIGNED_CONTEXT((#826))
GLOBAL_UNIT_ASSIGNED_CONTEXT((#829,#831,#832))
REPRESENTATION_CONTEXT('','3D')
);
#829=(
LENGTH_UNIT()
NAMED_UNIT(*)
SI_UNIT(.MILLI.,.METRE.)
);
#830=(
LENGTH_UNIT()
NAMED_UNIT(*)
SI_UNIT($,.METRE.)
);
#831=(
NAMED_UNIT(*)
PLANE_ANGLE_UNIT()
SI_UNIT($,.RADIAN.)
);
#832=(
NAMED_UNIT(*)
SI_UNIT($,.STERADIAN.)
SOLID_ANGLE_UNIT()
);
#833=SHAPE_DEFINITION_REPRESENTATION(#834,#835);
#834=PRODUCT_DEFINITION_SHAPE('',$,#837);
#835=SHAPE_REPRESENTATION('',(#533),#827);
#836=PRODUCT_DEFINITION_CONTEXT('part definition',#841,'design');
#837=PRODUCT_DEFINITION('2026-06-29-20-59-02-690','right_plane_belt',#838,
#836);
#838=PRODUCT_DEFINITION_FORMATION('',$,#843);
#839=PRODUCT_RELATED_PRODUCT_CATEGORY('right_plane_belt',
'right_plane_belt',(#843));
#840=APPLICATION_PROTOCOL_DEFINITION('international standard',
'automotive_design',2009,#841);
#841=APPLICATION_CONTEXT(
'Core Data for Automotive Mechanical Design Process');
#842=PRODUCT_CONTEXT('part definition',#841,'mechanical');
#843=PRODUCT('2026-06-29-20-59-02-690','right_plane_belt',$,(#842));
#844=PRESENTATION_STYLE_ASSIGNMENT((#846));
#845=PRESENTATION_STYLE_ASSIGNMENT((#847));
#846=SURFACE_STYLE_USAGE(.BOTH.,#848);
#847=SURFACE_STYLE_USAGE(.BOTH.,#849);
#848=SURFACE_SIDE_STYLE('',(#850));
#849=SURFACE_SIDE_STYLE('',(#851));
#850=SURFACE_STYLE_FILL_AREA(#852);
#851=SURFACE_STYLE_FILL_AREA(#853);
#852=FILL_AREA_STYLE('Steel - Satin',(#854));
#853=FILL_AREA_STYLE('Plastic - Matte (Blue)',(#855));
#854=FILL_AREA_STYLE_COLOUR('Steel - Satin',#856);
#855=FILL_AREA_STYLE_COLOUR('Plastic - Matte (Blue)',#857);
#856=COLOUR_RGB('Steel - Satin',0.627450980392157,0.627450980392157,0.627450980392157);
#857=COLOUR_RGB('Plastic - Matte (Blue)',0.188235294117647,0.231372549019608,
0.588235294117647);
ENDSEC;
END-ISO-10303-21;
