ISO-10303-21;
HEADER;
/* Generated by software containing ST-Developer
 * from STEP Tools, Inc. (www.steptools.com) 
 */

FILE_DESCRIPTION(
/* description */ (''),
/* implementation_level */ '2;1');

FILE_NAME(
/* name */ 'lidar_mount.step',
/* time_stamp */ '2026-07-18T15:18:11+03:00',
/* author */ (''),
/* organization */ (''),
/* preprocessor_version */ 'ST-DEVELOPER v20.1',
/* originating_system */ 'Autodesk Translation Framework v15.8.0.0',
/* authorisation */ '');

FILE_SCHEMA (('AUTOMOTIVE_DESIGN { 1 0 10303 214 3 1 1 }'));
ENDSEC;

DATA;
#10=MECHANICAL_DESIGN_GEOMETRIC_PRESENTATION_REPRESENTATION('',(#13),#1273);
#11=SHAPE_REPRESENTATION_RELATIONSHIP('SRR','None',#1280,#12);
#12=ADVANCED_BREP_SHAPE_REPRESENTATION('',(#14),#1272);
#13=STYLED_ITEM('',(#1290),#14);
#14=MANIFOLD_SOLID_BREP('Body1',#725);
#15=FACE_BOUND('',#103,.T.);
#16=FACE_BOUND('',#104,.T.);
#17=FACE_BOUND('',#105,.T.);
#18=FACE_BOUND('',#106,.T.);
#19=FACE_BOUND('',#107,.T.);
#20=FACE_BOUND('',#110,.T.);
#21=FACE_BOUND('',#111,.T.);
#22=FACE_BOUND('',#112,.T.);
#23=FACE_BOUND('',#113,.T.);
#24=FACE_BOUND('',#114,.T.);
#25=FACE_BOUND('',#115,.T.);
#26=FACE_BOUND('',#116,.T.);
#27=FACE_BOUND('',#132,.T.);
#28=FACE_BOUND('',#134,.T.);
#29=FACE_BOUND('',#136,.T.);
#30=FACE_BOUND('',#138,.T.);
#31=PLANE('',#794);
#32=PLANE('',#796);
#33=PLANE('',#799);
#34=PLANE('',#805);
#35=PLANE('',#812);
#36=PLANE('',#813);
#37=PLANE('',#815);
#38=PLANE('',#816);
#39=PLANE('',#817);
#40=PLANE('',#818);
#41=PLANE('',#819);
#42=PLANE('',#820);
#43=PLANE('',#821);
#44=PLANE('',#822);
#45=PLANE('',#823);
#46=PLANE('',#824);
#47=PLANE('',#825);
#48=PLANE('',#826);
#49=PLANE('',#827);
#50=PLANE('',#828);
#51=FACE_OUTER_BOUND('',#89,.T.);
#52=FACE_OUTER_BOUND('',#90,.T.);
#53=FACE_OUTER_BOUND('',#91,.T.);
#54=FACE_OUTER_BOUND('',#92,.T.);
#55=FACE_OUTER_BOUND('',#93,.T.);
#56=FACE_OUTER_BOUND('',#94,.T.);
#57=FACE_OUTER_BOUND('',#95,.T.);
#58=FACE_OUTER_BOUND('',#96,.T.);
#59=FACE_OUTER_BOUND('',#97,.T.);
#60=FACE_OUTER_BOUND('',#98,.T.);
#61=FACE_OUTER_BOUND('',#99,.T.);
#62=FACE_OUTER_BOUND('',#100,.T.);
#63=FACE_OUTER_BOUND('',#101,.T.);
#64=FACE_OUTER_BOUND('',#102,.T.);
#65=FACE_OUTER_BOUND('',#108,.T.);
#66=FACE_OUTER_BOUND('',#109,.T.);
#67=FACE_OUTER_BOUND('',#117,.T.);
#68=FACE_OUTER_BOUND('',#118,.T.);
#69=FACE_OUTER_BOUND('',#119,.T.);
#70=FACE_OUTER_BOUND('',#120,.T.);
#71=FACE_OUTER_BOUND('',#121,.T.);
#72=FACE_OUTER_BOUND('',#122,.T.);
#73=FACE_OUTER_BOUND('',#123,.T.);
#74=FACE_OUTER_BOUND('',#124,.T.);
#75=FACE_OUTER_BOUND('',#125,.T.);
#76=FACE_OUTER_BOUND('',#126,.T.);
#77=FACE_OUTER_BOUND('',#127,.T.);
#78=FACE_OUTER_BOUND('',#128,.T.);
#79=FACE_OUTER_BOUND('',#129,.T.);
#80=FACE_OUTER_BOUND('',#130,.T.);
#81=FACE_OUTER_BOUND('',#131,.T.);
#82=FACE_OUTER_BOUND('',#133,.T.);
#83=FACE_OUTER_BOUND('',#135,.T.);
#84=FACE_OUTER_BOUND('',#137,.T.);
#85=FACE_OUTER_BOUND('',#139,.T.);
#86=FACE_OUTER_BOUND('',#140,.T.);
#87=FACE_OUTER_BOUND('',#141,.T.);
#88=FACE_OUTER_BOUND('',#142,.T.);
#89=EDGE_LOOP('',(#465,#466,#467,#468,#469,#470,#471,#472,#473,#474,#475,
#476));
#90=EDGE_LOOP('',(#477,#478,#479,#480,#481,#482,#483,#484,#485,#486,#487,
#488));
#91=EDGE_LOOP('',(#489,#490,#491,#492,#493,#494,#495,#496,#497,#498,#499,
#500));
#92=EDGE_LOOP('',(#501,#502,#503,#504,#505,#506,#507,#508,#509,#510,#511,
#512));
#93=EDGE_LOOP('',(#513,#514,#515,#516));
#94=EDGE_LOOP('',(#517,#518,#519,#520));
#95=EDGE_LOOP('',(#521,#522,#523,#524));
#96=EDGE_LOOP('',(#525,#526,#527,#528));
#97=EDGE_LOOP('',(#529,#530,#531,#532));
#98=EDGE_LOOP('',(#533,#534,#535,#536));
#99=EDGE_LOOP('',(#537,#538,#539,#540));
#100=EDGE_LOOP('',(#541,#542,#543,#544));
#101=EDGE_LOOP('',(#545,#546,#547,#548));
#102=EDGE_LOOP('',(#549,#550,#551,#552,#553,#554,#555,#556,#557,#558));
#103=EDGE_LOOP('',(#559));
#104=EDGE_LOOP('',(#560));
#105=EDGE_LOOP('',(#561));
#106=EDGE_LOOP('',(#562));
#107=EDGE_LOOP('',(#563,#564,#565,#566));
#108=EDGE_LOOP('',(#567,#568,#569,#570));
#109=EDGE_LOOP('',(#571,#572,#573,#574,#575,#576,#577,#578,#579,#580));
#110=EDGE_LOOP('',(#581,#582,#583,#584,#585,#586));
#111=EDGE_LOOP('',(#587));
#112=EDGE_LOOP('',(#588));
#113=EDGE_LOOP('',(#589,#590,#591,#592));
#114=EDGE_LOOP('',(#593));
#115=EDGE_LOOP('',(#594));
#116=EDGE_LOOP('',(#595,#596,#597,#598,#599,#600));
#117=EDGE_LOOP('',(#601,#602,#603,#604));
#118=EDGE_LOOP('',(#605,#606,#607,#608));
#119=EDGE_LOOP('',(#609,#610,#611,#612));
#120=EDGE_LOOP('',(#613,#614,#615,#616));
#121=EDGE_LOOP('',(#617,#618,#619,#620));
#122=EDGE_LOOP('',(#621,#622,#623,#624));
#123=EDGE_LOOP('',(#625,#626,#627,#628));
#124=EDGE_LOOP('',(#629,#630,#631,#632));
#125=EDGE_LOOP('',(#633,#634,#635,#636));
#126=EDGE_LOOP('',(#637,#638,#639,#640));
#127=EDGE_LOOP('',(#641,#642,#643,#644));
#128=EDGE_LOOP('',(#645,#646,#647,#648));
#129=EDGE_LOOP('',(#649,#650,#651,#652));
#130=EDGE_LOOP('',(#653,#654,#655,#656));
#131=EDGE_LOOP('',(#657));
#132=EDGE_LOOP('',(#658));
#133=EDGE_LOOP('',(#659));
#134=EDGE_LOOP('',(#660));
#135=EDGE_LOOP('',(#661));
#136=EDGE_LOOP('',(#662));
#137=EDGE_LOOP('',(#663));
#138=EDGE_LOOP('',(#664));
#139=EDGE_LOOP('',(#665));
#140=EDGE_LOOP('',(#666));
#141=EDGE_LOOP('',(#667));
#142=EDGE_LOOP('',(#668));
#143=LINE('',#1066,#193);
#144=LINE('',#1070,#194);
#145=LINE('',#1074,#195);
#146=LINE('',#1078,#196);
#147=LINE('',#1082,#197);
#148=LINE('',#1088,#198);
#149=LINE('',#1092,#199);
#150=LINE('',#1096,#200);
#151=LINE('',#1100,#201);
#152=LINE('',#1104,#202);
#153=LINE('',#1110,#203);
#154=LINE('',#1114,#204);
#155=LINE('',#1118,#205);
#156=LINE('',#1122,#206);
#157=LINE('',#1126,#207);
#158=LINE('',#1132,#208);
#159=LINE('',#1136,#209);
#160=LINE('',#1140,#210);
#161=LINE('',#1144,#211);
#162=LINE('',#1148,#212);
#163=LINE('',#1154,#213);
#164=LINE('',#1160,#214);
#165=LINE('',#1166,#215);
#166=LINE('',#1172,#216);
#167=LINE('',#1181,#217);
#168=LINE('',#1187,#218);
#169=LINE('',#1193,#219);
#170=LINE('',#1199,#220);
#171=LINE('',#1204,#221);
#172=LINE('',#1205,#222);
#173=LINE('',#1207,#223);
#174=LINE('',#1208,#224);
#175=LINE('',#1211,#225);
#176=LINE('',#1213,#226);
#177=LINE('',#1215,#227);
#178=LINE('',#1216,#228);
#179=LINE('',#1226,#229);
#180=LINE('',#1227,#230);
#181=LINE('',#1230,#231);
#182=LINE('',#1232,#232);
#183=LINE('',#1234,#233);
#184=LINE('',#1235,#234);
#185=LINE('',#1237,#235);
#186=LINE('',#1239,#236);
#187=LINE('',#1248,#237);
#188=LINE('',#1252,#238);
#189=LINE('',#1255,#239);
#190=LINE('',#1256,#240);
#191=LINE('',#1258,#241);
#192=LINE('',#1260,#242);
#193=VECTOR('',#835,5.);
#194=VECTOR('',#838,1000.);
#195=VECTOR('',#841,1000.);
#196=VECTOR('',#844,1000.);
#197=VECTOR('',#847,1000.);
#198=VECTOR('',#854,5.);
#199=VECTOR('',#857,1000.);
#200=VECTOR('',#860,1000.);
#201=VECTOR('',#863,1000.);
#202=VECTOR('',#866,1000.);
#203=VECTOR('',#873,5.);
#204=VECTOR('',#876,1000.);
#205=VECTOR('',#879,1000.);
#206=VECTOR('',#882,1000.);
#207=VECTOR('',#885,1000.);
#208=VECTOR('',#892,5.);
#209=VECTOR('',#895,1000.);
#210=VECTOR('',#898,1000.);
#211=VECTOR('',#901,1000.);
#212=VECTOR('',#904,1000.);
#213=VECTOR('',#911,1.5);
#214=VECTOR('',#918,1.5);
#215=VECTOR('',#925,1.5);
#216=VECTOR('',#932,1.5);
#217=VECTOR('',#945,2.59999999999999);
#218=VECTOR('',#952,2.6);
#219=VECTOR('',#959,2.6);
#220=VECTOR('',#966,2.59999999999999);
#221=VECTOR('',#973,1000.);
#222=VECTOR('',#974,1000.);
#223=VECTOR('',#975,1000.);
#224=VECTOR('',#976,1000.);
#225=VECTOR('',#977,1000.);
#226=VECTOR('',#978,1000.);
#227=VECTOR('',#979,1000.);
#228=VECTOR('',#980,1000.);
#229=VECTOR('',#997,1000.);
#230=VECTOR('',#998,1000.);
#231=VECTOR('',#999,1000.);
#232=VECTOR('',#1000,1000.);
#233=VECTOR('',#1001,1000.);
#234=VECTOR('',#1002,1000.);
#235=VECTOR('',#1003,1000.);
#236=VECTOR('',#1006,1000.);
#237=VECTOR('',#1023,1000.);
#238=VECTOR('',#1030,1000.);
#239=VECTOR('',#1035,1000.);
#240=VECTOR('',#1036,1000.);
#241=VECTOR('',#1039,1000.);
#242=VECTOR('',#1042,1000.);
#243=CIRCLE('',#740,5.);
#244=CIRCLE('',#741,5.);
#245=CIRCLE('',#742,5.);
#246=CIRCLE('',#743,5.);
#247=CIRCLE('',#744,5.);
#248=CIRCLE('',#745,5.);
#249=CIRCLE('',#747,5.);
#250=CIRCLE('',#748,5.);
#251=CIRCLE('',#749,5.);
#252=CIRCLE('',#750,5.);
#253=CIRCLE('',#751,5.);
#254=CIRCLE('',#752,5.);
#255=CIRCLE('',#754,5.);
#256=CIRCLE('',#755,5.);
#257=CIRCLE('',#756,5.);
#258=CIRCLE('',#757,5.);
#259=CIRCLE('',#758,5.);
#260=CIRCLE('',#759,5.);
#261=CIRCLE('',#761,5.);
#262=CIRCLE('',#762,5.);
#263=CIRCLE('',#763,5.);
#264=CIRCLE('',#764,5.);
#265=CIRCLE('',#765,5.);
#266=CIRCLE('',#766,5.);
#267=CIRCLE('',#768,1.5);
#268=CIRCLE('',#769,1.5);
#269=CIRCLE('',#771,1.5);
#270=CIRCLE('',#772,1.5);
#271=CIRCLE('',#774,1.5);
#272=CIRCLE('',#775,1.5);
#273=CIRCLE('',#777,1.5);
#274=CIRCLE('',#778,1.5);
#275=CIRCLE('',#780,104.47533632505);
#276=CIRCLE('',#781,104.47533632505);
#277=CIRCLE('',#783,2.59999999999999);
#278=CIRCLE('',#784,2.59999999999999);
#279=CIRCLE('',#786,2.6);
#280=CIRCLE('',#787,2.6);
#281=CIRCLE('',#789,2.6);
#282=CIRCLE('',#790,2.6);
#283=CIRCLE('',#792,2.59999999999999);
#284=CIRCLE('',#793,2.59999999999999);
#285=CIRCLE('',#795,20.1231241484578);
#286=CIRCLE('',#797,75.5173407179141);
#287=CIRCLE('',#798,83.9679726716908);
#288=CIRCLE('',#800,20.1231241484578);
#289=CIRCLE('',#801,83.9679726716908);
#290=CIRCLE('',#802,82.7494788396736);
#291=CIRCLE('',#803,75.5173407179141);
#292=CIRCLE('',#804,98.309581219273);
#293=CIRCLE('',#806,98.309581219273);
#294=CIRCLE('',#807,82.7494788396736);
#295=VERTEX_POINT('',#1063);
#296=VERTEX_POINT('',#1065);
#297=VERTEX_POINT('',#1067);
#298=VERTEX_POINT('',#1069);
#299=VERTEX_POINT('',#1071);
#300=VERTEX_POINT('',#1073);
#301=VERTEX_POINT('',#1075);
#302=VERTEX_POINT('',#1077);
#303=VERTEX_POINT('',#1079);
#304=VERTEX_POINT('',#1081);
#305=VERTEX_POINT('',#1085);
#306=VERTEX_POINT('',#1087);
#307=VERTEX_POINT('',#1089);
#308=VERTEX_POINT('',#1091);
#309=VERTEX_POINT('',#1093);
#310=VERTEX_POINT('',#1095);
#311=VERTEX_POINT('',#1097);
#312=VERTEX_POINT('',#1099);
#313=VERTEX_POINT('',#1101);
#314=VERTEX_POINT('',#1103);
#315=VERTEX_POINT('',#1107);
#316=VERTEX_POINT('',#1109);
#317=VERTEX_POINT('',#1111);
#318=VERTEX_POINT('',#1113);
#319=VERTEX_POINT('',#1115);
#320=VERTEX_POINT('',#1117);
#321=VERTEX_POINT('',#1119);
#322=VERTEX_POINT('',#1121);
#323=VERTEX_POINT('',#1123);
#324=VERTEX_POINT('',#1125);
#325=VERTEX_POINT('',#1129);
#326=VERTEX_POINT('',#1131);
#327=VERTEX_POINT('',#1133);
#328=VERTEX_POINT('',#1135);
#329=VERTEX_POINT('',#1137);
#330=VERTEX_POINT('',#1139);
#331=VERTEX_POINT('',#1141);
#332=VERTEX_POINT('',#1143);
#333=VERTEX_POINT('',#1145);
#334=VERTEX_POINT('',#1147);
#335=VERTEX_POINT('',#1151);
#336=VERTEX_POINT('',#1153);
#337=VERTEX_POINT('',#1157);
#338=VERTEX_POINT('',#1159);
#339=VERTEX_POINT('',#1163);
#340=VERTEX_POINT('',#1165);
#341=VERTEX_POINT('',#1169);
#342=VERTEX_POINT('',#1171);
#343=VERTEX_POINT('',#1178);
#344=VERTEX_POINT('',#1180);
#345=VERTEX_POINT('',#1184);
#346=VERTEX_POINT('',#1186);
#347=VERTEX_POINT('',#1190);
#348=VERTEX_POINT('',#1192);
#349=VERTEX_POINT('',#1196);
#350=VERTEX_POINT('',#1198);
#351=VERTEX_POINT('',#1203);
#352=VERTEX_POINT('',#1206);
#353=VERTEX_POINT('',#1209);
#354=VERTEX_POINT('',#1210);
#355=VERTEX_POINT('',#1212);
#356=VERTEX_POINT('',#1214);
#357=VERTEX_POINT('',#1225);
#358=VERTEX_POINT('',#1228);
#359=VERTEX_POINT('',#1229);
#360=VERTEX_POINT('',#1231);
#361=VERTEX_POINT('',#1233);
#362=VERTEX_POINT('',#1236);
#363=EDGE_CURVE('',#295,#295,#243,.T.);
#364=EDGE_CURVE('',#295,#296,#143,.T.);
#365=EDGE_CURVE('',#296,#297,#244,.T.);
#366=EDGE_CURVE('',#298,#297,#144,.T.);
#367=EDGE_CURVE('',#299,#298,#245,.T.);
#368=EDGE_CURVE('',#299,#300,#145,.T.);
#369=EDGE_CURVE('',#300,#301,#246,.T.);
#370=EDGE_CURVE('',#301,#302,#146,.T.);
#371=EDGE_CURVE('',#303,#302,#247,.T.);
#372=EDGE_CURVE('',#304,#303,#147,.T.);
#373=EDGE_CURVE('',#304,#296,#248,.T.);
#374=EDGE_CURVE('',#305,#305,#249,.T.);
#375=EDGE_CURVE('',#305,#306,#148,.T.);
#376=EDGE_CURVE('',#306,#307,#250,.T.);
#377=EDGE_CURVE('',#307,#308,#149,.T.);
#378=EDGE_CURVE('',#309,#308,#251,.T.);
#379=EDGE_CURVE('',#310,#309,#150,.T.);
#380=EDGE_CURVE('',#310,#311,#252,.T.);
#381=EDGE_CURVE('',#312,#311,#151,.T.);
#382=EDGE_CURVE('',#313,#312,#253,.T.);
#383=EDGE_CURVE('',#313,#314,#152,.T.);
#384=EDGE_CURVE('',#314,#306,#254,.T.);
#385=EDGE_CURVE('',#315,#315,#255,.T.);
#386=EDGE_CURVE('',#315,#316,#153,.T.);
#387=EDGE_CURVE('',#316,#317,#256,.T.);
#388=EDGE_CURVE('',#317,#318,#154,.T.);
#389=EDGE_CURVE('',#319,#318,#257,.T.);
#390=EDGE_CURVE('',#320,#319,#155,.T.);
#391=EDGE_CURVE('',#320,#321,#258,.T.);
#392=EDGE_CURVE('',#322,#321,#156,.T.);
#393=EDGE_CURVE('',#323,#322,#259,.T.);
#394=EDGE_CURVE('',#323,#324,#157,.T.);
#395=EDGE_CURVE('',#324,#316,#260,.T.);
#396=EDGE_CURVE('',#325,#325,#261,.T.);
#397=EDGE_CURVE('',#325,#326,#158,.T.);
#398=EDGE_CURVE('',#326,#327,#262,.T.);
#399=EDGE_CURVE('',#328,#327,#159,.T.);
#400=EDGE_CURVE('',#329,#328,#263,.T.);
#401=EDGE_CURVE('',#329,#330,#160,.T.);
#402=EDGE_CURVE('',#330,#331,#264,.T.);
#403=EDGE_CURVE('',#331,#332,#161,.T.);
#404=EDGE_CURVE('',#333,#332,#265,.T.);
#405=EDGE_CURVE('',#334,#333,#162,.T.);
#406=EDGE_CURVE('',#334,#326,#266,.T.);
#407=EDGE_CURVE('',#335,#335,#267,.T.);
#408=EDGE_CURVE('',#335,#336,#163,.T.);
#409=EDGE_CURVE('',#336,#336,#268,.T.);
#410=EDGE_CURVE('',#337,#337,#269,.T.);
#411=EDGE_CURVE('',#337,#338,#164,.T.);
#412=EDGE_CURVE('',#338,#338,#270,.T.);
#413=EDGE_CURVE('',#339,#339,#271,.T.);
#414=EDGE_CURVE('',#339,#340,#165,.T.);
#415=EDGE_CURVE('',#340,#340,#272,.T.);
#416=EDGE_CURVE('',#341,#341,#273,.T.);
#417=EDGE_CURVE('',#341,#342,#166,.T.);
#418=EDGE_CURVE('',#342,#342,#274,.T.);
#419=EDGE_CURVE('',#320,#311,#275,.T.);
#420=EDGE_CURVE('',#319,#312,#276,.T.);
#421=EDGE_CURVE('',#343,#343,#277,.T.);
#422=EDGE_CURVE('',#343,#344,#167,.T.);
#423=EDGE_CURVE('',#344,#344,#278,.T.);
#424=EDGE_CURVE('',#345,#345,#279,.T.);
#425=EDGE_CURVE('',#345,#346,#168,.T.);
#426=EDGE_CURVE('',#346,#346,#280,.T.);
#427=EDGE_CURVE('',#347,#347,#281,.T.);
#428=EDGE_CURVE('',#347,#348,#169,.T.);
#429=EDGE_CURVE('',#348,#348,#282,.T.);
#430=EDGE_CURVE('',#349,#349,#283,.T.);
#431=EDGE_CURVE('',#349,#350,#170,.T.);
#432=EDGE_CURVE('',#350,#350,#284,.T.);
#433=EDGE_CURVE('',#303,#328,#285,.T.);
#434=EDGE_CURVE('',#302,#351,#171,.T.);
#435=EDGE_CURVE('',#351,#313,#172,.T.);
#436=EDGE_CURVE('',#318,#352,#173,.T.);
#437=EDGE_CURVE('',#352,#329,#174,.T.);
#438=EDGE_CURVE('',#353,#354,#175,.T.);
#439=EDGE_CURVE('',#354,#355,#176,.T.);
#440=EDGE_CURVE('',#355,#356,#177,.T.);
#441=EDGE_CURVE('',#356,#353,#178,.T.);
#442=EDGE_CURVE('',#332,#323,#286,.T.);
#443=EDGE_CURVE('',#333,#322,#287,.T.);
#444=EDGE_CURVE('',#304,#327,#288,.T.);
#445=EDGE_CURVE('',#334,#321,#289,.T.);
#446=EDGE_CURVE('',#310,#297,#290,.T.);
#447=EDGE_CURVE('',#331,#324,#291,.T.);
#448=EDGE_CURVE('',#357,#330,#179,.T.);
#449=EDGE_CURVE('',#317,#357,#180,.T.);
#450=EDGE_CURVE('',#358,#359,#181,.T.);
#451=EDGE_CURVE('',#360,#358,#182,.T.);
#452=EDGE_CURVE('',#361,#360,#183,.T.);
#453=EDGE_CURVE('',#359,#361,#184,.T.);
#454=EDGE_CURVE('',#301,#362,#185,.T.);
#455=EDGE_CURVE('',#307,#300,#292,.T.);
#456=EDGE_CURVE('',#362,#314,#186,.T.);
#457=EDGE_CURVE('',#308,#299,#293,.T.);
#458=EDGE_CURVE('',#309,#298,#294,.T.);
#459=EDGE_CURVE('',#362,#351,#187,.T.);
#460=EDGE_CURVE('',#357,#352,#188,.T.);
#461=EDGE_CURVE('',#360,#353,#189,.T.);
#462=EDGE_CURVE('',#358,#354,#190,.T.);
#463=EDGE_CURVE('',#359,#355,#191,.T.);
#464=EDGE_CURVE('',#361,#356,#192,.T.);
#465=ORIENTED_EDGE('',*,*,#363,.F.);
#466=ORIENTED_EDGE('',*,*,#364,.T.);
#467=ORIENTED_EDGE('',*,*,#365,.T.);
#468=ORIENTED_EDGE('',*,*,#366,.F.);
#469=ORIENTED_EDGE('',*,*,#367,.F.);
#470=ORIENTED_EDGE('',*,*,#368,.T.);
#471=ORIENTED_EDGE('',*,*,#369,.T.);
#472=ORIENTED_EDGE('',*,*,#370,.T.);
#473=ORIENTED_EDGE('',*,*,#371,.F.);
#474=ORIENTED_EDGE('',*,*,#372,.F.);
#475=ORIENTED_EDGE('',*,*,#373,.T.);
#476=ORIENTED_EDGE('',*,*,#364,.F.);
#477=ORIENTED_EDGE('',*,*,#374,.F.);
#478=ORIENTED_EDGE('',*,*,#375,.T.);
#479=ORIENTED_EDGE('',*,*,#376,.T.);
#480=ORIENTED_EDGE('',*,*,#377,.T.);
#481=ORIENTED_EDGE('',*,*,#378,.F.);
#482=ORIENTED_EDGE('',*,*,#379,.F.);
#483=ORIENTED_EDGE('',*,*,#380,.T.);
#484=ORIENTED_EDGE('',*,*,#381,.F.);
#485=ORIENTED_EDGE('',*,*,#382,.F.);
#486=ORIENTED_EDGE('',*,*,#383,.T.);
#487=ORIENTED_EDGE('',*,*,#384,.T.);
#488=ORIENTED_EDGE('',*,*,#375,.F.);
#489=ORIENTED_EDGE('',*,*,#385,.F.);
#490=ORIENTED_EDGE('',*,*,#386,.T.);
#491=ORIENTED_EDGE('',*,*,#387,.T.);
#492=ORIENTED_EDGE('',*,*,#388,.T.);
#493=ORIENTED_EDGE('',*,*,#389,.F.);
#494=ORIENTED_EDGE('',*,*,#390,.F.);
#495=ORIENTED_EDGE('',*,*,#391,.T.);
#496=ORIENTED_EDGE('',*,*,#392,.F.);
#497=ORIENTED_EDGE('',*,*,#393,.F.);
#498=ORIENTED_EDGE('',*,*,#394,.T.);
#499=ORIENTED_EDGE('',*,*,#395,.T.);
#500=ORIENTED_EDGE('',*,*,#386,.F.);
#501=ORIENTED_EDGE('',*,*,#396,.F.);
#502=ORIENTED_EDGE('',*,*,#397,.T.);
#503=ORIENTED_EDGE('',*,*,#398,.T.);
#504=ORIENTED_EDGE('',*,*,#399,.F.);
#505=ORIENTED_EDGE('',*,*,#400,.F.);
#506=ORIENTED_EDGE('',*,*,#401,.T.);
#507=ORIENTED_EDGE('',*,*,#402,.T.);
#508=ORIENTED_EDGE('',*,*,#403,.T.);
#509=ORIENTED_EDGE('',*,*,#404,.F.);
#510=ORIENTED_EDGE('',*,*,#405,.F.);
#511=ORIENTED_EDGE('',*,*,#406,.T.);
#512=ORIENTED_EDGE('',*,*,#397,.F.);
#513=ORIENTED_EDGE('',*,*,#407,.T.);
#514=ORIENTED_EDGE('',*,*,#408,.T.);
#515=ORIENTED_EDGE('',*,*,#409,.F.);
#516=ORIENTED_EDGE('',*,*,#408,.F.);
#517=ORIENTED_EDGE('',*,*,#410,.T.);
#518=ORIENTED_EDGE('',*,*,#411,.T.);
#519=ORIENTED_EDGE('',*,*,#412,.F.);
#520=ORIENTED_EDGE('',*,*,#411,.F.);
#521=ORIENTED_EDGE('',*,*,#413,.T.);
#522=ORIENTED_EDGE('',*,*,#414,.T.);
#523=ORIENTED_EDGE('',*,*,#415,.F.);
#524=ORIENTED_EDGE('',*,*,#414,.F.);
#525=ORIENTED_EDGE('',*,*,#416,.T.);
#526=ORIENTED_EDGE('',*,*,#417,.T.);
#527=ORIENTED_EDGE('',*,*,#418,.F.);
#528=ORIENTED_EDGE('',*,*,#417,.F.);
#529=ORIENTED_EDGE('',*,*,#419,.F.);
#530=ORIENTED_EDGE('',*,*,#390,.T.);
#531=ORIENTED_EDGE('',*,*,#420,.T.);
#532=ORIENTED_EDGE('',*,*,#381,.T.);
#533=ORIENTED_EDGE('',*,*,#421,.T.);
#534=ORIENTED_EDGE('',*,*,#422,.T.);
#535=ORIENTED_EDGE('',*,*,#423,.T.);
#536=ORIENTED_EDGE('',*,*,#422,.F.);
#537=ORIENTED_EDGE('',*,*,#424,.T.);
#538=ORIENTED_EDGE('',*,*,#425,.T.);
#539=ORIENTED_EDGE('',*,*,#426,.T.);
#540=ORIENTED_EDGE('',*,*,#425,.F.);
#541=ORIENTED_EDGE('',*,*,#427,.T.);
#542=ORIENTED_EDGE('',*,*,#428,.T.);
#543=ORIENTED_EDGE('',*,*,#429,.T.);
#544=ORIENTED_EDGE('',*,*,#428,.F.);
#545=ORIENTED_EDGE('',*,*,#430,.T.);
#546=ORIENTED_EDGE('',*,*,#431,.T.);
#547=ORIENTED_EDGE('',*,*,#432,.T.);
#548=ORIENTED_EDGE('',*,*,#431,.F.);
#549=ORIENTED_EDGE('',*,*,#433,.F.);
#550=ORIENTED_EDGE('',*,*,#371,.T.);
#551=ORIENTED_EDGE('',*,*,#434,.T.);
#552=ORIENTED_EDGE('',*,*,#435,.T.);
#553=ORIENTED_EDGE('',*,*,#382,.T.);
#554=ORIENTED_EDGE('',*,*,#420,.F.);
#555=ORIENTED_EDGE('',*,*,#389,.T.);
#556=ORIENTED_EDGE('',*,*,#436,.T.);
#557=ORIENTED_EDGE('',*,*,#437,.T.);
#558=ORIENTED_EDGE('',*,*,#400,.T.);
#559=ORIENTED_EDGE('',*,*,#409,.T.);
#560=ORIENTED_EDGE('',*,*,#412,.T.);
#561=ORIENTED_EDGE('',*,*,#415,.T.);
#562=ORIENTED_EDGE('',*,*,#418,.T.);
#563=ORIENTED_EDGE('',*,*,#438,.T.);
#564=ORIENTED_EDGE('',*,*,#439,.T.);
#565=ORIENTED_EDGE('',*,*,#440,.T.);
#566=ORIENTED_EDGE('',*,*,#441,.T.);
#567=ORIENTED_EDGE('',*,*,#442,.T.);
#568=ORIENTED_EDGE('',*,*,#393,.T.);
#569=ORIENTED_EDGE('',*,*,#443,.F.);
#570=ORIENTED_EDGE('',*,*,#404,.T.);
#571=ORIENTED_EDGE('',*,*,#373,.F.);
#572=ORIENTED_EDGE('',*,*,#444,.T.);
#573=ORIENTED_EDGE('',*,*,#398,.F.);
#574=ORIENTED_EDGE('',*,*,#406,.F.);
#575=ORIENTED_EDGE('',*,*,#445,.T.);
#576=ORIENTED_EDGE('',*,*,#391,.F.);
#577=ORIENTED_EDGE('',*,*,#419,.T.);
#578=ORIENTED_EDGE('',*,*,#380,.F.);
#579=ORIENTED_EDGE('',*,*,#446,.T.);
#580=ORIENTED_EDGE('',*,*,#365,.F.);
#581=ORIENTED_EDGE('',*,*,#395,.F.);
#582=ORIENTED_EDGE('',*,*,#447,.F.);
#583=ORIENTED_EDGE('',*,*,#402,.F.);
#584=ORIENTED_EDGE('',*,*,#448,.F.);
#585=ORIENTED_EDGE('',*,*,#449,.F.);
#586=ORIENTED_EDGE('',*,*,#387,.F.);
#587=ORIENTED_EDGE('',*,*,#410,.F.);
#588=ORIENTED_EDGE('',*,*,#416,.F.);
#589=ORIENTED_EDGE('',*,*,#450,.F.);
#590=ORIENTED_EDGE('',*,*,#451,.F.);
#591=ORIENTED_EDGE('',*,*,#452,.F.);
#592=ORIENTED_EDGE('',*,*,#453,.F.);
#593=ORIENTED_EDGE('',*,*,#413,.F.);
#594=ORIENTED_EDGE('',*,*,#407,.F.);
#595=ORIENTED_EDGE('',*,*,#454,.F.);
#596=ORIENTED_EDGE('',*,*,#369,.F.);
#597=ORIENTED_EDGE('',*,*,#455,.F.);
#598=ORIENTED_EDGE('',*,*,#376,.F.);
#599=ORIENTED_EDGE('',*,*,#384,.F.);
#600=ORIENTED_EDGE('',*,*,#456,.F.);
#601=ORIENTED_EDGE('',*,*,#457,.T.);
#602=ORIENTED_EDGE('',*,*,#367,.T.);
#603=ORIENTED_EDGE('',*,*,#458,.F.);
#604=ORIENTED_EDGE('',*,*,#378,.T.);
#605=ORIENTED_EDGE('',*,*,#458,.T.);
#606=ORIENTED_EDGE('',*,*,#366,.T.);
#607=ORIENTED_EDGE('',*,*,#446,.F.);
#608=ORIENTED_EDGE('',*,*,#379,.T.);
#609=ORIENTED_EDGE('',*,*,#444,.F.);
#610=ORIENTED_EDGE('',*,*,#372,.T.);
#611=ORIENTED_EDGE('',*,*,#433,.T.);
#612=ORIENTED_EDGE('',*,*,#399,.T.);
#613=ORIENTED_EDGE('',*,*,#443,.T.);
#614=ORIENTED_EDGE('',*,*,#392,.T.);
#615=ORIENTED_EDGE('',*,*,#445,.F.);
#616=ORIENTED_EDGE('',*,*,#405,.T.);
#617=ORIENTED_EDGE('',*,*,#368,.F.);
#618=ORIENTED_EDGE('',*,*,#457,.F.);
#619=ORIENTED_EDGE('',*,*,#377,.F.);
#620=ORIENTED_EDGE('',*,*,#455,.T.);
#621=ORIENTED_EDGE('',*,*,#370,.F.);
#622=ORIENTED_EDGE('',*,*,#454,.T.);
#623=ORIENTED_EDGE('',*,*,#459,.T.);
#624=ORIENTED_EDGE('',*,*,#434,.F.);
#625=ORIENTED_EDGE('',*,*,#383,.F.);
#626=ORIENTED_EDGE('',*,*,#435,.F.);
#627=ORIENTED_EDGE('',*,*,#459,.F.);
#628=ORIENTED_EDGE('',*,*,#456,.T.);
#629=ORIENTED_EDGE('',*,*,#394,.F.);
#630=ORIENTED_EDGE('',*,*,#442,.F.);
#631=ORIENTED_EDGE('',*,*,#403,.F.);
#632=ORIENTED_EDGE('',*,*,#447,.T.);
#633=ORIENTED_EDGE('',*,*,#388,.F.);
#634=ORIENTED_EDGE('',*,*,#449,.T.);
#635=ORIENTED_EDGE('',*,*,#460,.T.);
#636=ORIENTED_EDGE('',*,*,#436,.F.);
#637=ORIENTED_EDGE('',*,*,#401,.F.);
#638=ORIENTED_EDGE('',*,*,#437,.F.);
#639=ORIENTED_EDGE('',*,*,#460,.F.);
#640=ORIENTED_EDGE('',*,*,#448,.T.);
#641=ORIENTED_EDGE('',*,*,#438,.F.);
#642=ORIENTED_EDGE('',*,*,#461,.F.);
#643=ORIENTED_EDGE('',*,*,#451,.T.);
#644=ORIENTED_EDGE('',*,*,#462,.T.);
#645=ORIENTED_EDGE('',*,*,#439,.F.);
#646=ORIENTED_EDGE('',*,*,#462,.F.);
#647=ORIENTED_EDGE('',*,*,#450,.T.);
#648=ORIENTED_EDGE('',*,*,#463,.T.);
#649=ORIENTED_EDGE('',*,*,#440,.F.);
#650=ORIENTED_EDGE('',*,*,#463,.F.);
#651=ORIENTED_EDGE('',*,*,#453,.T.);
#652=ORIENTED_EDGE('',*,*,#464,.T.);
#653=ORIENTED_EDGE('',*,*,#441,.F.);
#654=ORIENTED_EDGE('',*,*,#464,.F.);
#655=ORIENTED_EDGE('',*,*,#452,.T.);
#656=ORIENTED_EDGE('',*,*,#461,.T.);
#657=ORIENTED_EDGE('',*,*,#396,.T.);
#658=ORIENTED_EDGE('',*,*,#426,.F.);
#659=ORIENTED_EDGE('',*,*,#385,.T.);
#660=ORIENTED_EDGE('',*,*,#423,.F.);
#661=ORIENTED_EDGE('',*,*,#374,.T.);
#662=ORIENTED_EDGE('',*,*,#432,.F.);
#663=ORIENTED_EDGE('',*,*,#363,.T.);
#664=ORIENTED_EDGE('',*,*,#429,.F.);
#665=ORIENTED_EDGE('',*,*,#421,.F.);
#666=ORIENTED_EDGE('',*,*,#424,.F.);
#667=ORIENTED_EDGE('',*,*,#427,.F.);
#668=ORIENTED_EDGE('',*,*,#430,.F.);
#669=CYLINDRICAL_SURFACE('',#739,5.);
#670=CYLINDRICAL_SURFACE('',#746,5.);
#671=CYLINDRICAL_SURFACE('',#753,5.);
#672=CYLINDRICAL_SURFACE('',#760,5.);
#673=CYLINDRICAL_SURFACE('',#767,1.5);
#674=CYLINDRICAL_SURFACE('',#770,1.5);
#675=CYLINDRICAL_SURFACE('',#773,1.5);
#676=CYLINDRICAL_SURFACE('',#776,1.5);
#677=CYLINDRICAL_SURFACE('',#779,104.47533632505);
#678=CYLINDRICAL_SURFACE('',#782,2.59999999999999);
#679=CYLINDRICAL_SURFACE('',#785,2.6);
#680=CYLINDRICAL_SURFACE('',#788,2.6);
#681=CYLINDRICAL_SURFACE('',#791,2.59999999999999);
#682=CYLINDRICAL_SURFACE('',#808,82.7494788396736);
#683=CYLINDRICAL_SURFACE('',#809,20.1231241484578);
#684=CYLINDRICAL_SURFACE('',#810,83.9679726716908);
#685=CYLINDRICAL_SURFACE('',#811,98.309581219273);
#686=CYLINDRICAL_SURFACE('',#814,75.5173407179141);
#687=ADVANCED_FACE('',(#51),#669,.T.);
#688=ADVANCED_FACE('',(#52),#670,.T.);
#689=ADVANCED_FACE('',(#53),#671,.T.);
#690=ADVANCED_FACE('',(#54),#672,.T.);
#691=ADVANCED_FACE('',(#55),#673,.F.);
#692=ADVANCED_FACE('',(#56),#674,.F.);
#693=ADVANCED_FACE('',(#57),#675,.F.);
#694=ADVANCED_FACE('',(#58),#676,.F.);
#695=ADVANCED_FACE('',(#59),#677,.T.);
#696=ADVANCED_FACE('',(#60),#678,.F.);
#697=ADVANCED_FACE('',(#61),#679,.F.);
#698=ADVANCED_FACE('',(#62),#680,.F.);
#699=ADVANCED_FACE('',(#63),#681,.F.);
#700=ADVANCED_FACE('',(#64,#15,#16,#17,#18,#19),#31,.F.);
#701=ADVANCED_FACE('',(#65),#32,.F.);
#702=ADVANCED_FACE('',(#66,#20,#21,#22,#23,#24,#25,#26),#33,.T.);
#703=ADVANCED_FACE('',(#67),#34,.F.);
#704=ADVANCED_FACE('',(#68),#682,.T.);
#705=ADVANCED_FACE('',(#69),#683,.T.);
#706=ADVANCED_FACE('',(#70),#684,.T.);
#707=ADVANCED_FACE('',(#71),#685,.F.);
#708=ADVANCED_FACE('',(#72),#35,.T.);
#709=ADVANCED_FACE('',(#73),#36,.T.);
#710=ADVANCED_FACE('',(#74),#686,.F.);
#711=ADVANCED_FACE('',(#75),#37,.T.);
#712=ADVANCED_FACE('',(#76),#38,.T.);
#713=ADVANCED_FACE('',(#77),#39,.T.);
#714=ADVANCED_FACE('',(#78),#40,.T.);
#715=ADVANCED_FACE('',(#79),#41,.T.);
#716=ADVANCED_FACE('',(#80),#42,.T.);
#717=ADVANCED_FACE('',(#81,#27),#43,.T.);
#718=ADVANCED_FACE('',(#82,#28),#44,.T.);
#719=ADVANCED_FACE('',(#83,#29),#45,.T.);
#720=ADVANCED_FACE('',(#84,#30),#46,.T.);
#721=ADVANCED_FACE('',(#85),#47,.F.);
#722=ADVANCED_FACE('',(#86),#48,.F.);
#723=ADVANCED_FACE('',(#87),#49,.F.);
#724=ADVANCED_FACE('',(#88),#50,.F.);
#725=CLOSED_SHELL('',(#687,#688,#689,#690,#691,#692,#693,#694,#695,#696,
#697,#698,#699,#700,#701,#702,#703,#704,#705,#706,#707,#708,#709,#710,#711,
#712,#713,#714,#715,#716,#717,#718,#719,#720,#721,#722,#723,#724));
#726=DERIVED_UNIT_ELEMENT(#728,1.);
#727=DERIVED_UNIT_ELEMENT(#1275,-3.);
#728=(
MASS_UNIT()
NAMED_UNIT(*)
SI_UNIT(.KILO.,.GRAM.)
);
#729=DERIVED_UNIT((#726,#727));
#730=MEASURE_REPRESENTATION_ITEM('density measure',
POSITIVE_RATIO_MEASURE(7850.),#729);
#731=PROPERTY_DEFINITION_REPRESENTATION(#736,#733);
#732=PROPERTY_DEFINITION_REPRESENTATION(#737,#734);
#733=REPRESENTATION('material name',(#735),#1272);
#734=REPRESENTATION('density',(#730),#1272);
#735=DESCRIPTIVE_REPRESENTATION_ITEM('Steel','Steel');
#736=PROPERTY_DEFINITION('material property','material name',#1282);
#737=PROPERTY_DEFINITION('material property','density of part',#1282);
#738=AXIS2_PLACEMENT_3D('',#1061,#829,#830);
#739=AXIS2_PLACEMENT_3D('',#1062,#831,#832);
#740=AXIS2_PLACEMENT_3D('',#1064,#833,#834);
#741=AXIS2_PLACEMENT_3D('',#1068,#836,#837);
#742=AXIS2_PLACEMENT_3D('',#1072,#839,#840);
#743=AXIS2_PLACEMENT_3D('',#1076,#842,#843);
#744=AXIS2_PLACEMENT_3D('',#1080,#845,#846);
#745=AXIS2_PLACEMENT_3D('',#1083,#848,#849);
#746=AXIS2_PLACEMENT_3D('',#1084,#850,#851);
#747=AXIS2_PLACEMENT_3D('',#1086,#852,#853);
#748=AXIS2_PLACEMENT_3D('',#1090,#855,#856);
#749=AXIS2_PLACEMENT_3D('',#1094,#858,#859);
#750=AXIS2_PLACEMENT_3D('',#1098,#861,#862);
#751=AXIS2_PLACEMENT_3D('',#1102,#864,#865);
#752=AXIS2_PLACEMENT_3D('',#1105,#867,#868);
#753=AXIS2_PLACEMENT_3D('',#1106,#869,#870);
#754=AXIS2_PLACEMENT_3D('',#1108,#871,#872);
#755=AXIS2_PLACEMENT_3D('',#1112,#874,#875);
#756=AXIS2_PLACEMENT_3D('',#1116,#877,#878);
#757=AXIS2_PLACEMENT_3D('',#1120,#880,#881);
#758=AXIS2_PLACEMENT_3D('',#1124,#883,#884);
#759=AXIS2_PLACEMENT_3D('',#1127,#886,#887);
#760=AXIS2_PLACEMENT_3D('',#1128,#888,#889);
#761=AXIS2_PLACEMENT_3D('',#1130,#890,#891);
#762=AXIS2_PLACEMENT_3D('',#1134,#893,#894);
#763=AXIS2_PLACEMENT_3D('',#1138,#896,#897);
#764=AXIS2_PLACEMENT_3D('',#1142,#899,#900);
#765=AXIS2_PLACEMENT_3D('',#1146,#902,#903);
#766=AXIS2_PLACEMENT_3D('',#1149,#905,#906);
#767=AXIS2_PLACEMENT_3D('',#1150,#907,#908);
#768=AXIS2_PLACEMENT_3D('',#1152,#909,#910);
#769=AXIS2_PLACEMENT_3D('',#1155,#912,#913);
#770=AXIS2_PLACEMENT_3D('',#1156,#914,#915);
#771=AXIS2_PLACEMENT_3D('',#1158,#916,#917);
#772=AXIS2_PLACEMENT_3D('',#1161,#919,#920);
#773=AXIS2_PLACEMENT_3D('',#1162,#921,#922);
#774=AXIS2_PLACEMENT_3D('',#1164,#923,#924);
#775=AXIS2_PLACEMENT_3D('',#1167,#926,#927);
#776=AXIS2_PLACEMENT_3D('',#1168,#928,#929);
#777=AXIS2_PLACEMENT_3D('',#1170,#930,#931);
#778=AXIS2_PLACEMENT_3D('',#1173,#933,#934);
#779=AXIS2_PLACEMENT_3D('',#1174,#935,#936);
#780=AXIS2_PLACEMENT_3D('',#1175,#937,#938);
#781=AXIS2_PLACEMENT_3D('',#1176,#939,#940);
#782=AXIS2_PLACEMENT_3D('',#1177,#941,#942);
#783=AXIS2_PLACEMENT_3D('',#1179,#943,#944);
#784=AXIS2_PLACEMENT_3D('',#1182,#946,#947);
#785=AXIS2_PLACEMENT_3D('',#1183,#948,#949);
#786=AXIS2_PLACEMENT_3D('',#1185,#950,#951);
#787=AXIS2_PLACEMENT_3D('',#1188,#953,#954);
#788=AXIS2_PLACEMENT_3D('',#1189,#955,#956);
#789=AXIS2_PLACEMENT_3D('',#1191,#957,#958);
#790=AXIS2_PLACEMENT_3D('',#1194,#960,#961);
#791=AXIS2_PLACEMENT_3D('',#1195,#962,#963);
#792=AXIS2_PLACEMENT_3D('',#1197,#964,#965);
#793=AXIS2_PLACEMENT_3D('',#1200,#967,#968);
#794=AXIS2_PLACEMENT_3D('',#1201,#969,#970);
#795=AXIS2_PLACEMENT_3D('',#1202,#971,#972);
#796=AXIS2_PLACEMENT_3D('',#1217,#981,#982);
#797=AXIS2_PLACEMENT_3D('',#1218,#983,#984);
#798=AXIS2_PLACEMENT_3D('',#1219,#985,#986);
#799=AXIS2_PLACEMENT_3D('',#1220,#987,#988);
#800=AXIS2_PLACEMENT_3D('',#1221,#989,#990);
#801=AXIS2_PLACEMENT_3D('',#1222,#991,#992);
#802=AXIS2_PLACEMENT_3D('',#1223,#993,#994);
#803=AXIS2_PLACEMENT_3D('',#1224,#995,#996);
#804=AXIS2_PLACEMENT_3D('',#1238,#1004,#1005);
#805=AXIS2_PLACEMENT_3D('',#1240,#1007,#1008);
#806=AXIS2_PLACEMENT_3D('',#1241,#1009,#1010);
#807=AXIS2_PLACEMENT_3D('',#1242,#1011,#1012);
#808=AXIS2_PLACEMENT_3D('',#1243,#1013,#1014);
#809=AXIS2_PLACEMENT_3D('',#1244,#1015,#1016);
#810=AXIS2_PLACEMENT_3D('',#1245,#1017,#1018);
#811=AXIS2_PLACEMENT_3D('',#1246,#1019,#1020);
#812=AXIS2_PLACEMENT_3D('',#1247,#1021,#1022);
#813=AXIS2_PLACEMENT_3D('',#1249,#1024,#1025);
#814=AXIS2_PLACEMENT_3D('',#1250,#1026,#1027);
#815=AXIS2_PLACEMENT_3D('',#1251,#1028,#1029);
#816=AXIS2_PLACEMENT_3D('',#1253,#1031,#1032);
#817=AXIS2_PLACEMENT_3D('',#1254,#1033,#1034);
#818=AXIS2_PLACEMENT_3D('',#1257,#1037,#1038);
#819=AXIS2_PLACEMENT_3D('',#1259,#1040,#1041);
#820=AXIS2_PLACEMENT_3D('',#1261,#1043,#1044);
#821=AXIS2_PLACEMENT_3D('',#1262,#1045,#1046);
#822=AXIS2_PLACEMENT_3D('',#1263,#1047,#1048);
#823=AXIS2_PLACEMENT_3D('',#1264,#1049,#1050);
#824=AXIS2_PLACEMENT_3D('',#1265,#1051,#1052);
#825=AXIS2_PLACEMENT_3D('',#1266,#1053,#1054);
#826=AXIS2_PLACEMENT_3D('',#1267,#1055,#1056);
#827=AXIS2_PLACEMENT_3D('',#1268,#1057,#1058);
#828=AXIS2_PLACEMENT_3D('',#1269,#1059,#1060);
#829=DIRECTION('axis',(0.,0.,1.));
#830=DIRECTION('refdir',(1.,0.,0.));
#831=DIRECTION('center_axis',(0.,1.22464679914735E-16,1.));
#832=DIRECTION('ref_axis',(-1.,0.,0.));
#833=DIRECTION('center_axis',(0.,1.22464679914735E-16,1.));
#834=DIRECTION('ref_axis',(-1.,0.,0.));
#835=DIRECTION('',(0.,-1.22464679914735E-16,-1.));
#836=DIRECTION('center_axis',(0.,1.22464679914735E-16,1.));
#837=DIRECTION('ref_axis',(1.,1.76941794549634E-14,-2.16691202330598E-30));
#838=DIRECTION('',(0.,-1.22464679914735E-16,-1.));
#839=DIRECTION('center_axis',(0.,-1.22464679914735E-16,-1.));
#840=DIRECTION('ref_axis',(1.,0.,0.));
#841=DIRECTION('',(0.,-1.22464679914735E-16,-1.));
#842=DIRECTION('center_axis',(0.,1.22464679914735E-16,1.));
#843=DIRECTION('ref_axis',(1.,-1.07552855510562E-14,1.31714260240168E-30));
#844=DIRECTION('',(0.,1.22464679914735E-16,1.));
#845=DIRECTION('center_axis',(0.,-1.22464679914735E-16,-1.));
#846=DIRECTION('ref_axis',(1.,0.,0.));
#847=DIRECTION('',(0.,1.22464679914735E-16,1.));
#848=DIRECTION('center_axis',(0.,1.22464679914735E-16,1.));
#849=DIRECTION('ref_axis',(1.,1.76941794549634E-14,-2.16691202330598E-30));
#850=DIRECTION('center_axis',(0.,1.22464679914735E-16,1.));
#851=DIRECTION('ref_axis',(-1.,0.,0.));
#852=DIRECTION('center_axis',(0.,1.22464679914735E-16,1.));
#853=DIRECTION('ref_axis',(-1.,0.,0.));
#854=DIRECTION('',(0.,-1.22464679914735E-16,-1.));
#855=DIRECTION('center_axis',(0.,1.22464679914735E-16,1.));
#856=DIRECTION('ref_axis',(1.,2.77555756156289E-15,-3.39907768361722E-31));
#857=DIRECTION('',(0.,1.22464679914735E-16,1.));
#858=DIRECTION('center_axis',(0.,-1.22464679914735E-16,-1.));
#859=DIRECTION('ref_axis',(1.,0.,0.));
#860=DIRECTION('',(0.,1.22464679914735E-16,1.));
#861=DIRECTION('center_axis',(0.,1.22464679914735E-16,1.));
#862=DIRECTION('ref_axis',(1.,0.,0.));
#863=DIRECTION('',(0.,-1.22464679914735E-16,-1.));
#864=DIRECTION('center_axis',(0.,-1.22464679914735E-16,-1.));
#865=DIRECTION('ref_axis',(1.,0.,0.));
#866=DIRECTION('',(0.,-1.22464679914735E-16,-1.));
#867=DIRECTION('center_axis',(0.,1.22464679914735E-16,1.));
#868=DIRECTION('ref_axis',(1.,2.77555756156289E-15,-3.39907768361722E-31));
#869=DIRECTION('center_axis',(0.,1.22464679914735E-16,1.));
#870=DIRECTION('ref_axis',(-1.,0.,0.));
#871=DIRECTION('center_axis',(0.,1.22464679914735E-16,1.));
#872=DIRECTION('ref_axis',(-1.,0.,0.));
#873=DIRECTION('',(0.,-1.22464679914735E-16,-1.));
#874=DIRECTION('center_axis',(0.,1.22464679914735E-16,1.));
#875=DIRECTION('ref_axis',(1.,-2.91433543964103E-14,3.56903156779809E-30));
#876=DIRECTION('',(0.,1.22464679914735E-16,1.));
#877=DIRECTION('center_axis',(0.,-1.22464679914735E-16,-1.));
#878=DIRECTION('ref_axis',(1.,0.,0.));
#879=DIRECTION('',(0.,1.22464679914735E-16,1.));
#880=DIRECTION('center_axis',(0.,1.22464679914735E-16,1.));
#881=DIRECTION('ref_axis',(1.,0.,0.));
#882=DIRECTION('',(0.,-1.22464679914735E-16,-1.));
#883=DIRECTION('center_axis',(0.,-1.22464679914735E-16,-1.));
#884=DIRECTION('ref_axis',(1.,0.,0.));
#885=DIRECTION('',(0.,-1.22464679914735E-16,-1.));
#886=DIRECTION('center_axis',(0.,1.22464679914735E-16,1.));
#887=DIRECTION('ref_axis',(1.,-2.91433543964103E-14,3.56903156779809E-30));
#888=DIRECTION('center_axis',(0.,1.22464679914735E-16,1.));
#889=DIRECTION('ref_axis',(-1.,0.,0.));
#890=DIRECTION('center_axis',(0.,1.22464679914735E-16,1.));
#891=DIRECTION('ref_axis',(-1.,0.,0.));
#892=DIRECTION('',(0.,-1.22464679914735E-16,-1.));
#893=DIRECTION('center_axis',(0.,1.22464679914735E-16,1.));
#894=DIRECTION('ref_axis',(1.,-6.93889390390723E-16,8.49769420904307E-32));
#895=DIRECTION('',(0.,-1.22464679914735E-16,-1.));
#896=DIRECTION('center_axis',(0.,-1.22464679914735E-16,-1.));
#897=DIRECTION('ref_axis',(1.,0.,0.));
#898=DIRECTION('',(0.,-1.22464679914735E-16,-1.));
#899=DIRECTION('center_axis',(0.,1.22464679914735E-16,1.));
#900=DIRECTION('ref_axis',(1.,0.,0.));
#901=DIRECTION('',(0.,1.22464679914735E-16,1.));
#902=DIRECTION('center_axis',(0.,-1.22464679914735E-16,-1.));
#903=DIRECTION('ref_axis',(1.,0.,0.));
#904=DIRECTION('',(0.,1.22464679914735E-16,1.));
#905=DIRECTION('center_axis',(0.,1.22464679914735E-16,1.));
#906=DIRECTION('ref_axis',(1.,-6.93889390390723E-16,8.49769420904307E-32));
#907=DIRECTION('center_axis',(0.,1.22464679914735E-16,1.));
#908=DIRECTION('ref_axis',(-1.,0.,0.));
#909=DIRECTION('center_axis',(0.,-1.22464679914735E-16,-1.));
#910=DIRECTION('ref_axis',(1.,0.,0.));
#911=DIRECTION('',(0.,1.22464679914735E-16,1.));
#912=DIRECTION('center_axis',(0.,-1.22464679914735E-16,-1.));
#913=DIRECTION('ref_axis',(1.,0.,0.));
#914=DIRECTION('center_axis',(0.,1.22464679914735E-16,1.));
#915=DIRECTION('ref_axis',(-1.,0.,0.));
#916=DIRECTION('center_axis',(0.,-1.22464679914735E-16,-1.));
#917=DIRECTION('ref_axis',(1.,0.,0.));
#918=DIRECTION('',(0.,1.22464679914735E-16,1.));
#919=DIRECTION('center_axis',(0.,-1.22464679914735E-16,-1.));
#920=DIRECTION('ref_axis',(1.,0.,0.));
#921=DIRECTION('center_axis',(0.,1.22464679914735E-16,1.));
#922=DIRECTION('ref_axis',(-1.,0.,0.));
#923=DIRECTION('center_axis',(0.,-1.22464679914735E-16,-1.));
#924=DIRECTION('ref_axis',(1.,0.,0.));
#925=DIRECTION('',(0.,1.22464679914735E-16,1.));
#926=DIRECTION('center_axis',(0.,-1.22464679914735E-16,-1.));
#927=DIRECTION('ref_axis',(1.,0.,0.));
#928=DIRECTION('center_axis',(0.,1.22464679914735E-16,1.));
#929=DIRECTION('ref_axis',(-1.,0.,0.));
#930=DIRECTION('center_axis',(0.,-1.22464679914735E-16,-1.));
#931=DIRECTION('ref_axis',(1.,0.,0.));
#932=DIRECTION('',(0.,1.22464679914735E-16,1.));
#933=DIRECTION('center_axis',(0.,-1.22464679914735E-16,-1.));
#934=DIRECTION('ref_axis',(1.,0.,0.));
#935=DIRECTION('center_axis',(0.,1.22464679914735E-16,1.));
#936=DIRECTION('ref_axis',(-1.,0.,0.));
#937=DIRECTION('center_axis',(0.,-1.22464679914735E-16,-1.));
#938=DIRECTION('ref_axis',(1.,0.,0.));
#939=DIRECTION('center_axis',(0.,-1.22464679914735E-16,-1.));
#940=DIRECTION('ref_axis',(1.,0.,0.));
#941=DIRECTION('center_axis',(0.,1.22464679914735E-16,1.));
#942=DIRECTION('ref_axis',(-1.,0.,0.));
#943=DIRECTION('center_axis',(0.,-1.22464679914735E-16,-1.));
#944=DIRECTION('ref_axis',(1.,0.,0.));
#945=DIRECTION('',(0.,1.22464679914735E-16,1.));
#946=DIRECTION('center_axis',(0.,1.22464679914735E-16,1.));
#947=DIRECTION('ref_axis',(-1.,0.,0.));
#948=DIRECTION('center_axis',(0.,1.22464679914735E-16,1.));
#949=DIRECTION('ref_axis',(-1.,0.,0.));
#950=DIRECTION('center_axis',(0.,-1.22464679914735E-16,-1.));
#951=DIRECTION('ref_axis',(1.,0.,0.));
#952=DIRECTION('',(0.,1.22464679914735E-16,1.));
#953=DIRECTION('center_axis',(0.,1.22464679914735E-16,1.));
#954=DIRECTION('ref_axis',(-1.,0.,0.));
#955=DIRECTION('center_axis',(0.,1.22464679914735E-16,1.));
#956=DIRECTION('ref_axis',(-1.,0.,0.));
#957=DIRECTION('center_axis',(0.,-1.22464679914735E-16,-1.));
#958=DIRECTION('ref_axis',(1.,0.,0.));
#959=DIRECTION('',(0.,1.22464679914735E-16,1.));
#960=DIRECTION('center_axis',(0.,1.22464679914735E-16,1.));
#961=DIRECTION('ref_axis',(-1.,0.,0.));
#962=DIRECTION('center_axis',(0.,1.22464679914735E-16,1.));
#963=DIRECTION('ref_axis',(-1.,0.,0.));
#964=DIRECTION('center_axis',(0.,-1.22464679914735E-16,-1.));
#965=DIRECTION('ref_axis',(1.,0.,0.));
#966=DIRECTION('',(0.,1.22464679914735E-16,1.));
#967=DIRECTION('center_axis',(0.,1.22464679914735E-16,1.));
#968=DIRECTION('ref_axis',(-1.,0.,0.));
#969=DIRECTION('center_axis',(0.,-1.22464679914735E-16,-1.));
#970=DIRECTION('ref_axis',(1.,0.,0.));
#971=DIRECTION('center_axis',(0.,-1.22464679914735E-16,-1.));
#972=DIRECTION('ref_axis',(-1.,0.,0.));
#973=DIRECTION('',(-1.,0.,0.));
#974=DIRECTION('',(0.,1.,-1.22464679914735E-16));
#975=DIRECTION('',(0.,1.,-1.22464679914735E-16));
#976=DIRECTION('',(1.,0.,0.));
#977=DIRECTION('',(5.52951570717497E-16,1.,-1.22464679914735E-16));
#978=DIRECTION('',(1.,0.,0.));
#979=DIRECTION('',(0.,-1.,1.22464679914735E-16));
#980=DIRECTION('',(-1.,0.,0.));
#981=DIRECTION('center_axis',(0.,-1.22464679914735E-16,-1.));
#982=DIRECTION('ref_axis',(1.,0.,0.));
#983=DIRECTION('center_axis',(0.,-1.22464679914735E-16,-1.));
#984=DIRECTION('ref_axis',(-1.,0.,0.));
#985=DIRECTION('center_axis',(0.,-1.22464679914735E-16,-1.));
#986=DIRECTION('ref_axis',(1.,0.,0.));
#987=DIRECTION('center_axis',(0.,-1.22464679914735E-16,-1.));
#988=DIRECTION('ref_axis',(1.,0.,0.));
#989=DIRECTION('center_axis',(0.,-1.22464679914735E-16,-1.));
#990=DIRECTION('ref_axis',(-1.,0.,0.));
#991=DIRECTION('center_axis',(0.,-1.22464679914735E-16,-1.));
#992=DIRECTION('ref_axis',(1.,0.,0.));
#993=DIRECTION('center_axis',(0.,-1.22464679914735E-16,-1.));
#994=DIRECTION('ref_axis',(1.,0.,0.));
#995=DIRECTION('center_axis',(0.,-1.22464679914735E-16,-1.));
#996=DIRECTION('ref_axis',(-1.,0.,0.));
#997=DIRECTION('',(1.,0.,0.));
#998=DIRECTION('',(0.,1.,-1.22464679914735E-16));
#999=DIRECTION('',(1.,0.,0.));
#1000=DIRECTION('',(5.52951570717497E-16,1.,-1.22464679914735E-16));
#1001=DIRECTION('',(-1.,0.,0.));
#1002=DIRECTION('',(0.,-1.,1.22464679914735E-16));
#1003=DIRECTION('',(-1.,0.,0.));
#1004=DIRECTION('center_axis',(0.,-1.22464679914735E-16,-1.));
#1005=DIRECTION('ref_axis',(1.,0.,0.));
#1006=DIRECTION('',(0.,1.,-1.22464679914735E-16));
#1007=DIRECTION('center_axis',(0.,-1.22464679914735E-16,-1.));
#1008=DIRECTION('ref_axis',(1.,0.,0.));
#1009=DIRECTION('center_axis',(0.,-1.22464679914735E-16,-1.));
#1010=DIRECTION('ref_axis',(1.,0.,0.));
#1011=DIRECTION('center_axis',(0.,-1.22464679914735E-16,-1.));
#1012=DIRECTION('ref_axis',(1.,0.,0.));
#1013=DIRECTION('center_axis',(0.,1.22464679914735E-16,1.));
#1014=DIRECTION('ref_axis',(-1.,0.,0.));
#1015=DIRECTION('center_axis',(0.,1.22464679914735E-16,1.));
#1016=DIRECTION('ref_axis',(1.,-1.22464679914735E-16,1.49975978266186E-32));
#1017=DIRECTION('center_axis',(0.,1.22464679914735E-16,1.));
#1018=DIRECTION('ref_axis',(-1.,0.,0.));
#1019=DIRECTION('center_axis',(0.,1.22464679914735E-16,1.));
#1020=DIRECTION('ref_axis',(-1.,0.,0.));
#1021=DIRECTION('center_axis',(0.,1.,-1.22464679914735E-16));
#1022=DIRECTION('ref_axis',(0.,1.22464679914735E-16,1.));
#1023=DIRECTION('',(0.,1.22464679914735E-16,1.));
#1024=DIRECTION('center_axis',(1.,0.,0.));
#1025=DIRECTION('ref_axis',(0.,1.22464679914735E-16,1.));
#1026=DIRECTION('center_axis',(0.,1.22464679914735E-16,1.));
#1027=DIRECTION('ref_axis',(-1.,0.,0.));
#1028=DIRECTION('center_axis',(1.,0.,0.));
#1029=DIRECTION('ref_axis',(0.,1.22464679914735E-16,1.));
#1030=DIRECTION('',(0.,1.22464679914735E-16,1.));
#1031=DIRECTION('center_axis',(0.,-1.,1.22464679914735E-16));
#1032=DIRECTION('ref_axis',(0.,-1.22464679914735E-16,-1.));
#1033=DIRECTION('center_axis',(1.,-5.52951570717497E-16,6.77170371162684E-32));
#1034=DIRECTION('ref_axis',(-5.52951570717497E-16,-1.,1.22464679914735E-16));
#1035=DIRECTION('',(0.,1.22464679914735E-16,1.));
#1036=DIRECTION('',(0.,1.22464679914735E-16,1.));
#1037=DIRECTION('center_axis',(0.,-1.,1.22464679914735E-16));
#1038=DIRECTION('ref_axis',(0.,-1.22464679914735E-16,-1.));
#1039=DIRECTION('',(0.,1.22464679914735E-16,1.));
#1040=DIRECTION('center_axis',(-1.,0.,0.));
#1041=DIRECTION('ref_axis',(0.,-1.22464679914735E-16,-1.));
#1042=DIRECTION('',(0.,1.22464679914735E-16,1.));
#1043=DIRECTION('center_axis',(0.,1.,-1.22464679914735E-16));
#1044=DIRECTION('ref_axis',(0.,1.22464679914735E-16,1.));
#1045=DIRECTION('center_axis',(0.,1.22464679914735E-16,1.));
#1046=DIRECTION('ref_axis',(-1.,0.,0.));
#1047=DIRECTION('center_axis',(0.,1.22464679914735E-16,1.));
#1048=DIRECTION('ref_axis',(-1.,0.,0.));
#1049=DIRECTION('center_axis',(0.,1.22464679914735E-16,1.));
#1050=DIRECTION('ref_axis',(-1.,0.,0.));
#1051=DIRECTION('center_axis',(0.,1.22464679914735E-16,1.));
#1052=DIRECTION('ref_axis',(-1.,0.,0.));
#1053=DIRECTION('center_axis',(0.,-1.22464679914735E-16,-1.));
#1054=DIRECTION('ref_axis',(1.,0.,0.));
#1055=DIRECTION('center_axis',(0.,-1.22464679914735E-16,-1.));
#1056=DIRECTION('ref_axis',(1.,0.,0.));
#1057=DIRECTION('center_axis',(0.,-1.22464679914735E-16,-1.));
#1058=DIRECTION('ref_axis',(1.,0.,0.));
#1059=DIRECTION('center_axis',(0.,-1.22464679914735E-16,-1.));
#1060=DIRECTION('ref_axis',(1.,0.,0.));
#1061=CARTESIAN_POINT('',(0.,0.,0.));
#1062=CARTESIAN_POINT('Origin',(-13.512307698448,65.6980200712455,-19.142135623731));
#1063=CARTESIAN_POINT('',(-8.512307698448,65.6980200712455,12.));
#1064=CARTESIAN_POINT('Origin',(-13.512307698448,65.6980200712455,12.));
#1065=CARTESIAN_POINT('',(-8.512307698448,65.6980200712455,-5.00000000000001));
#1066=CARTESIAN_POINT('',(-8.512307698448,65.6980200712455,-19.142135623731));
#1067=CARTESIAN_POINT('',(-15.2741554998542,70.3773247551361,-5.00000000000001));
#1068=CARTESIAN_POINT('Origin',(-13.512307698448,65.6980200712455,-5.00000000000001));
#1069=CARTESIAN_POINT('',(-15.2741554998541,70.3773247551361,-5.47163674692559E-15));
#1070=CARTESIAN_POINT('',(-15.2741554998542,70.3773247551361,3.49999999999999));
#1071=CARTESIAN_POINT('',(-18.4709602588486,66.3397090809944,-4.97717143577312E-15));
#1072=CARTESIAN_POINT('Origin',(-13.512307698448,65.6980200712455,-4.89858719658941E-15));
#1073=CARTESIAN_POINT('',(-18.4709602588486,66.3397090809945,-5.00000000000001));
#1074=CARTESIAN_POINT('',(-18.4709602588486,66.3397090809945,3.49999999999999));
#1075=CARTESIAN_POINT('',(-18.512307698448,65.6980204705645,-5.00000000000001));
#1076=CARTESIAN_POINT('Origin',(-13.512307698448,65.6980200712455,-5.00000000000001));
#1077=CARTESIAN_POINT('',(-18.512307698448,65.6980204705645,-4.89858724549189E-15));
#1078=CARTESIAN_POINT('',(-18.512307698448,65.6980204705645,-19.142135623731));
#1079=CARTESIAN_POINT('',(-8.51636347232125,65.4966713949875,-4.87392909540021E-15));
#1080=CARTESIAN_POINT('Origin',(-13.512307698448,65.6980200712455,-4.89858719658941E-15));
#1081=CARTESIAN_POINT('',(-8.51636347232126,65.4966713949875,-5.00000000000001));
#1082=CARTESIAN_POINT('',(-8.51636347232126,65.4966713949875,3.49999999999999));
#1083=CARTESIAN_POINT('Origin',(-13.512307698448,65.6980200712455,-5.00000000000001));
#1084=CARTESIAN_POINT('Origin',(-83.512307698448,73.6980200712455,-19.142135623731));
#1085=CARTESIAN_POINT('',(-78.512307698448,73.6980200712455,12.));
#1086=CARTESIAN_POINT('Origin',(-83.512307698448,73.6980200712455,12.));
#1087=CARTESIAN_POINT('',(-78.512307698448,73.6980200712455,-5.00000000000001));
#1088=CARTESIAN_POINT('',(-78.512307698448,73.6980200712455,-19.142135623731));
#1089=CARTESIAN_POINT('',(-78.5195702466896,73.967413348462,-5.00000000000001));
#1090=CARTESIAN_POINT('Origin',(-83.512307698448,73.6980200712455,-5.00000000000001));
#1091=CARTESIAN_POINT('',(-78.5195702466896,73.967413348462,-5.91129579737279E-15));
#1092=CARTESIAN_POINT('',(-78.5195702466896,73.967413348462,3.49999999999999));
#1093=CARTESIAN_POINT('',(-81.149815341354,78.1046775190933,-6.41796452975186E-15));
#1094=CARTESIAN_POINT('Origin',(-83.512307698448,73.6980200712455,-5.8783046359073E-15));
#1095=CARTESIAN_POINT('',(-81.149815341354,78.1046775190933,-5.00000000000001));
#1096=CARTESIAN_POINT('',(-81.149815341354,78.1046775190933,3.49999999999999));
#1097=CARTESIAN_POINT('',(-87.7725236195829,71.0806625669468,-5.00000000000001));
#1098=CARTESIAN_POINT('Origin',(-83.512307698448,73.6980200712455,-5.00000000000001));
#1099=CARTESIAN_POINT('',(-87.7725236195829,71.080662566947,-5.55777078692095E-15));
#1100=CARTESIAN_POINT('',(-87.772523619583,71.080662566947,3.49999999999999));
#1101=CARTESIAN_POINT('',(-79.8928256152222,70.2484767030289,-5.45585741146665E-15));
#1102=CARTESIAN_POINT('Origin',(-83.512307698448,73.6980200712455,-5.8783046359073E-15));
#1103=CARTESIAN_POINT('',(-79.8928256152222,70.2484767030289,-5.00000000000001));
#1104=CARTESIAN_POINT('',(-79.8928256152222,70.2484767030289,-19.142135623731));
#1105=CARTESIAN_POINT('Origin',(-83.512307698448,73.6980200712455,-5.00000000000001));
#1106=CARTESIAN_POINT('Origin',(-83.512307698448,17.6980200712455,-19.142135623731));
#1107=CARTESIAN_POINT('',(-78.512307698448,17.6980200712455,12.));
#1108=CARTESIAN_POINT('Origin',(-83.512307698448,17.6980200712455,12.));
#1109=CARTESIAN_POINT('',(-78.512307698448,17.6980200712455,-5.));
#1110=CARTESIAN_POINT('',(-78.512307698448,17.6980200712455,-19.142135623731));
#1111=CARTESIAN_POINT('',(-79.8928256152222,21.1475634394622,-5.));
#1112=CARTESIAN_POINT('Origin',(-83.512307698448,17.6980200712455,-5.));
#1113=CARTESIAN_POINT('',(-79.8928256152222,21.1475634394622,5.57270214877235E-16));
#1114=CARTESIAN_POINT('',(-79.8928256152222,21.1475634394622,-19.142135623731));
#1115=CARTESIAN_POINT('',(-87.8067094238595,20.2589015251168,6.66099911769956E-16));
#1116=CARTESIAN_POINT('Origin',(-83.512307698448,17.6980200712455,9.79717439317882E-16));
#1117=CARTESIAN_POINT('',(-87.8067094238596,20.2589015251169,-5.));
#1118=CARTESIAN_POINT('',(-87.8067094238596,20.2589015251168,3.5));
#1119=CARTESIAN_POINT('',(-81.0963866501547,13.3204264984691,-5.));
#1120=CARTESIAN_POINT('Origin',(-83.512307698448,17.6980200712455,-5.));
#1121=CARTESIAN_POINT('',(-81.0963866501547,13.3204264984691,1.51581803500475E-15));
#1122=CARTESIAN_POINT('',(-81.0963866501547,13.3204264984691,3.5));
#1123=CARTESIAN_POINT('',(-78.5296220934509,17.2822747624875,1.03063155548099E-15));
#1124=CARTESIAN_POINT('Origin',(-83.512307698448,17.6980200712455,9.79717439317882E-16));
#1125=CARTESIAN_POINT('',(-78.5296220934509,17.2822747624875,-5.));
#1126=CARTESIAN_POINT('',(-78.5296220934509,17.2822747624875,3.5));
#1127=CARTESIAN_POINT('Origin',(-83.512307698448,17.6980200712455,-5.));
#1128=CARTESIAN_POINT('Origin',(-13.512307698448,25.6980200712455,-19.142135623731));
#1129=CARTESIAN_POINT('',(-8.512307698448,25.6980200712455,12.));
#1130=CARTESIAN_POINT('Origin',(-13.512307698448,25.6980200712455,12.));
#1131=CARTESIAN_POINT('',(-8.512307698448,25.6980200712455,-5.));
#1132=CARTESIAN_POINT('',(-8.512307698448,25.6980200712455,-19.142135623731));
#1133=CARTESIAN_POINT('',(-8.51636347232126,25.8993687475036,-5.));
#1134=CARTESIAN_POINT('Origin',(-13.512307698448,25.6980200712455,-5.));
#1135=CARTESIAN_POINT('',(-8.51636347232126,25.8993687475036,-2.46581011891993E-17));
#1136=CARTESIAN_POINT('',(-8.51636347232126,25.8993687475036,3.5));
#1137=CARTESIAN_POINT('',(-18.512307698448,25.6980200712455,0.));
#1138=CARTESIAN_POINT('Origin',(-13.512307698448,25.6980200712455,0.));
#1139=CARTESIAN_POINT('',(-18.512307698448,25.6980200712455,-5.));
#1140=CARTESIAN_POINT('',(-18.512307698448,25.6980200712455,-19.142135623731));
#1141=CARTESIAN_POINT('',(-18.447189048997,24.8936905019742,-5.));
#1142=CARTESIAN_POINT('Origin',(-13.512307698448,25.6980200712455,-5.));
#1143=CARTESIAN_POINT('',(-18.4471890489969,24.8936905019742,9.85019632467704E-17));
#1144=CARTESIAN_POINT('',(-18.447189048997,24.8936905019742,3.5));
#1145=CARTESIAN_POINT('',(-15.2917196693426,21.0253663244077,5.7223504545888E-16));
#1146=CARTESIAN_POINT('Origin',(-13.512307698448,25.6980200712455,0.));
#1147=CARTESIAN_POINT('',(-15.2917196693426,21.0253663244078,-5.));
#1148=CARTESIAN_POINT('',(-15.2917196693426,21.0253663244078,3.5));
#1149=CARTESIAN_POINT('Origin',(-13.512307698448,25.6980200712455,-5.));
#1150=CARTESIAN_POINT('Origin',(-5.44529677776043,56.0871566813502,-5.));
#1151=CARTESIAN_POINT('',(-3.94529677776043,56.0871566813502,-5.));
#1152=CARTESIAN_POINT('Origin',(-5.44529677776043,56.0871566813502,-5.));
#1153=CARTESIAN_POINT('',(-3.94529677776043,56.0871566813502,-3.33066907387547E-15));
#1154=CARTESIAN_POINT('',(-3.94529677776043,56.0871566813502,-5.));
#1155=CARTESIAN_POINT('Origin',(-5.44529677776043,56.0871566813502,-3.72159588784163E-15));
#1156=CARTESIAN_POINT('Origin',(-6.06421034522032,34.0811516689435,-5.));
#1157=CARTESIAN_POINT('',(-4.56421034522031,34.0811516689435,-5.));
#1158=CARTESIAN_POINT('Origin',(-6.06421034522032,34.0811516689435,-5.));
#1159=CARTESIAN_POINT('',(-4.56421034522031,34.0811516689435,-1.11022302462516E-15));
#1160=CARTESIAN_POINT('',(-4.56421034522031,34.0811516689435,-5.));
#1161=CARTESIAN_POINT('Origin',(-6.06421034522032,34.0811516689435,-1.02663752779518E-15));
#1162=CARTESIAN_POINT('Origin',(-85.5239357137409,58.098784696643,-5.));
#1163=CARTESIAN_POINT('',(-84.0239357137409,58.098784696643,-5.));
#1164=CARTESIAN_POINT('Origin',(-85.5239357137409,58.098784696643,-5.));
#1165=CARTESIAN_POINT('',(-84.0239357137409,58.098784696643,-3.33066907387547E-15));
#1166=CARTESIAN_POINT('',(-84.0239357137409,58.098784696643,-5.));
#1167=CARTESIAN_POINT('Origin',(-85.5239357137409,58.098784696643,-3.96794926884199E-15));
#1168=CARTESIAN_POINT('Origin',(-85.167222680251,29.3847254427659,-5.));
#1169=CARTESIAN_POINT('',(-83.667222680251,29.3847254427659,-5.));
#1170=CARTESIAN_POINT('Origin',(-85.167222680251,29.3847254427659,-5.));
#1171=CARTESIAN_POINT('',(-83.667222680251,29.3847254427659,0.));
#1172=CARTESIAN_POINT('',(-83.667222680251,29.3847254427659,-5.));
#1173=CARTESIAN_POINT('Origin',(-85.167222680251,29.3847254427659,-4.51491193263181E-16));
#1174=CARTESIAN_POINT('Origin',(13.5483236221643,45.6016159904577,-5.));
#1175=CARTESIAN_POINT('Origin',(13.5483236221643,45.6016159904577,-5.));
#1176=CARTESIAN_POINT('Origin',(13.5483236221643,45.6016159904577,-2.43748750339855E-15));
#1177=CARTESIAN_POINT('Origin',(-83.512307698448,17.6980200712455,-5.));
#1178=CARTESIAN_POINT('',(-80.912307698448,17.6980200712455,4.99999999999999));
#1179=CARTESIAN_POINT('Origin',(-83.512307698448,17.6980200712455,5.));
#1180=CARTESIAN_POINT('',(-80.912307698448,17.6980200712455,12.));
#1181=CARTESIAN_POINT('',(-80.912307698448,17.6980200712455,-5.));
#1182=CARTESIAN_POINT('Origin',(-83.512307698448,17.6980200712455,12.));
#1183=CARTESIAN_POINT('Origin',(-13.512307698448,25.6980200712455,-5.));
#1184=CARTESIAN_POINT('',(-10.912307698448,25.6980200712455,4.99999999999999));
#1185=CARTESIAN_POINT('Origin',(-13.512307698448,25.6980200712455,4.99999999999999));
#1186=CARTESIAN_POINT('',(-10.912307698448,25.6980200712455,12.));
#1187=CARTESIAN_POINT('',(-10.912307698448,25.6980200712455,-5.));
#1188=CARTESIAN_POINT('Origin',(-13.512307698448,25.6980200712455,12.));
#1189=CARTESIAN_POINT('Origin',(-13.512307698448,65.6980200712455,-5.00000000000001));
#1190=CARTESIAN_POINT('',(-10.912307698448,65.6980200712455,4.99999999999999));
#1191=CARTESIAN_POINT('Origin',(-13.512307698448,65.6980200712455,4.99999999999999));
#1192=CARTESIAN_POINT('',(-10.912307698448,65.6980200712455,12.));
#1193=CARTESIAN_POINT('',(-10.912307698448,65.6980200712455,-5.00000000000001));
#1194=CARTESIAN_POINT('Origin',(-13.512307698448,65.6980200712455,12.));
#1195=CARTESIAN_POINT('Origin',(-83.512307698448,73.6980200712455,-5.00000000000001));
#1196=CARTESIAN_POINT('',(-80.912307698448,73.6980200712455,4.99999999999999));
#1197=CARTESIAN_POINT('Origin',(-83.512307698448,73.6980200712455,4.99999999999999));
#1198=CARTESIAN_POINT('',(-80.912307698448,73.6980200712455,12.));
#1199=CARTESIAN_POINT('',(-80.912307698448,73.6980200712455,-5.00000000000001));
#1200=CARTESIAN_POINT('Origin',(-83.512307698448,73.6980200712455,12.));
#1201=CARTESIAN_POINT('Origin',(-35.2783930265433,32.321022315356,-8.11083849899561E-16));
#1202=CARTESIAN_POINT('Origin',(-12.1154649233969,45.6980200712455,-2.44929359829471E-15));
#1203=CARTESIAN_POINT('',(-79.8928256152222,65.6980204705645,-4.89858724549189E-15));
#1204=CARTESIAN_POINT('',(-79.8928256152222,65.6980204705645,-4.89858724549189E-15));
#1205=CARTESIAN_POINT('',(-79.8928256152222,65.6980204705645,-4.89858724549189E-15));
#1206=CARTESIAN_POINT('',(-79.8928256152222,25.6980200712455,0.));
#1207=CARTESIAN_POINT('',(-79.8928256152222,17.6980202749349,9.79717414373133E-16));
#1208=CARTESIAN_POINT('',(-79.8928256152222,25.6980200712455,0.));
#1209=CARTESIAN_POINT('',(-70.5265622200321,33.0011295985538,-8.9437297064406E-16));
#1210=CARTESIAN_POINT('',(-70.5265622200321,58.098784696643,-3.96794926884199E-15));
#1211=CARTESIAN_POINT('',(-70.5265622200321,33.0011295985538,-8.9437297064406E-16));
#1212=CARTESIAN_POINT('',(-25.7093209734441,58.098784696643,-3.96794926884199E-15));
#1213=CARTESIAN_POINT('',(-70.5265622200321,58.098784696643,-3.96794926884199E-15));
#1214=CARTESIAN_POINT('',(-25.7093209734441,33.0011295985538,-8.9437297064406E-16));
#1215=CARTESIAN_POINT('',(-25.7093209734441,33.0011295985538,-8.9437297064406E-16));
#1216=CARTESIAN_POINT('',(-70.5265622200321,33.0011295985538,-8.9437297064406E-16));
#1217=CARTESIAN_POINT('Origin',(-35.2783930265433,32.321022315356,-8.11083849899561E-16));
#1218=CARTESIAN_POINT('Origin',(-57.1828732053487,89.719730964468,-7.84039833213221E-15));
#1219=CARTESIAN_POINT('Origin',(-57.166927187725,93.806458854585,-8.34087815509402E-15));
#1220=CARTESIAN_POINT('Origin',(-35.2783930265433,32.321022315356,-5.));
#1221=CARTESIAN_POINT('Origin',(-12.1154649233969,45.6980200712455,-5.));
#1222=CARTESIAN_POINT('Origin',(-57.166927187725,93.806458854585,-5.00000000000001));
#1223=CARTESIAN_POINT('Origin',(-57.0444783546387,-1.05597544053357,-5.));
#1224=CARTESIAN_POINT('Origin',(-57.1828732053487,89.719730964468,-5.00000000000001));
#1225=CARTESIAN_POINT('',(-79.8928256152222,25.6980200712455,-5.));
#1226=CARTESIAN_POINT('',(-79.8928256152222,25.6980200712455,-5.));
#1227=CARTESIAN_POINT('',(-79.8928256152222,17.6980202749349,-5.));
#1228=CARTESIAN_POINT('',(-70.5265622200321,58.098784696643,-5.));
#1229=CARTESIAN_POINT('',(-25.7093209734441,58.098784696643,-5.));
#1230=CARTESIAN_POINT('',(-70.5265622200321,58.098784696643,-5.));
#1231=CARTESIAN_POINT('',(-70.5265622200321,33.0011295985538,-5.));
#1232=CARTESIAN_POINT('',(-70.5265622200321,33.0011295985538,-5.));
#1233=CARTESIAN_POINT('',(-25.7093209734441,33.0011295985538,-5.));
#1234=CARTESIAN_POINT('',(-70.5265622200321,33.0011295985538,-5.));
#1235=CARTESIAN_POINT('',(-25.7093209734441,33.0011295985538,-5.));
#1236=CARTESIAN_POINT('',(-79.8928256152222,65.6980204705645,-5.00000000000001));
#1237=CARTESIAN_POINT('',(-79.8928256152222,65.6980204705645,-5.00000000000001));
#1238=CARTESIAN_POINT('Origin',(-60.2818658125429,-22.6356916558883,-4.99999999999999));
#1239=CARTESIAN_POINT('',(-79.8928256152222,65.6980204705645,-5.00000000000001));
#1240=CARTESIAN_POINT('Origin',(-35.2783930265433,32.321022315356,-8.11083849899561E-16));
#1241=CARTESIAN_POINT('Origin',(-60.2818658125429,-22.6356916558883,5.91917253575454E-15));
#1242=CARTESIAN_POINT('Origin',(-57.0444783546387,-1.05597544053357,3.27641949679029E-15));
#1243=CARTESIAN_POINT('Origin',(-57.0444783546387,-1.05597544053357,-5.));
#1244=CARTESIAN_POINT('Origin',(-12.1154649233969,45.6980200712455,-5.));
#1245=CARTESIAN_POINT('Origin',(-57.166927187725,93.806458854585,-5.00000000000001));
#1246=CARTESIAN_POINT('Origin',(-60.2818658125429,-22.6356916558883,-4.99999999999999));
#1247=CARTESIAN_POINT('Origin',(-79.8928256152222,65.6980204705645,-5.00000000000001));
#1248=CARTESIAN_POINT('',(-79.8928256152222,65.6980204705645,-5.00000000000001));
#1249=CARTESIAN_POINT('Origin',(-79.8928256152222,65.6980204705645,-5.00000000000001));
#1250=CARTESIAN_POINT('Origin',(-57.1828732053487,89.719730964468,-5.00000000000001));
#1251=CARTESIAN_POINT('Origin',(-79.8928256152222,17.6980202749349,-5.));
#1252=CARTESIAN_POINT('',(-79.8928256152222,25.6980200712455,-5.));
#1253=CARTESIAN_POINT('Origin',(-79.8928256152222,25.6980200712455,-5.));
#1254=CARTESIAN_POINT('Origin',(-70.5265622200321,33.0011295985538,-5.));
#1255=CARTESIAN_POINT('',(-70.5265622200321,33.0011295985538,-5.));
#1256=CARTESIAN_POINT('',(-70.5265622200321,58.098784696643,-5.));
#1257=CARTESIAN_POINT('Origin',(-70.5265622200321,58.098784696643,-5.));
#1258=CARTESIAN_POINT('',(-25.7093209734441,58.098784696643,-5.));
#1259=CARTESIAN_POINT('Origin',(-25.7093209734441,33.0011295985538,-5.));
#1260=CARTESIAN_POINT('',(-25.7093209734441,33.0011295985538,-5.));
#1261=CARTESIAN_POINT('Origin',(-70.5265622200321,33.0011295985538,-5.));
#1262=CARTESIAN_POINT('Origin',(-13.512307698448,25.6980200712455,12.));
#1263=CARTESIAN_POINT('Origin',(-83.512307698448,17.6980200712455,12.));
#1264=CARTESIAN_POINT('Origin',(-83.512307698448,73.6980200712455,12.));
#1265=CARTESIAN_POINT('Origin',(-13.512307698448,65.6980200712455,12.));
#1266=CARTESIAN_POINT('Origin',(-83.512307698448,17.6980200712455,5.));
#1267=CARTESIAN_POINT('Origin',(-13.512307698448,25.6980200712455,4.99999999999999));
#1268=CARTESIAN_POINT('Origin',(-13.512307698448,65.6980200712455,4.99999999999999));
#1269=CARTESIAN_POINT('Origin',(-83.512307698448,73.6980200712455,4.99999999999999));
#1270=UNCERTAINTY_MEASURE_WITH_UNIT(LENGTH_MEASURE(0.01),#1274,
'DISTANCE_ACCURACY_VALUE',
'Maximum model space distance between geometric entities at asserted c
onnectivities');
#1271=UNCERTAINTY_MEASURE_WITH_UNIT(LENGTH_MEASURE(0.01),#1274,
'DISTANCE_ACCURACY_VALUE',
'Maximum model space distance between geometric entities at asserted c
onnectivities');
#1272=(
GEOMETRIC_REPRESENTATION_CONTEXT(3)
GLOBAL_UNCERTAINTY_ASSIGNED_CONTEXT((#1270))
GLOBAL_UNIT_ASSIGNED_CONTEXT((#1274,#1276,#1277))
REPRESENTATION_CONTEXT('','3D')
);
#1273=(
GEOMETRIC_REPRESENTATION_CONTEXT(3)
GLOBAL_UNCERTAINTY_ASSIGNED_CONTEXT((#1271))
GLOBAL_UNIT_ASSIGNED_CONTEXT((#1274,#1276,#1277))
REPRESENTATION_CONTEXT('','3D')
);
#1274=(
LENGTH_UNIT()
NAMED_UNIT(*)
SI_UNIT(.MILLI.,.METRE.)
);
#1275=(
LENGTH_UNIT()
NAMED_UNIT(*)
SI_UNIT($,.METRE.)
);
#1276=(
NAMED_UNIT(*)
PLANE_ANGLE_UNIT()
SI_UNIT($,.RADIAN.)
);
#1277=(
NAMED_UNIT(*)
SI_UNIT($,.STERADIAN.)
SOLID_ANGLE_UNIT()
);
#1278=SHAPE_DEFINITION_REPRESENTATION(#1279,#1280);
#1279=PRODUCT_DEFINITION_SHAPE('',$,#1282);
#1280=SHAPE_REPRESENTATION('',(#738),#1272);
#1281=PRODUCT_DEFINITION_CONTEXT('part definition',#1286,'design');
#1282=PRODUCT_DEFINITION('2026-06-29-17-15-17-904',
'bottom_lidar_holder',#1283,#1281);
#1283=PRODUCT_DEFINITION_FORMATION('',$,#1288);
#1284=PRODUCT_RELATED_PRODUCT_CATEGORY('bottom_lidar_holder',
'bottom_lidar_holder',(#1288));
#1285=APPLICATION_PROTOCOL_DEFINITION('international standard',
'automotive_design',2009,#1286);
#1286=APPLICATION_CONTEXT(
'Core Data for Automotive Mechanical Design Process');
#1287=PRODUCT_CONTEXT('part definition',#1286,'mechanical');
#1288=PRODUCT('2026-06-29-17-15-17-904','bottom_lidar_holder',$,(#1287));
#1289=PRESENTATION_STYLE_ASSIGNMENT((#1291));
#1290=PRESENTATION_STYLE_ASSIGNMENT((#1292));
#1291=SURFACE_STYLE_USAGE(.BOTH.,#1293);
#1292=SURFACE_STYLE_USAGE(.BOTH.,#1294);
#1293=SURFACE_SIDE_STYLE('',(#1295));
#1294=SURFACE_SIDE_STYLE('',(#1296));
#1295=SURFACE_STYLE_FILL_AREA(#1297);
#1296=SURFACE_STYLE_FILL_AREA(#1298);
#1297=FILL_AREA_STYLE('Steel - Satin',(#1299));
#1298=FILL_AREA_STYLE('Opaque(202,209,238)',(#1300));
#1299=FILL_AREA_STYLE_COLOUR('Steel - Satin',#1301);
#1300=FILL_AREA_STYLE_COLOUR('Opaque(202,209,238)',#1302);
#1301=COLOUR_RGB('Steel - Satin',0.627450980392157,0.627450980392157,0.627450980392157);
#1302=COLOUR_RGB('Opaque(202,209,238)',0.792156862745098,0.819607843137255,
0.933333333333333);
ENDSEC;
END-ISO-10303-21;
