ISO-10303-21;
HEADER;
/* Generated by software containing ST-Developer
 * from STEP Tools, Inc. (www.steptools.com) 
 */

FILE_DESCRIPTION(
/* description */ (''),
/* implementation_level */ '2;1');

FILE_NAME(
/* name */ 'base_pillar.step',
/* time_stamp */ '2026-07-18T14:47:30+03:00',
/* author */ (''),
/* organization */ (''),
/* preprocessor_version */ 'ST-DEVELOPER v20.1',
/* originating_system */ 'Autodesk Translation Framework v15.8.0.0',
/* authorisation */ '');

FILE_SCHEMA (('AUTOMOTIVE_DESIGN { 1 0 10303 214 3 1 1 }'));
ENDSEC;

DATA;
#10=MECHANICAL_DESIGN_GEOMETRIC_PRESENTATION_REPRESENTATION('',(#13),#517);
#11=SHAPE_REPRESENTATION_RELATIONSHIP('SRR','None',#524,#12);
#12=ADVANCED_BREP_SHAPE_REPRESENTATION('',(#14),#516);
#13=STYLED_ITEM('',(#534),#14);
#14=MANIFOLD_SOLID_BREP('Body1',#321);
#15=FACE_BOUND('',#43,.T.);
#16=FACE_BOUND('',#50,.T.);
#17=FACE_OUTER_BOUND('',#33,.T.);
#18=FACE_OUTER_BOUND('',#34,.T.);
#19=FACE_OUTER_BOUND('',#35,.T.);
#20=FACE_OUTER_BOUND('',#36,.T.);
#21=FACE_OUTER_BOUND('',#37,.T.);
#22=FACE_OUTER_BOUND('',#38,.T.);
#23=FACE_OUTER_BOUND('',#39,.T.);
#24=FACE_OUTER_BOUND('',#40,.T.);
#25=FACE_OUTER_BOUND('',#41,.T.);
#26=FACE_OUTER_BOUND('',#42,.T.);
#27=FACE_OUTER_BOUND('',#44,.T.);
#28=FACE_OUTER_BOUND('',#45,.T.);
#29=FACE_OUTER_BOUND('',#46,.T.);
#30=FACE_OUTER_BOUND('',#47,.T.);
#31=FACE_OUTER_BOUND('',#48,.T.);
#32=FACE_OUTER_BOUND('',#49,.T.);
#33=EDGE_LOOP('',(#205,#206,#207,#208));
#34=EDGE_LOOP('',(#209,#210,#211,#212));
#35=EDGE_LOOP('',(#213,#214,#215,#216));
#36=EDGE_LOOP('',(#217,#218,#219,#220));
#37=EDGE_LOOP('',(#221,#222,#223,#224));
#38=EDGE_LOOP('',(#225,#226,#227,#228));
#39=EDGE_LOOP('',(#229,#230,#231,#232));
#40=EDGE_LOOP('',(#233,#234,#235,#236));
#41=EDGE_LOOP('',(#237,#238,#239,#240));
#42=EDGE_LOOP('',(#241,#242,#243,#244,#245,#246,#247,#248));
#43=EDGE_LOOP('',(#249,#250,#251,#252,#253,#254));
#44=EDGE_LOOP('',(#255,#256,#257,#258));
#45=EDGE_LOOP('',(#259,#260,#261,#262));
#46=EDGE_LOOP('',(#263,#264,#265,#266));
#47=EDGE_LOOP('',(#267,#268,#269,#270));
#48=EDGE_LOOP('',(#271,#272,#273,#274));
#49=EDGE_LOOP('',(#275,#276,#277,#278,#279,#280,#281,#282));
#50=EDGE_LOOP('',(#283,#284,#285,#286,#287,#288));
#51=LINE('',#431,#93);
#52=LINE('',#433,#94);
#53=LINE('',#435,#95);
#54=LINE('',#436,#96);
#55=LINE('',#439,#97);
#56=LINE('',#441,#98);
#57=LINE('',#442,#99);
#58=LINE('',#445,#100);
#59=LINE('',#447,#101);
#60=LINE('',#448,#102);
#61=LINE('',#451,#103);
#62=LINE('',#453,#104);
#63=LINE('',#454,#105);
#64=LINE('',#457,#106);
#65=LINE('',#459,#107);
#66=LINE('',#460,#108);
#67=LINE('',#462,#109);
#68=LINE('',#463,#110);
#69=LINE('',#467,#111);
#70=LINE('',#469,#112);
#71=LINE('',#471,#113);
#72=LINE('',#472,#114);
#73=LINE('',#476,#115);
#74=LINE('',#478,#116);
#75=LINE('',#480,#117);
#76=LINE('',#481,#118);
#77=LINE('',#483,#119);
#78=LINE('',#484,#120);
#79=LINE('',#487,#121);
#80=LINE('',#489,#122);
#81=LINE('',#491,#123);
#82=LINE('',#493,#124);
#83=LINE('',#494,#125);
#84=LINE('',#497,#126);
#85=LINE('',#498,#127);
#86=LINE('',#501,#128);
#87=LINE('',#502,#129);
#88=LINE('',#505,#130);
#89=LINE('',#506,#131);
#90=LINE('',#509,#132);
#91=LINE('',#510,#133);
#92=LINE('',#512,#134);
#93=VECTOR('',#355,10.);
#94=VECTOR('',#356,10.);
#95=VECTOR('',#357,10.);
#96=VECTOR('',#358,10.);
#97=VECTOR('',#361,10.);
#98=VECTOR('',#362,10.);
#99=VECTOR('',#363,10.);
#100=VECTOR('',#366,10.);
#101=VECTOR('',#367,10.);
#102=VECTOR('',#368,10.);
#103=VECTOR('',#371,10.);
#104=VECTOR('',#372,10.);
#105=VECTOR('',#373,10.);
#106=VECTOR('',#376,10.);
#107=VECTOR('',#377,10.);
#108=VECTOR('',#378,10.);
#109=VECTOR('',#381,10.);
#110=VECTOR('',#382,10.);
#111=VECTOR('',#385,10.);
#112=VECTOR('',#386,10.);
#113=VECTOR('',#387,10.);
#114=VECTOR('',#388,10.);
#115=VECTOR('',#391,10.);
#116=VECTOR('',#392,10.);
#117=VECTOR('',#393,10.);
#118=VECTOR('',#394,10.);
#119=VECTOR('',#397,10.);
#120=VECTOR('',#398,10.);
#121=VECTOR('',#401,10.);
#122=VECTOR('',#402,10.);
#123=VECTOR('',#403,10.);
#124=VECTOR('',#404,10.);
#125=VECTOR('',#405,10.);
#126=VECTOR('',#408,10.);
#127=VECTOR('',#409,10.);
#128=VECTOR('',#412,10.);
#129=VECTOR('',#413,10.);
#130=VECTOR('',#416,10.);
#131=VECTOR('',#417,10.);
#132=VECTOR('',#420,10.);
#133=VECTOR('',#421,10.);
#134=VECTOR('',#424,10.);
#135=VERTEX_POINT('',#429);
#136=VERTEX_POINT('',#430);
#137=VERTEX_POINT('',#432);
#138=VERTEX_POINT('',#434);
#139=VERTEX_POINT('',#438);
#140=VERTEX_POINT('',#440);
#141=VERTEX_POINT('',#444);
#142=VERTEX_POINT('',#446);
#143=VERTEX_POINT('',#450);
#144=VERTEX_POINT('',#452);
#145=VERTEX_POINT('',#456);
#146=VERTEX_POINT('',#458);
#147=VERTEX_POINT('',#465);
#148=VERTEX_POINT('',#466);
#149=VERTEX_POINT('',#468);
#150=VERTEX_POINT('',#470);
#151=VERTEX_POINT('',#474);
#152=VERTEX_POINT('',#475);
#153=VERTEX_POINT('',#477);
#154=VERTEX_POINT('',#479);
#155=VERTEX_POINT('',#486);
#156=VERTEX_POINT('',#488);
#157=VERTEX_POINT('',#490);
#158=VERTEX_POINT('',#492);
#159=VERTEX_POINT('',#496);
#160=VERTEX_POINT('',#500);
#161=VERTEX_POINT('',#504);
#162=VERTEX_POINT('',#508);
#163=EDGE_CURVE('',#135,#136,#51,.T.);
#164=EDGE_CURVE('',#137,#135,#52,.T.);
#165=EDGE_CURVE('',#138,#137,#53,.T.);
#166=EDGE_CURVE('',#138,#136,#54,.T.);
#167=EDGE_CURVE('',#136,#139,#55,.T.);
#168=EDGE_CURVE('',#140,#138,#56,.T.);
#169=EDGE_CURVE('',#140,#139,#57,.T.);
#170=EDGE_CURVE('',#139,#141,#58,.T.);
#171=EDGE_CURVE('',#142,#140,#59,.T.);
#172=EDGE_CURVE('',#142,#141,#60,.T.);
#173=EDGE_CURVE('',#141,#143,#61,.T.);
#174=EDGE_CURVE('',#144,#142,#62,.T.);
#175=EDGE_CURVE('',#144,#143,#63,.T.);
#176=EDGE_CURVE('',#143,#145,#64,.T.);
#177=EDGE_CURVE('',#146,#144,#65,.T.);
#178=EDGE_CURVE('',#146,#145,#66,.T.);
#179=EDGE_CURVE('',#145,#135,#67,.T.);
#180=EDGE_CURVE('',#137,#146,#68,.T.);
#181=EDGE_CURVE('',#147,#148,#69,.T.);
#182=EDGE_CURVE('',#149,#147,#70,.T.);
#183=EDGE_CURVE('',#150,#149,#71,.T.);
#184=EDGE_CURVE('',#148,#150,#72,.T.);
#185=EDGE_CURVE('',#151,#152,#73,.T.);
#186=EDGE_CURVE('',#153,#151,#74,.T.);
#187=EDGE_CURVE('',#154,#153,#75,.T.);
#188=EDGE_CURVE('',#154,#152,#76,.T.);
#189=EDGE_CURVE('',#152,#147,#77,.T.);
#190=EDGE_CURVE('',#149,#154,#78,.T.);
#191=EDGE_CURVE('',#155,#153,#79,.T.);
#192=EDGE_CURVE('',#156,#155,#80,.T.);
#193=EDGE_CURVE('',#157,#156,#81,.T.);
#194=EDGE_CURVE('',#158,#157,#82,.T.);
#195=EDGE_CURVE('',#150,#158,#83,.T.);
#196=EDGE_CURVE('',#159,#151,#84,.T.);
#197=EDGE_CURVE('',#155,#159,#85,.T.);
#198=EDGE_CURVE('',#158,#160,#86,.T.);
#199=EDGE_CURVE('',#148,#160,#87,.T.);
#200=EDGE_CURVE('',#161,#159,#88,.T.);
#201=EDGE_CURVE('',#156,#161,#89,.T.);
#202=EDGE_CURVE('',#162,#161,#90,.T.);
#203=EDGE_CURVE('',#157,#162,#91,.T.);
#204=EDGE_CURVE('',#160,#162,#92,.T.);
#205=ORIENTED_EDGE('',*,*,#163,.F.);
#206=ORIENTED_EDGE('',*,*,#164,.F.);
#207=ORIENTED_EDGE('',*,*,#165,.F.);
#208=ORIENTED_EDGE('',*,*,#166,.T.);
#209=ORIENTED_EDGE('',*,*,#167,.F.);
#210=ORIENTED_EDGE('',*,*,#166,.F.);
#211=ORIENTED_EDGE('',*,*,#168,.F.);
#212=ORIENTED_EDGE('',*,*,#169,.T.);
#213=ORIENTED_EDGE('',*,*,#170,.F.);
#214=ORIENTED_EDGE('',*,*,#169,.F.);
#215=ORIENTED_EDGE('',*,*,#171,.F.);
#216=ORIENTED_EDGE('',*,*,#172,.T.);
#217=ORIENTED_EDGE('',*,*,#173,.F.);
#218=ORIENTED_EDGE('',*,*,#172,.F.);
#219=ORIENTED_EDGE('',*,*,#174,.F.);
#220=ORIENTED_EDGE('',*,*,#175,.T.);
#221=ORIENTED_EDGE('',*,*,#176,.F.);
#222=ORIENTED_EDGE('',*,*,#175,.F.);
#223=ORIENTED_EDGE('',*,*,#177,.F.);
#224=ORIENTED_EDGE('',*,*,#178,.T.);
#225=ORIENTED_EDGE('',*,*,#179,.F.);
#226=ORIENTED_EDGE('',*,*,#178,.F.);
#227=ORIENTED_EDGE('',*,*,#180,.F.);
#228=ORIENTED_EDGE('',*,*,#164,.T.);
#229=ORIENTED_EDGE('',*,*,#181,.F.);
#230=ORIENTED_EDGE('',*,*,#182,.F.);
#231=ORIENTED_EDGE('',*,*,#183,.F.);
#232=ORIENTED_EDGE('',*,*,#184,.F.);
#233=ORIENTED_EDGE('',*,*,#185,.F.);
#234=ORIENTED_EDGE('',*,*,#186,.F.);
#235=ORIENTED_EDGE('',*,*,#187,.F.);
#236=ORIENTED_EDGE('',*,*,#188,.T.);
#237=ORIENTED_EDGE('',*,*,#189,.F.);
#238=ORIENTED_EDGE('',*,*,#188,.F.);
#239=ORIENTED_EDGE('',*,*,#190,.F.);
#240=ORIENTED_EDGE('',*,*,#182,.T.);
#241=ORIENTED_EDGE('',*,*,#183,.T.);
#242=ORIENTED_EDGE('',*,*,#190,.T.);
#243=ORIENTED_EDGE('',*,*,#187,.T.);
#244=ORIENTED_EDGE('',*,*,#191,.F.);
#245=ORIENTED_EDGE('',*,*,#192,.F.);
#246=ORIENTED_EDGE('',*,*,#193,.F.);
#247=ORIENTED_EDGE('',*,*,#194,.F.);
#248=ORIENTED_EDGE('',*,*,#195,.F.);
#249=ORIENTED_EDGE('',*,*,#165,.T.);
#250=ORIENTED_EDGE('',*,*,#180,.T.);
#251=ORIENTED_EDGE('',*,*,#177,.T.);
#252=ORIENTED_EDGE('',*,*,#174,.T.);
#253=ORIENTED_EDGE('',*,*,#171,.T.);
#254=ORIENTED_EDGE('',*,*,#168,.T.);
#255=ORIENTED_EDGE('',*,*,#186,.T.);
#256=ORIENTED_EDGE('',*,*,#196,.F.);
#257=ORIENTED_EDGE('',*,*,#197,.F.);
#258=ORIENTED_EDGE('',*,*,#191,.T.);
#259=ORIENTED_EDGE('',*,*,#184,.T.);
#260=ORIENTED_EDGE('',*,*,#195,.T.);
#261=ORIENTED_EDGE('',*,*,#198,.T.);
#262=ORIENTED_EDGE('',*,*,#199,.F.);
#263=ORIENTED_EDGE('',*,*,#192,.T.);
#264=ORIENTED_EDGE('',*,*,#197,.T.);
#265=ORIENTED_EDGE('',*,*,#200,.F.);
#266=ORIENTED_EDGE('',*,*,#201,.F.);
#267=ORIENTED_EDGE('',*,*,#193,.T.);
#268=ORIENTED_EDGE('',*,*,#201,.T.);
#269=ORIENTED_EDGE('',*,*,#202,.F.);
#270=ORIENTED_EDGE('',*,*,#203,.F.);
#271=ORIENTED_EDGE('',*,*,#194,.T.);
#272=ORIENTED_EDGE('',*,*,#203,.T.);
#273=ORIENTED_EDGE('',*,*,#204,.F.);
#274=ORIENTED_EDGE('',*,*,#198,.F.);
#275=ORIENTED_EDGE('',*,*,#181,.T.);
#276=ORIENTED_EDGE('',*,*,#199,.T.);
#277=ORIENTED_EDGE('',*,*,#204,.T.);
#278=ORIENTED_EDGE('',*,*,#202,.T.);
#279=ORIENTED_EDGE('',*,*,#200,.T.);
#280=ORIENTED_EDGE('',*,*,#196,.T.);
#281=ORIENTED_EDGE('',*,*,#185,.T.);
#282=ORIENTED_EDGE('',*,*,#189,.T.);
#283=ORIENTED_EDGE('',*,*,#163,.T.);
#284=ORIENTED_EDGE('',*,*,#167,.T.);
#285=ORIENTED_EDGE('',*,*,#170,.T.);
#286=ORIENTED_EDGE('',*,*,#173,.T.);
#287=ORIENTED_EDGE('',*,*,#176,.T.);
#288=ORIENTED_EDGE('',*,*,#179,.T.);
#289=PLANE('',#335);
#290=PLANE('',#336);
#291=PLANE('',#337);
#292=PLANE('',#338);
#293=PLANE('',#339);
#294=PLANE('',#340);
#295=PLANE('',#341);
#296=PLANE('',#342);
#297=PLANE('',#343);
#298=PLANE('',#344);
#299=PLANE('',#345);
#300=PLANE('',#346);
#301=PLANE('',#347);
#302=PLANE('',#348);
#303=PLANE('',#349);
#304=PLANE('',#350);
#305=ADVANCED_FACE('',(#17),#289,.F.);
#306=ADVANCED_FACE('',(#18),#290,.F.);
#307=ADVANCED_FACE('',(#19),#291,.F.);
#308=ADVANCED_FACE('',(#20),#292,.F.);
#309=ADVANCED_FACE('',(#21),#293,.F.);
#310=ADVANCED_FACE('',(#22),#294,.F.);
#311=ADVANCED_FACE('',(#23),#295,.F.);
#312=ADVANCED_FACE('',(#24),#296,.F.);
#313=ADVANCED_FACE('',(#25),#297,.F.);
#314=ADVANCED_FACE('',(#26,#15),#298,.F.);
#315=ADVANCED_FACE('',(#27),#299,.T.);
#316=ADVANCED_FACE('',(#28),#300,.T.);
#317=ADVANCED_FACE('',(#29),#301,.T.);
#318=ADVANCED_FACE('',(#30),#302,.T.);
#319=ADVANCED_FACE('',(#31),#303,.T.);
#320=ADVANCED_FACE('',(#32,#16),#304,.T.);
#321=CLOSED_SHELL('',(#305,#306,#307,#308,#309,#310,#311,#312,#313,#314,
#315,#316,#317,#318,#319,#320));
#322=DERIVED_UNIT_ELEMENT(#324,1.);
#323=DERIVED_UNIT_ELEMENT(#519,-3.);
#324=(
MASS_UNIT()
NAMED_UNIT(*)
SI_UNIT(.KILO.,.GRAM.)
);
#325=DERIVED_UNIT((#322,#323));
#326=MEASURE_REPRESENTATION_ITEM('density measure',
POSITIVE_RATIO_MEASURE(7850.),#325);
#327=PROPERTY_DEFINITION_REPRESENTATION(#332,#329);
#328=PROPERTY_DEFINITION_REPRESENTATION(#333,#330);
#329=REPRESENTATION('material name',(#331),#516);
#330=REPRESENTATION('density',(#326),#516);
#331=DESCRIPTIVE_REPRESENTATION_ITEM('Steel','Steel');
#332=PROPERTY_DEFINITION('material property','material name',#526);
#333=PROPERTY_DEFINITION('material property','density of part',#526);
#334=AXIS2_PLACEMENT_3D('',#427,#351,#352);
#335=AXIS2_PLACEMENT_3D('',#428,#353,#354);
#336=AXIS2_PLACEMENT_3D('',#437,#359,#360);
#337=AXIS2_PLACEMENT_3D('',#443,#364,#365);
#338=AXIS2_PLACEMENT_3D('',#449,#369,#370);
#339=AXIS2_PLACEMENT_3D('',#455,#374,#375);
#340=AXIS2_PLACEMENT_3D('',#461,#379,#380);
#341=AXIS2_PLACEMENT_3D('',#464,#383,#384);
#342=AXIS2_PLACEMENT_3D('',#473,#389,#390);
#343=AXIS2_PLACEMENT_3D('',#482,#395,#396);
#344=AXIS2_PLACEMENT_3D('',#485,#399,#400);
#345=AXIS2_PLACEMENT_3D('',#495,#406,#407);
#346=AXIS2_PLACEMENT_3D('',#499,#410,#411);
#347=AXIS2_PLACEMENT_3D('',#503,#414,#415);
#348=AXIS2_PLACEMENT_3D('',#507,#418,#419);
#349=AXIS2_PLACEMENT_3D('',#511,#422,#423);
#350=AXIS2_PLACEMENT_3D('',#513,#425,#426);
#351=DIRECTION('axis',(0.,0.,1.));
#352=DIRECTION('refdir',(1.,0.,0.));
#353=DIRECTION('center_axis',(-0.866025403784439,0.,0.5));
#354=DIRECTION('ref_axis',(0.5,0.,0.866025403784439));
#355=DIRECTION('',(-0.5,0.,-0.866025403784439));
#356=DIRECTION('',(0.,1.,0.));
#357=DIRECTION('',(0.5,0.,0.866025403784439));
#358=DIRECTION('',(0.,1.,0.));
#359=DIRECTION('center_axis',(-0.866025403784439,0.,-0.5));
#360=DIRECTION('ref_axis',(-0.5,0.,0.866025403784439));
#361=DIRECTION('',(0.5,0.,-0.866025403784439));
#362=DIRECTION('',(-0.5,0.,0.866025403784439));
#363=DIRECTION('',(0.,1.,0.));
#364=DIRECTION('center_axis',(1.39484361505994E-16,0.,-1.));
#365=DIRECTION('ref_axis',(-1.,0.,-1.39484361505994E-16));
#366=DIRECTION('',(1.,0.,1.39484361505994E-16));
#367=DIRECTION('',(-1.,0.,-1.39484361505994E-16));
#368=DIRECTION('',(0.,1.,0.));
#369=DIRECTION('center_axis',(0.866025403784439,0.,-0.499999999999999));
#370=DIRECTION('ref_axis',(-0.499999999999999,0.,-0.866025403784439));
#371=DIRECTION('',(0.499999999999999,0.,0.866025403784439));
#372=DIRECTION('',(-0.499999999999999,0.,-0.866025403784439));
#373=DIRECTION('',(0.,1.,0.));
#374=DIRECTION('center_axis',(0.866025403784439,0.,0.5));
#375=DIRECTION('ref_axis',(0.5,0.,-0.866025403784438));
#376=DIRECTION('',(-0.5,0.,0.866025403784438));
#377=DIRECTION('',(0.5,0.,-0.866025403784438));
#378=DIRECTION('',(0.,1.,0.));
#379=DIRECTION('center_axis',(0.,0.,1.));
#380=DIRECTION('ref_axis',(1.,0.,0.));
#381=DIRECTION('',(-1.,0.,0.));
#382=DIRECTION('',(1.,0.,0.));
#383=DIRECTION('center_axis',(-1.,0.,0.));
#384=DIRECTION('ref_axis',(0.,0.,1.));
#385=DIRECTION('',(0.,0.,-1.));
#386=DIRECTION('',(0.,1.,0.));
#387=DIRECTION('',(0.,0.,1.));
#388=DIRECTION('',(0.,-1.,0.));
#389=DIRECTION('center_axis',(1.,0.,0.));
#390=DIRECTION('ref_axis',(0.,0.,-1.));
#391=DIRECTION('',(0.,0.,1.));
#392=DIRECTION('',(0.,1.,0.));
#393=DIRECTION('',(0.,0.,-1.));
#394=DIRECTION('',(0.,1.,0.));
#395=DIRECTION('center_axis',(0.,0.,1.));
#396=DIRECTION('ref_axis',(1.,0.,0.));
#397=DIRECTION('',(-1.,0.,0.));
#398=DIRECTION('',(1.,0.,0.));
#399=DIRECTION('center_axis',(0.,1.,0.));
#400=DIRECTION('ref_axis',(1.,0.,0.));
#401=DIRECTION('',(-1.,0.,1.29629181422083E-16));
#402=DIRECTION('',(0.,0.,-1.));
#403=DIRECTION('',(1.,0.,0.));
#404=DIRECTION('',(0.755928946018664,0.,0.654653670707735));
#405=DIRECTION('',(-1.,0.,1.29629181422083E-16));
#406=DIRECTION('center_axis',(-1.29629181422083E-16,0.,-1.));
#407=DIRECTION('ref_axis',(-1.,0.,1.29629181422083E-16));
#408=DIRECTION('',(-1.,0.,1.29629181422083E-16));
#409=DIRECTION('',(0.,1.,0.));
#410=DIRECTION('center_axis',(-1.29629181422083E-16,0.,-1.));
#411=DIRECTION('ref_axis',(-1.,0.,1.29629181422083E-16));
#412=DIRECTION('',(0.,1.,0.));
#413=DIRECTION('',(-1.,0.,1.29629181422083E-16));
#414=DIRECTION('center_axis',(1.,0.,0.));
#415=DIRECTION('ref_axis',(0.,0.,-1.));
#416=DIRECTION('',(0.,0.,-1.));
#417=DIRECTION('',(0.,1.,0.));
#418=DIRECTION('center_axis',(0.,0.,1.));
#419=DIRECTION('ref_axis',(1.,0.,0.));
#420=DIRECTION('',(1.,0.,0.));
#421=DIRECTION('',(0.,1.,0.));
#422=DIRECTION('center_axis',(-0.654653670707735,0.,0.755928946018664));
#423=DIRECTION('ref_axis',(0.755928946018664,0.,0.654653670707735));
#424=DIRECTION('',(0.755928946018664,0.,0.654653670707735));
#425=DIRECTION('center_axis',(0.,1.,0.));
#426=DIRECTION('ref_axis',(0.,0.,1.));
#427=CARTESIAN_POINT('',(0.,0.,0.));
#428=CARTESIAN_POINT('Origin',(32.1993977165069,0.,11.8931121224688));
#429=CARTESIAN_POINT('',(36.1791378559685,5.,18.7862242449375));
#430=CARTESIAN_POINT('',(32.1993977165069,5.,11.8931121224688));
#431=CARTESIAN_POINT('',(37.3459315912023,5.,20.8071702763156));
#432=CARTESIAN_POINT('',(36.1791378559685,0.,18.7862242449375));
#433=CARTESIAN_POINT('',(36.1791378559685,0.,18.7862242449375));
#434=CARTESIAN_POINT('',(32.1993977165069,0.,11.8931121224688));
#435=CARTESIAN_POINT('',(37.3459315912023,0.,20.8071702763156));
#436=CARTESIAN_POINT('',(32.1993977165069,0.,11.8931121224688));
#437=CARTESIAN_POINT('Origin',(36.1791378559685,0.,5.));
#438=CARTESIAN_POINT('',(36.1791378559685,5.,5.));
#439=CARTESIAN_POINT('',(34.7428844824155,5.,7.48766381553596));
#440=CARTESIAN_POINT('',(36.1791378559685,0.,5.));
#441=CARTESIAN_POINT('',(34.7428844824155,0.,7.48766381553596));
#442=CARTESIAN_POINT('',(36.1791378559685,0.,5.));
#443=CARTESIAN_POINT('Origin',(44.1386181348917,0.,5.));
#444=CARTESIAN_POINT('',(44.1386181348917,5.,5.));
#445=CARTESIAN_POINT('',(49.5693090674458,5.,5.));
#446=CARTESIAN_POINT('',(44.1386181348917,0.,5.));
#447=CARTESIAN_POINT('',(49.5693090674458,0.,5.));
#448=CARTESIAN_POINT('',(44.1386181348917,0.,5.));
#449=CARTESIAN_POINT('Origin',(48.1183582743533,0.,11.8931121224688));
#450=CARTESIAN_POINT('',(48.1183582743533,5.,11.8931121224688));
#451=CARTESIAN_POINT('',(51.2750220793179,5.,17.3606142150812));
#452=CARTESIAN_POINT('',(48.1183582743533,0.,11.8931121224688));
#453=CARTESIAN_POINT('',(51.2750220793179,0.,17.3606142150812));
#454=CARTESIAN_POINT('',(48.1183582743533,0.,11.8931121224688));
#455=CARTESIAN_POINT('Origin',(44.1386181348917,0.,18.7862242449375));
#456=CARTESIAN_POINT('',(44.1386181348917,5.,18.7862242449375));
#457=CARTESIAN_POINT('',(44.6922348310695,5.,17.8273319992391));
#458=CARTESIAN_POINT('',(44.1386181348917,0.,18.7862242449375));
#459=CARTESIAN_POINT('',(44.6922348310695,0.,17.8273319992391));
#460=CARTESIAN_POINT('',(44.1386181348917,0.,18.7862242449375));
#461=CARTESIAN_POINT('Origin',(36.1791378559685,0.,18.7862242449375));
#462=CARTESIAN_POINT('',(45.5895689279842,5.,18.7862242449375));
#463=CARTESIAN_POINT('',(45.5895689279842,0.,18.7862242449375));
#464=CARTESIAN_POINT('Origin',(55.,0.,0.));
#465=CARTESIAN_POINT('',(55.,5.,30.));
#466=CARTESIAN_POINT('',(55.,5.,0.));
#467=CARTESIAN_POINT('',(55.,5.,11.25));
#468=CARTESIAN_POINT('',(55.,0.,30.));
#469=CARTESIAN_POINT('',(55.,0.,30.));
#470=CARTESIAN_POINT('',(55.,0.,0.));
#471=CARTESIAN_POINT('',(55.,0.,11.25));
#472=CARTESIAN_POINT('',(55.,0.,7.12960497821457E-15));
#473=CARTESIAN_POINT('Origin',(85.,0.,30.));
#474=CARTESIAN_POINT('',(85.,5.,0.));
#475=CARTESIAN_POINT('',(85.,5.,30.));
#476=CARTESIAN_POINT('',(85.,5.,26.25));
#477=CARTESIAN_POINT('',(85.,0.,0.));
#478=CARTESIAN_POINT('',(85.,0.,2.22044604925031E-15));
#479=CARTESIAN_POINT('',(85.,0.,30.));
#480=CARTESIAN_POINT('',(85.,0.,26.25));
#481=CARTESIAN_POINT('',(85.,0.,30.));
#482=CARTESIAN_POINT('Origin',(55.,0.,30.));
#483=CARTESIAN_POINT('',(55.,5.,30.));
#484=CARTESIAN_POINT('',(55.,0.,30.));
#485=CARTESIAN_POINT('Origin',(55.,0.,22.5));
#486=CARTESIAN_POINT('',(110.,0.,0.));
#487=CARTESIAN_POINT('',(110.,0.,0.));
#488=CARTESIAN_POINT('',(110.,0.,45.));
#489=CARTESIAN_POINT('',(110.,0.,45.));
#490=CARTESIAN_POINT('',(51.9615242271,0.,45.));
#491=CARTESIAN_POINT('',(51.9615242271,0.,45.));
#492=CARTESIAN_POINT('',(0.,0.,0.));
#493=CARTESIAN_POINT('',(0.,0.,0.));
#494=CARTESIAN_POINT('',(110.,0.,0.));
#495=CARTESIAN_POINT('Origin',(110.,0.,0.));
#496=CARTESIAN_POINT('',(110.,5.,0.));
#497=CARTESIAN_POINT('',(110.,5.,0.));
#498=CARTESIAN_POINT('',(110.,0.,0.));
#499=CARTESIAN_POINT('Origin',(110.,0.,0.));
#500=CARTESIAN_POINT('',(0.,5.,0.));
#501=CARTESIAN_POINT('',(0.,0.,0.));
#502=CARTESIAN_POINT('',(110.,5.,0.));
#503=CARTESIAN_POINT('Origin',(110.,0.,45.));
#504=CARTESIAN_POINT('',(110.,5.,45.));
#505=CARTESIAN_POINT('',(110.,5.,45.));
#506=CARTESIAN_POINT('',(110.,0.,45.));
#507=CARTESIAN_POINT('Origin',(51.9615242271,0.,45.));
#508=CARTESIAN_POINT('',(51.9615242271,5.,45.));
#509=CARTESIAN_POINT('',(51.9615242271,5.,45.));
#510=CARTESIAN_POINT('',(51.9615242271,0.,45.));
#511=CARTESIAN_POINT('Origin',(0.,0.,0.));
#512=CARTESIAN_POINT('',(0.,5.,0.));
#513=CARTESIAN_POINT('Origin',(55.,5.,22.5));
#514=UNCERTAINTY_MEASURE_WITH_UNIT(LENGTH_MEASURE(0.01),#518,
'DISTANCE_ACCURACY_VALUE',
'Maximum model space distance between geometric entities at asserted c
onnectivities');
#515=UNCERTAINTY_MEASURE_WITH_UNIT(LENGTH_MEASURE(0.01),#518,
'DISTANCE_ACCURACY_VALUE',
'Maximum model space distance between geometric entities at asserted c
onnectivities');
#516=(
GEOMETRIC_REPRESENTATION_CONTEXT(3)
GLOBAL_UNCERTAINTY_ASSIGNED_CONTEXT((#514))
GLOBAL_UNIT_ASSIGNED_CONTEXT((#518,#520,#521))
REPRESENTATION_CONTEXT('','3D')
);
#517=(
GEOMETRIC_REPRESENTATION_CONTEXT(3)
GLOBAL_UNCERTAINTY_ASSIGNED_CONTEXT((#515))
GLOBAL_UNIT_ASSIGNED_CONTEXT((#518,#520,#521))
REPRESENTATION_CONTEXT('','3D')
);
#518=(
LENGTH_UNIT()
NAMED_UNIT(*)
SI_UNIT(.MILLI.,.METRE.)
);
#519=(
LENGTH_UNIT()
NAMED_UNIT(*)
SI_UNIT($,.METRE.)
);
#520=(
NAMED_UNIT(*)
PLANE_ANGLE_UNIT()
SI_UNIT($,.RADIAN.)
);
#521=(
NAMED_UNIT(*)
SI_UNIT($,.STERADIAN.)
SOLID_ANGLE_UNIT()
);
#522=SHAPE_DEFINITION_REPRESENTATION(#523,#524);
#523=PRODUCT_DEFINITION_SHAPE('',$,#526);
#524=SHAPE_REPRESENTATION('',(#334),#516);
#525=PRODUCT_DEFINITION_CONTEXT('part definition',#530,'design');
#526=PRODUCT_DEFINITION('2026-06-29-19-42-22-041',
'base_2nd_chasis_pillar',#527,#525);
#527=PRODUCT_DEFINITION_FORMATION('',$,#532);
#528=PRODUCT_RELATED_PRODUCT_CATEGORY('base_2nd_chasis_pillar',
'base_2nd_chasis_pillar',(#532));
#529=APPLICATION_PROTOCOL_DEFINITION('international standard',
'automotive_design',2009,#530);
#530=APPLICATION_CONTEXT(
'Core Data for Automotive Mechanical Design Process');
#531=PRODUCT_CONTEXT('part definition',#530,'mechanical');
#532=PRODUCT('2026-06-29-19-42-22-041','base_2nd_chasis_pillar',$,(#531));
#533=PRESENTATION_STYLE_ASSIGNMENT((#535));
#534=PRESENTATION_STYLE_ASSIGNMENT((#536));
#535=SURFACE_STYLE_USAGE(.BOTH.,#537);
#536=SURFACE_STYLE_USAGE(.BOTH.,#538);
#537=SURFACE_SIDE_STYLE('',(#539));
#538=SURFACE_SIDE_STYLE('',(#540));
#539=SURFACE_STYLE_FILL_AREA(#541);
#540=SURFACE_STYLE_FILL_AREA(#542);
#541=FILL_AREA_STYLE('Steel - Satin',(#543));
#542=FILL_AREA_STYLE('ABS (White)',(#544));
#543=FILL_AREA_STYLE_COLOUR('Steel - Satin',#545);
#544=FILL_AREA_STYLE_COLOUR('ABS (White)',#546);
#545=COLOUR_RGB('Steel - Satin',0.627450980392157,0.627450980392157,0.627450980392157);
#546=COLOUR_RGB('ABS (White)',0.964705882352941,0.964705882352941,0.952941176470588);
ENDSEC;
END-ISO-10303-21;
